<svg xmlns="http://www.w3.org/2000/svg" width="90" height="90" viewBox="0 0 90 90"><g id="Ahmedabad" transform="translate(-20 -433)"><g id="Group_65237" data-name="Group 65237" transform="translate(2)"><path id="Rectangle_14918" fill="#fff" d="M0 0h90v90H0z" data-name="Rectangle 14918" transform="translate(18 433)"/><path id="Ahmedabad-2" fill="#ec1579" d="M65.6 26.9a.515.515 0 0 0-.546.546v.654a2.1 2.1 0 0 0-1.637 2.073v1.091h-.546a.515.515 0 0 0-.546.546v2.182a.515.515 0 0 0 .546.546h.546v2.182h-.546a.515.515 0 0 0-.546.546v2.182a.515.515 0 0 0 .546.546h.546v4.364h-1.636a.515.515 0 0 0-.546.546v3.273a.515.515 0 0 0 .546.546h.546v6.547h-.655a6.861 6.861 0 0 0-2.4-2.619l-4.146-2.51v-.982a.546.546 0 0 0-1.091 0v.982l-4.146 2.728a6.285 6.285 0 0 0-2.291 2.51h-.655v-6.548h.546a.515.515 0 0 0 .546-.546v-3.273a.515.515 0 0 0-.546-.546h-1.638V40.1h.549a.515.515 0 0 0 .546-.546v-2.179a.515.515 0 0 0-.546-.546h-.546v-2.182h.546a.515.515 0 0 0 .546-.546v-2.182a.515.515 0 0 0-.546-.546h-.546v-1.091a2.1 2.1 0 0 0-1.637-2.073v-.655a.546.546 0 1 0-1.091 0v.655a2.1 2.1 0 0 0-1.637 2.073v1.091h-.546a.515.515 0 0 0-.546.546V34.1a.515.515 0 0 0 .546.546h.546v2.182h-.546a.515.515 0 0 0-.546.546v2.182a.515.515 0 0 0 .546.546h.546v4.364H39.85a.515.515 0 0 0-.546.546v3.273a.515.515 0 0 0 .546.546h.55v6.547h-.55a.515.515 0 0 0-.546.546V59.2a.515.515 0 0 0 .546.546h.55v3.273h-2.51a6.024 6.024 0 0 0-3.6-4.583l-5.128-2.51v-.766a.515.515 0 0 0-.546-.546.585.585 0 0 0-.546.546v.764l-5.128 2.51a6.024 6.024 0 0 0-3.6 4.583h-2.4a.515.515 0 0 0-.546.546V65.2h-.546a.515.515 0 0 0-.546.546v3.273a.515.515 0 0 0 .546.546h.546V87.02h-.546a.546.546 0 1 0 0 1.091h77.464a.546.546 0 0 0 0-1.091h-.546V69.562h.546a.515.515 0 0 0 .546-.546v-3.273a.515.515 0 0 0-.546-.546h-.546v-1.636a.515.515 0 0 0-.546-.546h-3.054a6.024 6.024 0 0 0-3.6-4.583l-5.128-2.51v-.762a.515.515 0 0 0-.546-.546.585.585 0 0 0-.546.546v.764l-5.019 2.4a6.024 6.024 0 0 0-3.6 4.583h-1.856v-3.274h.546a.515.515 0 0 0 .546-.546v-3.273a.515.515 0 0 0-.546-.546h-.546v-6.546h.546a.515.515 0 0 0 .546-.546V44.9a.515.515 0 0 0-.546-.546h-1.637v-4.361h.546a.515.515 0 0 0 .546-.546v-2.182a.515.515 0 0 0-.546-.546h-.546v-2.181h.546a.515.515 0 0 0 .546-.546V31.81a.515.515 0 0 0-.546-.546h-.546v-1.091a2.1 2.1 0 0 0-1.637-2.073v-.655a.515.515 0 0 0-.545-.545Zm-21.931 2.291a1.173 1.173 0 0 1 1.091 1.091v1.091h-2.182v-1.091a1.093 1.093 0 0 1 1.091-1.091Zm21.822 0a1.173 1.173 0 0 1 1.091 1.091v1.091H64.4v-1.091a1.093 1.093 0 0 1 1.091-1.091Zm-24 3.273h4.364v1.091h-4.369Zm21.822 0h4.364v1.091h-4.368Zm-20.735 2.183h2.182v2.182h-2.182Zm21.822 0h2.182v2.182H64.4ZM41.486 37.92h4.364v1.091h-4.364Zm21.822 0h4.364v1.091h-4.363Zm-20.73 2.18h2.182v4.364h-2.182Zm21.822 0h2.182v4.364H64.4Zm-24 5.456h6.547v2.184H40.4Zm21.822 0h6.547v2.184h-6.552v-2.182Zm-20.736 3.275h4.364v6.547h-4.364Zm21.822 0h4.364v6.547h-4.363Zm-8.729 2.4 4.037 2.51a5.132 5.132 0 0 1 2.51 4.364v.546H48.033v-.546a5.03 5.03 0 0 1 2.51-4.364ZM40.4 56.469h6.547v2.182H40.4Zm21.822 0h6.547v2.182h-6.552v-2.182Zm-33.606.436 5.128 2.51a5.146 5.146 0 0 1 3.055 3.6H20.428a4.953 4.953 0 0 1 3.055-3.6Zm51.282 0 5.128 2.51a4.977 4.977 0 0 1 2.946 3.6H71.71a4.775 4.775 0 0 1 3.055-3.6Zm-38.412 2.837h4.364V87.02h-4.364Zm5.456 0h2.182v1.091h-2.182Zm3.273 0H52.4v1.091h-2.185Zm3.273 0h2.182v1.091h-2.181Zm3.273 0h2.182v1.091h-2.181Zm3.273 0h2.182v1.091h-2.181Zm3.273 0h4.364V87.02h-4.362Zm-16.365 2.182h15.275v2.182H46.942Zm-29.46 2.182h1.091V65.2h-1.091Zm2.182 0h2.182V65.2h-2.182Zm3.273 0h2.183V65.2h-2.182Zm3.273 0h2.182V65.2h-2.181Zm3.273 0h2.182V65.2h-2.181Zm3.273 0h2.184V65.2h-2.182Zm3.273 0h2.182V65.2h-2.18Zm3.273 0H40.4V65.2h-1.1Zm29.46 0h1.091V65.2h-1.089Zm2.182 0h2.182V65.2h-2.18Zm3.273 0H76.4V65.2h-2.18Zm3.273 0h2.182V65.2h-2.179Zm3.273 0h2.182V65.2h-2.179Zm3.273 0h2.182V65.2h-2.179Zm3.273 0h2.182V65.2h-2.178Zm3.273 0h1.091V65.2h-1.087ZM46.942 65.2h15.275v9.056a10.613 10.613 0 0 0-4.255-4.8L54.8 67.489a.487.487 0 0 0-.546 0l-3.164 2.073a11.028 11.028 0 0 0-4.146 4.8V65.2Zm-30.551 1.089h24v2.182h-24Zm52.373 0h24v2.182h-24ZM54.58 68.58l2.837 1.855a10.062 10.062 0 0 1 4.8 8.729v7.856H46.942v-7.856a10.331 10.331 0 0 1 4.8-8.729l2.838-1.855Zm-36.988.982H40.4V87.02h-5.46v-7.2a7.547 7.547 0 0 0-3.6-6.547l-2.073-1.309a.487.487 0 0 0-.546 0l-2.073 1.309a7.68 7.68 0 0 0-3.6 6.547v7.2h-5.457V69.562Zm51.282 0h22.912V87.02h-5.564v-7.2a7.547 7.547 0 0 0-3.6-6.547l-2.073-1.309a.487.487 0 0 0-.546 0l-2.073 1.309a7.68 7.68 0 0 0-3.6 6.547v7.2h-5.457Zm-45.718 1.419a1.637 1.637 0 1 0 1.637 1.637 1.678 1.678 0 0 0-1.637-1.637Zm10.911 0a1.637 1.637 0 1 0 1.633 1.636 1.678 1.678 0 0 0-1.633-1.636Zm40.371 0a1.637 1.637 0 1 0 1.637 1.637 1.678 1.678 0 0 0-1.637-1.637Zm10.911 0a1.637 1.637 0 1 0 1.637 1.637 1.678 1.678 0 0 0-1.637-1.637Zm-62.193 1.091a.546.546 0 1 1-.546.546.515.515 0 0 1 .546-.546Zm10.911 0a.546.546 0 1 1-.546.546.515.515 0 0 1 .546-.546Zm40.371 0a.546.546 0 1 1-.546.546.515.515 0 0 1 .546-.546Zm10.911 0a.546.546 0 1 1-.546.546.515.515 0 0 1 .546-.546Zm-56.41.982 1.746 1.091a6.683 6.683 0 0 1 3.164 5.674v7.2h-9.82v-7.091a6.989 6.989 0 0 1 3.055-5.674Zm51.282 0 1.746 1.091a6.683 6.683 0 0 1 3.164 5.674v7.2h-9.82v-7.091a6.989 6.989 0 0 1 3.055-5.674Zm-60 6.356a.322.322 0 0 0-.232.082l-.436.327a1.924 1.924 0 0 0-.873 1.637V83.2a.515.515 0 0 0 .546.546h2.184a.515.515 0 0 0 .546-.546v-1.745a2.354 2.354 0 0 0-.982-1.746l-.436-.218a.712.712 0 0 0-.314-.082Zm51.282 0a.322.322 0 0 0-.232.082l-.436.327a1.924 1.924 0 0 0-.873 1.637V83.2a.515.515 0 0 0 .546.546h2.182a.515.515 0 0 0 .546-.546v-1.745a2.354 2.354 0 0 0-.982-1.746l-.436-.218a.712.712 0 0 0-.313-.082Zm17.458 0a.322.322 0 0 0-.232.082l-.436.327a1.924 1.924 0 0 0-.873 1.637V83.2a.515.515 0 0 0 .546.546h2.184a.515.515 0 0 0 .55-.546v-1.745a2.354 2.354 0 0 0-.982-1.746l-.436-.218a.712.712 0 0 0-.313-.082Zm-51.282.109a.322.322 0 0 0-.232.081l-.436.328a1.924 1.924 0 0 0-.873 1.637v1.745c-.109.218.109.436.436.436h2.182a.515.515 0 0 0 .544-.546v-1.745a1.924 1.924 0 0 0-.873-1.637l-.436-.218a.712.712 0 0 0-.314-.082ZM20.21 80.582l.109.109a1.1 1.1 0 0 1 .436.764v1.2h-1.091v-1.2a.822.822 0 0 1 .434-.764l.111-.109Zm17.458 0 .109.109a1.1 1.1 0 0 1 .436.764v1.2h-1.091v-1.2a.822.822 0 0 1 .434-.764l.111-.109Zm33.824 0 .109.109a1.1 1.1 0 0 1 .436.764v1.2h-1.091v-1.2a.822.822 0 0 1 .434-.764l.111-.109Zm17.458 0 .109.109a1.1 1.1 0 0 1 .436.764v1.2H88.4v-1.2a.822.822 0 0 1 .434-.764l.111-.109Z" data-name="Ahmedabad" transform="translate(8.42 421.873)"/></g></g></svg>