<svg xmlns="http://www.w3.org/2000/svg" width="90" height="90" viewBox="0 0 90 90"><g id="Chandigarh" transform="translate(-280 -299)"><path id="Rectangle_14915" fill="#fff" d="M0 0h90v90H0z" data-name="Rectangle 14915" transform="translate(280 299)"/><g id="Chandigarh-2" fill="#ec1579" data-name="Chandigarh" transform="translate(290.547 310.508)"><path id="Path_72786" d="M33.618 2ZM31.1 2Zm5.034 0Zm-2.516 0ZM31.1 2Zm5.034 0Zm-2.516 0ZM31.1 2Zm5.034 0Zm-1.31 0Zm-2.517 0Zm5.034 0Z" data-name="Path 72786" transform="translate(.837 .024)"/><path id="Path_72787" d="M33.618 2ZM31.1 2Zm5.034 0Z" data-name="Path 72787" transform="translate(.837 .024)"/><path id="Path_72788" d="m19.277 7.21 4.915 3.1a2.748 2.748 0 0 0 1.917.316 2.72 2.72 0 0 1-.869-.316l-4.915-3.1a.99.99 0 0 0-1.169-.066 1.13 1.13 0 0 1 .12.066Z" data-name="Path 72788" transform="translate(.252 .268)"/><path id="Path_72789" d="M32.618 2ZM30.1 2Zm5.034 0Z" data-name="Path 72789" transform="translate(.788 .024)"/><path id="Path_72790" d="M45.5 62.1h2.1V60a2.1 2.1 0 0 1-2.1 2.1Z" data-name="Path 72790" transform="translate(1.541 2.862)"/><path id="Path_72791" d="M36.971 1.5a1.784 1.784 0 0 0-1.783 1.783v1.888a.527.527 0 0 0 1.049 0V3.283a.734.734 0 0 1 1.467 0l-.029 10.107c0 .05.01.089.013.136q-1.161-.224-2.339-.341a.524.524 0 0 0-.262-.027 24.153 24.153 0 0 0-3.829-.067c-.51.034-1.017.086-1.523.151v-.729a.524.524 0 1 0-1.049 0v.892a24.808 24.808 0 0 0-7.594 2.646l-1.483-7.505c-.076-.361-.031-.636.116-.73a.539.539 0 0 1 .572.1l4.933 3.11a3.3 3.3 0 0 0 4.238-.829 2.44 2.44 0 0 0 .444-.94l1.283-5.869a.567.567 0 0 0 .012-.111.733.733 0 1 1 1.465 0v1.894a.523.523 0 1 0 1.047 0V3.284a1.782 1.782 0 0 0-3.563-.059l-1.187 5.523L28.9 9a1.477 1.477 0 0 1-.259.562 2.245 2.245 0 0 1-2.866.573l-4.889-3.079a1.538 1.538 0 0 0-1.727-.121 1.6 1.6 0 0 0-.58 1.819l1.6 8.108c1.093 5.538 2.426 8.042 7.455 8.316v7.789H17.67a.524.524 0 0 0-.524.524v30.944h-2.623a.524.524 0 0 0 0 1.049h39.859a.524.524 0 1 0 0-1.049h-2.621V33.492a.524.524 0 0 0-.524-.524H30.783v-7.833l.6-.039c.215-.017.425-.057.638-.086.018 0 .035.006.052.006h.008a.534.534 0 0 0 .206-.043 13.326 13.326 0 0 0 4.154-1.44 21.709 21.709 0 0 0 4.756-3.481l.828-.785a3.726 3.726 0 0 1 2.675-1.008l2.624.237a2.314 2.314 0 0 0 2.631-1.514 2.15 2.15 0 0 0-1.371-2.717l-3.912-1.29a2.047 2.047 0 0 0-1.55.031.556.556 0 0 0-.1.058c-1.139.863-3.091 1.9-3.873 1.521-.287-.144-.434-.546-.434-1.2l.034-10.106A1.785 1.785 0 0 0 36.971 1.5Zm-5.664 5.507a.262.262 0 0 0 0 .524h1.049a.262.262 0 1 0 0-.524Zm4.2 0a.262.262 0 1 0 0 .524h1.049a.262.262 0 0 0 0-.524Zm-2.1 2.1a.262.262 0 0 0 0 .524h1.049a.262.262 0 0 0 0-.524Zm-2.1 2.1a.262.262 0 1 0 0 .524h1.049a.262.262 0 0 0 0-.524Zm4.2 0a.262.262 0 1 0 0 .524h1.049a.262.262 0 0 0 0-.524Zm8.469 2.682a1.609 1.609 0 0 1 .382.086l3.912 1.288a1.1 1.1 0 0 1 .64.552 1.093 1.093 0 0 1 .069.821c-.171.451-.493.907-1.552.819l-2.643-.239a4.855 4.855 0 0 0-3.484 1.29l-.828.785a20.712 20.712 0 0 1-4.518 3.309A12.211 12.211 0 0 1 32 23.957a1.861 1.861 0 0 1-1.5-2.778.525.525 0 1 0-.914-.518 2.9 2.9 0 0 0 .451 3.47l-.176.01q-.2.013-.406.013h-.839c-4.924 0-6.187-1.689-7.282-6.921h7.873a.524.524 0 0 0 .524-.524v-2.4c.4-.055.8-.09 1.206-.126l.441 1.982a1.52 1.52 0 0 0 1.481 1.071h.045a1.536 1.536 0 0 0 1.51-1.051l.408-1.612.282 1.468a1.561 1.561 0 0 0 1.5 1.195h.033a1.565 1.565 0 0 0 1.516-1.165l.176-.808a1.5 1.5 0 0 0 .365.262 2.658 2.658 0 0 0 1.9 0 3.365 3.365 0 0 0 2.282.92 3.413 3.413 0 0 0 1.279-.25.266.266 0 0 0 .155-.191.257.257 0 0 0-.065-.236 3.9 3.9 0 0 1-.932-1.628c.092-.065.249-.168.3-.206a.788.788 0 0 1 .359-.052Zm-11 .207c.294 0 .587.024.881.037l-.443 1.76a.469.469 0 0 1-.527.3.507.507 0 0 1-.49-.283L32 14.121c.325-.013.648-.031.973-.029Zm2.864.2q.792.1 1.575.254l-.276 1.261a.489.489 0 0 1-.513.377.5.5 0 0 1-.493-.371l-.294-1.52Zm7.033.152a4.418 4.418 0 0 0 .73 1.382 2.846 2.846 0 0 1-2.423-.5 10.727 10.727 0 0 0 1.693-.879Zm-14.187.022v1.717h-5.508a23.82 23.82 0 0 1 5.507-1.717Zm0 10.738h1.049v7.762h-1.05ZM18.2 34.017h32.512v30.418h-1.049V35.59a.524.524 0 0 0-.524-.524h-29.37a.524.524 0 0 0-.524.524v28.845H18.2Zm2.1 2.1h7.342v20.976h-.524a.524.524 0 0 0-.524.524v6.818h-6.3Zm8.391 0h1.049v20.976h-1.055Zm2.1 0h17.823V50.29a2.6 2.6 0 0 0-1.573-.539H36.552a2.624 2.624 0 0 0-2.622 2.622v10.489a2.6 2.6 0 0 0 .539 1.573h-2.637v-6.818a.524.524 0 0 0-.524-.524h-.524ZM36.552 50.8h10.489a1.575 1.575 0 0 1 1.573 1.573v10.489a1.575 1.575 0 0 1-1.573 1.573H36.552a1.575 1.575 0 0 1-1.573-1.573V52.373a1.575 1.575 0 0 1 1.573-1.573Zm-8.916 7.342h3.147v6.294h-3.147Z" data-name="Path 72791"/><path id="Path_72792" d="M34.842 5.7a.524.524 0 0 1-.524-.524V3.283a.734.734 0 1 0-1.468 0v1.888a.524.524 0 0 1-1.049 0V3.283a1.783 1.783 0 1 1 3.566 0v1.888a.524.524 0 0 1-.525.529Z" data-name="Path 72792" transform="translate(.871)"/></g></g></svg>