<svg xmlns="http://www.w3.org/2000/svg" width="90" height="90" viewBox="0 0 90 90"><g id="Delhi" transform="translate(-280 -165)"><g id="Group_65229" data-name="Group 65229" transform="translate(-7)"><path id="Rectangle_14914" fill="#fff" d="M0 0h90v90H0z" data-name="Rectangle 14914" transform="translate(287 165)"/><path id="Delhi-2" fill="#ec1579" d="M45.995 27a.5.5 0 0 0-.5.5v1.55a3.486 3.486 0 0 0-2.95 2.95H40a.5.5 0 0 0-.5.5V34H34a.5.5 0 0 0-.5.5V43H31a.5.5 0 0 0-.5.5V46H29a.5.5 0 0 0-.5.5V50H26a.5.5 0 0 0-.447.725l2.947 5.887V66.99H28a.5.5 0 0 0 0 1h.5v6h-1.437a.5.5 0 0 0-.416.777l1.853 2.776v9.443H28a.5.5 0 0 0 0 1h.5v2h-4a.5.5 0 0 0 0 1h50.987a.5.5 0 0 0 0-1h-4v-2h.5a.5.5 0 0 0 0-1h-.5V77.64l1.913-2.875a.5.5 0 0 0-.416-.777h-1.5v-6h.5a.5.5 0 0 0 0-1h-.5V56.61l2.946-5.893a.5.5 0 0 0-.447-.723h-2.5V46.5a.5.5 0 0 0-.5-.5h-1.5v-2.5a.5.5 0 0 0-.5-.5h-2.5v-8.5a.5.5 0 0 0-.5-.5h-5.5v-1.5a.5.5 0 0 0-.5-.5h-2.541c-.01-.067-.007-.139-.02-.2a3.5 3.5 0 0 0-2.929-2.743V27.5a.5.5 0 0 0-.5-.5Zm.5 1h7v1h-7Zm-.5 2h8a2.5 2.5 0 0 1 2.45 2h-12.9a2.5 2.5 0 0 1 2.45-2Zm-5.5 3h19v1h-19Zm-6 2H65.49v8H34.5ZM44 37a.5.5 0 0 0-.5.5v3a.5.5 0 0 0 .5.5h1.5v.5a.5.5 0 0 0 .5.5h8a.5.5 0 0 0 .5-.5V41H56a.5.5 0 0 0 .5-.5v-3a.5.5 0 0 0-.5-.5Zm-4 .021a2.5 2.5 0 1 0 2.5 2.5 2.5 2.5 0 0 0-2.5-2.502Zm20 0a2.5 2.5 0 1 0 2.5 2.5 2.5 2.5 0 0 0-2.509-2.502ZM44.495 38h11v2h-1.5a.5.5 0 0 0-.5.5v.5h-7v-.5a.5.5 0 0 0-.5-.5h-1.5Zm-4.5.021a1.5 1.5 0 1 1-1.5 1.5A1.5 1.5 0 0 1 40 38.018Zm20 0a1.5 1.5 0 1 1-1.5 1.5 1.5 1.5 0 0 1 1.496-1.503ZM31.5 44h36.989v2H31.5Zm-2 3h40.99v3H29.5Zm-2.69 4h46.37l-.5 1H27.309l-.5-1Zm1 2h.69v1.383Zm1.691 0h2v3h-2Zm3 0h2v3h-2Zm3 0h2v3h-2Zm3 0h2v3h-2Zm3 0h2v3h-2Zm3 0h2v3h-2Zm3 0h2v3h-2Zm3 0h2v3h-2Zm3 0h2v3h-2Zm3 0h2v3h-2Zm3 0h2v3h-2Zm3 0h2v3h-2Zm3 0h2v3h-2Zm3 0h2v3h-2Zm3 0h.691l-.691 1.383Zm-41.99 4h11v10h-1v-3.5a.5.5 0 0 0-.5-.5H31a.5.5 0 0 0-.5.5V67h-1Zm12 0h17v2h-7.5a.5.5 0 0 0-.5.5V63h-1v-3.5a.5.5 0 0 0-.5-.5H41.5Zm18 0h11v10h-1v-3.5a.5.5 0 0 0-.5-.5h-8a.5.5 0 0 0-.5.5V67h-1ZM35 57.992a2 2 0 1 0 2 2 2 2 0 0 0-2-2Zm29.993 0a2 2 0 1 0 2 2 2 2 0 0 0-2.003-2Zm-29.993 1a1 1 0 1 1-1 1 1 1 0 0 1 1-1Zm29.993 0a1 1 0 1 1-1 1 1 1 0 0 1 .997-1Zm-23.494 1h7v.166a7.5 7.5 0 0 0-5.976 6.832H41.5Zm10 0h7v7h-1.03a7.5 7.5 0 0 0-5.976-6.832Zm-3 1.186v1.048a5.481 5.481 0 0 0-3.959 4.764h-1.022a6.5 6.5 0 0 1 4.976-5.813Zm3 0a6.5 6.5 0 0 1 4.976 5.813h-1.028a5.479 5.479 0 0 0-3.954-4.765Zm-3 2.094v.219a.5.5 0 0 0 .5.5h2a.5.5 0 0 0 .5-.5v-.219a4.482 4.482 0 0 1 2.951 3.718h-.457a.5.5 0 0 0 0 1h.5v6h-.5a.5.5 0 0 0 0 1h.5v15h-9v-15h.5a.5.5 0 0 0 0-1h-.5v-6h.5a.5.5 0 0 0 0-1h-.457a4.484 4.484 0 0 1 2.958-3.718Zm-17 .719H33v1h-1.5Zm2.5 0h2v1H34Zm3 0h1.5v1H37Zm24.494 0h1.5v1h-1.5Zm2.5 0h2v1h-2Zm3 0h1.5v1h-1.5Zm-35.491 2h7v1h-7Zm29.993 0h7v1h-7Zm-31.992 2h1v1h-1Zm2 0h7v1h-7Zm8 0h1v1h-1Zm2 0h3v6h-3Zm14 0h3v6h-3Zm4 0h1v1h-1Zm2 0h7v1h-7Zm8 0h1v1h-1Zm-39.99 2h1v4h-1Zm2 0h1v2.5a.5.5 0 0 0 .5.5h4a.5.5 0 0 0 .5-.5v-2.5h1v4h-7Zm2 0h3v2h-3Zm6 0h1v4h-1Zm20 0h1v4h-1Zm2 0h1v2.5a.5.5 0 0 0 .5.5h4a.5.5 0 0 0 .5-.5v-2.5h1v4h-7Zm2 0h3v2h-3Zm6 0h1v4h-1ZM28 74.988h14.062l-1.334 2h-11.4l-1.332-2Zm15.266 0h1.232v15h-3V77.64Zm12.229 0h1.3l1.7 2.554v12.442h-3Zm2.5 0h14.059l-1.334 2h-11.4Zm-28.491 3h1v9h-1Zm2 0h7v9h-7Zm8 0h1v9h-1Zm20 0h1v9h-1Zm2 0h7v9h-7Zm8 0h1v9h-1Zm-39.99 10h1v2h-1Zm2 0h1v2h-1Zm2 0h3v2h-3Zm4 0h1v2h-1Zm2 0h1v2h-1Zm20 0h1v2h-1Zm2 0h1v2h-1Zm2 0h3v2h-3Zm4 0h1v2h-1Zm2 0h1v2h-1Z" data-name="Delhi" transform="translate(282.006 151)"/></g></g></svg>