<svg xmlns="http://www.w3.org/2000/svg" width="90" height="90" viewBox="0 0 90 90"><g id="Hyderabad" transform="translate(-20 -299)"><g id="Group_65235" data-name="Group 65235" transform="translate(2)"><path id="Rectangle_14917" fill="#fff" d="M0 0h90v90H0z" data-name="Rectangle 14917" transform="translate(18 299)"/><path id="Hyderabad-2" fill="#ec1579" d="M30 18.5a.472.472 0 0 0-.5.5v1.7l-.5.3a3.281 3.281 0 0 0-1.5 2.7V27H27a.472.472 0 0 0-.5.5v3a.472.472 0 0 0 .5.5h.5v3.5H26a.472.472 0 0 0-.5.5v4a.472.472 0 0 0 .5.5h1.5v7H25a.472.472 0 0 0-.5.5v12a.472.472 0 0 0 .5.5h1.5v21.984H25a.5.5 0 0 0 0 1h49.988a.5.5 0 0 0 0-1h-1.5V59.49h1.5a.472.472 0 0 0 .5-.5v-12a.472.472 0 0 0-.5-.5h-2.5v-7h1.5a.472.472 0 0 0 .5-.5V35a.472.472 0 0 0-.5-.5h-1.5V31h.5a.472.472 0 0 0 .5-.5v-3a.472.472 0 0 0-.5-.5h-.5v-3.3a3.055 3.055 0 0 0-1.5-2.7l-.5-.3V19a.5.5 0 0 0-1 0v1.7l-.5.3a3.281 3.281 0 0 0-1.5 2.7V27h-.5a.472.472 0 0 0-.5.5v3a.472.472 0 0 0 .5.5h.5v3.5h-1.5a.472.472 0 0 0-.5.5v4a.472.472 0 0 0 .5.5h1.5v1H32.5v-1H34a.472.472 0 0 0 .5-.5v-4a.472.472 0 0 0-.5-.5h-1.5V31h.5a.472.472 0 0 0 .5-.5v-3a.472.472 0 0 0-.5-.5h-.5v-3.3A3.055 3.055 0 0 0 31 21l-.5-.3V19a.472.472 0 0 0-.5-.5Zm0 3.1.5.3a2.335 2.335 0 0 1 1 1.6h-3a1.983 1.983 0 0 1 1-1.6Zm39.99 0 .5.3a2.335 2.335 0 0 1 1 1.6h-3a1.983 1.983 0 0 1 1-1.6ZM28.5 24.5h3V27h-1v-1a.5.5 0 0 0-1 0v1h-1Zm39.99 0h3V27h-1v-1a.5.5 0 0 0-1 0v1h-1ZM27.5 28h5v2h-1v-.5a.5.5 0 1 0-1 0v.5h-1v-.5a.5.5 0 1 0-1 0v.5h-1Zm39.99 0h5v2h-1v-.5a.5.5 0 1 0-1 0v.5h-1v-.5a.5.5 0 0 0-1 0v.5h-1ZM28.5 31h3v3.5h-3Zm39.99 0h3v3.5h-3ZM26.5 35.5h7v3h-1V37a.5.5 0 1 0-1 0v1.5h-1V37a.5.5 0 1 0-1 0v1.5h-1V37a.5.5 0 1 0-1 0v1.5h-1Zm39.99 0h7v3h-1V37a.5.5 0 0 0-1 0v1.5h-1V37a.5.5 0 0 0-1 0v1.5h-1V37a.5.5 0 0 0-1 0v1.5h-1Zm-37.991 4h3v7h-3Zm39.99 0h3v7h-3Zm-35.991 2h34.991v1H32.5Zm0 2h34.991v3h-2V46a1.5 1.5 0 1 0-3 0v.5h-1V46a1.5 1.5 0 1 0-3 0v.5h-1V46a1.5 1.5 0 1 0-3 0v.5h-1V46a1.5 1.5 0 1 0-3 0v.5h-1V46a1.5 1.5 0 1 0-3 0v.5h-1V46a1.5 1.5 0 1 0-3 0v.5h-1V46a1.5 1.5 0 1 0-3 0v.5h-1V46a1.5 1.5 0 1 0-3 0v.5h-2Zm3.5 2a.472.472 0 0 1 .5.5v.5h-1V46a.472.472 0 0 1 .502-.507Zm4 0a.472.472 0 0 1 .5.5v.5h-1V46a.472.472 0 0 1 .502-.507Zm4 0a.472.472 0 0 1 .5.5v.5h-1V46a.472.472 0 0 1 .502-.507Zm4 0a.472.472 0 0 1 .5.5v.5h-1V46a.472.472 0 0 1 .496-.507Zm4 0a.472.472 0 0 1 .5.5v.5h-1V46a.472.472 0 0 1 .495-.507Zm4 0a.472.472 0 0 1 .5.5v.5h-1V46a.472.472 0 0 1 .494-.507Zm4 0a.472.472 0 0 1 .5.5v.5h-1V46a.472.472 0 0 1 .493-.507Zm4 0a.472.472 0 0 1 .5.5v.5h-1V46a.472.472 0 0 1 .492-.507Zm-38.491 2h9v11h-9Zm10 0h1v.5a.5.5 0 0 0 1 0v-.5h1v.5a.5.5 0 0 0 1 0v-.5h1v.5a.5.5 0 0 0 1 0v-.5h1v.5a.5.5 0 0 0 1 0v-.5h1v.5a.5.5 0 0 0 1 0v-.5h1v.5a.5.5 0 0 0 1 0v-.5h1v.5a.5.5 0 0 0 1 0v-.5h1v.5a.5.5 0 0 0 1 0v-.5h1v.5a.5.5 0 0 0 1 0v-.5h1v.5a.5.5 0 0 0 1 0v-.5h1v.5a.5.5 0 0 0 1 0v-.5h1v.5a.5.5 0 0 0 1 0v-.5h1v.5a.5.5 0 0 0 1 0v-.5h1v.5a.5.5 0 0 0 1 0v-.5h1v11h-1V54a3.83 3.83 0 0 0-2.3-3.5h-.3a3.713 3.713 0 0 0-2.4 3.5v4.5h-1V54a3.83 3.83 0 0 0-2.3-3.5h-.3a3.713 3.713 0 0 0-2.4 3.5v4.5h-5V54a3.83 3.83 0 0 0-2.3-3.5h-.3a3.713 3.713 0 0 0-2.4 3.5v4.5h-1V54a3.83 3.83 0 0 0-2.3-3.5h-.3a3.713 3.713 0 0 0-2.4 3.5v4.5h-1Zm29.993 0h9v11h-9Zm-37.5.993a1.538 1.538 0 0 0-1.5 1.5v2a.472.472 0 0 0 .5.5h2a.472.472 0 0 0 .5-.5v-2a1.538 1.538 0 0 0-1.5-1.5Zm4 0a1.538 1.538 0 0 0-1.5 1.5v2a.472.472 0 0 0 .5.5h2a.472.472 0 0 0 .5-.5v-2a1.538 1.538 0 0 0-1.5-1.5Zm35.991 0a1.538 1.538 0 0 0-1.5 1.5v2a.472.472 0 0 0 .5.5h2a.472.472 0 0 0 .5-.5v-2a1.538 1.538 0 0 0-1.502-1.5Zm4 0a1.538 1.538 0 0 0-1.5 1.5v2a.472.472 0 0 0 .5.5h2a.472.472 0 0 0 .5-.5v-2a1.538 1.538 0 0 0-1.503-1.5ZM28 49.492a.472.472 0 0 1 .5.5v1.5h-1v-1.5a.472.472 0 0 1 .5-.5Zm4 0a.472.472 0 0 1 .5.5v1.5h-1v-1.5a.472.472 0 0 1 .5-.5Zm35.991 0a.472.472 0 0 1 .5.5v1.5h-1v-1.5a.472.472 0 0 1 .498-.5Zm4 0a.472.472 0 0 1 .5.5v1.5h-1v-1.5a.472.472 0 0 1 .497-.5Zm-32.991 2a2.715 2.715 0 0 1 1.5 2.5v4.5h-3v-4.5a3.013 3.013 0 0 1 1.5-2.5Zm6 0a2.715 2.715 0 0 1 1.5 2.5v4.5h-3v-4.5a3.013 3.013 0 0 1 1.495-2.5Zm5 0a1.5 1.5 0 1 0 1.5 1.5 1.538 1.538 0 0 0-1.506-1.5Zm5 0a2.715 2.715 0 0 1 1.5 2.5v4.5h-3v-4.5a3.013 3.013 0 0 1 1.492-2.5Zm6 0a2.715 2.715 0 0 1 1.5 2.5v4.5h-3v-4.5a3.013 3.013 0 0 1 1.491-2.5Zm-11 1a.5.5 0 1 1-.5.5.472.472 0 0 1 .494-.5Zm-22 .999a1.538 1.538 0 0 0-1.5 1.5v2a.472.472 0 0 0 .5.5h2a.472.472 0 0 0 .5-.5v-2a1.538 1.538 0 0 0-1.5-1.5Zm4 0a1.538 1.538 0 0 0-1.5 1.5v2a.472.472 0 0 0 .5.5h2a.472.472 0 0 0 .5-.5v-2a1.538 1.538 0 0 0-1.5-1.5Zm35.991 0a1.538 1.538 0 0 0-1.5 1.5v2a.472.472 0 0 0 .5.5h2a.472.472 0 0 0 .5-.5v-2a1.538 1.538 0 0 0-1.502-1.5Zm4 0a1.538 1.538 0 0 0-1.5 1.5v2a.472.472 0 0 0 .5.5h2a.472.472 0 0 0 .5-.5v-2a1.538 1.538 0 0 0-1.503-1.5Zm-43.991 1a.472.472 0 0 1 .5.5v1.5h-1v-1.5a.472.472 0 0 1 .5-.5Zm4 0a.472.472 0 0 1 .5.5v1.5h-1v-1.5a.472.472 0 0 1 .5-.5Zm35.991 0a.472.472 0 0 1 .5.5v1.5h-1v-1.5a.472.472 0 0 1 .498-.5Zm4 0a.472.472 0 0 1 .5.5v1.5h-1v-1.5a.472.472 0 0 1 .497-.5Zm-44.489 5h5v21.993h-5Zm6 0h1v.5a.5.5 0 0 0 1 0v-.5h1v.5a.5.5 0 0 0 1 0v-.5h1v21.993h-5Zm5.9 0h1.1v.5a.5.5 0 0 0 1 0v-.5h1v.5a.5.5 0 0 0 1 0v-.5h1v.5a.5.5 0 0 0 1 0v-.5h1v.5a.5.5 0 0 0 1 0v-.5h1v.5a.5.5 0 0 0 1 0v-.5h1v.5a.5.5 0 0 0 1 0v-.5h1v.5a.5.5 0 0 0 1 0v-.5h1v.5a.5.5 0 0 0 1 0v-.5h1v.5a.5.5 0 0 0 1 0v-.5h1v.5a.5.5 0 0 0 1 0v-.5h1v21.993h-2v-9.9a9.445 9.445 0 0 0-5.2-8.3l-3.1-1.7a.454.454 0 0 0-.5 0l-3.1 1.7a9.639 9.639 0 0 0-5.2 8.3v9.9h-2Zm22.095 0h1v.5a.5.5 0 0 0 1 0v-.5h1v.5a.5.5 0 0 0 1 0v-.5h1v21.993h-5Zm6 0h5v21.993h-5ZM36 61.489a1.538 1.538 0 0 0-1.5 1.5v2a.472.472 0 0 0 .5.5h2a.472.472 0 0 0 .5-.5v-2a1.538 1.538 0 0 0-1.5-1.5Zm6 0a1.5 1.5 0 1 0 1.5 1.5 1.538 1.538 0 0 0-1.5-1.5Zm16 0a1.5 1.5 0 1 0 1.5 1.5 1.538 1.538 0 0 0-1.508-1.5Zm6 0a1.538 1.538 0 0 0-1.5 1.5v2a.472.472 0 0 0 .5.5h2a.472.472 0 0 0 .5-.5v-2a1.538 1.538 0 0 0-1.51-1.5Zm-28 1a.472.472 0 0 1 .5.5v1.5h-1v-1.5a.472.472 0 0 1 .5-.5Zm6 0a.5.5 0 1 1-.5.5.472.472 0 0 1 .5-.5Zm16 0a.5.5 0 1 1-.5.5.472.472 0 0 1 .492-.5Zm6 0a.472.472 0 0 1 .5.5v1.5h-1v-1.5a.472.472 0 0 1 .49-.5Zm-14 .1 2.8 1.6a8.6 8.6 0 0 1 4.7 7.4v9.9h-15v-9.9a8.5 8.5 0 0 1 4.6-7.4Zm-14 3.9a1.538 1.538 0 0 0-1.5 1.5v2a.472.472 0 0 0 .5.5h2a.472.472 0 0 0 .5-.5v-2a1.538 1.538 0 0 0-1.5-1.501Zm27.993 0a1.538 1.538 0 0 0-1.5 1.5v2a.472.472 0 0 0 .5.5h2a.472.472 0 0 0 .5-.5v-2a1.538 1.538 0 0 0-1.503-1.501ZM36 67.488a.472.472 0 0 1 .5.5v1.5h-1v-1.5a.472.472 0 0 1 .5-.5Zm27.993 0a.472.472 0 0 1 .5.5v1.5h-1v-1.5a.472.472 0 0 1 .497-.5ZM36 71.487a1.538 1.538 0 0 0-1.5 1.5v2a.472.472 0 0 0 .5.5h2a.472.472 0 0 0 .5-.5v-2a1.538 1.538 0 0 0-1.5-1.5Zm27.993 0a1.538 1.538 0 0 0-1.5 1.5v2a.472.472 0 0 0 .5.5h2a.472.472 0 0 0 .5-.5v-2a1.538 1.538 0 0 0-1.503-1.5Zm-27.993 1a.472.472 0 0 1 .5.5v1.5h-1v-1.5a.472.472 0 0 1 .5-.5Zm27.993 0a.472.472 0 0 1 .5.5v1.5h-1v-1.5a.472.472 0 0 1 .497-.5ZM36 76.486a1.538 1.538 0 0 0-1.5 1.5v2a.472.472 0 0 0 .5.5h2a.472.472 0 0 0 .5-.5v-2a1.538 1.538 0 0 0-1.5-1.5Zm27.993 0a1.538 1.538 0 0 0-1.5 1.5v2a.472.472 0 0 0 .5.5h2a.472.472 0 0 0 .5-.5v-2a1.538 1.538 0 0 0-1.503-1.5ZM36 77.485a.472.472 0 0 1 .5.5v1.5h-1v-1.5a.472.472 0 0 1 .5-.5Zm27.993 0a.472.472 0 0 1 .5.5v1.5h-1v-1.5a.472.472 0 0 1 .497-.5Z" data-name="Hyderabad" transform="translate(12.496 293.5)"/></g></g></svg>