<svg xmlns="http://www.w3.org/2000/svg" width="90" height="90" viewBox="0 0 90 90"><g id="Jaipur" transform="translate(-280 -555)"><path id="Rectangle_14923" fill="#fff" d="M0 0h90v90H0z" data-name="Rectangle 14923" transform="translate(280 555)"/><g id="Jaipur-2" fill="#ec1579" data-name="Jaipur" transform="translate(275.567 549.27)"><path id="Path_72857" d="M82.8 82h-1.5V47.5a3.5 3.5 0 0 0-1.4-2.8l-.8-.6a.638.638 0 0 0-.6 0l-.8.6c-.1.1-.3.2-.4.4v-2.4a3.282 3.282 0 0 0-1.5-2.7l-1.5-.8v-1.7a.5.5 0 0 0-1 0v1.7l-1.5.8a2.181 2.181 0 0 0-.5.4v-3a3.5 3.5 0 0 0-1.4-2.8l-.8-.6a.638.638 0 0 0-.6 0l-.8.6c-.1.1-.3.2-.4.4v-.6a3.5 3.5 0 0 0-1.4-2.8l-.8-.6a.637.637 0 0 0-.6 0l-.8.6c-.2.1-.3.3-.5.5a3 3 0 0 0-1.5-2.1l-1.5-.8v-1.7a.5.5 0 0 0-1 0v1.7l-1.5.8c-.2.1-.4.3-.6.4a3.5 3.5 0 0 0-1.4-2.8l-.8-.6a.637.637 0 0 0-.6 0l-.8.6a4.62 4.62 0 0 0-.7.7 3.325 3.325 0 0 0-1.2-1.4l-1.5-.8v-1.7a.5.5 0 0 0-1 0v1.7l-1.5.8a2.365 2.365 0 0 0-1.2 1.4 2.336 2.336 0 0 0-.7-.7l-.8-.6a.637.637 0 0 0-.6 0l-.8.6a3.368 3.368 0 0 0-1.4 2.8 1.275 1.275 0 0 0-.6-.4l-1.5-.8v-1.7a.5.5 0 0 0-1 0v1.7l-1.5.8a3.215 3.215 0 0 0-1.5 2.1c-.1-.2-.3-.3-.5-.5l-.8-.6a.637.637 0 0 0-.6 0l-.8.6a3.5 3.5 0 0 0-1.4 2.8v.6l-.4-.4-.8-.6a.638.638 0 0 0-.6 0l-.8.6a3.5 3.5 0 0 0-1.4 2.8v3a1.756 1.756 0 0 0-.5-.4l-1.5-.8v-1.7a.5.5 0 0 0-1 0v1.7l-1.5.8a2.947 2.947 0 0 0-1.5 2.7v2.4l-.4-.4-.8-.6a.638.638 0 0 0-.6 0l-.8.6a3.5 3.5 0 0 0-1.4 2.8V82h-1.5a.5.5 0 0 0 0 1h66a.472.472 0 0 0 .5-.5c0-.3.2-.5-.1-.5ZM19.3 54.5a2.61 2.61 0 0 1 1-2l.5-.4.5.4a2.61 2.61 0 0 1 1 2v4.6l-.4-.4-.8-.6a.638.638 0 0 0-.6 0l-.8.6c-.1.1-.3.2-.4.4v-4.6Zm4-7.8a2.234 2.234 0 0 1 1-1.8l1.5-.8 1.5.8a2.234 2.234 0 0 1 1 1.8v4.8a1.756 1.756 0 0 0-.5-.4l-1.7-1a.454.454 0 0 0-.5 0l-1.7 1a2.181 2.181 0 0 0-.5.4v-4.8Zm0 7a2.234 2.234 0 0 1 1-1.8l1.5-.8 1.5.8a2.234 2.234 0 0 1 1 1.8v4.8a1.756 1.756 0 0 0-.5-.4l-1.7-1a.454.454 0 0 0-.5 0l-1.7 1a2.181 2.181 0 0 0-.5.4v-4.8Zm48 7a2.234 2.234 0 0 1 1-1.8l1.5-.8 1.5.8a2.234 2.234 0 0 1 1 1.8V66h-5Zm5-6.2v4a1.756 1.756 0 0 0-.5-.4l-1.7-1a.454.454 0 0 0-.5 0l-1.7 1a2.181 2.181 0 0 0-.5.4v-4.8a2.234 2.234 0 0 1 1-1.8l1.5-.8 1.5.8a2.234 2.234 0 0 1 1 1.8v.8Zm-6-.8v3.4l-.4-.4-.8-.6a.638.638 0 0 0-.6 0l-.8.6c-.1.1-.3.2-.4.4v-4.6a2.61 2.61 0 0 1 1-2l.5-.4.5.4a2.61 2.61 0 0 1 1 2v1.2Zm-4-1.2v4.6l-.4-.4-.8-.6a.638.638 0 0 0-.6 0l-.8.6c-.1.1-.3.2-.4.4v-5.6a2.61 2.61 0 0 1 1-2l.5-.4.5.4a2.61 2.61 0 0 1 1 2Zm-9 13.5v-6.3a2.234 2.234 0 0 1 1-1.8l1.5-.8 1.5.8a2.234 2.234 0 0 1 1 1.8V66Zm5-14.5v6a1.756 1.756 0 0 0-.5-.4l-1.7-1a.454.454 0 0 0-.5 0l-1.7 1a2.181 2.181 0 0 0-.5.4v-6.8a2.234 2.234 0 0 1 1-1.8l1.5-.8 1.5.8a2.234 2.234 0 0 1 1 1.8v.8Zm-6-.8v6.4l-.4-.4-.8-.6a.638.638 0 0 0-.6 0l-.8.6c-.1.1-.3.2-.4.4v-7.6a2.61 2.61 0 0 1 1-2l.5-.4.5.4a2.61 2.61 0 0 1 1 2Zm-9 15.3v-6.3a2.234 2.234 0 0 1 1-1.8l1.5-.8 1.5.8a2.234 2.234 0 0 1 1 1.8V66Zm5-10.9v2.4a1.756 1.756 0 0 0-.5-.4l-1.7-1a.454.454 0 0 0-.5 0l-1.7 1a2.181 2.181 0 0 0-.5.4v-7.8a2.234 2.234 0 0 1 1-1.8l1.5-.8 1.5.8a2.234 2.234 0 0 1 1 1.8v5.4Zm-6-5.4v7.4l-.4-.4-.8-.6a.638.638 0 0 0-.6 0l-.8.6c-.1.1-.3.2-.4.4v-7.6a2.61 2.61 0 0 1 1-2l.5-.4.5.4a2.61 2.61 0 0 1 1 2v.2Zm-9 16.3v-6.3a2.234 2.234 0 0 1 1-1.8l1.5-.8 1.5.8a2.234 2.234 0 0 1 1 1.8V66Zm5-9.9v1.4a1.756 1.756 0 0 0-.5-.4l-1.7-1a.454.454 0 0 0-.5 0l-1.7 1a2.181 2.181 0 0 0-.5.4v-6.8a2.234 2.234 0 0 1 1-1.8l1.5-.8 1.5.8a2.234 2.234 0 0 1 1 1.8v5.4Zm-6 0v1l-.4-.4-.8-.6a.638.638 0 0 0-.6 0l-.8.6c-.1.1-.3.2-.4.4v-5.6a2.61 2.61 0 0 1 1-2l.5-.4.5.4a2.61 2.61 0 0 1 1 2Zm-4 1-.4-.4-.8-.6a.638.638 0 0 0-.6 0l-.8.6c-.1.1-.3.2-.4.4v-4.6a2.61 2.61 0 0 1 1-2l.5-.4.5.4a2.61 2.61 0 0 1 1 2Zm-9 4.4v-.8a2.234 2.234 0 0 1 1-1.8l1.5-.8 1.5.8a2.234 2.234 0 0 1 1 1.8V66h-5Zm0 7V67h5v3.1a2.2 2.2 0 0 0-.8-.1 1.945 1.945 0 0 0-3.4 0 1.128 1.128 0 0 0-.8.1Zm6-7.8v-1.2a2.61 2.61 0 0 1 1-2l.5-.4.5.4a2.61 2.61 0 0 1 1 2V66h-3Zm4-1.2a2.61 2.61 0 0 1 1-2l.5-.4.5.4a2.61 2.61 0 0 1 1 2V66h-3Zm4 7.5h5v3.1a2.2 2.2 0 0 0-.8-.1 1.945 1.945 0 0 0-3.4 0 1.128 1.128 0 0 0-.8.1Zm6-1.9v-5.6a2.61 2.61 0 0 1 1-2l.5-.4.5.4a2.61 2.61 0 0 1 1 2V66h-3Zm4 1.9h5v3.1a2.2 2.2 0 0 0-.8-.1 1.945 1.945 0 0 0-3.4 0 1.128 1.128 0 0 0-.8.1Zm6-1.9v-5.6a2.61 2.61 0 0 1 1-2l.5-.4.5.4a2.61 2.61 0 0 1 1 2V66h-3Zm4 1.9h5v3.1a2.2 2.2 0 0 0-.8-.1 1.945 1.945 0 0 0-3.4 0 1.128 1.128 0 0 0-.8.1Zm6-1.9v-5.6a2.61 2.61 0 0 1 1-2l.5-.4.5.4a2.61 2.61 0 0 1 1 2V66h-3Zm4-5.6a2.61 2.61 0 0 1 1-2l.5-.4.5.4a2.61 2.61 0 0 1 1 2V66h-3Zm4 7.5h5v3.1a2.2 2.2 0 0 0-.8-.1 1.945 1.945 0 0 0-3.4 0 1.128 1.128 0 0 0-.8.1Zm6-5.5a2.61 2.61 0 0 1 1-2l.5-.4.5.4a2.61 2.61 0 0 1 1 2V66h-3Zm3-2.4-.4-.4-.8-.6a.638.638 0 0 0-.6 0l-.8.6c-.1.1-.3.2-.4.4v-4.6a2.61 2.61 0 0 1 1-2l.5-.4.5.4a2.61 2.61 0 0 1 1 2v4.6Zm-4-11.6v4a1.756 1.756 0 0 0-.5-.4l-1.7-1a.454.454 0 0 0-.5 0l-1.7 1a2.181 2.181 0 0 0-.5.4v-4.8a2.234 2.234 0 0 1 1-1.8l1.5-.8 1.5.8a2.234 2.234 0 0 1 1 1.8v.8Zm-6-.8v3.4l-.4-.4-.8-.6a.638.638 0 0 0-.6 0l-.8.6c-.1.1-.3.2-.4.4v-5.6a2.61 2.61 0 0 1 1-2l.5-.4.5.4a2.61 2.61 0 0 1 1 2v2.2Zm-4-2.2v4.6l-.4-.4-.8-.6a.638.638 0 0 0-.6 0l-.8.6c-.1.1-.3.2-.4.4v-5.6a2.61 2.61 0 0 1 1-2l.5-.4.5.4a2.61 2.61 0 0 1 1 2Zm-4-1v5a1.756 1.756 0 0 0-.5-.4l-1.7-1a.454.454 0 0 0-.5 0l-1.7 1a2.181 2.181 0 0 0-.5.4v-6.8a2.234 2.234 0 0 1 1-1.8l1.5-.8 1.5.8a2.234 2.234 0 0 1 1 1.8v1.8Zm-6-2v5.6l-.4-.4-.8-.6a.638.638 0 0 0-.6 0l-.8.6c-.1.1-.3.2-.4.4v-6.6a2.61 2.61 0 0 1 1-2l.5-.4.5.4a2.61 2.61 0 0 1 1 2Zm-4-1v7a1.756 1.756 0 0 0-.5-.4l-1.7-1a.454.454 0 0 0-.5 0l-1.7 1a2.181 2.181 0 0 0-.5.4v-7.8a2.234 2.234 0 0 1 1-1.8l1.5-.8 1.5.8a2.234 2.234 0 0 1 1 1.8v.8Zm-6 4.6v2l-.4-.4-.8-.6a.638.638 0 0 0-.6 0l-.8.6c-.1.1-.3.2-.4.4v-6.6a2.61 2.61 0 0 1 1-2l.5-.4.5.4a2.61 2.61 0 0 1 1 2Zm-4 2v1.4a1.756 1.756 0 0 0-.5-.4l-1.7-1a.454.454 0 0 0-.5 0l-1.7 1a2.181 2.181 0 0 0-.5.4v-6.8a2.234 2.234 0 0 1 1-1.8l1.5-.8 1.5.8a2.234 2.234 0 0 1 1 1.8v5.4Zm-6 0v2l-.4-.4-.8-.6a.638.638 0 0 0-.6 0l-.8.6c-.1.1-.3.2-.4.4v-5.6a2.61 2.61 0 0 1 1-2l.5-.4.5.4a2.61 2.61 0 0 1 1 2Zm-4 3-.4-.4-.8-.6a.638.638 0 0 0-.6 0l-.8.6c-.1.1-.3.2-.4.4v-5.6a2.61 2.61 0 0 1 1-2l.5-.4.5.4a2.61 2.61 0 0 1 1 2Zm-13 11.4a2.61 2.61 0 0 1 1-2l.5-.4.5.4a2.61 2.61 0 0 1 1 2V66h-3Zm4 20.5V71.5a.472.472 0 0 1 .5-.5.367.367 0 0 1 .3.1.446.446 0 0 0 .5 0c.2-.1.3-.2.3-.4a1.025 1.025 0 0 1 2 0c0 .2.1.3.3.4s.3 0 .5 0a.367.367 0 0 1 .3-.1.472.472 0 0 1 .5.5V82h-5.2Zm6 0V67h3v15Zm4 0V67h3v15Zm4 0V71.5a.472.472 0 0 1 .5-.5.367.367 0 0 1 .3.1.446.446 0 0 0 .5 0c.2-.1.3-.2.3-.4a1.025 1.025 0 0 1 2 0c0 .2.1.3.3.4.1.1.3 0 .5 0a.367.367 0 0 1 .3-.1.472.472 0 0 1 .5.5V82h-5.2Zm6 0V67h3v15Zm4 0V71.5a.472.472 0 0 1 .5-.5.367.367 0 0 1 .3.1.446.446 0 0 0 .5 0c.2-.1.3-.2.3-.4a1.025 1.025 0 0 1 2 0c0 .2.1.3.3.4.1.1.3 0 .5 0a.367.367 0 0 1 .3-.1.472.472 0 0 1 .5.5V82h-5.2Zm6 0V67h3v15Zm4 0V71.5a.472.472 0 0 1 .5-.5.367.367 0 0 1 .3.1.446.446 0 0 0 .5 0c.2-.1.3-.2.3-.4a1.025 1.025 0 0 1 2 0c0 .2.1.3.3.4.1.1.3 0 .5 0a.367.367 0 0 1 .3-.1.472.472 0 0 1 .5.5V82h-5.2Zm6 0V67h3v15Zm4 0V67h3v15Zm4 0V71.5a.472.472 0 0 1 .5-.5.367.367 0 0 1 .3.1.446.446 0 0 0 .5 0c.2-.1.3-.2.3-.4a1.025 1.025 0 0 1 2 0c0 .2.1.3.3.4.1.1.3 0 .5 0a.367.367 0 0 1 .3-.1.472.472 0 0 1 .5.5V82h-5.2Zm6 0V67h3v15Zm1-36.5.5-.4.5.4a2.61 2.61 0 0 1 1 2v4.6l-.4-.4-.8-.6a.638.638 0 0 0-.6 0l-.8.6c-.1.1-.3.2-.4.4v-4.6a2.61 2.61 0 0 1 1-2Zm-6-4.6 1.5-.8 1.5.8a2.234 2.234 0 0 1 1 1.8v1.8a1.756 1.756 0 0 0-.5-.4l-1.7-1a.454.454 0 0 0-.5 0l-1.7 1a2.181 2.181 0 0 0-.5.4v-1.8a1.918 1.918 0 0 1 .9-1.8Zm-4-5.4.5-.4.5.4a2.61 2.61 0 0 1 1 2v4.6l-.4-.4-.8-.6a.638.638 0 0 0-.6 0l-.8.6c-.1.1-.3.2-.4.4v-4.6a2.61 2.61 0 0 1 1-2Zm-4-3 .5-.4.5.4a2.61 2.61 0 0 1 1 2v6.6l-.4-.4-.8-.6a.638.638 0 0 0-.6 0l-.8.6c-.1.1-.3.2-.4.4v-6.6a2.61 2.61 0 0 1 1-2Zm-6-1.6 1.5-.8 1.5.8a2.234 2.234 0 0 1 1 1.8v6.8a1.756 1.756 0 0 0-.5-.4l-1.7-1a.454.454 0 0 0-.5 0l-1.7 1a2.181 2.181 0 0 0-.5.4v-6.8a1.918 1.918 0 0 1 .9-1.8Zm-4-2.4.5-.4.5.4a2.61 2.61 0 0 1 1 2v7.6l-.4-.4-.8-.6a.638.638 0 0 0-.6 0l-.8.6c-.1.1-.3.2-.4.4v-7.6a2.61 2.61 0 0 1 1-2Zm-7 1.2a2.234 2.234 0 0 1 1-1.8l1.5-.8 1.5.8a2.234 2.234 0 0 1 1 1.8v7.8a1.756 1.756 0 0 0-.5-.4l-1.7-1a.454.454 0 0 0-.5 0l-1.7 1a2.181 2.181 0 0 0-.5.4v-7.8Zm-4 .8a2.61 2.61 0 0 1 1-2l.5-.4.5.4a2.61 2.61 0 0 1 1 2v7.6l-.4-.4-.8-.6a.638.638 0 0 0-.6 0l-.8.6c-.1.1-.3.2-.4.4v-7.6Zm-6 2.2a2.234 2.234 0 0 1 1-1.8l1.5-.8 1.5.8a2.234 2.234 0 0 1 1 1.8v6.8a1.756 1.756 0 0 0-.5-.4l-1.7-1a.454.454 0 0 0-.5 0l-1.7 1a2.181 2.181 0 0 0-.5.4v-6.8Zm-4 1.8a2.61 2.61 0 0 1 1-2l.5-.4.5.4a2.61 2.61 0 0 1 1 2v6.6l-.4-.4-.8-.6a.638.638 0 0 0-.6 0l-.8.6c-.1.1-.3.2-.4.4Zm-3 1 .5-.4.5.4a2.61 2.61 0 0 1 1 2v4.6l-.4-.4-.8-.6a.638.638 0 0 0-.6 0l-.8.6c-.1.1-.3.2-.4.4v-4.6a2.61 2.61 0 0 1 1-2Zm-6 5.4 1.5-.8 1.5.8a2.234 2.234 0 0 1 1 1.8v1.8a1.756 1.756 0 0 0-.5-.4l-1.7-1a.454.454 0 0 0-.5 0l-1.7 1a2.181 2.181 0 0 0-.5.4v-1.8a1.918 1.918 0 0 1 .9-1.8Zm-4 4.6.5-.4.5.4a2.61 2.61 0 0 1 1 2v4.6l-.4-.4-.8-.6a.638.638 0 0 0-.6 0l-.8.6c-.1.1-.3.2-.4.4v-4.6a2.61 2.61 0 0 1 1-2Zm-1 23V67h3v15h-3Z" data-name="Path 72857"/><path id="Path_72858" d="M24.8 49h2a.472.472 0 0 0 .5-.5v-1.9a1.525 1.525 0 0 0-.7-1.2l-.6-.3a.454.454 0 0 0-.5 0l-.5.3a1.387 1.387 0 0 0-.7 1.2v1.9a.472.472 0 0 0 .5.5Zm.5-2.4c0-.1.1-.2.2-.3l.3-.2.3.2c.1.1.2.2.2.3V48h-1Zm25.3 11.8-.6-.3a.454.454 0 0 0-.5 0l-.5.3a1.387 1.387 0 0 0-.7 1.2v1.9a.472.472 0 0 0 .5.5h2a.472.472 0 0 0 .5-.5v-1.9a1.387 1.387 0 0 0-.7-1.2Zm-.3 2.6h-1v-1.4c0-.1.1-.2.2-.3l.3-.2.3.2c.1.1.2.2.2.3V61Zm.3-22.6-.6-.3a.454.454 0 0 0-.5 0l-.5.3a1.387 1.387 0 0 0-.7 1.2v1.9a.472.472 0 0 0 .5.5h2a.472.472 0 0 0 .5-.5v-1.9a1.387 1.387 0 0 0-.7-1.2Zm-.3 2.6h-1v-1.4c0-.1.1-.2.2-.3l.3-.2.3.2c.1.1.2.2.2.3V41Zm-1.5-9h2a.472.472 0 0 0 .5-.5v-1.9a1.525 1.525 0 0 0-.7-1.2l-.6-.3a.454.454 0 0 0-.5 0l-.5.3a1.387 1.387 0 0 0-.7 1.2v1.9a.472.472 0 0 0 .5.5Zm.5-2.4c0-.1.1-.2.2-.3l.3-.2.3.2c.1.1.2.2.2.3V31h-1v-1.4Zm9.5 5.4h2a.472.472 0 0 0 .5-.5v-1.9a1.525 1.525 0 0 0-.7-1.2l-.6-.3a.454.454 0 0 0-.5 0l-.5.3a1.387 1.387 0 0 0-.7 1.2v1.9a.472.472 0 0 0 .5.5Zm.5-2.4c0-.1.1-.2.2-.3l.3-.2.3.2c.1.1.2.2.2.3V34h-1v-1.4Zm1.3 7.8-.6-.3a.454.454 0 0 0-.5 0l-.5.3a1.387 1.387 0 0 0-.7 1.2v1.9a.472.472 0 0 0 .5.5h2a.472.472 0 0 0 .5-.5v-1.9a1.387 1.387 0 0 0-.7-1.2Zm-.3 2.6h-1v-1.4c0-.1.1-.2.2-.3l.3-.2.3.2c.1.1.2.2.2.3V43Zm.3 15.4-.6-.3a.454.454 0 0 0-.5 0l-.5.3a1.387 1.387 0 0 0-.7 1.2v1.9a.472.472 0 0 0 .5.5h2a.472.472 0 0 0 .5-.5v-1.9a1.387 1.387 0 0 0-.7-1.2Zm-.3 2.6h-1v-1.4c0-.1.1-.2.2-.3l.3-.2.3.2c.1.1.2.2.2.3V61ZM38.8 35h2a.472.472 0 0 0 .5-.5v-1.9a1.525 1.525 0 0 0-.7-1.2l-.6-.3a.454.454 0 0 0-.5 0l-.5.3a1.387 1.387 0 0 0-.7 1.2v1.9a.472.472 0 0 0 .5.5Zm.5-2.4c0-.1.1-.2.2-.3l.3-.2.3.2c.1.1.2.2.2.3V34h-1Zm1.3 7.8-.6-.3a.454.454 0 0 0-.5 0l-.5.3a1.387 1.387 0 0 0-.7 1.2v1.9a.472.472 0 0 0 .5.5h2a.472.472 0 0 0 .5-.5v-1.9a1.387 1.387 0 0 0-.7-1.2Zm-.3 2.6h-1v-1.4c0-.1.1-.2.2-.3l.3-.2.3.2c.1.1.2.2.2.3V43Zm.3 15.4-.6-.3a.454.454 0 0 0-.5 0l-.5.3a1.387 1.387 0 0 0-.7 1.2v1.9a.472.472 0 0 0 .5.5h2a.472.472 0 0 0 .5-.5v-1.9a1.387 1.387 0 0 0-.7-1.2Zm-.3 2.6h-1v-1.4c0-.1.1-.2.2-.3l.3-.2.3.2c.1.1.2.2.2.3V61Zm34.3-1.6-.6-.3a.454.454 0 0 0-.5 0l-.5.3a1.387 1.387 0 0 0-.7 1.2v1.9a.472.472 0 0 0 .5.5h2a.472.472 0 0 0 .5-.5v-1.9a1.387 1.387 0 0 0-.7-1.2Zm-.3 2.6h-1v-1.4c0-.1.1-.2.2-.3l.3-.2.3.2c.1.1.2.2.2.3V62Zm.3-16.6-.6-.3a.454.454 0 0 0-.5 0l-.5.3a1.387 1.387 0 0 0-.7 1.2v1.9a.472.472 0 0 0 .5.5h2a.472.472 0 0 0 .5-.5v-1.9a1.387 1.387 0 0 0-.7-1.2Zm-.3 2.6h-1v-1.4c0-.1.1-.2.2-.3l.3-.2.3.2c.1.1.2.2.2.3V48ZM40.8 73h-2a.472.472 0 0 0-.5.5v4a.472.472 0 0 0 .5.5h2a.472.472 0 0 0 .5-.5v-4a.472.472 0 0 0-.5-.5Zm-.5 4h-1v-3h1Zm-13.5-4h-2a.472.472 0 0 0-.5.5v4a.472.472 0 0 0 .5.5h2a.472.472 0 0 0 .5-.5v-4a.472.472 0 0 0-.5-.5Zm-.5 4h-1v-3h1Zm24.5-4h-2a.472.472 0 0 0-.5.5v4a.472.472 0 0 0 .5.5h2a.472.472 0 0 0 .5-.5v-4a.472.472 0 0 0-.5-.5Zm-.5 4h-1v-3h1Zm10.5-4h-2a.472.472 0 0 0-.5.5v4a.472.472 0 0 0 .5.5h2a.472.472 0 0 0 .5-.5v-4a.472.472 0 0 0-.5-.5Zm-.5 4h-1v-3h1Zm14.5-4h-2a.472.472 0 0 0-.5.5v4a.472.472 0 0 0 .5.5h2a.472.472 0 0 0 .5-.5v-4a.472.472 0 0 0-.5-.5Zm-.5 4h-1v-3h1ZM26.6 59.4l-.6-.3a.454.454 0 0 0-.5 0l-.5.3a1.387 1.387 0 0 0-.7 1.2v1.9a.472.472 0 0 0 .5.5h2a.472.472 0 0 0 .5-.5v-1.9a1.387 1.387 0 0 0-.7-1.2Zm-.3 2.6h-1v-1.4c0-.1.1-.2.2-.3l.3-.2.3.2c.1.1.2.2.2.3Zm-1.5-6h2a.472.472 0 0 0 .5-.5v-1.9a1.525 1.525 0 0 0-.7-1.2l-.6-.3a.454.454 0 0 0-.5 0l-.5.3a1.387 1.387 0 0 0-.7 1.2v1.9a.472.472 0 0 0 .5.5Zm.5-2.4c0-.1.1-.2.2-.3l.3-.2.3.2c.1.1.2.2.2.3V55h-1Zm25.3-5.2-.6-.3a.454.454 0 0 0-.5 0l-.5.3a1.387 1.387 0 0 0-.7 1.2v1.9a.472.472 0 0 0 .5.5h2a.472.472 0 0 0 .5-.5v-1.9a1.387 1.387 0 0 0-.7-1.2Zm-.3 2.6h-1v-1.4c0-.1.1-.2.2-.3l.3-.2.3.2c.1.1.2.2.2.3V51Zm10.3-1.6-.6-.3a.454.454 0 0 0-.5 0l-.5.3a1.387 1.387 0 0 0-.7 1.2v1.9a.472.472 0 0 0 .5.5h2a.472.472 0 0 0 .5-.5v-1.9a1.387 1.387 0 0 0-.7-1.2Zm-.3 2.6h-1v-1.4c0-.1.1-.2.2-.3l.3-.2.3.2c.1.1.2.2.2.3V52Zm-19.7-2.6-.6-.3a.454.454 0 0 0-.5 0l-.5.3a1.387 1.387 0 0 0-.7 1.2v1.9a.472.472 0 0 0 .5.5h2a.472.472 0 0 0 .5-.5v-1.9a1.387 1.387 0 0 0-.7-1.2Zm-.3 2.6h-1v-1.4c0-.1.1-.2.2-.3l.3-.2.3.2c.1.1.2.2.2.3V52Zm34.3.4-.6-.3a.454.454 0 0 0-.5 0l-.5.3a1.387 1.387 0 0 0-.7 1.2v1.9a.472.472 0 0 0 .5.5h2a.472.472 0 0 0 .5-.5v-1.9a1.387 1.387 0 0 0-.7-1.2Zm-.3 2.6h-1v-1.4c0-.1.1-.2.2-.3l.3-.2.3.2c.1.1.2.2.2.3V55ZM54.8 40a.472.472 0 0 0-.5.5v4a.5.5 0 0 0 1 0v-4a.472.472 0 0 0-.5-.5Zm0 9a.472.472 0 0 0-.5.5v5a.5.5 0 0 0 1 0v-5a.472.472 0 0 0-.5-.5Zm-10-9a.472.472 0 0 0-.5.5v4a.5.5 0 0 0 1 0v-4a.472.472 0 0 0-.5-.5Zm10-4a.472.472 0 0 0 .5-.5v-5a.5.5 0 0 0-1 0v5a.472.472 0 0 0 .5.5Zm-10 0a.472.472 0 0 0 .5-.5v-5a.5.5 0 0 0-1 0v5a.472.472 0 0 0 .5.5Zm0 13a.472.472 0 0 0-.5.5v5a.5.5 0 0 0 1 0v-5a.472.472 0 0 0-.5-.5Zm-10-6a.472.472 0 0 0-.5.5v3a.5.5 0 0 0 1 0v-3a.472.472 0 0 0-.5-.5Zm0 8a.472.472 0 0 0-.5.5v3a.5.5 0 0 0 1 0v-3a.472.472 0 0 0-.5-.5Zm-4-7a.472.472 0 0 0-.5.5v3a.5.5 0 0 0 1 0v-3a.472.472 0 0 0-.5-.5Zm4-5a.472.472 0 0 0 .5-.5v-4a.5.5 0 0 0-1 0v4a.472.472 0 0 0 .5.5Zm-4 1a.472.472 0 0 0 .5-.5v-2a.5.5 0 0 0-1 0v2a.472.472 0 0 0 .5.5Zm0 12a.472.472 0 0 0-.5.5v2a.5.5 0 0 0 1 0v-2a.472.472 0 0 0-.5-.5Zm-10-2a.472.472 0 0 0 .5-.5v-2a.5.5 0 0 0-1 0v2a.472.472 0 0 0 .5.5Zm0 7a.472.472 0 0 0 .5-.5v-2a.5.5 0 0 0-1 0v2a.472.472 0 0 0 .5.5Zm0 4a.472.472 0 0 0-.5.5v3a.5.5 0 0 0 1 0v-3a.472.472 0 0 0-.5-.5Zm10 9a.472.472 0 0 0-.5.5v8a.5.5 0 0 0 1 0v-8a.472.472 0 0 0-.5-.5Zm4 0a.472.472 0 0 0-.5.5v8a.5.5 0 0 0 1 0v-8a.472.472 0 0 0-.5-.5Zm10 0a.472.472 0 0 0-.5.5v8a.5.5 0 0 0 1 0v-8a.472.472 0 0 0-.5-.5Zm34-16a.472.472 0 0 0-.5.5v2a.5.5 0 0 0 1 0v-2a.472.472 0 0 0-.5-.5Zm0 7a.472.472 0 0 0-.5.5v3a.5.5 0 0 0 1 0v-3a.472.472 0 0 0-.5-.5Zm-58 9a.472.472 0 0 0-.5.5v8a.5.5 0 0 0 1 0v-8a.472.472 0 0 0-.5-.5Zm34 0a.472.472 0 0 0-.5.5v8a.5.5 0 0 0 1 0v-8a.472.472 0 0 0-.5-.5Zm10 0a.472.472 0 0 0-.5.5v8a.5.5 0 0 0 1 0v-8a.472.472 0 0 0-.5-.5Zm4 0a.472.472 0 0 0-.5.5v8a.5.5 0 0 0 1 0v-8a.472.472 0 0 0-.5-.5Zm10 0a.472.472 0 0 0-.5.5v8a.5.5 0 0 0 1 0v-8a.472.472 0 0 0-.5-.5Zm-24-11a.472.472 0 0 0-.5.5v5a.5.5 0 0 0 1 0v-5a.472.472 0 0 0-.5-.5Zm-10 0a.472.472 0 0 0-.5.5v5a.5.5 0 0 0 1 0v-5a.472.472 0 0 0-.5-.5Zm-10 0a.472.472 0 0 0-.5.5v5a.5.5 0 0 0 1 0v-5a.472.472 0 0 0-.5-.5Zm-4 0a.472.472 0 0 0-.5.5v5a.5.5 0 0 0 1 0v-5a.472.472 0 0 0-.5-.5Zm48-9a.472.472 0 0 0 .5-.5v-2a.5.5 0 0 0-1 0v2a.472.472 0 0 0 .5.5Zm-14-7a.472.472 0 0 0-.5.5v3a.5.5 0 0 0 1 0v-3a.472.472 0 0 0-.5-.5Zm0 8a.472.472 0 0 0-.5.5v3a.5.5 0 0 0 1 0v-3a.472.472 0 0 0-.5-.5Zm0 8a.472.472 0 0 0-.5.5v5a.5.5 0 0 0 1 0v-5a.472.472 0 0 0-.5-.5Zm4-15a.472.472 0 0 0-.5.5v3a.5.5 0 0 0 1 0v-3a.472.472 0 0 0-.5-.5Zm-4-5a.472.472 0 0 0 .5-.5v-4a.5.5 0 0 0-1 0v4a.472.472 0 0 0 .5.5Zm4 1a.472.472 0 0 0 .5-.5v-2a.5.5 0 0 0-1 0v2a.472.472 0 0 0 .5.5Zm0 12a.472.472 0 0 0-.5.5v2a.5.5 0 0 0 1 0v-2a.472.472 0 0 0-.5-.5Zm0 7a.472.472 0 0 0-.5.5v5a.5.5 0 0 0 1 0v-5a.472.472 0 0 0-.5-.5Z" data-name="Path 72858"/></g></g></svg>