<svg xmlns="http://www.w3.org/2000/svg" width="90.5" height="90" viewBox="0 0 90.5 90"><g id="Pune" transform="translate(-150.75 -299)"><path id="Rectangle_14916" fill="#fff" d="M0 0h90v90H0z" data-name="Rectangle 14916" transform="translate(151 299)"/><g id="Pune-2" fill="none" stroke="#ec1579" stroke-width=".5" data-name="Pune" transform="translate(151 40.08)"><path id="Path_72583" d="M67.01 373.521c-1.541 0-3.083.012-4.624.012q-6.716 0-13.431-.006h-15.4c-2.247 0-4.493.013-6.74.019-.065 0-.13-.011-.2-.018a.157.157 0 0 1 .025-.172c.188-.171.12-.4.121-.6v-6.745a1.615 1.615 0 0 1 .067-.68c.106-.184.3-.178.472-.206a17.818 17.818 0 0 1 2.633-.315 12.736 12.736 0 0 0-2.413.232c-.284.046-.565.079-.714-.257a1.587 1.587 0 0 1-.046-.538c0-5.826-.023-11.653-.014-17.479a1.956 1.956 0 0 1 .073-.729c.375-.409.863-.127 1.234-.224-.36-.1-.847.165-1.223-.207a.618.618 0 0 1-.048-.14c-.184-1.146-.021-1.3 1.116-1.35 2.927-.129 5.855-.044 8.782-.09h.294c.883.008 1.027.188.854 1.068-.125.224-.35.2-.555.217a2.59 2.59 0 0 0-.386.039c-.179.043-.361.1-.34.334s.212.205.368.227c.307.044.657-.1.906.208a1.435 1.435 0 0 1 .068.631v22.189a1.983 1.983 0 0 1-.034.537c-.08.263-.3.32-.533.359-.372.061-.748.091-1.117.182a9.253 9.253 0 0 0 1-.1c.21-.025.427-.083.6.114a7.138 7.138 0 0 1 .081 1.744c.017.373 0 .748 0 1.122 0 .158-.035.339.189.392a.873.873 0 0 0 .179 0c3.325 0 6.648-.023 9.972.01h.383c2-.02 4.009-.024 6.013 0 .125 0 .25-.005.374 0a50.836 50.836 0 0 1 2.209 0c.153-.005.305-.008.458 0 .7-.014 1.4-.017 2.1 0q.183-.005.365 0 1.005-.023 2.011 0 .23-.01.461 0c1.3-.023 2.6-.012 3.9-.007a1.181 1.181 0 0 1 .44.085.109.109 0 0 1 .056.147Z" data-name="Path 72583" transform="translate(-21.928 -37.645)"/><path id="Path_72584" d="M256.466 373.514v-.056a.59.59 0 0 1 .535-.178c1.354 0 2.709-.023 4.063.008a51.415 51.415 0 0 1 2.151 0h.369c.7-.014 1.4-.017 2.1 0h.367a51.87 51.87 0 0 1 2.3 0h.374q2.958-.033 5.915 0h.383c3.4-.028 6.8-.014 10.206-.01a.7.7 0 0 0 .184-.023c.243-.117.156-.342.156-.523.007-2.019 0-4.039 0-6.058v-19.8a2.13 2.13 0 0 1 .051-.732c.157-.291.444-.211.693-.234.216-.02.461-.027.461-.314 0-.27-.258-.241-.439-.281-.243-.053-.534.046-.705-.231a.936.936 0 0 1-.06-.387c0-.507.123-.654.626-.672.672-.024 1.344 0 2.016 0 1.262.008 2.525.026 3.787 0 1.313-.031 2.619.109 3.93.1.658-.006.77.124.78.777a1.724 1.724 0 0 1-.071.679c-.156.258-.419.206-.656.216s-.5.01-.747 0c.42.124.957-.173 1.393.214a1.41 1.41 0 0 1 .07.631c0 3.822.008 7.644-.006 11.467q0 .958.007 1.915c.032 3.231-.15 6.46-.088 9.69a1.768 1.768 0 0 1-.05.535c-.11.327-.429.212-.7.321.221.138.509.025.655.245a9.638 9.638 0 0 1 .08 1.891c.014.239-.026.5.218.66a.124.124 0 0 1 .03.151 2.841 2.841 0 0 1-.686.015h-21.3q-5.338 0-10.676-.009-3.591 0-7.183.01c-.173-.005-.353-.013-.533-.017Z" data-name="Path 72584" transform="translate(-211.384 -37.638)"/><path id="Path_72585" d="M33.387 307.34c.03-.325.025-.654.046-.98a3.1 3.1 0 0 1 .073-.433.233.233 0 0 1 .181-.208c.127-.02.161.094.194.181a1.167 1.167 0 0 1 .087.331 6.9 6.9 0 0 1-.154 1.628c-.34-.085-.452-.241-.427-.519Zm-6.887-2.367c-.009.16-.084.241-.249.225l-.1-.007c-1-.076-1.056-.141-.906-1.124a3.4 3.4 0 0 1 .262-1.044c.122-.243.308-.52.544-.523.265 0 .354.338.459.575a1.667 1.667 0 0 1 .094.763 10.639 10.639 0 0 1-.104 1.135Zm66.791 4.263c-.088-.2-.278-.265-.448-.364-.852-.5-1.746-.909-2.62-1.361-.172-.089-.418-.2-.287-.427.1-.175.293.02.428.084.875.413 1.719.889 2.609 1.272a1.177 1.177 0 0 0 .2.048.142.142 0 0 0 .12-.042v-.294a.884.884 0 0 0-.5-.438c-.8-.4-1.608-.8-2.408-1.208-.125-.064-.292-.086-.362-.285.907.419 1.786.809 2.642 1.249.191.1.39.274.63.092v-.294c-.091-.218-.3-.29-.484-.389a34.72 34.72 0 0 0-2.385-1.14 1.052 1.052 0 0 1-.65-.889 21.244 21.244 0 0 0-.506-2.74.263.263 0 0 0-.063-.069.479.479 0 0 1-.041-.034c-.023-.023-.016-.03 0-.03a.333.333 0 0 1 .062.009.552.552 0 0 1 .448.143 88.21 88.21 0 0 1 2.873 2.02l.012.009c.062.04.126.076.191.111l.046.024c.133.036.24.208.4.113a.317.317 0 0 0 .04-.029.76.76 0 0 0-.432-.8c-1.04-.711-2.063-1.447-3.107-2.152a1.181 1.181 0 0 1-.671-.95.522.522 0 0 0-.26-.4l-.023-.009c-.173-.067-.346-.043-.331.171.041.615-.357.6-.765.573-1.717-.125-3.436-.093-5.155-.1H79.3c-.367 0-.548-.134-.531-.517a.768.768 0 0 0-.152-.6h-.2c-.295.057-.316.284-.333.523-.043.605-.046.607-.665.608-1.017 0-2.035.007-3.052 0a3.725 3.725 0 0 0-1.255.2c-1.32.451-2.662.833-3.978 1.3-.328.115-.62.213-.568-.335.014-.147-.05-.3-.24-.26a.473.473 0 0 0-.065.022.1.1 0 0 0-.087.023.334.334 0 0 0-.206.358c.043.528-.276.784-.684 1.024-1.666.979-3.334 1.954-4.974 2.963a2.564 2.564 0 0 1 1.257-1.384c.139-.092.415-.137.348-.395 0-.011-.006-.021-.01-.031 0-.013-.01-.027-.016-.041a.346.346 0 0 0-.468-.107 2.794 2.794 0 0 0-1.62 1.786c.018-.9 0-1.778.01-2.658 0-.572.033-.6.621-.6h.933a.441.441 0 0 0 .478-.327c.151-.118.121-.215-.04-.286a1.426 1.426 0 0 0-.581-.068c-1.212 0-2.424 0-3.636-.005-.3 0-.7.111-.71-.421 0-.392.079-.447.731-.45s1.278.014 1.916-.01c.2-.007.482.074.552-.255h-.255a.71.71 0 0 0-.691-.343c-1.853-.012-3.707-.065-5.559-.08-6.022-.05-12.045-.046-18.067.074a1.183 1.183 0 0 0-.969.349.464.464 0 0 0-.274 0c.075.326.353.243.557.25.72.024 1.441 0 2.162.014.41.01.523.169.47.552-.046.33-.289.313-.516.315-1.229.008-2.457 0-3.686 0a1.782 1.782 0 0 0-.585.053c-.18.062-.237.165-.085.32l.019.172c.441.265.926.108 1.389.127.35.015.51.1.561.491.117.9.046 1.8.083 2.771a2.9 2.9 0 0 0-1.554-1.714c-.21-.119-.384-.161-.548.053a.366.366 0 0 0-.03.048c-.094.177.092.246.192.328a5.705 5.705 0 0 0 .65.442 1.569 1.569 0 0 1 .678.932 1.5 1.5 0 0 1-.494-.249c-1.339-.792-2.668-1.6-4.013-2.382-.578-.335-1.093-.664-1.074-1.426 0-.044-.046-.085-.076-.124-.067-.1-.173-.1-.275-.105-.245-.014-.205.179-.186.3.069.437-.1.459-.462.335-1.315-.453-2.653-.834-3.966-1.3a4.534 4.534 0 0 0-1.589-.257c-.965.015-1.931 0-2.9.008-.363 0-.567-.108-.54-.5a1.03 1.03 0 0 0-.023-.293c-.058-.264-.179-.385-.406-.25a.77.77 0 0 0-.068.046.486.486 0 0 0-.069.233c.014.73-.059.748-.86.747-2.033 0-4.067.006-6.1 0-.787 0-1.566.146-2.356.107-.328-.016-.584-.041-.581-.467 0-.167-.056-.359-.3-.294l-.038.012a.075.075 0 0 0-.076.024.661.661 0 0 0-.212.427.868.868 0 0 1-.5.777 58.425 58.425 0 0 0-2.242 1.571 8.9 8.9 0 0 0-1.412 1.019c-.019.02-.037.041-.054.062l-.038.058c-.02.463-.02.467.516.429h.012a.435.435 0 0 0 .121-.161l.01-.018a.481.481 0 0 1 .146-.169q1.6-1.131 3.215-2.248a.327.327 0 0 1 .241-.057h.022a.565.565 0 0 1 .061.013.5.5 0 0 0 .161-.04.48.48 0 0 0 .054-.026.838.838 0 0 0 .142-.1.92.92 0 0 1 .729-.215h8.9a.663.663 0 0 1 .282.028l.018.009a.141.141 0 0 1 .077.134.062.062 0 0 0 0 .009.859.859 0 0 1 .009.138.909.909 0 0 0 .007.127c.045.8.023 1.607.017 2.411-.006.872-.01.87-.9.874-1.3.005-2.6-.069-3.888.025-1.739.127-3.477.037-5.214.067-.415.007-.523-.195-.323-.564a1.385 1.385 0 0 0 .278-.618 11.247 11.247 0 0 0-.072-2.06.26.26 0 0 0-.068-.088.246.246 0 0 0-.04-.027.719.719 0 0 0-.236-.06h-.021c-.316.151-.284.473-.3.726-.031.706-.188 1.4-.235 2.1a1.052 1.052 0 0 1-.676.979c-.893.407-1.759.877-2.642 1.307-.295.144-.484.331-.425.685a.357.357 0 0 0 .065.048l.021.011c.181.089.332-.068.479-.139.838-.407 1.667-.831 2.5-1.244a.705.705 0 0 1 .483-.121 15.334 15.334 0 0 1-1.472.747 15.562 15.562 0 0 0-1.981 1.058.438.438 0 0 0-.034.027l-.037.03a.938.938 0 0 0-.028.329.173.173 0 0 0 .045.116l.03.008.031.008a.435.435 0 0 0 .164-.047.929.929 0 0 0 .1-.052c.045-.025.09-.048.135-.071a.83.83 0 0 0 .088-.045c.044-.023.089-.042.133-.063a.913.913 0 0 0 .091-.043l.093-.044c.03-.015.063-.03.094-.047s.065-.03.1-.047.065-.03.1-.049.066-.031.1-.049.066-.031.1-.049.067-.032.1-.049.066-.031.1-.049.067-.032.1-.049.067-.031.1-.049.067-.032.1-.049.067-.031.1-.049.066-.032.1-.049.066-.031.1-.049.066-.031.1-.049.066-.031.1-.049.066-.032.1-.049.066-.031.1-.049.064-.031.1-.049.063-.03.094-.048.062-.031.092-.048a.922.922 0 0 0 .089-.048c.043-.024.086-.045.131-.066a.557.557 0 0 0 .085-.043c.041-.022.084-.04.127-.059s.057-.023.085-.037.085-.029.129-.041a.848.848 0 0 0 .083-.025.21.21 0 0 1 .033.024l-.014.034a1.194 1.194 0 0 0-.013.232.421.421 0 0 1-.027.154.3.3 0 0 1-.064.071l-.085.049c-.028.016-.062.029-.092.046s-.064.03-.095.047-.065.031-.1.048l-.1.048c-.035.017-.066.031-.1.049s-.066.032-.1.049-.066.031-.1.049-.066.032-.1.049-.067.031-.1.049-.066.032-.1.049-.067.031-.1.049-.067.032-.1.049-.067.031-.1.049-.067.032-.1.049-.066.031-.1.049-.066.032-.1.049-.066.031-.1.049-.066.031-.1.049-.066.031-.1.049-.066.032-.1.049l-.1.049-.1.049c-.035.018-.064.031-.095.048s-.063.031-.093.049-.062.031-.091.049-.061.03-.091.047-.062.027-.091.043-.061.03-.09.046-.062.028-.091.045a2.519 2.519 0 0 1-.138.068.986.986 0 0 0-.1.043l-.156.068a.678.678 0 0 0-.108.057.24.24 0 0 0-.13.23c.013.094-.021.208.045.278l.011.011a.213.213 0 0 0 .089.042 1.3 1.3 0 0 0 .645-.214c.735-.363 1.467-.733 2.2-1.1.551-.275.545-.275.552.362.055 4.623-.062 9.246.077 13.87.1 3.375.02 6.756.021 10.134 0 .326-.012.631-.417.726a.253.253 0 0 0-.214.24c0 .107.122.156.217.172.362.061.414.313.414.617 0 .606-.005 1.213 0 1.82a.8.8 0 0 0 .137.59l.012.013c.159 0 .3-.024.3-.232v-7.947a.359.359 0 0 0 .04-.061.27.27 0 0 0 .019-.215.467.467 0 0 0-.06-.12v-18.909l.007-.009a.214.214 0 0 0 .015-.263.248.248 0 0 0-.019-.029v-1.081c0-.2.08-.3.291-.3.849 0 1.7-.057 2.545-.075 2.473-.051 4.947-.021 7.42-.022h.3c.211-.011.295.092.29.3-.007.229 0 .458 0 .688q-.02.03-.038.062a.726.726 0 0 0 .016.794l.023.036v23.542a.459.459 0 0 0-.058.118.271.271 0 0 0 .02.222.38.38 0 0 0 .038.057v2c0 .39.006.779 0 1.168 0 .213.088.3.294.273a.6.6 0 0 0 .083-.127l.008-.018a1.705 1.705 0 0 0 .045-.7v-2.918a.084.084 0 0 1 0-.016q0-11.573.011-23.146 0-.175-.007-.351v-.126c-.011-.311-.025-.622-.007-.934q.006-.108.018-.215a3.129 3.129 0 0 1 .064-.378c.213-.182.44-.06.655-.016q4.161.847 8.326 1.682c1.026.2.9.076.911 1.115v.169a1.709 1.709 0 0 1 0 .188 1.847 1.847 0 0 0-.011.2v20.161c0 .064.006.129.007.192 0 .182-.011.363 0 .544q0 .062.007.124c-.031 1.345-.009 2.691-.01 4.036a.933.933 0 0 0 .067.413.485.485 0 0 0 .1.137h.281a.551.551 0 0 0 .093-.14 1.328 1.328 0 0 0 .062-.561c.005-1.083.009-2.166 0-3.248a.5.5 0 0 1 .505-.579c.327-.043.657-.017.981-.07a.472.472 0 0 0-.009-.941 6.244 6.244 0 0 0-.836-.025c-.6-.011-.69-.089-.61-.7a12.147 12.147 0 0 0 .071-1.571v-17.03c0-.245-.068-.524.063-.726.2-.305.326-.561.011-.859a.174.174 0 0 1 0-.229c.061-.067.152-.034.23 0s.148.07.221.106c1.473.722 2.946 1.444 4.44 2.121a.845.845 0 0 1 .549.879c-.005 3 .027 6 .076 9 .067 4.133 0 8.269.028 12.4a6.376 6.376 0 0 0 .2 2.034c.015.046.032.093.05.138h.283a.627.627 0 0 0 .092-.134 1.58 1.58 0 0 0 .072-.712c.064-4.415-.154-8.827-.1-13.241.029-2.4 0-4.793.005-7.189 0-.361-.032-.721-.055-1.081-.093-1.476-.031-2.953-.036-4.43a.373.373 0 0 1 .419-.425h.886c.927 0 .928 0 .928.916 0 6.55.035 13.1-.021 19.648-.017 1.95-.065 3.9-.074 5.855a1.4 1.4 0 0 0 .072.665.588.588 0 0 0 .093.132h.37a.643.643 0 0 0 .1-.133 1.548 1.548 0 0 0 .076-.758q.006-9.821 0-19.643c0-.18.009-.362 0-.541-.017-.374.149-.528.526-.53.459 0 .918-.006 1.377 0 2.82.063 5.636-.133 8.456-.1 1.064.013 2.124.128 3.191.1 1.328-.033 2.657-.013 3.985 0 .639.005.663.038.662.675q-.015 6.767.094 13.534c.039 2.2 0 4.4.009 6.6a1.439 1.439 0 0 0 .072.66.587.587 0 0 0 .095.137h.281a.573.573 0 0 0 .093-.135 1.328 1.328 0 0 0 .07-.613c-.05-8.3.115-16.607-.094-24.909a30.567 30.567 0 0 1 0-1.133.376.376 0 0 1 .421-.424h1.034c.756 0 .787.021.778.768-.052 4.283.038 8.565-.071 12.849-.109 4.315-.026 8.634-.023 12.951a1.172 1.172 0 0 0 .069.514.516.516 0 0 0 .094.137h.283a.539.539 0 0 0 .094-.135 1.233 1.233 0 0 0 .065-.564c-.052-5.5.168-10.991.1-16.488-.021-1.739 0-3.479 0-5.219 0-.411.041-.818.07-1.227a.907.907 0 0 1 .574-.828c1.222-.6 2.466-1.158 3.68-1.773.292-.148.6-.268.9-.4.1-.043.223-.112.3.023.058.1-.009.187-.077.262-.138.151-.282.313-.088.507a1.154 1.154 0 0 1 .243.92v9.009c0 3.626-.012 7.253.009 10.879q-.01.174 0 .348v.121c-.031 1.339-.008 2.679-.01 4.018a.935.935 0 0 0 .066.412.5.5 0 0 0 .095.137h.283a.535.535 0 0 0 .094-.14 1.3 1.3 0 0 0 .064-.556c.005-1.061 0-2.121.005-3.182 0-.261-.01-.533.355-.6.163-.028.406-.028.4-.271s-.229-.287-.426-.322c-.414-.092-.343-.424-.343-.71v-20.403c.014-.939-.117-.9.895-1.1q4.314-.858 8.628-1.723a1.094 1.094 0 0 1 .486-.047c.207.131.16.346.151.534 0 .055 0 .109-.007.164v.112c-.005.274 0 .548 0 .822v.113c0 .186.007.373.007.559v25.891a1.737 1.737 0 0 0 .043.7.558.558 0 0 0 .031.061.575.575 0 0 0 .063.089c.169.013.294-.025.29-.231V309.46l.037-.06a.736.736 0 0 0 0-.777q-.017-.03-.036-.058c0-.2-.005-.393 0-.59.01-.38.012-.388.388-.391h2.554c2.485.006 4.971-.022 7.455.1a1.47 1.47 0 0 0 .147 0c.21-.012.294.091.29.3-.006.36 0 .72 0 1.081a.331.331 0 0 0-.038.063.218.218 0 0 0 .026.225.087.087 0 0 0 .011.016V316.358c0 1.181-.017 2.363 0 3.544.02 1.157-.058 2.312-.012 3.471.094 2.359-.112 4.716-.088 7.076.012 1.116 0 2.231 0 3.347a.414.414 0 0 0-.038.056.265.265 0 0 0 0 .275.4.4 0 0 0 .041.062v2.279c0 .343.009.343.383.37l.012-.011a.674.674 0 0 0 .148-.535c0-.72.018-1.439-.008-2.159q-.007-.185 0-.371c.044-3.822.014-7.644.026-11.465.01-3-.009-6-.011-9a42.391 42.391 0 0 1 .087-4.621c.056-.514.075-.536.557-.313.745.345 1.439.788 2.181 1.137.2.1.4.24.649.158a.93.93 0 0 0 .008-.422Zm-10.837-6.783c.059-.351.16-.777.469-.856.282-.073.461.351.629.6a3.206 3.206 0 0 1 .316 1.708c.007.114-.09.123-.169.126-.179.005-.359 0-.539 0-.081.006-.162.017-.244.019-.408.012-.436-.01-.455-.429a5.435 5.435 0 0 1-.006-1.17Zm-10.7 1.35a1.955 1.955 0 0 1 .358-1.167c.146-.2.261-.187.43-.029a1.374 1.374 0 0 1 .429.643 8.138 8.138 0 0 1 .239 1.5.263.263 0 0 1-.263.329c-.242.032-.484.074-.725.114-.192.031-.31-.018-.332-.238-.04-.406-.1-.811-.137-1.151Zm-7.314 2.385c.013-.182.027-.456.265-.45.2 0 .216.255.23.436.028.375.057.751.078 1.127s.016.374-.423.529a5.139 5.139 0 0 1-.149-1.643Z" data-name="Path 72585" transform="translate(-4.186 -1.024)"/><path id="Path_72586" d="M5.129 348.167a.9.9 0 0 0 .453-.167c.9-.446 1.788-.9 2.683-1.341a.976.976 0 0 1 .471-.177 1.449 1.449 0 0 1 .032.527c0 4.247-.07 8.5.026 12.74.087 3.835.019 7.668.066 11.5v.3c0 .51 0 .509-.533.585a.469.469 0 0 0-.133.055c-.012.006-.017.025-.033.049.042.121.153.074.236.079.434.031.459.051.462.5.005.885 0 1.771.005 2.656v.083l-3.311.011c-.2 0-.4.012-.443-.258a1.425 1.425 0 0 1-.035-.536V348.7a.906.906 0 0 1 .053-.528Zm84.518 24.243v-8.372q0-7.822.006-15.644a14.145 14.145 0 0 0 .074-1.914c1.292.545 2.386 1.24 3.553 1.789.007.2.02.393.021.589q0 10.578.006 21.157c0 1.574.009 3.149.014 4.723a3.7 3.7 0 0 1-.005.393c-.034.325-.139.428-.471.428-1.066 0-2.132-.009-3.2-.015a.685.685 0 0 0-.008-.091l.01-2.746a.178.178 0 0 0 0-.3Z" data-name="Path 72586" transform="translate(-4.173 -39.67)"/><path id="Path_72587" d="M209.308 299.726a.96.96 0 0 0-.532-.19c-2.882.079-5.761-.12-8.643-.1-3.393.027-6.788-.05-10.179.03a280.57 280.57 0 0 1-5.349.062c-.239 0-.365.207-.582.2.224-.2.116-.462.119-.7.008-.666 0-.666.679-.667 3.409-.006 6.819-.018 10.228-.017q6.81 0 13.619.018c.553 0 .567.023.577.586a1.671 1.671 0 0 0 .063.778Z" data-name="Path 72587" transform="translate(-151.674)"/><path id="Path_72588" d="M9.206 311.227a.083.083 0 0 0-.02-.028c-.051-.256-.192-.1-.276-.045q-1.627 1.122-3.245 2.257a.558.558 0 0 0-.222.254c.074.073.118.144-.008.209-.071-.034-.1-.182-.171-.141-.4.236-.282-.081-.291-.264.018-.046.036-.091.052-.137a.7.7 0 0 0-.084-.776c-.1.094-.057.214-.057.324 0 .917.025 1.833.007 2.751-.026 1.409-.012 2.819-.013 4.229q-.006 12.838-.008 25.676c0 .191-.058.394.07.571 0-.23.011-.46.011-.69V319.61c0-.2 0-.407.007-.611v-.03c0-.118 0-.236.007-.354.026-.1.135-.069.188-.125a.538.538 0 0 0 .094-.007 1.159 1.159 0 0 1 .1-.093.487.487 0 0 0 .094-.006 1.359 1.359 0 0 1 .1-.092.539.539 0 0 0 .094-.007.738.738 0 0 1 .077-.069l.025-.023a.554.554 0 0 0 .1-.007l.1-.091c.051-.061.14-.045.2-.1.051-.062.142-.045.2-.1.051-.061.142-.045.2-.1.051-.062.142-.045.2-.1.051-.06.141-.044.2-.1.051-.061.141-.044.2-.1.052-.06.142-.043.2-.1a.186.186 0 0 1 .1-.051.2.2 0 0 0 .1-.048c.052-.06.143-.042.2-.1s.143-.042.2-.1c.052-.06.143-.041.2-.1.052-.059.143-.04.2-.1.052-.058.143-.04.2-.1l.1-.1v-.494a.074.074 0 0 0-.105 0 .462.462 0 0 0-.09.006c-.051.06-.143.039-.2.1-.052.058-.143.039-.2.1H8c-.052.058-.143.04-.2.1-.052.058-.143.039-.2.1-.052.058-.143.04-.2.1-.052.058-.143.04-.2.1-.053.058-.143.04-.2.1-.052.059-.143.041-.2.1-.052.058-.143.04-.2.1-.052.058-.143.041-.2.1-.052.058-.143.04-.2.1-.052.059-.143.041-.2.1-.052.059-.143.041-.2.1-.052.059-.143.041-.2.1-.052.059-.143.041-.2.1-.052.059-.143.041-.2.1-.052.059-.143.041-.2.1-.038.03-.067.024-.088-.021 0-.124 0-.247.006-.37a3.16 3.16 0 0 0 .035-.087H5a.3.3 0 0 0-.012-.3l-.021-.026c-.069-.3.082-.441.335-.564 1-.485 1.993-.992 2.993-1.482a.609.609 0 0 0 .415-.534c.085-.808.26-1.605.282-2.423a1.77 1.77 0 0 1 .186-.795c.007 0 .014-.008.021-.025v-.006a.043.043 0 0 0 0-.035Zm-1.88 3.345a1.2 1.2 0 0 1-.493.148 7.549 7.549 0 0 1 .075-1.63 1.009 1.009 0 0 1 .308-.546c.137-.114.266-.076.273.1.021.556.018 1.113.025 1.669a.259.259 0 0 1-.188.257Z" data-name="Path 72588" transform="translate(-4.002 -10.473)"/><path id="Path_72589" d="M41.424 299.52c0 .294-.006.589 0 .884 0 .2-.076.307-.288.3-.114-.005-.229 0-.343 0-2.094 0-4.189.012-6.282 0-.9-.007-1.788.169-2.688.1-.114-.008-.229 0-.343 0-.178-.009-.266-.079-.223-.282a1.744 1.744 0 0 0 .01-.439c-.006-.122-.11-.148-.206-.172a4.5 4.5 0 0 1 1.446-.178c1.032.013 2.055-.136 3.084-.171 1.7-.058 3.4-.167 5.1-.158a1.931 1.931 0 0 1 .243.032c.136.154.345-.053.49.084Zm68.763.39c-.138.021-.329-.013-.236.24a.691.691 0 0 1 .033.192c.027.406-.012.444-.42.457-.769.025-1.533-.076-2.3-.086-2.2-.03-4.391-.011-6.587-.011h-.344c-.2.009-.3-.077-.3-.288.006-.328 0-.655 0-.983a33.487 33.487 0 0 1 3.476.04c.31.016.62.045.93.045 1.553 0 3.094.225 4.648.224a2.609 2.609 0 0 1 1.1.17Zm-10.349-.481c-.244.148-.193.39-.194.615 0 .718.054.656-.664.657-1.129 0-2.257.006-3.385 0a2.638 2.638 0 0 0-.862.142c-1.471.485-2.945.962-4.418 1.442-.062.02-.122.049-.185.064-.275.062-.366-.023-.306-.306a1.5 1.5 0 0 0 .065-.334.21.21 0 0 0-.207-.225c.867-.288 1.734-.578 2.6-.863.606-.2 1.225-.365 1.821-.589a8.807 8.807 0 0 1 2.6-.48 28.552 28.552 0 0 1 3.135-.123Z" data-name="Path 72589" transform="translate(-25.599 -.863)"/><path id="Path_72590" d="M87.712 299.615a.822.822 0 0 0-.319.053c-.128.047-.159-.046-.175-.146 1.248-.051 2.488.077 3.732.13a10.8 10.8 0 0 1 3.011.66c1.271.43 2.567.781 3.824 1.253a.164.164 0 0 0-.079.208 1.824 1.824 0 0 1 .044.7.565.565 0 0 1-.376-.048l-4.294-1.4a4.183 4.183 0 0 0-1.395-.232c-1.017.019-2.035.006-3.053.005-.65 0-.628.056-.626-.6v-.345c.004-.21-.13-.241-.294-.238Z" data-name="Path 72590" transform="translate(-71.887 -.958)"/><path id="Path_72591" d="M487.444 314.835a.183.183 0 0 0-.084-.1c-.138-.052-.224-.206-.392-.2h-.047a.574.574 0 0 1-.093 0 .13.13 0 0 1-.072-.116.552.552 0 0 0-.226-.252c-.952-.664-1.909-1.322-2.853-2-.2-.143-.248.014-.347.1a.051.051 0 0 0-.014.086c.033.127.078.251.1.379.141.885.277 1.772.416 2.658a.833.833 0 0 0 .521.693c1.043.478 2.067.995 3.1 1.5.028-.922.029-1.843 0-2.764Zm-2.617-.043c.013-.408.036-.817.057-1.225 0-.08.012-.179.113-.187a.263.263 0 0 1 .169.078 1.017 1.017 0 0 1 .33.743c.01.457 0 .914 0 1.412-.687-.223-.69-.223-.672-.821Z" data-name="Path 72591" transform="translate(-398.341 -11.356)"/><path id="Path_72592" d="M199.045 307.628c0-.071.075-.174-.056-.192a2.893 2.893 0 0 0-.391-.008h-4.215c-.456 0-.462-.006-.462-.463 0-.8-.075-.714.7-.717h2.206c.156 0 .333.053.452-.109.634 0 1.268-.018 1.9-.012.391 0 .468.1.48.5v.342c0 .608 0 .608-.615.661Zm-27.593-1.49c.123.158.3.1.456.1h2.5c.383 0 .394.011.394.383 0 .936.084.79-.768.8-1.342.008-2.683 0-4.025 0-.148 0-.32-.029-.244.219l-.24-.038c-.367-.051-.406-.089-.419-.454a7.108 7.108 0 0 1 0-.584c.016-.328.116-.444.444-.448.636-.002 1.269.015 1.902.022Z" data-name="Path 72592" transform="translate(-139.378 -6.405)"/><path id="Path_72593" d="M186.717 311.4a.873.873 0 0 0-.1.521.814.814 0 0 1-.449.789c-1.787 1.047-3.557 2.123-5.334 3.188a.155.155 0 0 1-.2.014 2.477 2.477 0 0 1 1.04-1.407c.281-.16.536-.368.8-.554q-.051-.032-.033-.061c.012-.019.024-.029.036-.029 1-.591 2-1.188 3-1.769a8.321 8.321 0 0 1 1.233-.691Zm-33.682 2.553a1.689 1.689 0 0 0 .7.52 2.193 2.193 0 0 1 1.041 1.353c-.128.124-.226.015-.311-.036q-2.55-1.513-5.094-3.035a.7.7 0 0 1-.407-.557 4.883 4.883 0 0 1-.065-.727c1.042.6 2.086 1.2 3.123 1.811a6.449 6.449 0 0 1 .915.554c.026.039.086.056.098.114Z" data-name="Path 72593" transform="translate(-122.722 -10.755)"/><path id="Path_72594" d="m171.965 317.565-.1-.117c.205.021.186-.124.187-.253l.013-1.411h1.717c.206 0 .324.04.352.289a29.56 29.56 0 0 1 .09 3.227 1.422 1.422 0 0 1-.036.2 1.312 1.312 0 0 1-.382-.631c-.245-.751-.946-.993-1.5-1.4-.16-.122-.206.131-.341.096Z" data-name="Path 72594" transform="translate(-141.653 -14.37)"/><path id="Path_72595" d="M329.3 306.376v.091c-.205-.109-.408-.188-.594.036a.248.248 0 0 1-.083.052 2.653 2.653 0 0 0-1.366 1.526 2.433 2.433 0 0 1-.158.292.434.434 0 0 1-.062-.333v-2.9c0-.451.007-.453.471-.457.409 0 .819-.014 1.227.005a.569.569 0 0 0 .471-.2c-.008.5-.02 1-.02 1.5.002.139-.059.303.114.388Zm29.342.377-.084-.1a.63.63 0 0 0-.335-.654l-2.613-1.799-1.045-.724a.452.452 0 0 1-.237-.4 1.814 1.814 0 0 0-.2-.752.66.66 0 0 1 .391.184c1.284.873 2.563 1.754 3.851 2.62a.53.53 0 0 1 .3.553c-.041.356.033.718-.025 1.076Z" data-name="Path 72595" transform="translate(-269.544 -3.275)"/><path id="Path_72596" d="m5.364 306.347-.032-.913a.506.506 0 0 1 .21-.2l3.931-2.677a.556.556 0 0 1 .3-.145 1.434 1.434 0 0 0-.091.426c.042.425-.194.64-.515.858-1.274.872-2.535 1.766-3.803 2.651Z" data-name="Path 72596" transform="translate(-4.395 -3.352)"/><path id="Path_72597" d="m490.292 343.1-3.14-1.622c-.462-.238-.47-.254-.325-.8a.975.975 0 0 1 .447.172c.793.391 1.582.79 2.374 1.184a1.367 1.367 0 0 0 .451.187l.105.089h.087v.79Z" data-name="Path 72597" transform="translate(-401.183 -34.888)"/><path id="Path_72598" d="M490.332 338.269a7.235 7.235 0 0 0-1.159-.63c-.64-.326-1.285-.643-1.928-.965-.087-.044-.174-.091-.262-.134-.152-.074-.249-.193-.148-.349.087-.134.208-.01.3.033.884.42 1.765.847 2.647 1.272a1.016 1.016 0 0 0 .549.182 2.125 2.125 0 0 1 0 .591Z" data-name="Path 72598" transform="translate(-401.224 -31.142)"/><path id="Path_72599" d="M102.117 348.288v20.49c-.1.187-.276.205-.454.234s-.309.128-.272.33.191.136.316.127a.453.453 0 0 1 .409.1l.012 4.619H91.962c-.088-1.156-.016-2.313-.038-3.469.084-.214.282-.2.454-.2a9.37 9.37 0 0 0 1.678-.121c-.57.014-1.113-.017-1.656.029-.169.014-.363.083-.475-.131q-.005-11.5 0-23c0-.576.034-.611.6-.644a3.863 3.863 0 0 0 .393-.027c.226-.036.289-.194.292-.39s-.161-.219-.308-.24a3.358 3.358 0 0 0-.442-.019c-.371 0-.6-.131-.533-.558.026-.159-.038-.328.049-.482l3.635.734 5.168 1.037c.367.073.734.147 1.1.2.194.027.243.128.241.3v.786c-.193.187-.445.107-.7.146.256.051.51-.037.7.152Z" data-name="Path 72599" transform="translate(-75.753 -38.4)"/><path id="Path_72600" d="m151.613 384.714.006-4.134c0-.425.011-.4.437-.508a4.778 4.778 0 0 1 1.073-.081c.362-.011.464-.092.456-.359-.007-.248-.1-.322-.436-.328-.394-.007-.788-.01-1.181 0-.248.007-.338-.085-.355-.34-.031-.448.107-.874.107-1.318q-.008-9.057 0-18.113v-.344c0-.188-.005-.363.252-.395.117-.015.175-.179.083-.207-.5-.147-.312-.523-.314-.837 0-.012.017-.024.027-.038.106-.029.188.036.274.078l3.539 1.716c.5.242 1 .49 1.515.7a.647.647 0 0 1 .447.706c-.018 2.166-.068 4.333 0 6.5.173 5.164.019 10.329.1 15.493.01.6.061 1.206.085 1.809Z" data-name="Path 72600" transform="translate(-124.957 -48.924)"/><path id="Path_72601" d="M203.134 408.779c.005-.509.015-1.017.015-1.526v-19.694c0-.539 0-.541.538-.542.624 0 1.248-.013 1.871 0 2.788.065 5.574-.2 8.358-.079 2.443.1 4.884.04 7.326.078.42.007.424.011.424.508 0 3.168-.078 6.338.023 9.5.125 3.92.006 7.838.085 11.757h-2.19a.759.759 0 0 1-.141-.51c-.065-1.146-.075-2.294-.109-3.441-.072-2.409-.13-4.818-.207-7.226-.071-2.2-.165-4.39-.172-6.587a.588.588 0 0 1 .07-.371c.36-.737.275-.936-.5-1.188a1.565 1.565 0 0 0-.392-.026h-11.54a1.354 1.354 0 0 0-.243.016c-.73.227-.855.5-.54 1.183a1.358 1.358 0 0 1 .132.368c-.06 1.636-.042 3.274-.149 4.907-.024.36-.025.721-.022 1.081.015 1.655-.094 3.306-.128 4.96-.043 2.111-.158 4.22-.179 6.332a.7.7 0 0 1-.139.508Z" data-name="Path 72601" transform="translate(-167.427 -72.994)"/><path id="Path_72602" d="M230.163 422.857h-2.177a.585.585 0 0 1-.109-.464c.151-2.36.085-4.724.041-7.085-.019-1.031-.063-2.064-.065-3.1a14.884 14.884 0 0 0-.136-1.715 3.817 3.817 0 0 0-2.643-3.144 7.22 7.22 0 0 1-1.587-.778c-.111-.083-.237-.138-.361-.037a7.931 7.931 0 0 1-1.934.959 3.854 3.854 0 0 0-2.411 3.782c-.04 2.394-.118 4.787-.127 7.182 0 1.243.018 2.486.018 3.73a.925.925 0 0 1-.128.66h-2.089a3.313 3.313 0 0 1-.094-1.689c.017-.31.064-.619.056-.931-.049-1.8.067-3.606.133-5.405a41.38 41.38 0 0 1 .166-4.369c.381-2.66 1.749-5.056 4.608-5.757a5.987 5.987 0 0 0 1.555-.6.727.727 0 0 1 .748-.02 12.234 12.234 0 0 0 2.027.749 5.827 5.827 0 0 1 3.778 3.858 8.494 8.494 0 0 1 .484 2.745c.059 2.473.12 4.946.217 7.417.049 1.245-.015 2.492.106 3.733a.366.366 0 0 1-.079.276Z" data-name="Path 72602" transform="translate(-178.28 -87.068)"/><path id="Path_72603" d="M228.553 433.395c-.005-.377 0-.755-.017-1.132a69.468 69.468 0 0 0-.093-1.936c-.021-.332.107-.642.1-.974-.018-.82.014-1.642-.008-2.462-.047-1.755.13-3.5.116-5.258a4.081 4.081 0 0 1 .694-2.321 3.508 3.508 0 0 1 1.276-1.131 18.582 18.582 0 0 1 1.7-.783 1.86 1.86 0 0 0 .736-.467c.153-.175.284-.23.469 0a2.3 2.3 0 0 0 1.055.6 8.982 8.982 0 0 1 1.945 1.028 3.27 3.27 0 0 1 1.273 2.081 9.386 9.386 0 0 1 .2 2.191c-.014.738-.047 1.481.009 2.215.176 2.294.031 4.59.092 6.884.013.5-.108.975-.11 1.466l-4.036.008c-.2 0-.393.015-.589.023l-.386-.033a.51.51 0 0 1 .051-.488c.053-.078.223-.091.192-.185-.042-.128-.195-.052-.3-.068a94.24 94.24 0 0 1-3.19.006c-.414 0-.766 0-.71.566.006.062-.051.118-.095.167h-.375Z" data-name="Path 72603" transform="translate(-188.285 -97.613)"/><path id="Path_72604" d="M187.156 382.947c0-2.248.071-4.5-.008-6.744-.173-4.936.013-9.873-.105-14.808-.041-1.72-.05-3.439-.076-5.158 0-.115.006-.23 0-.345-.014-.227.081-.327.315-.325q.96.011 1.92 0c.224 0 .341.075.327.312-.007.114 0 .23 0 .345 0 6.794.039 13.589-.027 20.383-.019 1.932-.036 3.865-.07 5.8 0 .18 0 .361.007.541Z" data-name="Path 72604" transform="translate(-154.1 -47.162)"/><path id="Path_72605" d="M229.444 421.644a4.161 4.161 0 0 1-.1-1.316c.036-1.786-.092-3.569-.132-5.353-.024-1.078.011-2.162-.082-3.236-.066-.769-.006-1.543-.1-2.3a7.134 7.134 0 0 0-2.106-4.53 5.173 5.173 0 0 0-2.167-1.2 8.223 8.223 0 0 1-1.924-.731.457.457 0 0 0-.544-.015 4.877 4.877 0 0 1-1.627.658 5.677 5.677 0 0 0-2.639 1.437 6.032 6.032 0 0 0-1.4 2.288 8.2 8.2 0 0 0-.517 2.332c-.048.72-.036 1.438-.072 2.155-.072 1.456-.045 2.916-.124 4.367-.059 1.1.01 2.2-.088 3.286-.065.72-.062 1.437-.089 2.155h-.282c0-.9-.072-1.808.013-2.7.106-1.112-.011-2.227.1-3.33.109-1.129-.009-2.259.1-3.379.107-1.1-.007-2.193.1-3.281.108-1.144.013-2.29.1-3.428.047-.6.059-1.205.084-1.808a.174.174 0 0 1 .224-.117.322.322 0 0 1 .142.161.962.962 0 0 1 .05.29 18.684 18.684 0 0 1-.087 2.855 6.046 6.046 0 0 1 2.66-3.116 5.119 5.119 0 0 1 1.13-.479 13.081 13.081 0 0 0 2.126-.765.8.8 0 0 1 .15-.029 2.46 2.46 0 0 1 .387 0 .8.8 0 0 1 .152.025c.89.428 1.868.607 2.776.983a5.8 5.8 0 0 1 3.235 3.619 10.318 10.318 0 0 1-.082-1.757c.005-.486-.024-.971.017-1.455.013-.159.017-.439.32-.215a.273.273 0 0 1 .093.218v.344c-.046 1.8.088 3.6.131 5.4.026 1.111-.022 2.229.085 3.334s-.008 2.23.1 3.334c.109 1.13.012 2.26.1 3.384a16.873 16.873 0 0 1 .069 1.908h-.278Z" data-name="Path 72605" transform="translate(-177.56 -85.855)"/><path id="Path_72606" d="m91.724 370.649-.009 3.537h-.092q0-14.32.006-28.64c0-.2-.083-.429.095-.609 0 .882 0 .882.877.886h.295a.28.28 0 0 1 .291.361c-.018.129-.072.253-.081.382-.015.2-.129.241-.3.239h-.787c-.2 0-.31.075-.3.288V370.35a.214.214 0 0 1 .005.299Z" data-name="Path 72606" transform="translate(-75.506 -38.4)"/><path id="Path_72607" d="M230.855 507.212a1.88 1.88 0 0 0-.038-.483c-.084-.347-.049-.39.323-.391h3.857a.108.108 0 0 1 .05.088 1.746 1.746 0 0 0 0 .214.115.115 0 0 1-.049.09.876.876 0 0 1-.092.485Z" data-name="Path 72607" transform="translate(-190.212 -171.427)"/><path id="Path_72608" d="M43.483 375.272h-1.03c-.4-.007-.457-.06-.472-.391-.018-.384.041-.432.415-.5a17.741 17.741 0 0 1 2.832-.087c.335-.008.393.075.4.41.008.364-.051.406-.392.479a9.533 9.533 0 0 1-1.754.092Zm1.678-9.3c-.059.953-.116 1.65-.218 2.343-.031.206-.09.355-.324.339s-.275-.191-.274-.387v-3.637c0-.288.15-.477.326-.464a.4.4 0 0 1 .355.448c-.035.549.174 1.072.135 1.362Zm-7.612 1.352v1.053a1.146 1.146 0 0 1-.037.339c-.057.171-.131.356-.364.331-.249-.026-.182-.233-.188-.383-.04-1.062-.146-2.122-.1-3.187a1.821 1.821 0 0 0-.083-.481.441.441 0 0 1 .119-.452c.183-.169.382-.123.444.119a2.31 2.31 0 0 1 .1.577 19.343 19.343 0 0 1 .109 2.088Zm3.056-.553a10.4 10.4 0 0 0-.089-1.867.543.543 0 0 1 .086-.514.3.3 0 0 1 .295-.134.231.231 0 0 1 .192.251c-.033.38.1.742.1 1.117v2.453a1.679 1.679 0 0 1-.095.526.248.248 0 0 1-.248.2.263.263 0 0 1-.226-.229 1.692 1.692 0 0 1-.021-.341l.001-1.458Z" data-name="Path 72608" transform="translate(-30.296 -54.252)"/><path id="Path_72609" d="M83.524 350.524v.891c-.359 0-.718-.005-1.076 0-.2 0-.323-.07-.3-.282.023-.186-.115-.423.209-.517a4.856 4.856 0 0 1 1.164-.092Z" data-name="Path 72609" transform="translate(-67.702 -43.005)"/><path id="Path_72610" d="M28.38 461.666v-.4c.356.214.7-.017 1.044-.044a10.592 10.592 0 0 1 1.4-.152 2.8 2.8 0 0 0 .676-.087c.133-.025.279.018.278.192 0 .142-.127.177-.247.184a12.34 12.34 0 0 0-1.268.081c-.447.073-.9.122-1.348.206a3.316 3.316 0 0 1-.535.02ZM39.212 466v.4a6.729 6.729 0 0 0-1.2.161 2.98 2.98 0 0 1-.584.026c-.088 0-.158-.047-.153-.15a.131.131 0 0 1 .125-.127c.208-.031.406-.1.622-.117a4.229 4.229 0 0 0 1.194-.19Z" data-name="Path 72610" transform="translate(-23.391 -134.046)"/><path id="Path_72611" d="M30.743 401.275h-.78c-.083 0-.175-.019-.173-.123s.081-.133.161-.157a.346.346 0 0 1 .1-.012h1.608c.076 0 .179-.009.192.1.016.124-.083.178-.18.181-.308.01-.617 0-.925 0Z" data-name="Path 72611" transform="translate(-24.553 -84.591)"/><path id="Path_72612" d="M55.642 444.149h.586a.14.14 0 0 1 .147.1c.025.1-.031.148-.116.179a2.044 2.044 0 0 1-1.244.037c-.092-.024-.184-.088-.152-.212.024-.1.109-.112.192-.113h.587Z" data-name="Path 72612" transform="translate(-45.214 -120.168)"/><path id="Path_72613" d="M78.5 397.421c-.109-.008-.273-.01-.434-.034a.164.164 0 0 1-.145-.172.167.167 0 0 1 .149-.169 3.5 3.5 0 0 1 1.026.009.158.158 0 0 1 .121.14.17.17 0 0 1-.127.186 2.422 2.422 0 0 1-.59.04Z" data-name="Path 72613" transform="translate(-64.225 -81.321)"/><path id="Path_72614" d="M28.375 353.621v-.3h1.411c.1 0 .214 0 .229.124.019.168-.118.167-.23.168-.469.008-.94.007-1.41.008Z" data-name="Path 72614" transform="translate(-23.387 -45.309)"/><path id="Path_72615" d="m361.792 374.026.008-3.924v-.392a.282.282 0 0 1 .308-.3h.294c.094 0 .223.017.233-.114.008-.111-.1-.159-.2-.174-.048-.007-.1-.005-.147-.008-.366-.013-.452-.2-.45-.559.014-3.787.009-7.573.009-11.36 0-.584.04-.624.642-.647.229-.009.459 0 .687-.03a.2.2 0 0 0 .14-.049 5.709 5.709 0 0 0-.957.044c-.373.042-.522-.1-.52-.5.013-2.59.01-5.18.006-7.769.135-.392.479-.179.71-.258-.236-.068-.533.058-.756-.158v-.689a.34.34 0 0 1 .327-.395q4-.779 8-1.583c.607-.121 1.211-.256 1.816-.384.14-.074.223-.025.237.124.019.2-.006.394.01.59.021.259-.1.357-.344.35a6.9 6.9 0 0 0-.737-.008c-.2.015-.352.069-.354.313s.129.316.336.333.426.009.639.021c.308.017.506.129.459.482a1.506 1.506 0 0 0 0 .2v26.365a1.087 1.087 0 0 1-.039.485Z" data-name="Path 72615" transform="translate(-298.196 -38.235)"/><path id="Path_72616" d="M325.814 384.851c0-2.609-.063-5.22.024-7.826.168-5.05.026-10.1.081-15.149a8.468 8.468 0 0 0 .1-1.12c-.019-.159.1-.233.221-.29.652-.307 1.274-.677 1.948-.938.153-.059.3-.138.445-.209.93-.449 1.858-.9 2.79-1.344.122-.058.269-.19.382.007.1.169.01.605-.126.66-.1.041-.234.02-.295.2.527.112.446.527.446.915v20.083c-.475.273-.983.078-1.468.121.465.177 1.007.021 1.467.276l.008 4.62h-6.024Z" data-name="Path 72616" transform="translate(-268.525 -49.065)"/><path id="Path_72617" d="m310.275 382.946.005-6.649v-16.351a1.821 1.821 0 0 0-.075-.729.379.379 0 0 1-.018-.194c.157-1.027-.087-2.052 0-3.079.028-.353.022-.371.36-.375.624-.008 1.248.006 1.871-.005.265 0 .352.116.332.358v.148c0 4.088.083 8.178-.024 12.263-.124 4.742-.016 9.482-.076 14.222 0 .131 0 .263.005.394Z" data-name="Path 72617" transform="translate(-255.643 -47.158)"/><path id="Path_72618" d="m413.183 373.777-.007-6.3v-20.423c0-.721.053-.654-.668-.657-.115 0-.23.008-.345 0-.174-.015-.412.086-.506-.086a1.154 1.154 0 0 1-.031-.768c.027-.143.174-.129.285-.127a5.805 5.805 0 0 1 1.03.033c.063.013.138.046.179-.016.107-.163.046-.35.052-.527.005-.155.049-.346-.195-.38.128-.13.245-.116.281.062a2.471 2.471 0 0 1 .014.491v28.699h-.047Z" data-name="Path 72618" transform="translate(-339.23 -37.989)"/><path id="Path_72619" d="M426.609 375.306a6.885 6.885 0 0 1-1.607-.1c-.318-.1-.412-.206-.4-.516s.145-.434.445-.475a6.256 6.256 0 0 1 .874.1h1.426a2.108 2.108 0 0 1 .629.083c.342.1.405.178.365.508-.037.309-.134.391-.495.4-.397.004-.791 0-1.237 0Zm-.634-8.727v1.717a.368.368 0 0 1-.311.385c-.237.034-.309-.176-.342-.343a5.964 5.964 0 0 1-.125-1.015c-.017-.85-.011-1.7 0-2.551 0-.358.1-.47.374-.545.164-.046.267.011.3.159a3.18 3.18 0 0 1 .119.721c-.028.493-.015.981-.015 1.472Z" data-name="Path 72619" transform="translate(-349.961 -54.286)"/><path id="Path_72620" d="M471.418 366.373a28.55 28.55 0 0 0-.1 3.616c-.005.194-.033.367-.274.387-.2.017-.264-.107-.323-.393a16.268 16.268 0 0 1 .019-2.772c-.012-.318.106-.639.093-.968a.594.594 0 0 1 .066-.233c.058-.141.136-.275.321-.232.152.035.193.161.2.3l-.002.295Z" data-name="Path 72620" transform="translate(-387.916 -55.57)"/><path id="Path_72621" d="M450.514 365.757a25.563 25.563 0 0 0-.1 3.177.982.982 0 0 1-.013.2.211.211 0 0 1-.151.175c-.091.024-.154-.034-.212-.092a.364.364 0 0 1-.11-.213 7.606 7.606 0 0 1-.045-2.187 10.8 10.8 0 0 0 .039-1.419 1.567 1.567 0 0 1 .028-.388c.041-.144.14-.279.315-.247a.284.284 0 0 1 .249.313c-.007.229 0 .458 0 .687Z" data-name="Path 72621" transform="translate(-370.756 -54.732)"/><path id="Path_72622" d="M457.32 454.755a19.793 19.793 0 0 1 2.3.2c.136.009.217.068.207.213s-.125.173-.246.173a3.138 3.138 0 0 1-.575-.105c-.482-.09-.976-.044-1.454-.167a.98.98 0 0 0-.581.033 1.914 1.914 0 0 1-.682.04.148.148 0 0 1-.167-.14.173.173 0 0 1 .1-.155.666.666 0 0 1 .376-.093c.227.003.457.001.722.001Z" data-name="Path 72622" transform="translate(-375.943 -128.909)"/><path id="Path_72623" d="M422.925 351.409v-.9a4.464 4.464 0 0 1 1.022.084c.2.061.294.143.231.338-.164.5-.026.466-.566.47h-.688Zm9.4 8.269h-.782c-.1 0-.212-.012-.221-.137s.1-.153.2-.154h1.613c.1 0 .208.026.2.158s-.126.131-.224.132h-.782Zm1.428-8.672v.3h-1.575c-.116-.012-.25-.033-.237-.184.012-.133.146-.106.236-.107.529-.009 1.054-.008 1.579-.009Z" data-name="Path 72623" transform="translate(-348.583 -42.995)"/><path id="Path_72624" d="M450.251 352.215a1.013 1.013 0 0 1 .116 0c.164.022.423-.064.418.2 0 .17-.231.194-.4.2-.2 0-.393 0-.589-.009a.163.163 0 0 1-.154-.1c-.033-.1.042-.15.1-.2.157-.127.346-.064.5-.08Zm5.424 24.923v.394h-.583c-.14 0-.268-.053-.277-.212-.011-.2.153-.172.276-.175.195-.01.389-.006.584-.007Z" data-name="Path 72624" transform="translate(-370.598 -44.397)"/><path id="Path_72625" d="M212.931 315.243h8.613c.58 0 .641.051.644.651.008 1.477.006 2.953 0 4.43 0 .5-.03.528-.532.529h-17.211c-.748 0-.677.069-.678-.7v-4.43c0-.48.006-.484.5-.484Z" data-name="Path 72625" transform="translate(-167.95 -13.925)"/><path id="Path_72626" d="M149.637 308.854c0-.234-.1-.318-.325-.315-1.195.014-2.385-.159-3.582-.094a2.337 2.337 0 0 0-.483.064c-.919.243-1.806.585-2.709.873-.858.273-1.715.545-2.568.83-.309.1-.312.142-.184.5a.188.188 0 0 1 0 .289c-.207.093-.184.279-.2.461-.043.421-.125.838-.153 1.26a5.979 5.979 0 0 0-.106 1.657c.241-.03.464-.032.691-.078a72.7 72.7 0 0 1 2.355-.434c1.042-.185 2.086-.364 3.129-.546.85-.148 1.7-.294 2.551-.448.4-.072.8-.168 1.2-.218.206-.026.393-.1.388-.4a148.21 148.21 0 0 1 0-3.4Zm-5.282 3.51c-.242.032-.484.074-.725.114-.192.032-.31-.018-.332-.238-.04-.406-.1-.811-.137-1.151a1.954 1.954 0 0 1 .358-1.167c.146-.2.261-.187.431-.029a1.375 1.375 0 0 1 .429.643 8.138 8.138 0 0 1 .239 1.5.263.263 0 0 1-.262.329Zm-42.487.887a68.314 68.314 0 0 1-.3-2.67.37.37 0 0 0-.3-.38c-.363-.1-.721-.213-1.079-.329q-2.055-.664-4.107-1.334a1.8 1.8 0 0 0-.479-.1c-1.2-.056-2.387.1-3.581.1-.2 0-.306.068-.3.283v3.495c0 .246.117.342.358.366.323.033.643.1.963.16.786.141 1.571.285 2.357.424 1.042.185 2.085.366 3.128.549l3.4.6a3.472 3.472 0 0 0-.06-1.164Zm-3.959-.991c-.009.16-.084.241-.249.224l-.1-.007c-1-.076-1.056-.141-.906-1.124a3.4 3.4 0 0 1 .262-1.044c.122-.243.308-.52.544-.523.265 0 .354.338.459.575a1.668 1.668 0 0 1 .094.763 10.626 10.626 0 0 1-.107 1.134Z" data-name="Path 72626" transform="translate(-75.591 -8.31)"/><path id="Path_72627" d="M39.687 309.828c0-.129.021-.266-.1-.362a.412.412 0 0 1-.085-.144.062.062 0 0 1 0-.009.135.135 0 0 1 0-.02c.021-.051.066-.056.111-.061a.106.106 0 0 0 .078-.056c-.066-.3-.311-.187-.482-.188-3.086-.006-6.172 0-9.258-.011-.327 0-.534.068-.6.4a.253.253 0 0 0-.054.1.189.189 0 0 0 .012.13.3.3 0 0 0 .04.064c-.082.618.042 1.234.005 1.852-.016.268.064.556-.278.707-.089.039-.116.192-.116.311v.544a1.114 1.114 0 0 0 .518.034c1.8-.042 3.6.039 5.4-.076 1.453-.092 2.916-.02 4.375-.025.429 0 .439-.008.441-.388.006-.934 0-1.869 0-2.8Zm-4.09 1.685a.251.251 0 0 1-.289.26q-.246-.011-.492-.012c-.7-.009-.678-.007-.615-.719a2.238 2.238 0 0 1 .923-1.779 1.385 1.385 0 0 1 .447.735 4.114 4.114 0 0 1 .029 1.515Z" data-name="Path 72627" transform="translate(-23.863 -8.751)"/><path id="Path_72628" d="M221.712 357.3c-.009.9.1.786-.783.787h-17.133c-.656 0-.6.026-.6-.623v-1.969c0-.157-.056-.333.1-.46.243.378.089.8.13 1.2.018.176-.012.354.009.581a2.419 2.419 0 0 1 .071-.579.778.778 0 0 1 1.549-.007c.073.257.026.556.24.78.181-.131.121-.312.143-.464a1.283 1.283 0 0 1 .3-.715.761.761 0 0 1 1.339.246 5.973 5.973 0 0 0 .261.891c.217-.094.179-.285.223-.43a1.706 1.706 0 0 1 .242-.587.833.833 0 0 1 .836-.407c.356.07.486.36.571.672a2.263 2.263 0 0 0 .213.76c.191-.127.137-.307.16-.455a1.157 1.157 0 0 1 .348-.74.768.768 0 0 1 1.27.4 3.348 3.348 0 0 0 .2.783c.153-.076.136-.214.146-.33a1.848 1.848 0 0 1 .216-.751.821.821 0 0 1 .792-.482.768.768 0 0 1 .708.585 2.523 2.523 0 0 1 .128.574c.021.152 0 .337.2.406.16-.122.106-.3.119-.453.05-.611.283-.9.75-.914.514-.017.8.253.893.838.027.171 0 .364.189.507.185-.162.131-.392.172-.587.112-.529.338-.809.7-.839.4-.033.736.253.918.748.082.223.052.491.264.7.231-.228.2-.526.275-.777.109-.356.267-.64.683-.666a.862.862 0 0 1 .877.648c.091.26.112.541.215.831.2-.088.161-.249.174-.377a1.324 1.324 0 0 1 .25-.734.776.776 0 0 1 .767-.341.739.739 0 0 1 .6.575 3 3 0 0 1 .123.726c0 .168-.004.336.152.449Z" data-name="Path 72628" transform="translate(-167.469 -46.722)"/><path id="Path_72629" d="M433.715 312.578a2.754 2.754 0 0 1-.06-.633.839.839 0 0 1-.462-.982c.031-.33.059-.66.069-.992-.081-.4 0-.839-.3-1.184a1.131 1.131 0 0 0-.533-.043h-9.064a.177.177 0 0 0-.185.146c0 .01-.006.021-.008.032-.012.049-.02.1-.037.147a.2.2 0 0 1-.044.074.157.157 0 0 1-.093.046c-.05.194-.1.383.169.47.192.063.2.239.2.4.009.308.017.617 0 .924-.016.262.131.613-.331.677-.109.015-.061.164-.072.256-.022.173.05.355-.049.521.082.38.082.393.472.388 2.1-.023 4.195.045 6.292.1 1.165.028 2.331.007 3.5.009h.246c.313-.017.366-.063.289-.35Zm-5.62-1.014c-.179.005-.359 0-.539 0-.081.006-.163.017-.244.019-.408.012-.436-.01-.455-.429a5.429 5.429 0 0 1-.006-1.17c.059-.351.16-.777.468-.856.282-.073.461.351.629.6a3.206 3.206 0 0 1 .316 1.708c.007.114-.09.123-.169.126Z" data-name="Path 72629" transform="translate(-348.579 -8.556)"/><path id="Path_72630" d="M222.158 356.768c-.2.014-.308-.069-.3-.285a2.312 2.312 0 0 0-.091-.775c-.117-.411-.268-.573-.608-.6a.825.825 0 0 0-.688.546 1.663 1.663 0 0 0-.093.627c-.005.344-.011.344-.449.433a9.8 9.8 0 0 0-.188-1.049.718.718 0 0 0-.615-.551.509.509 0 0 0-.62.342 3.217 3.217 0 0 0-.2.808.558.558 0 0 1-.121.317.2.2 0 0 1-.357-.048 1.262 1.262 0 0 1-.117-.424 1.432 1.432 0 0 0-.236-.69.66.66 0 0 0-.675-.316.564.564 0 0 0-.468.5 2.077 2.077 0 0 0-.1.578.519.519 0 0 1-.1.372c-.118.156-.322.14-.374-.045a2.676 2.676 0 0 1-.12-.624.708.708 0 0 0-.947-.686.656.656 0 0 0-.421.607c-.015.2-.005.394-.006.591 0 .147-.039.256-.215.266a.25.25 0 0 1-.292-.2 1.155 1.155 0 0 1-.082-.431 1.366 1.366 0 0 0-.161-.662.627.627 0 0 0-1.113-.136 1.435 1.435 0 0 0-.3.866c0 .115 0 .23-.006.345 0 .173-.112.218-.263.214s-.228-.068-.217-.207a3.32 3.32 0 0 0-.107-.725c-.035-.249-.079-.493-.4-.54a.738.738 0 0 0-.867.388 1.673 1.673 0 0 0-.116.771c.007.153 0 .3-.215.313-.186.01-.27-.068-.278-.254a6.033 6.033 0 0 1-.1-.627.775.775 0 0 0-.178-.451.458.458 0 0 0-.64-.169.913.913 0 0 0-.543.658 2.258 2.258 0 0 0-.117.625c.01.135-.065.212-.207.217s-.252-.023-.278-.2a7.605 7.605 0 0 0-.148-.768.706.706 0 0 0-.625-.6.862.862 0 0 0-.707.532 1.913 1.913 0 0 0-.1.773c0 .152-.011.324-.21.324a.276.276 0 0 1-.285-.279 2.5 2.5 0 0 1-.095-.479.648.648 0 0 0-.017-.2.67.67 0 1 0-1.341 0 3.125 3.125 0 0 1-.071.482c-.057.148.017.333-.164.482a2.986 2.986 0 0 1-.077-1.1c-.017-.377 0-.755 0-1.132 5.587-.219 11.177-.04 16.765-.106.479-.006.941.108 1.415.108.24 0 .24.172.24.343v1.919Z" data-name="Path 72630" transform="translate(-167.915 -46.192)"/><path id="Path_72631" d="M212.834 308.005h-8.957c-.19 0-.244-.1-.261-.277-.084-.885-.071-.9.816-.9h16.978c.671 0 .625-.062.628.647v.3c0 .164-.087.236-.245.237h-.394Z" data-name="Path 72631" transform="translate(-167.797 -6.985)"/><path id="Path_72632" d="m187.231 320.449-3.751 2.237c-.7.42-1.4.85-2.1 1.268a.544.544 0 0 0-.315.509c.007 1.017 0 2.033 0 3.117 1.438-.76 2.8-1.469 4.155-2.2.432-.235.864-.469 1.3-.693a.545.545 0 0 0 .355-.432c.126-1.051.264-2.1.386-3.152a1.55 1.55 0 0 0-.03-.654Zm-3.254 4.574a5.139 5.139 0 0 1-.149-1.643c.013-.182.027-.456.265-.45.2 0 .216.255.23.436.028.375.057.751.078 1.127s.015.375-.424.53Zm-27.833-.568a.543.543 0 0 0-.322-.5c-1.7-1.009-3.394-2.031-5.1-3.03-.228-.133-.424-.365-.728-.362a.8.8 0 0 0-.037.543c.152.8.2 1.615.272 2.425.053.6.1 1.169.827 1.352a1.923 1.923 0 0 1 .376.226q1.988 1.07 3.98 2.136c.214.114.434.216.729.363 0-1.121-.004-2.137.003-3.153Zm-2.944.6c-.339-.085-.452-.241-.427-.519.03-.325.025-.654.046-.98a3.109 3.109 0 0 1 .073-.433.233.233 0 0 1 .181-.207c.127-.02.161.094.194.181a1.169 1.169 0 0 1 .087.33 6.9 6.9 0 0 1-.154 1.628Z" data-name="Path 72632" transform="translate(-123.572 -18.216)"/><path id="Path_72633" d="M212.44 381.592H203.628c-.366-.01-.39-.031-.4-.337-.007-.356.062-.432.417-.449h17.681c.413.009.433.045.433.454 0 .261-.111.353-.356.335-.114-.009-.23 0-.345 0h-8.618Z" data-name="Path 72633" transform="translate(-167.508 -67.961)"/><path id="Path_72634" d="M212.454 374.635h8.816a.432.432 0 0 1 .391.662.2.2 0 0 1-.2.118c-.131.006-.263.006-.394.006-2.594 0-5.188.012-7.782-.007-1.028-.008-2.055.02-3.083.01-1.051-.011-2.1 0-3.152 0h-3.4c-.441-.009-.556-.151-.487-.573.022-.138.086-.206.221-.209s.262 0 .394 0Z" data-name="Path 72634" transform="translate(-167.441 -62.877)"/><path id="Path_72635" d="M139.035 340.236c0-.445.05-.487.487-.566q1.947-.353 3.891-.722c1.312-.248 2.622-.505 3.934-.757.608-.117 1.219-.217 1.823-.349.23-.05.306.016.3.231a1.507 1.507 0 0 0 0 .246c.043.278-.126.382-.352.431-.366.079-.735.149-1.1.223l-6.8 1.363c-.591.118-1.185.222-1.779.331-.4.073-.4.072-.4-.333v-.1Zm-37.237.487c-1.271-.179-2.442-.465-3.623-.7l-5.223-1.045-1.007-.2a.579.579 0 0 1-.355-.836c.066-.11.16-.08.259-.061.448.086.9.165 1.346.249l5.089.955q1.536.291 3.07.593c.416.081.44.115.443.553v.492Z" data-name="Path 72635" transform="translate(-75.432 -32.539)"/><path id="Path_72636" d="M33.069 338.595H28.621c-.2.01-.291-.074-.3-.285-.025-.446.013-.5.482-.5h.492c2.029.015 4.057-.092 6.086-.132 1.126-.022 2.255-.031 3.382-.065.135 0 .33-.062.374.135a1.084 1.084 0 0 1-.026.673c-.015.034-.078.059-.123.066a1.6 1.6 0 0 1-.245.012c-2.062.012-4.121.181-5.671.1Zm71.111 0c-1.164 0-2.329.012-3.493 0-.9-.012-1.794-.14-2.695-.089-.232.013-.332-.09-.316-.32.007-.1 0-.2 0-.295-.005-.18.071-.28.26-.273a27.71 27.71 0 0 1 3.188.077 3.019 3.019 0 0 0 .442.018c.918 0 1.84-.046 2.754.018 1.26.089 2.518.07 3.778.089.365.005.528.289.4.644a.212.212 0 0 1-.233.136h-4.085Z" data-name="Path 72636" transform="translate(-23.336 -32.351)"/><path id="Path_72637" d="M213.126 330.318v2.153c0 .233-.1.361-.321.3a7.517 7.517 0 0 0-1.652-.088.588.588 0 0 1-.1-.42c0-1.128.011-2.257-.007-3.386-.006-.4.161-.565.542-.578 1.562-.051 1.371.062 1.387 1.242.006.41-.057.815-.053 1.223s0 .816.007 1.224a27.965 27.965 0 0 1 0-1.389c.009-.125.004-.275.197-.281Zm-21.376 2.364a7.03 7.03 0 0 0-1.66.09.266.266 0 0 1-.31-.091c.272-.314.155-.693.131-1.034-.063-.932-.012-1.862-.032-2.793 0-.211.044-.413.262-.478a2.61 2.61 0 0 1 1.4-.008.285.285 0 0 1 .2.306 37.345 37.345 0 0 1 .009 4.008Z" data-name="Path 72637" transform="translate(-156.42 -24.668)"/><path id="Path_72638" d="M212.65 319.514c-.148.129-.093.3-.095.461-.006.491 0 .982 0 1.472 0 .122.047.261-.091.381-.164-.093-.1-.257-.1-.383-.006-1.063 0-2.127 0-3.19v-.344a.232.232 0 0 0-.267-.268h-.883c-.519 0-.522 0-.523.5V321.874c-.245-.036-.192-.228-.193-.383v-5.76c0-.538.123-.643.652-.513a5.839 5.839 0 0 0 1.125.055c.375.019.385.015.387.4v3.84Zm-21.376 2.364c0-.67-.023-1.341.005-2.01s-.163-1.295-.107-1.95c.015-.178-.071-.275-.258-.274h-1.079a.292.292 0 0 0-.331.333 21.55 21.55 0 0 0 .073 2.834 5.628 5.628 0 0 1 .019.832c0 .206-.129.239-.292.234 0-1.048-.027-2.1.006-3.144.031-.95-.132-1.89-.1-2.838 0-.1.006-.2 0-.295-.015-.226.079-.336.313-.324.147.008.295 0 .442 0a4.223 4.223 0 0 0 .973-.079c.347-.085.428.008.438.373v5.798c-.008.173.058.366-.102.511Z" data-name="Path 72638" transform="translate(-155.944 -13.864)"/><path id="Path_72639" d="M152.237 350.174c.348.171.664.305.96.474 1.425.81 2.92 1.481 4.373 2.234.476.247.483.257.366.893-.378-.164-.754-.31-1.117-.485-1.444-.7-2.881-1.412-4.33-2.1-.231-.109-.336-.225-.3-.473a1.953 1.953 0 0 1 .052-.543Zm30.732 3.578c-.079-.636-.079-.634.407-.882l4.86-2.478a1.191 1.191 0 0 1 .446-.183c.092.151.034.3.053.443a.474.474 0 0 1-.318.54c-1.761.837-3.518 1.685-5.277 2.528a.812.812 0 0 1-.171.032Z" data-name="Path 72639" transform="translate(-125.43 -42.716)"/><path id="Path_72640" d="M99.075 333.667c2.47.184 4.945.039 7.417.113.617.019 1.237.07 1.858.081.145 0 .267.036.253.218-.012.154-.129.178-.249.171a8.544 8.544 0 0 1-1.81-.075 1.212 1.212 0 0 0-.294-.018q-.3-.005-.59 0c-2.244.048-4.484-.17-6.728-.1-.326.01-.639-.136-.972-.106a.13.13 0 0 1-.147-.152c.012-.1.094-.127.18-.128.36-.005.721-.004 1.082-.004Zm-65.7.094c.623 0 1.246-.005 1.87 0 1.178.012 2.351-.17 3.53-.095.162.01.445-.1.45.139s-.278.13-.438.151c-1.386.181-2.785.006-4.168.119-1.311.107-2.62.007-3.924.095-.587.04-1.172.08-1.76.082h-.3a.176.176 0 0 1-.19-.179.172.172 0 0 1 .166-.2c.065-.008.131-.006.2-.009q2.275-.142 4.559-.103Z" data-name="Path 72640" transform="translate(-23.442 -29.096)"/><path id="Path_72641" d="M222.446 348.935c-.408.134-17.94.134-18.317.01.059-.029-.037 0 0-.049.009-.012.025-.028.037-.028 6.006-.075 12.013-.012 18.019-.033a.285.285 0 0 1 .261.1Z" data-name="Path 72641" transform="translate(-168.241 -41.609)"/><path id="Path_72642" d="M362.2 336.383c-.114-.005-.249.007-.251-.158 0-.135.093-.2.218-.224.352-.068.7-.14 1.056-.2.834-.147 1.669-.286 2.5-.432q1.587-.277 3.173-.561c.785-.14 1.572-.273 2.353-.435a4.463 4.463 0 0 0 .77-.137c.088-.035.256-.07.289.083s-.111.173-.225.194l-1.633.3c-1.1.211-2.206.429-3.309.641q-2.422.464-4.846.922c-.025.003-.058.004-.095.007Z" data-name="Path 72642" transform="translate(-298.329 -29.553)"/><path id="Path_72643" d="M101.869 336.439c-.88-.162-1.762-.32-2.641-.488-1.327-.253-2.652-.512-3.978-.769l-2.827-.548q-.12-.023-.239-.052c-.1-.024-.207-.063-.185-.183s.15-.106.239-.084c.364.09.735.14 1.1.2 1.218.208 2.433.439 3.649.662 1.408.258 2.815.523 4.225.767.24.042.48.091.723.118.152.018.258.063.237.236-.011.132-.11.177-.303.141Z" data-name="Path 72643" transform="translate(-75.825 -29.63)"/><path id="Path_72644" d="M220.054 351.8c-1.772 0-3.545.033-5.315-.017-.667-.019-1.339-.121-2.006-.072-2.7.2-5.407.036-8.11.089-.155 0-.323.05-.463-.062.015-.158.134-.122.221-.129s.2 0 .3 0h17.276c.187 0 .4-.077.56.093a16.143 16.143 0 0 1-1.885.049 1.282 1.282 0 0 0-.578.049Z" data-name="Path 72644" transform="translate(-168.272 -43.886)"/><path id="Path_72645" d="M361.929 363.879v7.928c.015.318.093.409.382.324a5.224 5.224 0 0 1 1.221-.074 1.427 1.427 0 0 1 .2.008.138.138 0 0 1 .139.114c.017.1-.047.146-.136.164a5.393 5.393 0 0 1-1.118.112c-.754-.011-.683-.074-.683.686v11.075c0 .457 0 .457.393.646-.489-.018-.491-.018-.491-.533v-20.448a.058.058 0 0 1 .1 0Z" data-name="Path 72645" transform="translate(-298.228 -53.99)"/><path id="Path_72646" d="M432.958 308.6q-4.592 0-9.185.005c-.188 0-.4-.073-.562.088l-.035.037h-.051c-.028-.011-.062-.043-.083-.026-.049.043-.018-.025.025.026a.588.588 0 0 1 .052.1.172.172 0 0 1-.011.163c-.091.148-.281.326.108.312.213-.008.283.13.284.315 0 .57.012 1.14-.005 1.71-.009.3-.113.336-.457.221-.105.221.072.493-.127.7v-3.3c0-.44.007-.448.432-.448h9.25c.128 0 .266-.026.364.1Z" data-name="Path 72646" transform="translate(-348.57 -8.367)"/><path id="Path_72647" d="M183.061 349.349c-.072-.156.023-.182.111-.236.531-.323 1.1-.58 1.641-.882 1.172-.653 2.367-1.264 3.558-1.883.127-.066.309-.278.415-.081.115.215-.152.282-.3.361-.3.161-.616.307-.922.463l-4.068 2.081a1.1 1.1 0 0 1-.435.177Zm-25 .064c-.244-.127-.438-.232-.635-.331-1.229-.616-2.461-1.227-3.688-1.847-.408-.206-.805-.434-1.207-.653a1.011 1.011 0 0 1-.164-.1.178.178 0 0 1-.06-.22c.049-.1.137-.063.21-.022.2.112.393.233.6.339.521.273 1.045.54 1.56.826 1.028.571 2.075 1.109 3.113 1.663.101.054.25.08.268.345Z" data-name="Path 72647" transform="translate(-125.519 -39.428)"/><path id="Path_72648" d="M5.492 337.729v-.415l3.03-1.507a2.765 2.765 0 0 1 .263-.131c.1-.036.216-.163.3-.021a.266.266 0 0 1-.128.374c-.39.239-.824.39-1.233.59-.746.365-1.487.743-2.232 1.11Z" data-name="Path 72648" transform="translate(-4.527 -30.695)"/><path id="Path_72649" d="M324.451 322.791v-6.583c.189-.02.163.105.163.191 0 1.261.047 2.524-.015 3.782-.035.717.093 1.425.018 2.138-.017.15.048.326-.166.472Z" data-name="Path 72649" transform="translate(-267.419 -14.719)"/><path id="Path_72650" d="M187.133 322.744v-6.59a.6.6 0 0 1 .069.4c0 .54.022 1.081 0 1.62-.06 1.357.146 2.707.1 4.063a.668.668 0 0 1-.169.507Z" data-name="Path 72650" transform="translate(-154.239 -14.676)"/><path id="Path_72651" d="M481.22 317.764c-.589-.066-.587-.066-.59-.7a2.725 2.725 0 0 1 .2-1.276c.154.655.195 1.331.39 1.976Z" data-name="Path 72651" transform="translate(-396.144 -14.376)"/><path id="Path_72652" d="M351.475 482.788c-.543.059-1.072-.11-1.612-.1-.118 0-.25-.009-.234-.174a.206.206 0 0 1 .281-.192 7.229 7.229 0 0 0 1.565.072Z" data-name="Path 72652" transform="translate(-288.17 -151.621)"/><path id="Path_72653" d="M145.785 481.354a1.616 1.616 0 0 0-.571.069c-.186.064-.3-.01-.317-.232-.029-.4.046-.505.473-.527a.969.969 0 0 0 .417-.1Z" data-name="Path 72653" transform="translate(-119.422 -150.186)"/><path id="Path_72654" d="M182.386 362.588h-.1v-.3c.305 0 .611 0 .916.011.095 0 .2.034.186.162-.012.092-.1.118-.186.12-.273.007-.546.007-.819.009Zm-37.338 0c-.29 0-.58 0-.869-.007-.1 0-.2-.036-.181-.166.012-.1.1-.119.181-.121.29 0 .579 0 .869-.005Z" data-name="Path 72654" transform="translate(-118.684 -52.698)"/><path id="Path_72655" d="M294.58 352.288c.128-.148.3-.093.458-.094.667-.005 1.333 0 2 0-.125.156-.3.1-.455.1-.668-.001-1.335-.005-2.003-.006Z" data-name="Path 72655" transform="translate(-242.798 -44.373)"/><path id="Path_72656" d="M88.291 309.979h.089a.545.545 0 0 1-.1.292c-.194-.008-.328-.057-.2-.288a.169.169 0 0 1 .208-.008Z" data-name="Path 72656" transform="translate(-72.557 -9.56)"/><path id="Path_72657" d="M29.769 311.308v.295c-.111 0-.226.014-.3-.1a.739.739 0 0 1 0-.1.633.633 0 0 1 .3-.095Z" data-name="Path 72657" transform="translate(-24.288 -10.682)"/><path id="Path_72658" d="M364.973 321.415c.1 0 .214.008.227.122.018.156-.114.16-.227.167a.243.243 0 0 1 0-.289Z" data-name="Path 72658" transform="translate(-300.779 -19.012)"/><path id="Path_72659" d="m482.346 312.229-.014.086a.43.43 0 0 1-.1-.012c-.077-.028-.16-.063-.122-.166a.145.145 0 0 1 .106-.08c.113-.001.114.095.13.172Z" data-name="Path 72659" transform="translate(-397.36 -11.299)"/><path id="Path_72660" d="M502.68 325.469c-.046.055-.11.086-.161.029-.082-.09-.043-.176.042-.247a.246.246 0 0 1 .211.11.408.408 0 0 0-.092.108Z" data-name="Path 72660" transform="translate(-414.148 -22.175)"/><path id="Path_72661" d="M8.152 325.9c.131 0 .226.052.174.2-.036.1-.117.075-.183.011Z" data-name="Path 72661" transform="translate(-6.712 -22.71)"/><path id="Path_72662" d="M486.249 494c.079.014.165.024.177.126.016.131-.078.157-.178.173Z" data-name="Path 72662" transform="translate(-400.775 -161.26)"/><path id="Path_72663" d="M12.124 350.08a.2.2 0 0 1 .2-.1.212.212 0 0 1-.2.1Z" data-name="Path 72663" transform="translate(-9.993 -42.555)"/><path id="Path_72664" d="M6.449 342.331a.2.2 0 0 1 .2-.1.212.212 0 0 1-.2.1Zm-.971.519c.018-.109.1-.123.189-.125-.041.075-.119.094-.189.124Zm3.433-2.391a.2.2 0 0 1-.195.1.2.2 0 0 1 .195-.1Zm-.393.2a.206.206 0 0 1-.2.1.2.2 0 0 1 .2-.1Zm-.2.1a.206.206 0 0 1-.2.1.2.2 0 0 1 .202-.105Zm-.2.1a.206.206 0 0 1-.2.1.2.2 0 0 1 .206-.107Zm-.2.1a.206.206 0 0 1-.2.1.2.2 0 0 1 .208-.109Zm-.2.1a.206.206 0 0 1-.2.1.2.2 0 0 1 .211-.11Zm1.083.1a.206.206 0 0 1 .2-.1.2.2 0 0 1-.188.085Zm-1.28 0a.205.205 0 0 1-.2.1.2.2 0 0 1 .211-.112Zm1.083.1a.2.2 0 0 1 .2-.1.2.2 0 0 1-.188.084Zm-1.28 0a.206.206 0 0 1-.2.1.2.2 0 0 1 .211-.113Zm1.083.1a.2.2 0 0 1 .2-.1.206.206 0 0 1-.188.083Zm-1.28 0a.205.205 0 0 1-.2.1.205.205 0 0 1 .2-.1Zm1.084.1a.2.2 0 0 1 .2-.1.207.207 0 0 1-.2.1Zm-1.281 0a.206.206 0 0 1-.2.1.2.2 0 0 1 .211-.116Zm1.084.1a.2.2 0 0 1 .2-.1.207.207 0 0 1-.2.1Zm-1.281 0a.205.205 0 0 1-.2.1.2.2 0 0 1 .211-.118Zm1.084.1a.2.2 0 0 1 .2-.1.208.208 0 0 1-.189.08Zm-1.281 0a.205.205 0 0 1-.2.1.2.2 0 0 1 .2-.1Z" data-name="Path 72664" transform="translate(-4.515 -34.707)"/><path id="Path_72665" d="M10.8 347.273a.2.2 0 0 1 .2-.1.21.21 0 0 1-.2.1Zm-1.281 0a.205.205 0 0 1-.2.1.2.2 0 0 1 .201-.1Z" data-name="Path 72665" transform="translate(-7.685 -40.242)"/><path id="Path_72666" d="M9.68 347.834a.2.2 0 0 1 .2-.1.21.21 0 0 1-.2.1Zm-1.281 0a.2.2 0 0 1-.2.1.2.2 0 0 1 .201-.1Z" data-name="Path 72666" transform="translate(-6.761 -40.704)"/><path id="Path_72667" d="M8.559 348.4a.2.2 0 0 1 .2-.1.21.21 0 0 1-.2.1Zm-1.281 0a.205.205 0 0 1-.2.1.2.2 0 0 1 .2-.1Z" data-name="Path 72667" transform="translate(-5.837 -41.168)"/><path id="Path_72668" d="M7.438 348.957a.2.2 0 0 1 .2-.1.211.211 0 0 1-.2.1Zm-1.281 0a.205.205 0 0 1-.2.1.2.2 0 0 1 .2-.101Z" data-name="Path 72668" transform="translate(-4.913 -41.629)"/><path id="Path_72669" d="M8.167 342.6a.2.2 0 0 1 .2-.1.211.211 0 0 1-.2.1Zm1.871-1.577a.206.206 0 0 1-.2.1.2.2 0 0 1 .2-.105Zm.295.489.1-.1Zm-3.249 1.668.1-.092Z" data-name="Path 72669" transform="translate(-5.839 -35.169)"/><path id="Path_72670" d="m505.935 349.543-.105-.089Z" data-name="Path 72670" transform="translate(-416.915 -42.123)"/><path id="Path_72671" d="M9.088 340.2h-.105c.038-.067.073-.082.105 0Zm-2.754 1.965.1-.092Zm-.2.1.1-.092Zm-.592-.388c-.048.072-.075.054-.088-.021a.26.26 0 0 0 .091.017Zm.4.487.1-.092Z" data-name="Path 72671" transform="translate(-4.498 -34.448)"/><path id="Path_72672" d="M19.031 370.755v.64c0 .142-.054.264-.211.287s-.239-.073-.273-.219a1.816 1.816 0 0 1-.094-.429c.031-1.179-.274-2.339-.207-3.519a1.048 1.048 0 0 1 .053-.435c.044-.088.084-.184.2-.184a.24.24 0 0 1 .225.163.9.9 0 0 1 .1.324c.007 1.128.171 2.246.205 3.372Z" data-name="Path 72672" transform="translate(-15.029 -56.499)"/><path id="Path_72673" d="M16.111 411.447a2.162 2.162 0 0 1-.281-.057.168.168 0 0 1-.091-.106c-.017-.069.028-.112.1-.141a1.444 1.444 0 0 1 .809-.081.166.166 0 0 1 .1.092.115.115 0 0 1-.065.159 1.241 1.241 0 0 1-.564.134Z" data-name="Path 72673" transform="translate(-12.969 -92.881)"/><path id="Path_72674" d="M489.837 368.055a18.971 18.971 0 0 1-.185 2.736 4.893 4.893 0 0 0-.014.49.358.358 0 0 1-.29.4c-.154.028-.291-.189-.3-.436a.355.355 0 0 1 0-.1 10.132 10.132 0 0 0 .1-1.756c.065-.729.17-1.455.193-2.188 0-.163.07-.3.257-.29s.23.159.231.318c.01.327.008.654.008.826Z" data-name="Path 72674" transform="translate(-403.084 -56.51)"/><path id="Path_72675" d="M8.086 329.125c0 .178.012.357 0 .534a.209.209 0 0 1-.2.185c-.126.012-.156-.073-.18-.178a4.148 4.148 0 0 1-.1-1.109c.005-.153.02-.316.2-.339.226-.029.258.171.278.323a4.563 4.563 0 0 1 .006.583Zm86.309.089c.03-.218.066-.507.111-.8a.233.233 0 0 1 .463 0 .777.777 0 0 1 0 .339 2.434 2.434 0 0 0-.081.724c0 .163 0 .365-.229.35a.284.284 0 0 1-.262-.347c.003-.063.003-.129.003-.266Z" data-name="Path 72675" transform="translate(-6.263 -24.611)"/><path id="Path_72676" d="m503.647 325.989.092-.107Z" data-name="Path 72676" transform="translate(-415.115 -22.694)"/><path id="Path_72677" d="M105.646 379.226a4.332 4.332 0 0 0 1.171-.085c.227-.074.447.053.67.1a.193.193 0 0 1 .155.216c0 .2.006.392 0 .587a.26.26 0 0 1-.245.26.478.478 0 0 1-.1.008c-.816-.053-1.62.153-2.437.1-.406-.025-.448-.056-.464-.451-.028-.715-.009-.734.719-.733Zm-4.307-11.969v1.472a.615.615 0 0 1-.191.532c-.183.148-.345.09-.393-.139a.376.376 0 0 1-.006-.1c.065-1.144-.109-2.281-.1-3.424 0-.226.059-.384.288-.441.139-.035.255-.015.312.148a1.494 1.494 0 0 1 .094.526c-.008.478-.004.952-.004 1.427Zm6.7-.106a11.075 11.075 0 0 1-.176 1.927 4.407 4.407 0 0 0-.021.489.979.979 0 0 1-.047.386c-.073.161-.184.294-.366.266s-.179-.208-.176-.355c.01-.57.134-1.13.1-1.705a5.217 5.217 0 0 1 .091-1.557c.012-.047 0-.1.014-.146.044-.2.193-.24.373-.229s.2.131.205.273v.65Zm-3.151.625a7.082 7.082 0 0 1-.093 1.654 1.02 1.02 0 0 1-.074.229.243.243 0 0 1-.26.1.183.183 0 0 1-.163-.208 5.255 5.255 0 0 1 .012-1.03 12.649 12.649 0 0 0 .082-1.956v-.344c0-.136.009-.273.193-.281a.251.251 0 0 1 .291.26c.012.294.007.589.009.884.002.196.002.393.002.692Z" data-name="Path 72677" transform="translate(-82.954 -55.056)"/><path id="Path_72678" d="M99.024 407.027c-.6.073-1.128-.14-1.67-.1a.444.444 0 0 1-.227-.081.138.138 0 0 1 .008-.262.635.635 0 0 1 .386-.031 11.964 11.964 0 0 0 1.989.189 1.148 1.148 0 0 1 .2.015.129.129 0 0 1 .115.135.126.126 0 0 1-.122.129c-.245.005-.49 0-.674 0Zm-6.76 14.4v-.3a11.32 11.32 0 0 1 2.242-.1c.1 0 .268-.038.264.128 0 .13-.145.146-.264.166a14.042 14.042 0 0 1-2.242.103Z" data-name="Path 72678" transform="translate(-76.046 -89.174)"/><path id="Path_72679" d="M94.9 377.122h-.645a.133.133 0 0 1-.145-.154.123.123 0 0 1 .13-.118 9.381 9.381 0 0 0 1.205-.106.154.154 0 0 1 .183.121c.017.095-.048.144-.121.187a1.157 1.157 0 0 1-.607.07Zm4.1-18.914h-.6a.133.133 0 0 1-.144-.154.12.12 0 0 1 .13-.118c.377.035.732-.14 1.107-.11.086.007.165.028.183.124s-.048.144-.121.188a.993.993 0 0 1-.555.07Z" data-name="Path 72679" transform="translate(-77.567 -49.019)"/><path id="Path_72680" d="M104.934 426.516c-.113 0-.227.006-.339 0s-.258.035-.255-.134c0-.1.115-.151.218-.152q.461-.005.921 0c.088 0 .16.049.156.145s-.082.134-.168.136h-.533Z" data-name="Path 72680" transform="translate(-85.999 -105.399)"/><path id="Path_72681" d="M155.568 377.237v-1.374a.407.407 0 0 1 .158-.387c.22-.15.357-.111.43.148a4.849 4.849 0 0 1 .066 1.9 3.448 3.448 0 0 1-.155 1.058 1.78 1.78 0 0 1-.078.227.289.289 0 0 1-.276.171c-.16-.021-.142-.157-.143-.268v-1.473Z" data-name="Path 72681" transform="translate(-128.217 -63.498)"/><path id="Path_72682" d="M167.636 383.273c.05.6-.146 1.2-.11 1.826a1.071 1.071 0 0 1-.146.46.2.2 0 0 1-.254.092.188.188 0 0 1-.14-.226 13.049 13.049 0 0 0 .162-2.726.561.561 0 0 1 .025-.193c.041-.109.11-.221.238-.213a.235.235 0 0 1 .227.267v.713Zm1.563.42a2.914 2.914 0 0 0-.077 1.161c.007.363-.135.7-.119 1.063a.214.214 0 0 1-.254.231.19.19 0 0 1-.174-.278 3.794 3.794 0 0 0 .049-.825c.05-.5.1-1 .174-1.492.015-.1-.038-.319.165-.284a.321.321 0 0 1 .241.376c-.004.016-.004.032-.004.048Z" data-name="Path 72682" transform="translate(-137.629 -69.189)"/><path id="Path_72683" d="M223.254 401.372h-.1c-1.516.1-3.033.033-4.55.041-.344 0-.519.066-.576.464a1.142 1.142 0 0 1-.884.876v-.3l-.1-.1-.193.1a2.8 2.8 0 0 1-.25-.409.733.733 0 0 1 .639-1.069c1.323.1 2.649.041 3.973.047 2.405.011 4.811 0 7.216 0a11.147 11.147 0 0 0 1.322-.049c.746.24.9.724.411 1.315-.041.05-.074.106-.111.159-.139-.055-.2-.024-.2.141.005.545 0 1.09 0 1.636-.256-.039-.214-.254-.233-.418-.028-.243-.008-.489-.013-.734 0-.147.021-.333-.094-.418a1.71 1.71 0 0 1-.736-1.1c-.036-.193-.307-.135-.479-.136a267.844 267.844 0 0 0-3.232 0c-.44 0-.878-.019-1.316-.053h-.1a.357.357 0 0 0-.394 0Z" data-name="Path 72683" transform="translate(-178.468 -84.59)"/><path id="Path_72684" d="M233.107 400.486a1.052 1.052 0 0 1-.69.2h-11.132a1.036 1.036 0 0 1-.689-.2c.129-.149.3-.1.462-.1h11.525a.923.923 0 0 1 .523.1Z" data-name="Path 72684" transform="translate(-181.82 -84.095)"/><path id="Path_72685" d="M236.516 389.01v-.54c0-.142.059-.261.215-.285a.273.273 0 0 1 .31.193 1.926 1.926 0 0 1-.087 1.337.2.2 0 0 1-.253.1.23.23 0 0 1-.174-.214c-.01-.2 0-.392 0-.589Zm-9.746-.1c0-.163-.005-.326 0-.489a.239.239 0 0 1 .163-.223.275.275 0 0 1 .3.1.528.528 0 0 1 .118.36c.034.332-.125.638-.115.966a.187.187 0 0 1-.149.175c-.089.023-.153-.034-.212-.093a.407.407 0 0 1-.117-.311v-.489Zm7.079.161v.591a.242.242 0 0 1-.188.255c-.149.034-.22-.077-.244-.186a4.737 4.737 0 0 1-.029-1.368.2.2 0 0 1 .208-.177.212.212 0 0 1 .242.2c.019.228.005.459.005.688Z" data-name="Path 72685" transform="translate(-186.901 -74.041)"/><path id="Path_72686" d="M245.264 389.038v-.635c0-.121.021-.232.171-.25s.286.048.3.19a2.968 2.968 0 0 1-.1 1.4.214.214 0 0 1-.225.151c-.127-.014-.141-.118-.142-.218-.006-.215-.004-.426-.004-.638Z" data-name="Path 72686" transform="translate(-202.15 -74.018)"/><path id="Path_72687" d="M209.4 389.493c0-.18-.012-.362 0-.54a.232.232 0 0 1 .462.009 4.654 4.654 0 0 1-.018 1.078c-.022.121-.078.27-.255.24-.158-.026-.2-.154-.2-.294v-.492Zm15.955.022c0-.18-.008-.36 0-.539a.224.224 0 0 1 .214-.227c.12-.011.181.079.208.173a2.624 2.624 0 0 1 .024 1.114.253.253 0 0 1-.277.226c-.164-.025-.175-.171-.178-.305s0-.294 0-.441Z" data-name="Path 72687" transform="translate(-172.585 -74.507)"/><path id="Path_72688" d="M233.58 393.467a.22.22 0 0 1-.223.208c-.158 0-.215-.131-.223-.262s.1-.2.219-.2a.222.222 0 0 1 .227.252Z" data-name="Path 72688" transform="translate(-192.153 -78.191)"/><path id="Path_72689" d="M255.545 392.861c0 .155-.063.243-.191.269-.145.029-.214-.069-.233-.188-.022-.145.038-.265.2-.27a.223.223 0 0 1 .223.189Z" data-name="Path 72689" transform="translate(-210.271 -77.744)"/><path id="Path_72690" d="M297.35 392.8a.241.241 0 0 1-.193.244.193.193 0 0 1-.248-.167.205.205 0 0 1 .184-.243.21.21 0 0 1 .258.165Z" data-name="Path 72690" transform="translate(-244.714 -77.706)"/><path id="Path_72691" d="M276.5 393.605a.246.246 0 0 1-.231-.219.181.181 0 0 1 .173-.2.2.2 0 0 1 .251.17c.016.132-.083.2-.193.249Z" data-name="Path 72691" transform="translate(-227.708 -78.161)"/><path id="Path_72692" d="M213.757 392.784c-.016.113-.076.182-.195.16a.2.2 0 0 1-.18-.242c.019-.121.123-.141.224-.127.117.015.155.1.151.209Z" data-name="Path 72692" transform="translate(-175.87 -77.661)"/><path id="Path_72693" d="M234.921 498.1v.4a.678.678 0 0 1 0 .491h-3.344c-.131 0-.263-.008-.393 0-.5.046-.5.049-.5-.477 0-.655-.034-.611.615-.611h3.049a1 1 0 0 1 .571.1q.037.03.027.062c-.01.019-.017.035-.025.035Z" data-name="Path 72693" transform="translate(-190.131 -164.47)"/><path id="Path_72694" d="M234.821 467.866c-.019.9.109.782-.781.787-.981.005-1.963 0-2.944 0-.173 0-.393.054-.471-.162a1.038 1.038 0 0 1 0-.72c.06-.153.271-.184.428-.187a12.12 12.12 0 0 1 1.862.01c.638.085 1.27.05 1.9.077a.13.13 0 0 1 0 .2Z" data-name="Path 72694" transform="translate(-190.032 -139.459)"/><path id="Path_72695" d="M234.824 455.663c-.047.383-.047.392-.385.393q-1.744.006-3.488 0c-.341 0-.35-.022-.364-.367 0-.1.005-.2 0-.295-.015-.229.083-.323.315-.322 1.2.005 2.391.009 3.586 0 .311 0 .353.157.336.4a.13.13 0 0 1 0 .2Zm0-2.857v.4a.128.128 0 0 1 0 .2h-3.774c-.151 0-.374.08-.426-.127a.963.963 0 0 1 .049-.758c.055-.091.165-.1.265-.1h3.676a.261.261 0 0 1 .214.1.208.208 0 0 1 0 .294Zm0 1.379v.494a.928.928 0 0 1-.473.1h-3.336c-.423 0-.423-.008-.428-.45v-.245c-.01-.209.091-.294.3-.289.261.006.523 0 .785 0h2.7c.157 0 .332-.053.459.1a.209.209 0 0 1 0 .294Zm.394-3.051h3.743c.156 0 .371-.073.448.1a1.014 1.014 0 0 1 .007.676c-.031.111-.155.1-.253.105-1.162.012-2.32.158-3.485.1-.4-.02-.557-.244-.468-.692a.054.054 0 0 1-.038-.076.253.253 0 0 0 .007-.135.072.072 0 0 1 .041-.078Zm-.005-2.759v-.4a.209.209 0 0 1-.006-.293c.022-.169.137-.2.283-.2h3.538c.226 0 .34.08.322.315v.2c-.011.35-.019.365-.356.374-.311.008-.622 0-.933 0h-2.85Zm-.39-.4c-.049.384-.049.393-.387.394q-1.673.006-3.346 0c-.392 0-.4-.017-.406-.375-.008-.422.045-.5.408-.506 1.132-.008 2.263 0 3.4-.006.218 0 .353.053.336.3a.13.13 0 0 1 0 .2Zm.391.788h3.733c.486 0 .58.116.5.574-.024.135-.086.2-.221.21H235.5c-.145 0-.261-.029-.282-.2a.232.232 0 0 1-.085-.134.411.411 0 0 1-.012-.108v-.254l.008-.037a.16.16 0 0 1 .053-.054Zm.006 1.189c1.258 0 2.515-.006 3.773-.005.446 0 .47.041.461.469 0 .228-.086.326-.318.321-.392-.009-.784 0-1.176 0h-2.744c-.176-.262-.289-.523.006-.782Z" data-name="Path 72695" transform="translate(-190.037 -122.921)"/><path id="Path_72696" d="M235.178 440.552c-1.242 0-2.483.008-3.725-.008-.149 0-.443.166-.451-.173-.014-.542.051-.6.5-.6h3.676a.6.6 0 0 1 0 .785Zm0-1.379c-.02.172-.138.2-.282.2-1.18 0-2.36-.005-3.54 0-.278 0-.322-.141-.32-.37 0-.364.021-.416.315-.418 1.164-.008 2.327 0 3.491-.009.312 0 .352.16.336.4a.13.13 0 0 1 0 .2Zm.391-2.955h3.682c.4 0 .476.11.459.507-.009.216-.109.288-.307.28-.147-.006-.295 0-.442 0h-3.388a.267.267 0 0 1-.09-.123 1.116 1.116 0 0 1-.033-.384.4.4 0 0 1 .124-.28Zm-.395.786h-3.825c-.17-.01-.287-.064-.233-.273a.947.947 0 0 0 .021-.243c0-.181.076-.275.264-.269h3.776a.41.41 0 0 1 .118.279 1.11 1.11 0 0 1-.03.384.262.262 0 0 1-.091.123Zm.4-1.772a.926.926 0 0 1 .474-.1c.965 0 1.931.015 2.9-.006a.469.469 0 0 1 .555.423.192.192 0 0 1-.191.27c-.1.005-.2 0-.294 0h-3.437c-.157-.2-.289-.393 0-.591Z" data-name="Path 72696" transform="translate(-190.395 -112.737)"/><path id="Path_72697" d="M256.229 428.74h2.106a2.049 2.049 0 0 1 .245 0c.2.025.4-.14.615 0a1.727 1.727 0 0 1 .545.664c-.057.161-.188.12-.293.12q-1.42.005-2.841 0c-.156 0-.344.046-.378-.2-.15-.2-.291-.394 0-.589Z" data-name="Path 72697" transform="translate(-211.048 -107.425)"/><path id="Path_72698" d="M236.584 429.588c-.026.209-.182.2-.332.2h-3.1a.867.867 0 0 1 .822-.786c.87-.006 1.74 0 2.61 0a.418.418 0 0 1 0 .586Zm0 1.18H232.7c.074-.57.085-.584.549-.588s.951-.006 1.426 0a10.235 10.235 0 0 0 1.807-.1l.077.026a.292.292 0 0 1 .1.126.5.5 0 0 1-.081.534Z" data-name="Path 72698" transform="translate(-191.796 -107.683)"/><path id="Path_72699" d="M244.108 424.026h-2.275a2.132 2.132 0 0 1 2.274-.588.332.332 0 0 1 .11.258.51.51 0 0 1-.057.281l-.053.049Z" data-name="Path 72699" transform="translate(-199.323 -103.009)"/><path id="Path_72700" d="M256.509 423.354a2.16 2.16 0 0 1 1.332-.047 2.914 2.914 0 0 1 .939.5c-.769-.038-1.512.158-2.269.134l-.053-.049a.569.569 0 0 1-.052-.352.317.317 0 0 1 .1-.186Z" data-name="Path 72700" transform="translate(-211.329 -102.926)"/><path id="Path_72701" d="M254.317 434.625v-.587c-.034-.031-.06-.071-.1-.1a.25.25 0 0 1 .022-.044c.078-.1.146-.244.3-.214.188.037.172.209.174.355-.154.2.032.394 0 .591-.2.237-.2.237-.4 0Zm0 4.73v-.785c.009-.121.042-.247.176-.26.173-.016.2.127.224.264-.151.26.028.522 0 .782a.326.326 0 0 1-.4-.001Z" data-name="Path 72701" transform="translate(-209.534 -111.54)"/><path id="Path_72702" d="M254.777 427.5v-.889c.132-.2.265-.2.4 0a.279.279 0 0 1 0 .3c-.159.2.04.393 0 .589a.314.314 0 0 1-.391 0Z" data-name="Path 72702" transform="translate(-209.989 -105.597)"/><path id="Path_72703" d="M254.4 501.794a.4.4 0 0 1 0-.491c.17 0 .357.005.371.222.02.255-.181.267-.371.269Z" data-name="Path 72703" transform="translate(-209.615 -167.279)"/><path id="Path_72704" d="M254.586 506.733v-.1a.148.148 0 0 1 0-.2v-.1h.191a.179.179 0 0 1 .194.214c-.008.118-.083.163-.19.17-.067.016-.131.015-.195.016Z" data-name="Path 72704" transform="translate(-209.798 -171.431)"/><path id="Path_72705" d="M254.795 476.045v-.294c.115-.054.232-.134.337.014a.215.215 0 0 1 0 .266c-.105.147-.222.069-.337.014Z" data-name="Path 72705" transform="translate(-210.007 -146.16)"/><path id="Path_72706" d="M254.79 483.889v-.289c.115-.053.232-.134.337.014a.214.214 0 0 1 0 .266c-.1.148-.222.069-.336.014Zm0 .494c.075-.024.14-.093.225-.065a.208.208 0 0 1 .149.263.184.184 0 0 1-.158.16c-.114.013-.176-.066-.2-.166a1.1 1.1 0 0 1-.016-.191Z" data-name="Path 72706" transform="translate(-210.001 -152.626)"/><path id="Path_72707" d="M254.781 497.217v-.095c.008-.095-.013-.209.087-.26s.227-.059.282.08c.038.1.031.205-.079.245a1.147 1.147 0 0 1-.29.03Z" data-name="Path 72707" transform="translate(-209.991 -163.591)"/><path id="Path_72708" d="M254.774 444.634v-.1c.13-.2.26-.207.389 0q0 .047.006.094c-.017.137-.051.279-.223.261-.13-.009-.162-.135-.172-.255Z" data-name="Path 72708" transform="translate(-209.99 -120.366)"/><path id="Path_72709" d="M254.791 441.308v-.3a.32.32 0 0 1 .392 0v.294c-.132.212-.262.209-.392.006Z" data-name="Path 72709" transform="translate(-210.003 -117.532)"/><path id="Path_72710" d="M255.335 452.548c0 .13.1.26 0 .391a1.183 1.183 0 0 0-.1.1.249.249 0 0 1-.043-.022c-.1-.078-.244-.146-.215-.3.037-.188.208-.172.354-.174Z" data-name="Path 72710" transform="translate(-210.156 -127.094)"/><path id="Path_72711" d="M255.181 468q0 .048-.006.095a.6.6 0 0 1-.388-.1v-.2c.133-.053.265-.178.4 0v.094a.065.065 0 0 1 .022.069c-.008.023-.016.034-.023.034Z" data-name="Path 72711" transform="translate(-209.999 -139.59)"/><path id="Path_72712" d="M255.168 423.526v.2c-.1.163-.219.231-.39.1l-.005-.292c.131-.18.264-.054.4 0Z" data-name="Path 72712" transform="translate(-209.988 -103.098)"/><path id="Path_72713" d="M254.773 479.806v-.2a1.031 1.031 0 0 1 .174-.076c.141-.033.211.035.21.175s-.074.205-.214.171a1.137 1.137 0 0 1-.17-.07Z" data-name="Path 72713" transform="translate(-209.989 -149.33)"/><path id="Path_72714" d="M254.786 492.7v-.2a1.085 1.085 0 0 1 .174-.075c.14-.034.211.032.212.173s-.071.207-.211.173a1.089 1.089 0 0 1-.175-.071Z" data-name="Path 72714" transform="translate(-209.999 -159.954)"/><path id="Path_72715" d="M254.8 448.911v-.195a.6.6 0 0 1 .387-.1l.006.293a.315.315 0 0 1-.392 0Z" data-name="Path 72715" transform="translate(-210.008 -123.854)"/><path id="Path_72716" d="M255.047 419.9a.3.3 0 0 1-.387 0q-.04-.031-.028-.064c.008-.022.017-.033.025-.033.088-.208.23-.2.395-.1a.13.13 0 0 1 0 .2Z" data-name="Path 72716" transform="translate(-209.87 -99.969)"/><path id="Path_72717" d="M254.792 456.749v-.2a.657.657 0 0 1 .3-.1c.028.036.062.068.094.1v.194a.307.307 0 0 1-.394.006Z" data-name="Path 72717" transform="translate(-210.004 -130.312)"/><path id="Path_72718" d="M257.007 420.23v-.2l.478.253c-.219.057-.358.093-.478-.053Z" data-name="Path 72718" transform="translate(-211.83 -100.297)"/><path id="Path_72719" d="M253.186 420.59v.1c-.078.117-.187.1-.345.084a.431.431 0 0 1 .345-.184Z" data-name="Path 72719" transform="translate(-208.4 -100.754)"/><path id="Path_72720" d="M219.512 404.1c.122-.062.08-.238.232-.3a.833.833 0 0 0 .522-1.1c.114-.131.254-.078.375-.078q2.211-.007 4.421 0c.157 0 .332-.055.459.1a8.848 8.848 0 0 1-1.876.713 5.978 5.978 0 0 0-2.207 1.132 6.361 6.361 0 0 0-1.84 2.674c-.024.059-.042.127-.2.114a25.358 25.358 0 0 0 .114-3.253Zm6.6-1.382c.08-.11.2-.1.313-.1h4.777a.606.606 0 0 1 .13.026c.108.1.019.191.011.282a.669.669 0 0 0 .445.787c.3.111.344.291.334.558-.013.328 0 .657 0 .985a.358.358 0 0 0 .1.316v1.855a14.351 14.351 0 0 0-1.027-1.868 5.777 5.777 0 0 0-2.359-1.865c-.589-.254-1.226-.346-1.817-.588-.3-.124-.609-.24-.9-.394Z" data-name="Path 72720" transform="translate(-180.832 -85.935)"/><path id="Path_72721" d="M225.684 402.73a.237.237 0 0 1 .394 0Zm-6.206.985.1.1Z" data-name="Path 72721" transform="translate(-180.897 -85.947)"/><path id="Path_72722" d="M254.426 506.884v.2c-.1-.067-.1-.134 0-.2Z" data-name="Path 72722" transform="translate(-209.643 -171.879)"/><path id="Path_72723" d="M371.412 380.227a9.34 9.34 0 0 1-1.652-.088c-.231-.044-.313-.126-.3-.343v-.2c.012-.338.091-.427.434-.452a2.04 2.04 0 0 1 .586 0 9.8 9.8 0 0 0 1.852.09c.16.006.358-.035.429.153a.9.9 0 0 1-.017.713c-.064.133-.22.12-.351.12Zm5.043-12.982V368.966c-.01.2-.09.38-.3.378-.176 0-.263-.165-.286-.345a5.91 5.91 0 0 1-.023-1.945 6.562 6.562 0 0 0 .021-1.226c0-.131 0-.263.007-.393a.29.29 0 0 1 .578-.008c.011.163.007.327.008.491v1.328Zm-7.375-.337a3.5 3.5 0 0 1 0-.436c.022-.178.157-.232.321-.234a.223.223 0 0 1 .257.225 4.438 4.438 0 0 1 .1.872 19.688 19.688 0 0 0 .145 2.537c.014.185 0 .357-.2.375s-.323-.1-.347-.325c-.069-.68-.193-1.354-.194-2.04.004-.324-.162-.634-.082-.973Z" data-name="Path 72723" transform="translate(-304.185 -55.07)"/><path id="Path_72724" d="M387.618 371.131a6.683 6.683 0 0 0 .094 1.558 1.028 1.028 0 0 1 .005.342c-.013.164.07.386-.214.41-.224.019-.332-.106-.373-.412a22.851 22.851 0 0 1-.1-3.029.389.389 0 0 1 .094-.318.3.3 0 0 1 .322-.05.269.269 0 0 1 .17.273c.003.408.002.817.002 1.226Z" data-name="Path 72724" transform="translate(-318.995 -58.732)"/><path id="Path_72725" d="M400.831 415.055c-.1 0-.207-.018-.217-.144a.211.211 0 0 1 .161-.22.347.347 0 0 1 .144-.024c.509.052 1-.126 1.51-.114a7.144 7.144 0 0 0 1.111-.134c.064-.009.126-.041.19-.044.11 0 .251-.037.283.116s-.079.237-.223.26c-.209.033-.42.018-.633.05-.77.116-1.555.109-2.324.252Zm1.574-16.35c.311 0 .623-.008.934 0 .133.005.361-.073.363.132 0 .247-.242.15-.385.156-.311.013-.623 0-.935.005a3.955 3.955 0 0 0-1.17.085c-.113.036-.29.047-.3-.145-.009-.158.119-.228.263-.23.41-.006.82 0 1.23 0Z" data-name="Path 72725" transform="translate(-330.193 -82.711)"/><path id="Path_72726" d="M410.438 460.74a2.206 2.206 0 0 1-.589-.043.158.158 0 0 1-.109-.144.093.093 0 0 1 .086-.1 3.6 3.6 0 0 1 1.055-.112c.117.016.238.042.236.187 0 .117-.12.155-.207.17a4.47 4.47 0 0 1-.472.042Z" data-name="Path 72726" transform="translate(-337.715 -133.509)"/><path id="Path_72727" d="M353.441 376.877a5.7 5.7 0 0 0 .089 1.378 1.516 1.516 0 0 1 .01.439c0 .152-.013.331-.207.323s-.38-.1-.369-.319c.018-.348-.115-.673-.113-1.016v-1.665a1.8 1.8 0 0 1 0-.2c.021-.193.1-.376.314-.362a.325.325 0 0 1 .271.357c.006.343 0 .686 0 1.06Z" data-name="Path 72727" transform="translate(-290.826 -63.556)"/><path id="Path_72728" d="M334.248 383.57v-1.133c0-.136.042-.279.217-.262.136.013.164.14.172.259v.2a16.27 16.27 0 0 0 .189 2.523 1.081 1.081 0 0 1 0 .244.167.167 0 0 1-.149.166.213.213 0 0 1-.218-.078.624.624 0 0 1-.117-.317 8.584 8.584 0 0 1-.094-1.602Zm-.983 1.976c-.011.218.038.438-.162.475-.236.044-.313-.208-.309-.359.017-.752-.157-1.491-.12-2.242.006-.119.036-.246.173-.259.175-.016.215.128.214.263a11.445 11.445 0 0 1 .1 1.458c-.033.251.121.474.103.663Z" data-name="Path 72728" transform="translate(-274.191 -69.091)"/><path id="Path_72729" d="M205.923 321.31c-.344 0-.689.012-1.032 0-.423-.019-.552-.157-.557-.572-.006-.459 0-.917 0-1.376a.808.808 0 0 1 .2-.677c.147-.137.1-.328.054-.509a.807.807 0 0 1 .535-1.1 1.675 1.675 0 0 1 2.027.3.673.673 0 0 1 .186.714.709.709 0 0 0 .153.816.454.454 0 0 1 .1.369c0 .442.009.885 0 1.327-.014.512-.214.7-.723.707h-.934Zm3.776 0c-.328 0-.655.006-.983 0-.517-.013-.636-.134-.64-.64v-1.278a.865.865 0 0 1 .21-.724c.144-.136.082-.33.04-.51a.8.8 0 0 1 .51-1.069 1.689 1.689 0 0 1 2.034.266.692.692 0 0 1 .2.754.68.68 0 0 0 .137.774.453.453 0 0 1 .116.362c0 .458.01.918 0 1.376-.015.5-.22.686-.739.69-.295.003-.59 0-.884 0Zm3.722 0h-.933c-.549-.011-.664-.127-.668-.662v-1.179a.972.972 0 0 1 .221-.819c.127-.119.073-.3.036-.467a.818.818 0 0 1 .566-1.125 1.675 1.675 0 0 1 1.951.276.714.714 0 0 1 .218.795.672.672 0 0 0 .156.77.4.4 0 0 1 .1.317c0 .475.012.95 0 1.425s-.224.663-.71.669h-.934Zm7.284 0c-.327 0-.655.008-.983 0-.485-.015-.609-.142-.613-.617v-1.327a.8.8 0 0 1 .2-.679c.148-.136.1-.327.059-.508-.137-.6 0-.864.572-1.122a1.666 1.666 0 0 1 1.984.317.672.672 0 0 1 .192.713.711.711 0 0 0 .148.817.453.453 0 0 1 .1.368c0 .442.008.885 0 1.327-.013.516-.211.7-.717.713h-.933Zm-3.727 0c-.344 0-.688.01-1.032 0-.447-.018-.575-.156-.58-.6v-1.277a.9.9 0 0 1 .216-.771c.131-.12.082-.3.046-.466-.138-.631 0-.892.6-1.151a1.671 1.671 0 0 1 1.909.284.71.71 0 0 1 .229.792.678.678 0 0 0 .147.772.451.451 0 0 1 .11.364c0 .442.007.885 0 1.327-.012.542-.206.725-.749.73h-.885Z" data-name="Path 72729" transform="translate(-168.412 -15.267)"/><path id="Path_72730" d="M265.441 324.529c-.027.157-.1.251-.261.237a.228.228 0 0 1 0-.454c.16-.015.228.087.259.217Z" data-name="Path 72730" transform="translate(-218.399 -21.399)"/><path id="Path_72731" d="M223.189 324.752a.224.224 0 0 1-.253-.231.21.21 0 0 1 .205-.227.216.216 0 0 1 .252.227.222.222 0 0 1-.204.231Z" data-name="Path 72731" transform="translate(-183.747 -21.383)"/><path id="Path_72732" d="M244.539 324.736c-.018.1-.067.194-.182.194-.141 0-.2-.1-.2-.229a.158.158 0 0 1 .146-.17.209.209 0 0 1 .232.2Z" data-name="Path 72732" transform="translate(-201.242 -21.579)"/><path id="Path_72733" d="M285.879 324.757c-.152-.011-.223-.066-.206-.188a.176.176 0 0 1 .193-.175.183.183 0 0 1 .172.2c.003.13-.098.145-.159.163Z" data-name="Path 72733" transform="translate(-235.455 -21.467)"/><path id="Path_72734" d="M394.876 318.78v.785c0 .157-.033.309-.221.326-.17.015-.227-.14-.242-.26a8.137 8.137 0 0 1-.121-1.7.409.409 0 0 1 .125-.258c.165-.168.315-.135.413.085a.93.93 0 0 1 .047.386v.638Z" data-name="Path 72734" transform="translate(-324.971 -15.839)"/><path id="Path_72735" d="M407.747 314.788v.783c0 .145-.073.26-.23.266s-.235-.1-.249-.246a9.643 9.643 0 0 1-.107-1.651c.014-.181.059-.325.267-.342s.292.153.306.311c.025.291.007.586.007.879Z" data-name="Path 72735" transform="translate(-335.58 -12.568)"/><path id="Path_72736" d="M367.426 324.143c0 .19-.014.348-.2.38-.2.034-.25-.146-.272-.278a7.144 7.144 0 0 1-.117-1.647c.008-.119.032-.242.163-.269.156-.033.231.1.292.209a.461.461 0 0 1 .034.189 4.838 4.838 0 0 0 .1 1.416Zm1.773-.216a.466.466 0 0 1-.284-.461 6.245 6.245 0 0 0-.1-1.368.234.234 0 0 1 .11-.256c.079-.054.164-.122.267-.069a.216.216 0 0 1 .1.21c0 .344.016.69 0 1.034a2.545 2.545 0 0 1 .02.633c-.021.09.003.199-.112.277Z" data-name="Path 72736" transform="translate(-302.35 -19.292)"/><path id="Path_72737" d="M406.6 309.984a.17.17 0 0 1-.2.153.152.152 0 0 1-.132-.173.167.167 0 0 1 .334.019Z" data-name="Path 72737" transform="translate(-334.852 -9.449)"/><path id="Path_72738" d="M378.878 312.657c-.014.063-.036.121-.113.129a.126.126 0 0 1-.156-.13.119.119 0 0 1 .111-.129c.096-.011.142.041.158.13Zm-3.3.85a.124.124 0 0 1 .148.137.1.1 0 0 1-.118.113.147.147 0 0 1-.129-.122.1.1 0 0 1 .1-.128Z" data-name="Path 72738" transform="translate(-309.474 -11.685)"/><path id="Path_72739" d="M101.787 314.773v-.787c0-.2.039-.371.281-.38s.3.145.31.352c.03.542-.14 1.069-.121 1.611a.4.4 0 0 1-.08.177.211.211 0 0 1-.253.1.173.173 0 0 1-.132-.183v-.886Z" data-name="Path 72739" transform="translate(-83.895 -12.575)"/><path id="Path_72740" d="M114.684 318.721v-.93c0-.121.02-.233.171-.25s.293.05.3.19a5.976 5.976 0 0 1-.082 1.941.309.309 0 0 1-.016.046.221.221 0 0 1-.226.152c-.127-.014-.141-.118-.142-.219-.006-.31-.005-.62-.005-.93Z" data-name="Path 72740" transform="translate(-94.524 -15.817)"/><path id="Path_72741" d="M142.687 325.573c-.166.392-.035.9-.2 1.372-.047.137-.1.258-.26.234s-.124-.166-.134-.278c-.051-.574.136-1.134.109-1.707a.2.2 0 0 1 .165-.214c.115-.022.177.067.24.14.094.11.074.246.079.453Z" data-name="Path 72741" transform="translate(-117.11 -21.948)"/><path id="Path_72742" d="M131.367 322.412c.037.438-.145.846-.1 1.275.011.116-.039.244-.18.248-.176.005-.2-.141-.2-.275a1.918 1.918 0 0 1 .007-.538 4.355 4.355 0 0 0 .088-1.069c0-.118.012-.259.15-.27a.222.222 0 0 1 .242.248c-.005.13-.007.261-.007.381Z" data-name="Path 72742" transform="translate(-107.861 -19.315)"/><path id="Path_72743" d="M145.709 320.686a.151.151 0 0 1-.153-.155.129.129 0 0 1 .094-.151.127.127 0 0 1 .176.115.163.163 0 0 1-.117.191Z" data-name="Path 72743" transform="translate(-119.967 -18.152)"/><path id="Path_72744" d="M134.839 317.622a.159.159 0 0 1-.182.122c-.082-.017-.153-.075-.125-.174s.119-.094.2-.084a.113.113 0 0 1 .106.136Z" data-name="Path 72744" transform="translate(-110.879 -15.77)"/><path id="Path_72745" d="M117.821 312.7a.131.131 0 0 1-.2.081.119.119 0 0 1-.057-.16.127.127 0 0 1 .191-.07.12.12 0 0 1 .063.149Z" data-name="Path 72745" transform="translate(-96.892 -11.688)"/><path id="Path_72746" d="M104.333 310.348a.135.135 0 0 1-.1.15.095.095 0 0 1-.142-.079.115.115 0 0 1 .088-.149.107.107 0 0 1 .149.078Z" data-name="Path 72746" transform="translate(-85.793 -9.819)"/><path id="Path_72747" d="M40.122 314.726a4 4 0 0 1-.035.777c-.034.125-.089.249-.256.252a.248.248 0 0 1-.262-.24 5.177 5.177 0 0 1 .037-1.694c.029-.116.071-.217.219-.217.165 0 .229.12.262.246a4.81 4.81 0 0 1 .037.875Z" data-name="Path 72747" transform="translate(-32.571 -12.575)"/><path id="Path_72748" d="M74.476 314.314v.836c0 .119-.031.239-.168.265s-.2-.092-.242-.2a.809.809 0 0 1-.075-.281c-.008-.492 0-.984 0-1.476 0-.177.036-.351.253-.345s.239.187.239.361v.836Zm-2.955-.083v-.783c0-.1.012-.206.13-.233a.266.266 0 0 1 .252.119.32.32 0 0 1 .1.216 5.937 5.937 0 0 1-.091 1.651c-.034.117-.072.231-.214.214s-.174-.136-.176-.255v-.93Z" data-name="Path 72748" transform="translate(-58.949 -12.173)"/><path id="Path_72749" d="M54.688 314.425c.021.359-.123.7-.1 1.064a.213.213 0 0 1-.215.224.221.221 0 0 1-.252-.237 6.062 6.062 0 0 1 .041-1.41c.022-.1.014-.268.166-.261a.354.354 0 0 1 .357.279 1.789 1.789 0 0 1 .003.341Z" data-name="Path 72749" transform="translate(-44.59 -12.74)"/><path id="Path_72750" d="M73.493 310.583a.152.152 0 0 1-.138.155c-.1.012-.134-.06-.135-.148s.025-.165.122-.163a.155.155 0 0 1 .151.156Z" data-name="Path 72750" transform="translate(-60.349 -9.956)"/><path id="Path_72751" d="M40.726 310.46a.1.1 0 0 1-.125.1.113.113 0 0 1-.1-.131.118.118 0 0 1 .132-.1c.08.001.088.071.093.131Z" data-name="Path 72751" transform="translate(-33.379 -9.873)"/><path id="Path_72752" d="M56.164 310.811a.086.086 0 0 1 .076.082c0 .089-.064.1-.133.09-.049-.009-.093-.041-.075-.1s.057-.074.132-.072Z" data-name="Path 72752" transform="translate(-46.179 -10.272)"/><path id="Path_72753" d="m88.534 309.816-.208.008c.065-.1.135-.096.208-.008Z" data-name="Path 72753" transform="translate(-72.8 -9.397)"/><path id="Path_72754" d="M438.038 314.751v-.788c0-.164.066-.305.249-.3s.24.148.241.31v1.526a.5.5 0 0 1-.041.19c-.045.1-.092.222-.242.2a.232.232 0 0 1-.2-.246c-.006-.3 0-.591 0-.886Z" data-name="Path 72754" transform="translate(-361.039 -12.62)"/><path id="Path_72755" d="M457.893 314.739v.784a.239.239 0 0 1-.232.266.227.227 0 0 1-.246-.247q-.011-.809 0-1.618a.236.236 0 0 1 .232-.265c.186 0 .25.132.253.3v.785Zm-2.559-.03v.683c0 .106-.043.191-.163.2a.186.186 0 0 1-.224-.139 1.672 1.672 0 0 1-.1-.375c-.014-.325-.006-.65-.008-.976a.414.414 0 0 1 .1-.315c.069-.07.141-.147.25-.1a.207.207 0 0 1 .13.192c.006.276 0 .553 0 .829Z" data-name="Path 72755" transform="translate(-374.888 -12.619)"/><path id="Path_72756" d="M457.517 309.875a.157.157 0 0 1-.132.172c-.134.02-.208-.062-.215-.192a.131.131 0 0 1 .146-.146.2.2 0 0 1 .2.165Z" data-name="Path 72756" transform="translate(-376.807 -9.364)"/><path id="Path_72757" d="m423.591 309.885-.1-.189a.2.2 0 0 1 .1-.1l.1-.016c.075.036.155.086.133.176-.024.115-.131.131-.233.129Z" data-name="Path 72757" transform="translate(-349.052 -9.261)"/><path id="Path_72758" d="M439.073 310.546c-.071-.012-.133-.055-.129-.124a.132.132 0 0 1 .171-.125.12.12 0 0 1 .1.142.13.13 0 0 1-.144.106Z" data-name="Path 72758" transform="translate(-361.786 -9.844)"/><path id="Path_72759" d="M472.255 310.51c-.01.079-.06.118-.131.095a.151.151 0 0 1-.09-.1.113.113 0 0 1 .114-.127c.078 0 .105.059.107.13Z" data-name="Path 72759" transform="translate(-389.058 -9.917)"/><path id="Path_72760" d="M348.632 330v-.23c.01-.134.031-.28.206-.274.141 0 .187.131.179.248a11.034 11.034 0 0 0 .1 1.457c.008.121.035.29-.161.293a.222.222 0 0 1-.221-.267c.041-.413-.136-.8-.1-1.227Zm-1.378.552a.245.245 0 0 1 .149-.268c.139-.043.2.073.253.176a.832.832 0 0 1 .089.376 3.48 3.48 0 0 0 .083 1.115.163.163 0 0 1-.112.232.2.2 0 0 1-.249-.177c-.079-.475-.142-.956-.213-1.451Z" data-name="Path 72760" transform="translate(-286.21 -25.675)"/><path id="Path_72761" d="M338.851 339.832v-.782a.136.136 0 0 1 .117-.136.155.155 0 0 1 .162.081.583.583 0 0 1 .1.321v1.173c0 .149-.007.33-.206.319s-.183-.2-.185-.341v-.636Z" data-name="Path 72761" transform="translate(-279.279 -33.434)"/><path id="Path_72762" d="M332.5 344.544v.59c0 .1-.016.211-.138.224a.217.217 0 0 1-.239-.2 1.25 1.25 0 0 1-.014-.245c0-.311-.007-.623 0-.935 0-.168-.055-.428.205-.414.241.012.177.267.185.437s0 .361 0 .541Z" data-name="Path 72762" transform="translate(-273.731 -37.269)"/><path id="Path_72763" d="M333.338 336.169a.151.151 0 0 1-.116.14.1.1 0 0 1-.129-.1c0-.07.029-.13.108-.137s.131.009.137.097Zm-.891.688c-.018.066-.076.081-.146.062a.117.117 0 0 1-.089-.149.094.094 0 0 1 .142-.079.138.138 0 0 1 .093.166Z" data-name="Path 72763" transform="translate(-273.811 -31.092)"/><path id="Path_72764" d="M347.024 330.932c-.068 0-.136-.01-.137-.1a.117.117 0 0 1 .115-.128c.035 0 .085.047.1.085.038.078-.002.126-.078.143Z" data-name="Path 72764" transform="translate(-285.91 -26.673)"/><path id="Path_72765" d="M353.872 327.135a.078.078 0 0 1-.082.094c-.042 0-.11-.02-.121-.049-.029-.075.026-.117.1-.121a.1.1 0 0 1 .103.076Z" data-name="Path 72765" transform="translate(-291.495 -23.663)"/><path id="Path_72766" d="M154.466 330.442v-.637a.584.584 0 0 1 .12-.366.129.129 0 0 1 .171-.047c.037.021.086.069.086.1a6.4 6.4 0 0 1-.062 1.7c-.025.093-.047.211-.174.2-.158-.017-.138-.157-.14-.267v-.686Z" data-name="Path 72766" transform="translate(-127.311 -25.575)"/><path id="Path_72767" d="M171.279 339.846v-.689c0-.116 0-.246.168-.243a.213.213 0 0 1 .213.227c.011.442.009.885.011 1.327a.787.787 0 0 1-.01.147c-.023.123-.085.222-.222.219-.164 0-.158-.137-.16-.251-.003-.245-.001-.491 0-.737Z" data-name="Path 72767" transform="translate(-141.17 -33.436)"/><path id="Path_72768" d="M162.214 334.389c-.012.375-.129.74-.115 1.118a.418.418 0 0 1-.076.179.158.158 0 0 1-.2.1.144.144 0 0 1-.1-.153 2.8 2.8 0 0 1 0-.589 4.112 4.112 0 0 0 .092-.874c0-.163.063-.314.249-.293s.132.2.14.319v.2Z" data-name="Path 72768" transform="translate(-133.288 -29.279)"/><path id="Path_72769" d="M177.443 344.531c-.08-.344.1-.634.085-.944 0-.105.034-.2.165-.188a.193.193 0 0 1 .175.2c-.08.311.095.606.039.907a2.477 2.477 0 0 0-.091.526c0 .106-.04.194-.168.187a.2.2 0 0 1-.2-.183c-.017-.177 0-.357 0-.507Z" data-name="Path 72769" transform="translate(-146.234 -37.131)"/><path id="Path_72770" d="M164.916 331.158c-.034.093-.086.121-.154.106a.122.122 0 0 1-.1-.173.116.116 0 0 1 .145-.082.126.126 0 0 1 .108.148Z" data-name="Path 72770" transform="translate(-135.709 -26.917)"/><path id="Path_72771" d="M156.351 326.5c.092.016.144.062.132.158a.118.118 0 0 1-.129.108.125.125 0 0 1-.127-.155c.009-.074.067-.093.124-.111Z" data-name="Path 72771" transform="translate(-128.762 -23.206)"/><path id="Path_72772" d="M173.574 336.214a.126.126 0 0 1-.1.14.131.131 0 0 1-.17-.123c0-.069.059-.113.129-.12a.134.134 0 0 1 .145.1Z" data-name="Path 72772" transform="translate(-142.837 -31.125)"/><path id="Path_72773" d="M180.442 340.922a.077.077 0 0 1-.093-.08c0-.042.02-.108.048-.119.075-.029.116.025.121.1a.1.1 0 0 1-.076.1Z" data-name="Path 72773" transform="translate(-148.647 -34.919)"/><path id="Path_72774" d="m423.574 309.542-.1.1v-.1a.07.07 0 0 1 .094 0Z" data-name="Path 72774" transform="translate(-349.034 -9.203)"/><path id="Path_72775" d="M423.566 309.412h-.094c.028-.048.059-.06.094 0Z" data-name="Path 72775" transform="translate(-349.034 -9.086)"/><path id="Path_72776" d="M219.354 403.429v.287c-.034.032-.064.067-.095.1a1.309 1.309 0 0 0-.1.1.39.39 0 0 1-.394 0q-.048-.051-.1-.1a.392.392 0 0 1 0-.394 1.234 1.234 0 0 0 .1-.1c.034-.032.07-.063.1-.1h.191c.053.06.145.04.2.1.035.032.066.068.1.1Z" data-name="Path 72776" transform="translate(-180.185 -86.443)"/><path id="Path_72777" d="M290.111 403.962a.364.364 0 0 1-.3-.333c0-.153.162-.345.3-.33a.353.353 0 0 1 .326.306c.028.151-.168.356-.326.357Z" data-name="Path 72777" transform="translate(-238.87 -86.502)"/><path id="Path_72778" d="M218.425 404.342v.394a.238.238 0 0 1 0-.394Z" data-name="Path 72778" transform="translate(-179.944 -87.362)"/><path id="Path_72779" d="M219.479 407.14h.394a.237.237 0 0 1-.394 0Z" data-name="Path 72779" transform="translate(-180.899 -89.669)"/><path id="Path_72780" d="M219.507 403.318a.216.216 0 0 1-.2-.1.2.2 0 0 1 .2.1Zm-.59.491.1.1Zm.494.1.1-.1Zm.1-.1.1-.1-.095.1Zm-.392-.59-.1.1Zm-.1.1-.1.1Zm.59.1-.1-.1Z" data-name="Path 72780" transform="translate(-180.435 -86.435)"/><path id="Path_72781" d="M256.566 457.34v-.1q.1.053 0 .1Zm0-2.167-.094-.1Zm-.1-.3.1-.1Z" data-name="Path 72781" transform="translate(-211.384 -128.932)"/><path id="Path_72782" d="M254.794 443a.309.309 0 0 0 .39 0v.4a.308.308 0 0 0-.389 0Z" data-name="Path 72782" transform="translate(-210.006 -119.227)"/><path id="Path_72783" d="m254.222 426.849.1.1Zm.1-1.677a.62.62 0 0 0 .39-.1v.392a.335.335 0 0 0-.4 0Z" data-name="Path 72783" transform="translate(-209.535 -104.451)"/><path id="Path_72784" stroke-linecap="round" stroke-linejoin="round" d="M0 512h90" data-name="Path 72784" transform="translate(0 -176.096)"/></g></g></svg>