<svg xmlns="http://www.w3.org/2000/svg" width="90" height="90" viewBox="0 0 90 90"><g id="Surat" transform="translate(-20 -693)"><path id="Rectangle_14926" fill="#fff" d="M0 0h90v90H0z" data-name="Rectangle 14926" transform="translate(20 693)"/><g id="Surat-2" data-name="Surat" transform="translate(21.348 687.053)"><path id="Path_73249" fill="#ec1579" d="M38.579 14.947a.421.421 0 0 0-.421.421v2.1H36.9a2.948 2.948 0 0 0-2.945 2.945v4.641h-.832a.421.421 0 1 0 0 .841h.832v1.694h-.315a.421.421 0 1 0 0 .841h.343v18.5h-.841v-.43a1.263 1.263 0 0 0-1.262-1.255v-1.071l.12-.124a1.261 1.261 0 0 0 0-1.785l-1.09-1.087a.421.421 0 0 0-.6 0l-1.087 1.088a1.26 1.26 0 0 0 0 1.784l.123.124v1.06a1.262 1.262 0 0 0-1.262 1.254v.448h-.841v-.448a1.262 1.262 0 0 0-2.524 0v.448h-.841v-.448a1.262 1.262 0 0 0-2.524 0v.448h-.841v-.448a1.262 1.262 0 0 0-2.524 0v.448h-.841v-.448a1.263 1.263 0 0 0-1.262-1.255v-1.06l.123-.121a1.262 1.262 0 0 0 0-1.786l-1.087-1.088a.421.421 0 0 0-.6 0l-1.087 1.088a1.26 1.26 0 0 0 0 1.786l.121.122V78.09h-2.935a.421.421 0 0 0 0 .841h66.463a.421.421 0 0 0 0-.841h-2.943V44.173l.121-.124a1.262 1.262 0 0 0 0-1.784l-1.088-1.088a.421.421 0 0 0-.595 0l-1.088 1.088a1.261 1.261 0 0 0 0 1.784l.123.124v1.061a1.262 1.262 0 0 0-1.262 1.255v.448h-.841v-.448a1.262 1.262 0 1 0-2.524 0v.448h-.841v-.448a1.262 1.262 0 1 0-2.524 0v.448h-.841v-.448a1.262 1.262 0 0 0-2.524 0v.448h-.841v-.448a1.263 1.263 0 0 0-1.262-1.255v-1.06l.121-.123a1.261 1.261 0 0 0 0-1.785l-1.087-1.087a.421.421 0 0 0-.6 0l-1.087 1.088a1.26 1.26 0 0 0 0 1.784l.123.124v1.066a1.262 1.262 0 0 0-1.255 1.259v.441h-.841V28.242a.412.412 0 0 0 .077-.23.417.417 0 0 0-.105-.272V25.9h.816a.421.421 0 0 0 0-.841H53.3v-4.643a2.948 2.948 0 0 0-2.945-2.945h-.421v-2.1a.421.421 0 1 0-.841 0v2.1H39v-2.1a.421.421 0 0 0-.421-.421ZM36.9 18.312h13.457a2.105 2.105 0 0 1 2.06 1.683H34.836a2.1 2.1 0 0 1 2.064-1.683Zm-2.1 2.551h17.66v4.195H34.793Zm0 5.034h.8v1.678h-.812Zm1.653 0h1.679v1.678h-1.686Zm2.521 0h1.678v1.678h-1.686Zm2.519 0h1.679v1.678h-1.687Zm2.521 0h1.676v1.678h-1.684Zm2.517 0H48.2v1.678h-1.677Zm2.521 0h1.679v1.678h-1.687Zm2.521 0h.9v1.678h-.9ZM34.82 28.435h4.207v16.877a1.248 1.248 0 0 0-.421-.077 1.264 1.264 0 0 0-1.262 1.265v.441H36.5V46.5a1.264 1.264 0 0 0-1.262-1.262 1.248 1.248 0 0 0-.421.077V28.436Zm5.048 0h7.572v18.5h-.84V46.5a1.262 1.262 0 1 0-2.524 0v.441h-.841V46.5a1.262 1.262 0 0 0-2.524 0v.441h-.841v-18.5Zm8.413 0h4.207v16.877a1.248 1.248 0 0 0-.421-.077 1.264 1.264 0 0 0-1.262 1.265v.441h-.841V46.5a1.264 1.264 0 0 0-1.264-1.266 1.248 1.248 0 0 0-.421.077V28.436ZM14.629 42.07l.788.79a.417.417 0 0 1 .124.3.413.413 0 0 1-.122.3l-.123.124H13.96l-.122-.124a.417.417 0 0 1 0-.595l.791-.791Zm15.985 0 .788.79a.417.417 0 0 1 .124.3.413.413 0 0 1-.122.3l-.123.124h-1.336l-.122-.124a.417.417 0 0 1 0-.595l.791-.791Zm26.081 0 .788.79a.417.417 0 0 1 .124.3.413.413 0 0 1-.122.3l-.123.124h-1.336l-.121-.124a.417.417 0 0 1 0-.595l.79-.791Zm15.985 0 .788.79a.417.417 0 0 1 .124.3.413.413 0 0 1-.122.3l-.123.124h-1.336l-.121-.124a.417.417 0 0 1 0-.595l.79-.791Zm-58.472 2.35h.841v2.524h-.841Zm15.985 0h.841v2.524h-.841Zm26.081 0h.841v2.524h-.841Zm15.985 0h.841v2.524h-.841Zm-56.368 1.649a.422.422 0 0 1 .421.421v.421h-.421Zm3.365 0a.422.422 0 0 1 .421.421v.421h-.841v-.421a.422.422 0 0 1 .42-.421Zm3.365 0a.422.422 0 0 1 .421.421v.421H22.2v-.421a.422.422 0 0 1 .421-.421Zm3.365 0a.422.422 0 0 1 .421.421v.421h-.841v-.421a.422.422 0 0 1 .421-.421Zm3.365 0v.841h-.421v-.421a.422.422 0 0 1 .422-.42Zm28.6 0a.422.422 0 0 1 .421.421v.421h-.421Zm3.365 0a.422.422 0 0 1 .421.421v.421H60.9v-.421a.422.422 0 0 1 .422-.421Zm3.365 0a.422.422 0 0 1 .421.421v.421h-.841v-.421a.422.422 0 0 1 .426-.421Zm3.365 0a.422.422 0 0 1 .421.421v.421h-.841v-.421a.422.422 0 0 1 .426-.421Zm3.365 0v.841H71v-.421a.422.422 0 0 1 .417-.42Zm-39.542.007a.422.422 0 0 1 .421.421v.421h-.421Zm3.365 0a.421.421 0 0 1 .421.421v.421h-.835V46.5a.422.422 0 0 1 .421-.424Zm3.365 0a.421.421 0 0 1 .421.421v.421h-.841V46.5a.422.422 0 0 1 .427-.424Zm3.365 0a.421.421 0 0 1 .421.421v.421h-.841V46.5a.422.422 0 0 1 .428-.424Zm3.365 0a.421.421 0 0 1 .421.421v.421h-.841V46.5a.422.422 0 0 1 .428-.424Zm3.365 0a.421.421 0 0 1 .421.421v.421h-.841V46.5a.422.422 0 0 1 .426-.424Zm3.365 0a.421.421 0 0 1 .421.421v.421h-.841V46.5a.422.422 0 0 1 .428-.424Zm3.365 0v.841h-.421V46.5a.422.422 0 0 1 .429-.424ZM14.2 47.786h.841v2.524H14.2Zm1.683 0h13.469v2.524H15.891Zm14.3 0h.841v2.524h-.841Zm1.683 0h23.566v2.524H31.876Zm24.4 0h.841v2.524h-.841Zm1.683 0h13.468v2.524H57.956Zm14.3 0h.851v2.524h-.841ZM17.1 48.62a.436.436 0 1 0 .029 0Zm5.469 0a.436.436 0 1 0 .029 0Zm5.469 0a.436.436 0 1 0 .029 0Zm5.073 0a.437.437 0 1 0 .032 0h-.031Zm6.73 0a.437.437 0 1 0 .032 0h-.031Zm7.572 0a.437.437 0 1 0 .032 0h-.031Zm6.73 0a.437.437 0 1 0 .032 0h-.031Zm5.048 0a.437.437 0 1 0 .032 0h-.031Zm5.443 0a.436.436 0 1 0 .029 0Zm5.494 0a.437.437 0 1 0 .032 0h-.031Zm-51.316.007a.421.421 0 1 0 0 .841h2.1a.421.421 0 1 0 0-.841Zm5.469 0a.421.421 0 1 0 0 .841h2.1a.421.421 0 0 0 0-.841Zm10.544 0a.421.421 0 0 0 0 .841h3.365a.421.421 0 0 0 0-.841Zm6.73 0a.421.421 0 0 0 0 .841h4.207a.421.421 0 0 0 0-.841Zm7.572 0a.421.421 0 0 0 0 .841h3.365a.421.421 0 1 0 0-.841Zm11.778 0a.421.421 0 1 0 0 .841H63a.421.421 0 1 0 0-.841Zm5.469 0a.421.421 0 0 0 0 .841h2.1a.421.421 0 0 0 0-.841ZM14.208 51.15h.841v6.73h-.841Zm1.683 0h13.461v5.05a1.262 1.262 0 0 0-1.262 1.26v.414h-.841v-.414a1.262 1.262 0 0 0-2.524 0v.414h-.841v-.414a1.262 1.262 0 0 0-2.524 0v.414h-.841v-.414a1.262 1.262 0 0 0-2.524 0v.414h-.841v-.414a1.264 1.264 0 0 0-1.263-1.26v-5.049Zm14.3 0h.841v6.73h-.841Zm1.683 0h9.593l-4.8 1.918A2.93 2.93 0 0 0 34.82 55.8v.472a1.261 1.261 0 0 0-.841 1.185v.421h-.841v-.418a1.264 1.264 0 0 0-1.262-1.26v-5.049Zm13.962 0h9.594v5.05a1.262 1.262 0 0 0-1.262 1.256v.421h-.841v-.417a1.261 1.261 0 0 0-.841-1.185V55.8a2.932 2.932 0 0 0-1.852-2.734l-4.8-1.919Zm10.436 0h.841v6.73h-.841Zm1.683 0H63.3l-1.518 1.018a2.941 2.941 0 0 0-1.3 2.447v1.876a1.256 1.256 0 0 0-.421.935v.448h-.841v-.421a1.263 1.263 0 0 0-1.264-1.253Zm8.113 0h5.348v5.021a1.262 1.262 0 0 0-1.262 1.255v.448h-.841v-.448a1.252 1.252 0 0 0-.421-.934v-1.876a2.943 2.943 0 0 0-1.307-2.447Zm6.19 0h.842v6.73h-.841Zm-28.6.033 6.67 2.667a2.1 2.1 0 0 1 1.319 1.95v.471a1.261 1.261 0 0 0-.841 1.185v.421h-.841v-.417a1.262 1.262 0 1 0-2.524 0v.421H46.6v-.421a1.262 1.262 0 0 0-2.524 0v.421h-.841v-.421a1.262 1.262 0 0 0-2.524 0v.421h-.841v-.421a1.262 1.262 0 0 0-2.524 0v.421H36.5v-.421a1.261 1.261 0 0 0-.841-1.185V55.8a2.1 2.1 0 0 1 1.321-1.954l6.672-2.667Zm21.033.052 2.434 1.632a2.1 2.1 0 0 1 .931 1.748v1.549a1.264 1.264 0 0 0-1.262 1.262v.448h-.841v-.448a1.262 1.262 0 1 0-2.524 0v.448h-.841v-.448a1.264 1.264 0 0 0-1.262-1.262v-1.548a2.1 2.1 0 0 1 .93-1.748Zm-3.365 5.771a.421.421 0 0 1 .421.421v.421H60.9v-.421a.421.421 0 0 1 .422-.42Zm3.365 0a.421.421 0 0 1 .421.421v.421h-.841v-.421a.421.421 0 0 1 .416-.42Zm3.365 0a.421.421 0 0 1 .421.421v.421h-.841v-.421a.421.421 0 0 1 .416-.42Zm3.365 0v.841H71v-.421a.421.421 0 0 1 .417-.419Zm-13.461.025a.422.422 0 0 1 .421.421v.421h-.421Zm-42.066.008a.422.422 0 0 1 .421.421v.414h-.421Zm3.365 0a.422.422 0 0 1 .421.421v.414h-.841v-.414a.422.422 0 0 1 .417-.421Zm3.365 0a.422.422 0 0 1 .421.421v.414H22.2v-.414a.422.422 0 0 1 .421-.421Zm3.365 0a.422.422 0 0 1 .421.421v.414h-.841v-.414a.422.422 0 0 1 .418-.421Zm3.365 0v.835h-.421v-.414a.422.422 0 0 1 .419-.421Zm2.524 0a.421.421 0 0 1 .421.421v.421h-.421Zm3.365 0a.422.422 0 0 1 .421.421v.421h-.844v-.421a.422.422 0 0 1 .421-.421Zm3.365 0a.422.422 0 0 1 .421.421v.421h-.841v-.421a.422.422 0 0 1 .418-.421Zm3.365 0a.422.422 0 0 1 .421.421v.421h-.841v-.421a.422.422 0 0 1 .419-.421Zm3.365 0a.422.422 0 0 1 .421.421v.421h-.841v-.421a.422.422 0 0 1 .419-.421Zm3.365 0a.422.422 0 0 1 .421.421v.421h-.841v-.421a.422.422 0 0 1 .417-.421Zm3.365 0a.422.422 0 0 1 .421.421v.421h-.841v-.421a.422.422 0 0 1 .419-.421Zm3.365 0v.841h-.421v-.42a.422.422 0 0 1 .42-.421Zm-41.225 1.683h.841v19.35h-.841Zm1.683 0h2.524v19.35h-2.524Zm3.365 0h6.73v2.793a2.944 2.944 0 0 0-.672-.515l-2.489-1.387a.421.421 0 0 0-.409 0L19.926 61a2.959 2.959 0 0 0-.67.517v-2.795Zm7.572 0h2.524v19.35h-2.524Zm3.365 0h.841v19.332h-.841Zm1.683 0h23.556v19.332h-2.523V61.667a.421.421 0 0 0-.421-.421H34.82a.421.421 0 0 0-.421.421v16.387h-2.523Zm24.4 0h.841v19.332h-.841Zm1.683 0h2.521v19.343h-2.374a.424.424 0 0 0-.055-.012h-.1Zm3.365 0h6.73v2.793A2.945 2.945 0 0 0 67.38 61l-2.489-1.387a.421.421 0 0 0-.409 0L61.991 61a2.96 2.96 0 0 0-.67.517Zm7.572 0h2.524v19.343h-2.527Zm3.365 0h.839v19.334h-.841Zm-9.706.835a.436.436 0 1 0 .031 0Zm4.207 0a.436.436 0 1 0 .031 0Zm-49.606.007a.421.421 0 1 0 .421.421.421.421 0 0 0-.424-.422Zm42.066 0a.421.421 0 1 0 .421.421.421.421 0 0 0-.425-.422Zm10.937 0a.421.421 0 1 0 .421.421.421.421 0 0 0-.425-.422Zm-49.668.021a.436.436 0 1 0 .031 0Zm4.207 0a.436.436 0 1 0 .031 0Zm8.413 0a.436.436 0 1 0 .031 0Zm6.73 0a.436.436 0 1 0 .031 0Zm7.572 0a.436.436 0 1 0 .031 0Zm6.73 0a.436.436 0 1 0 .031 0Zm-19.319.007a.421.421 0 0 0 0 .841h3.365a.421.421 0 0 0 0-.841Zm6.73 0a.421.421 0 0 0 0 .841h4.207a.421.421 0 0 0 0-.841Zm7.572 0a.421.421 0 1 0 0 .841h3.365a.421.421 0 1 0 0-.841Zm-21.045.008a.421.421 0 1 0 .421.421.421.421 0 0 0-.421-.421Zm-5.46.856 2.286 1.274a2.107 2.107 0 0 1 1.079 1.838v1.048h-6.73v-1.045a2.106 2.106 0 0 1 1.078-1.838Zm42.066 0 2.286 1.274a2.107 2.107 0 0 1 1.079 1.838v1.048h-6.73v-1.045a2.106 2.106 0 0 1 1.078-1.839Zm-47.543.787a.421.421 0 0 0-.421.421v1.683a.421.421 0 0 0 .841 0v-1.68a.421.421 0 0 0-.42-.421Zm42.066 0a.421.421 0 0 0-.421.421v1.683a.421.421 0 0 0 .841 0v-1.68a.421.421 0 0 0-.42-.421Zm-26.081.028a.421.421 0 0 0-.421.421v1.683a.421.421 0 1 0 .841 0v-1.681a.421.421 0 0 0-.42-.42Zm21.033 0a.421.421 0 0 0-.421.421v1.683a.421.421 0 1 0 .841 0v-1.681a.421.421 0 0 0-.42-.42Zm15.993.008a.421.421 0 0 0-.421.421v1.683a.421.421 0 0 0 .841 0V61.7a.421.421 0 0 0-.42-.418Zm-42.074 0a.421.421 0 0 0-.421.421v1.683a.421.421 0 1 0 .841 0v-1.678a.421.421 0 0 0-.42-.42Zm7.16.8h16.826v15.975h-.841v-8.279a3.772 3.772 0 0 0-1.748-3.191l-5.6-3.574a.425.425 0 0 0-.453 0l-5.6 3.576a3.767 3.767 0 0 0-1.747 3.189v8.279h-.841Zm2.945.841a1.262 1.262 0 1 0 1.262 1.262 1.264 1.264 0 0 0-1.262-1.253Zm10.937 0a1.262 1.262 0 1 0 1.262 1.262 1.264 1.264 0 0 0-1.262-1.253Zm-10.937.841a.421.421 0 1 1-.421.421.422.422 0 0 1 .421-.412Zm10.937 0a.421.421 0 1 1-.421.421.422.422 0 0 1 .421-.412Zm-5.472.1 5.372 3.429a2.931 2.931 0 0 1 1.359 2.482v8.278H48.8v-5.282a1.481 1.481 0 0 0-.43-1.041l-.013-.011.013-.012a1.455 1.455 0 0 0 .427-1v-.459a2.513 2.513 0 0 0-1.164-2.127l-3.657-2.338a.421.421 0 0 0-.454 0l-3.657 2.339a2.515 2.515 0 0 0-1.165 2.125v.44a.487.487 0 0 0 .01.05 1.456 1.456 0 0 0 .424.97l.013.012-.013.01a1.484 1.484 0 0 0-.432 1.042V78.051H36.92v-8.276a2.931 2.931 0 0 1 1.36-2.481Zm15.536.761a.436.436 0 1 0 .031 0Zm-26.05 0a.421.421 0 1 0 .421.421.421.421 0 0 0-.42-.414Zm-16.021.007a.436.436 0 1 0 .029 0Zm37.054 0a.421.421 0 1 0 .421.421.421.421 0 0 0-.42-.411Zm15.985.008a.421.421 0 1 0 .421.421.421.421 0 0 0-.421-.411Zm-42.074 0a.421.421 0 1 0 .421.421.421.421 0 0 0-.421-.408Zm-8.825.81h.844v.84h-.841Zm1.683 0H22.2v.84h-1.261Zm2.1 0H24.3v.84h-1.258Zm2.1 0h.841v.84h-.843Zm36.176 0h.841v.84h-.841Zm1.683 0h1.262v.84H63Zm2.1 0h1.272v.84h-1.262Zm2.1 0h.841v.84h-.843Zm-34.073.833a.421.421 0 0 0-.421.421v3.365a.421.421 0 0 0 .841 0v-3.352a.421.421 0 0 0-.407-.421Zm-15.979.02a.421.421 0 0 0-.421.421v3.365a.421.421 0 0 0 .841 0v-3.367a.421.421 0 0 0-.42-.419Zm37.021.005a.421.421 0 0 0-.421.421v3.365a.421.421 0 0 0 .841 0v-3.367a.421.421 0 0 0-.42-.424Zm5.051.005a.421.421 0 0 0-.421.421v3.365a.421.421 0 1 0 .841 0v-3.367a.421.421 0 0 0-.42-.421Zm10.937 0a.421.421 0 0 0-.421.421V70.1a.421.421 0 0 0 .841 0v-3.368a.421.421 0 0 0-.42-.42Zm-42.074 0a.421.421 0 0 0-.421.421V70.1a.421.421 0 0 0 .841 0v-3.364a.421.421 0 0 0-.42-.421Zm15.668.319 3.431 2.192a1.679 1.679 0 0 1 .776 1.42v.421a.623.623 0 0 1-.184.446.638.638 0 0 1-.446.185.421.421 0 1 0 0 .841.631.631 0 0 1 .631.63v5.278h-8.414v-5.278a.632.632 0 0 1 .631-.632.421.421 0 1 0 0-.841.633.633 0 0 1-.631-.631V70.244a1.681 1.681 0 0 1 .777-1.42Zm-24.493.506h6.73v.819H24.4a.421.421 0 1 0 0 .841h1.588v.85h-6.73V68.8h1.778a.421.421 0 1 0 0-.841h-1.78v-.819Zm42.066 0h6.73v.819h-1.587a.421.421 0 0 0 0 .841h1.588v.85h-6.73V68.8H63.1a.421.421 0 0 0 0-.841h-1.778v-.819Zm-38.605.812a.421.421 0 1 0 .421.421.421.421 0 0 0-.422-.417Zm42.066 0a.421.421 0 1 0 .421.421.421.421 0 0 0-.422-.417ZM19.256 70.49h6.73v2.785a2.969 2.969 0 0 0-.672-.517l-2.489-1.386a.421.421 0 0 0-.409 0l-2.49 1.386a2.913 2.913 0 0 0-.67.517V70.49Zm42.066 0h6.73v2.764a2.969 2.969 0 0 0-.672-.517l-2.489-1.388a.421.421 0 0 0-.409 0l-2.49 1.388a2.953 2.953 0 0 0-.67.516V70.49Zm-28.184.851a.421.421 0 1 0 .421.421.421.421 0 0 0-.421-.42Zm-15.992.006a.421.421 0 1 0 .421.421.421.421 0 0 0-.421-.42Zm37.021 0a.421.421 0 1 0 .421.421.421.421 0 0 0-.421-.417Zm5.051.005a.421.421 0 1 0 .421.421.421.421 0 0 0-.421-.417Zm10.937 0a.421.421 0 1 0 .421.421.421.421 0 0 0-.421-.414Zm-42.074 0a.421.421 0 1 0 .421.421.421.421 0 0 0-.421-.41Zm36.605.835 2.284 1.274a2.108 2.108 0 0 1 1.081 1.838v1.07h-6.73v-1.07a2.106 2.106 0 0 1 1.079-1.828Zm-42.066.021 2.286 1.274a2.1 2.1 0 0 1 1.079 1.839v1.059h-6.73v-1.05a2.107 2.107 0 0 1 1.078-1.839l2.288-1.274Zm10.516.806a.421.421 0 0 0-.421.421v1.683a.421.421 0 0 0 .841 0v-1.673a.421.421 0 0 0-.418-.421Zm-15.992 0a.421.421 0 0 0-.421.421v1.683a.421.421 0 0 0 .841 0v-1.669a.421.421 0 0 0-.418-.42Zm37.021.005a.421.421 0 0 0-.421.421v1.683a.421.421 0 0 0 .841 0v-1.669a.421.421 0 0 0-.418-.42Zm15.988.008a.421.421 0 0 0-.421.421v1.683a.421.421 0 0 0 .841 0v-1.668a.421.421 0 0 0-.418-.421Zm-42.074 0a.421.421 0 0 0-.421.421v1.683a.421.421 0 0 0 .841 0v-1.665a.421.421 0 0 0-.418-.421Zm31.137 0a.421.421 0 0 0-.421.421v1.702a.421.421 0 0 0 .841 0v-1.682a.421.421 0 0 0-.418-.421ZM33.138 76.39a.421.421 0 1 0 .421.421.421.421 0 0 0-.421-.421Zm-15.992.01a.421.421 0 1 0 .421.421.421.421 0 0 0-.421-.421Zm37.021 0a.421.421 0 1 0 .421.421.421.421 0 0 0-.421-.421Zm15.988.008a.421.421 0 1 0 .421.421.421.421 0 0 0-.421-.422Zm-42.074 0a.421.421 0 1 0 .421.421.421.421 0 0 0-.421-.418Zm31.137 0a.421.421 0 1 0 .421.421.421.421 0 0 0-.421-.415Zm-39.962.807h.936v.84h-.936Zm1.778 0H22.3v.84h-1.266Zm2.1 0H24.4v.84h-1.263Zm2.1 0h.746v.84h-.74Zm36.081 0h.936v.818h-.936Zm1.778 0h1.262v.818H63.1Zm2.1 0h1.262v.818H65.2Zm2.1 0h.746v.818h-.746Z" data-name="Path 73249"/><path id="Path_73250" fill="#ec1579" d="M27.96 63.71a.421.421 0 0 1-.421-.421v-2a2.1 2.1 0 0 0-.931-1.747l-2.434-1.631-2.434 1.631a2.1 2.1 0 0 0-.931 1.747v2a.421.421 0 0 1-.841 0v-2a2.94 2.94 0 0 1 1.3-2.446l2.668-1.789a.421.421 0 0 1 .469 0l2.668 1.789a2.941 2.941 0 0 1 1.3 2.446v2a.421.421 0 0 1-.421.421Z" data-name="Path 73250" transform="translate(-1.582 -6.67)"/><path id="Path_73251" fill="none" d="M16.468 66.47h14.3v20.191h-14.3Z" data-name="Path 73251" transform="translate(-1.026 -8.176)"/><path id="Path_73252" fill="#ec1579" d="M25.913 56.661h-2.524a.421.421 0 0 1-.421-.421v-1.717a.421.421 0 0 1 .421-.421h2.524a.421.421 0 0 1 .421.421v1.717a.421.421 0 0 1-.421.421Zm-2.1-.841h1.683v-.876h-1.687Zm44.169.841h-2.528a.421.421 0 0 1-.421-.421v-1.717a.421.421 0 0 1 .421-.421h2.524a.421.421 0 0 1 .421.421v1.717a.421.421 0 0 1-.421.421Zm-2.1-.841h1.683v-.876h-1.69ZM38.953 31.361a1.264 1.264 0 0 0-1.262 1.262v3.365a.421.421 0 0 0 .421.421h1.683a.421.421 0 0 0 .421-.421v-3.365a1.264 1.264 0 0 0-1.263-1.262Zm.421 4.207h-.841v-2.945a.421.421 0 0 1 .841 0Zm13.04-4.207a1.264 1.264 0 0 0-1.262 1.262v3.365a.421.421 0 0 0 .421.421h1.683a.421.421 0 0 0 .421-.421v-3.365a1.264 1.264 0 0 0-1.263-1.262Zm.421 4.207h-.841v-2.945a.421.421 0 0 1 .841 0Zm-13.04-10.1a.421.421 0 0 0 .421-.421v-.837a1.262 1.262 0 0 0-2.524 0v.841a.421.421 0 0 0 .421.421Zm-1.263-1.258a.421.421 0 1 1 .841 0v.421h-.841Zm6.31 1.262h1.683a.421.421 0 0 0 .421-.421v-.841a1.262 1.262 0 0 0-2.524 0v.841a.421.421 0 0 0 .42.421Zm.421-1.262a.421.421 0 1 1 .841 0v.421h-.841Zm6.31 1.262h1.683a.421.421 0 0 0 .421-.421v-.841a1.262 1.262 0 0 0-2.524 0v.841a.421.421 0 0 0 .42.421Zm.421-1.262a.421.421 0 1 1 .841 0v.421h-.841Zm-6.31 7.151a2.945 2.945 0 1 0 2.945 2.945 2.948 2.948 0 0 0-2.946-2.945Zm0 5.048a2.1 2.1 0 1 1 2.1-2.1 2.1 2.1 0 0 1-2.101 2.1Z" data-name="Path 73252" transform="translate(-2.058 -1.27)"/><path id="Path_73253" fill="#ec1579" d="M49.759 35.71v-.841a.421.421 0 0 0-.841 0v1.262a.421.421 0 0 0 .421.421H50.6a.421.421 0 1 0 0-.841Zm2.552 20.244h-5.889a.421.421 0 0 0-.421.421v1.683a.421.421 0 0 0 .421.421h5.889a.421.421 0 0 0 .421-.421v-1.684a.421.421 0 0 0-.421-.42Zm-.421 1.683h-5.048v-.841h5.048Z" data-name="Path 73253" transform="translate(-5.713 -3.095)"/></g></g></svg>