<svg version="1.1" id="Layer_1" xmlns="http://www.w3.org/2000/svg" xmlns:xlink="http://www.w3.org/1999/xlink" x="0px" y="0px"
	 width="100%" viewBox="0 0 83 63" enable-background="new 0 0 83 63" xml:space="preserve">
<path fill="#FFFFFF" opacity="1.000000" stroke="none" 
	d="
M57.000004,64.000000 
	C38.031727,64.000000 19.563457,64.000000 1.047593,64.000000 
	C1.047593,43.067833 1.047593,22.135534 1.047593,1.101618 
	C28.551138,1.101618 56.102776,1.101618 83.827209,1.101618 
	C83.827209,21.998831 83.827209,42.999306 83.827209,64.000000 
	C75.136330,64.000000 66.318169,64.000000 57.000004,64.000000 
M8.103292,51.206253 
	C9.207745,52.443787 10.253596,53.740055 11.425889,54.909584 
	C21.123611,64.584435 37.802578,61.681374 44.293808,49.568947 
	C49.281551,40.261974 48.787159,30.634552 46.732803,20.987074 
	C44.750801,11.679350 37.155636,5.207093 29.246937,4.999564 
	C15.129471,4.629112 9.834414,8.049964 5.717398,19.331663 
	C1.776275,30.131369 2.817281,40.416435 8.103292,51.206253 
M61.999542,26.682610 
	C61.999542,34.160984 61.999550,41.639355 61.999546,49.117729 
	C61.999546,59.736095 61.994888,59.653946 72.524826,59.057831 
	C75.068260,58.913845 76.040184,58.109360 76.028404,55.531849 
	C75.957733,40.076862 75.963699,24.621279 76.020508,9.166176 
	C76.031357,6.214652 74.775368,4.535666 71.869255,5.066480 
	C65.900047,6.156782 60.000103,7.620619 54.053791,8.843883 
	C50.180683,9.640651 49.495106,11.687874 50.555710,15.370798 
	C52.511280,22.161495 52.314087,22.212130 59.294552,20.788883 
	C60.029072,20.639122 60.787876,20.608477 61.999523,20.469233 
	C61.999523,22.480761 61.999523,24.114481 61.999542,26.682610 
z"/>
<path fill="#FEEDF4" opacity="1.000000" stroke="none" 
	d="
M7.946547,50.868858 
	C2.817281,40.416435 1.776275,30.131369 5.717398,19.331663 
	C9.834414,8.049964 15.129471,4.629112 29.246937,4.999564 
	C37.155636,5.207093 44.750801,11.679350 46.732803,20.987074 
	C48.787159,30.634552 49.281551,40.261974 44.293808,49.568947 
	C37.802578,61.681374 21.123611,64.584435 11.425889,54.909584 
	C10.253596,53.740055 9.207745,52.443787 7.946547,50.868858 
M27.079178,18.022570 
	C21.877769,17.240421 18.953463,20.023760 18.372429,24.687294 
	C17.750090,29.682356 17.781677,34.817944 18.114902,39.853355 
	C18.358686,43.537186 20.340778,46.482414 24.511166,46.978214 
	C29.080708,47.521465 32.040272,45.075562 32.994564,41.012257 
	C33.889523,37.201591 33.803356,33.142254 33.975826,29.184797 
	C34.188446,24.306137 32.362850,20.449577 27.079178,18.022570 
z"/>
<path fill="#FEEEF4" opacity="1.000000" stroke="none" 
	d="
M61.999535,26.215406 
	C61.999523,24.114481 61.999523,22.480761 61.999523,20.469233 
	C60.787876,20.608477 60.029072,20.639122 59.294552,20.788883 
	C52.314087,22.212130 52.511280,22.161495 50.555710,15.370798 
	C49.495106,11.687874 50.180683,9.640651 54.053791,8.843883 
	C60.000103,7.620619 65.900047,6.156782 71.869255,5.066480 
	C74.775368,4.535666 76.031357,6.214652 76.020508,9.166176 
	C75.963699,24.621279 75.957733,40.076862 76.028404,55.531849 
	C76.040184,58.109360 75.068260,58.913845 72.524826,59.057831 
	C61.994888,59.653946 61.999546,59.736095 61.999546,49.117729 
	C61.999550,41.639355 61.999542,34.160984 61.999535,26.215406 
z"/>
<path fill="#FFFFFF" opacity="1.000000" stroke="none" 
	d="
M27.473944,18.070045 
	C32.362850,20.449577 34.188446,24.306137 33.975826,29.184797 
	C33.803356,33.142254 33.889523,37.201591 32.994564,41.012257 
	C32.040272,45.075562 29.080708,47.521465 24.511166,46.978214 
	C20.340778,46.482414 18.358686,43.537186 18.114902,39.853355 
	C17.781677,34.817944 17.750090,29.682356 18.372429,24.687294 
	C18.953463,20.023760 21.877769,17.240421 27.473944,18.070045 
z"/>
</svg>