<?xml version="1.0" encoding="UTF-8"?>
<!DOCTYPE svg PUBLIC "-//W3C//DTD SVG 1.1//EN" "http://www.w3.org/Graphics/SVG/1.1/DTD/svg11.dtd">
<svg xmlns="http://www.w3.org/2000/svg" version="1.1" width="90px" height="63px" style="shape-rendering:geometricPrecision; text-rendering:geometricPrecision; image-rendering:optimizeQuality; fill-rule:evenodd; clip-rule:evenodd" xmlns:xlink="http://www.w3.org/1999/xlink">
<g><path style="opacity:1" fill="#fefefe" d="M -0.5,-0.5 C 29.5,-0.5 59.5,-0.5 89.5,-0.5C 89.5,20.5 89.5,41.5 89.5,62.5C 59.5,62.5 29.5,62.5 -0.5,62.5C -0.5,41.5 -0.5,20.5 -0.5,-0.5 Z"/></g>
<g><path style="opacity:1" fill="#fef1f6" d="M 80.5,8.5 C 71.5,3.16667 62.5,3.16667 53.5,8.5C 59.4749,2.75941 66.4749,1.25941 74.5,4C 77.1064,4.79181 79.1064,6.29181 80.5,8.5 Z"/></g>
<g><path style="opacity:1" fill="#feedf4" d="M 6.5,49.5 C 5.73651,45.8632 4.40318,42.5299 2.5,39.5C 2.32572,32.4648 2.65905,25.4648 3.5,18.5C 5.53905,17.089 6.53905,15.089 6.5,12.5C 12.996,3.83379 21.6626,1.00046 32.5,4C 42.9437,9.88415 47.6103,18.8841 46.5,31C 45.566,55.472 33.566,63.472 10.5,55C 9.03499,53.2258 7.70166,51.3925 6.5,49.5 Z"/></g>
<g><path style="opacity:1" fill="#feedf4" d="M 80.5,8.5 C 82.1898,8.85637 83.1898,9.85637 83.5,11.5C 85.0918,17.6437 84.7585,23.6437 82.5,29.5C 79.617,35.0552 75.617,39.7219 70.5,43.5C 69.9569,43.56 69.6236,43.8933 69.5,44.5C 74.7921,45.4948 80.1254,45.8282 85.5,45.5C 85.5,49.5 85.5,53.5 85.5,57.5C 73.5,57.5 61.5,57.5 49.5,57.5C 49.3347,53.8183 49.5014,50.1516 50,46.5C 57.0594,39.7763 63.7261,32.7763 70,25.5C 72.7221,21.025 71.7221,18.025 67,16.5C 63.8385,17.4121 61.1718,19.0787 59,21.5C 55.0496,19.7796 51.5496,17.4462 48.5,14.5C 49.4667,11.8708 51.1334,9.87082 53.5,8.5C 62.5,3.16667 71.5,3.16667 80.5,8.5 Z"/></g>
<g><path style="opacity:1" fill="#fef3f7" d="M 6.5,12.5 C 6.53905,15.089 5.53905,17.089 3.5,18.5C 3.99249,16.1815 4.99249,14.1815 6.5,12.5 Z"/></g>
<g><path style="opacity:1" fill="#fef2f7" d="M 83.5,11.5 C 84.2216,11.9175 84.7216,12.5842 85,13.5C 85.6667,17.8333 85.6667,22.1667 85,26.5C 84.6232,27.9423 83.7899,28.9423 82.5,29.5C 84.7585,23.6437 85.0918,17.6437 83.5,11.5 Z"/></g>
<g><path style="opacity:1" fill="#fefefe" d="M 29.5,18.5 C 33.5,26.8333 33.5,35.1667 29.5,43.5C 23.7557,46.9868 19.5891,45.6535 17,39.5C 16.5007,34.5111 16.3341,29.5111 16.5,24.5C 18.0468,16.4242 22.3801,14.4242 29.5,18.5 Z"/></g>
<g><path style="opacity:1" fill="#fef2f7" d="M 29.5,18.5 C 31.6138,19.3602 32.7805,21.0268 33,23.5C 33.9793,29.9825 33.4793,36.3159 31.5,42.5C 31.0431,43.2975 30.3764,43.6309 29.5,43.5C 33.5,35.1667 33.5,26.8333 29.5,18.5 Z"/></g>
<g><path style="opacity:1" fill="#fef3f7" d="M 2.5,39.5 C 4.40318,42.5299 5.73651,45.8632 6.5,49.5C 4.20567,46.6305 2.87234,43.2971 2.5,39.5 Z"/></g>
<g><path style="opacity:1" fill="#fef2f7" d="M 70.5,43.5 C 75.6405,44.4881 80.9738,44.8214 86.5,44.5C 86.5,49.1667 86.5,53.8333 86.5,58.5C 73.9887,58.8286 61.6554,58.4952 49.5,57.5C 61.5,57.5 73.5,57.5 85.5,57.5C 85.5,53.5 85.5,49.5 85.5,45.5C 80.1254,45.8282 74.7921,45.4948 69.5,44.5C 69.6236,43.8933 69.9569,43.56 70.5,43.5 Z"/></g>
<g><path style="opacity:1" fill="#fef2f7" d="M 16.5,24.5 C 16.3341,29.5111 16.5007,34.5111 17,39.5C 19.5891,45.6535 23.7557,46.9868 29.5,43.5C 29.5858,44.4959 29.2524,45.3292 28.5,46C 22.5207,47.9282 18.354,46.0949 16,40.5C 15.1826,34.9836 15.3493,29.6503 16.5,24.5 Z"/></g>
</svg>
