<svg width="498" height="153" viewBox="0 0 498 153" fill="none" xmlns="http://www.w3.org/2000/svg">
<g filter="url(#filter0_dd_185_272)">
<rect x="16" y="8" width="466" height="121" rx="13" fill="white"/>
</g>
<g clip-path="url(#clip0_185_272)">
<g clip-path="url(#clip1_185_272)">
<path d="M60.2031 55.5665C56.9862 55.5614 53.7693 55.5563 50.5524 55.5216L45.7264 55.4676C44.1983 55.438 42.6702 55.4187 41.1407 55.3789C41.2538 55.6128 41.322 55.8724 41.331 56.1488L60.5475 55.5653C60.4331 55.5653 60.3175 55.5665 60.2031 55.5665Z" fill="#02205F"/>
<path d="M74.6798 27.7013C76.168 27.7308 77.6576 27.7501 79.1459 27.7861C79.1086 27.6679 79.0855 27.5419 79.0816 27.4121L70.9308 27.6589L74.6798 27.7013Z" fill="#02205F"/>
<path d="M80.7499 53.5591C80.6445 53.4614 80.5815 53.3226 80.5764 53.1774C80.5751 53.1427 80.5777 53.1054 80.5841 53.0694C80.5905 53.0347 80.5995 53 80.6124 52.9666C80.6252 52.9332 80.6406 52.9011 80.6599 52.8702C80.6792 52.8407 80.7023 52.8111 80.7255 52.7854C80.8141 52.6916 80.9362 52.6325 81.0635 52.6183L81.0481 52.1042C80.7666 52.0888 80.5391 51.8626 80.5301 51.5773C80.5211 51.2907 80.7345 51.0516 81.0146 51.0195L80.9992 50.5029C80.7178 50.4874 80.4903 50.2625 80.4813 49.9759C80.4723 49.6906 80.6856 49.4503 80.9658 49.4181L80.9504 48.9028C80.6689 48.8873 80.4414 48.6611 80.4324 48.3758C80.4234 48.0892 80.6368 47.8502 80.917 47.818L80.9015 47.3014C80.6201 47.286 80.3926 47.0611 80.3836 46.7744C80.3746 46.4891 80.5879 46.2488 80.8681 46.2167L80.8527 45.7013C80.5712 45.6859 80.3438 45.4597 80.3348 45.1744C80.3258 44.8877 80.5391 44.6487 80.8193 44.6166L80.8039 44.0999C80.5224 44.0845 80.2949 43.8596 80.2859 43.5743C80.2769 43.2877 80.4903 43.0486 80.7704 43.0165L80.755 42.4998C80.4736 42.4844 80.2461 42.2582 80.2371 41.9729C80.2281 41.6876 80.4414 41.4472 80.7216 41.4151L80.7062 40.8997C80.4247 40.8843 80.1972 40.6581 80.1882 40.3728C80.1792 40.0862 80.3926 39.8471 80.6728 39.815L80.6573 39.2983C80.3759 39.2829 80.1484 39.058 80.1394 38.7714C80.1304 38.4861 80.3438 38.2457 80.6239 38.2136L80.6085 37.6982C80.327 37.6828 80.0996 37.4566 80.0906 37.1713C80.0816 36.8847 80.2949 36.6456 80.5751 36.6135L80.5597 36.0969C80.2782 36.0814 80.0507 35.8565 80.0417 35.5699C80.0327 35.2846 80.2461 35.0443 80.5263 35.0121L80.5108 34.4968C80.2294 34.4813 80.0019 34.2551 79.9929 33.9698C79.9839 33.6832 80.1972 33.4442 80.4774 33.412L80.462 32.8967C80.1805 32.8812 79.953 32.655 79.9441 32.3697C79.9351 32.0831 80.1484 31.8428 80.4286 31.8107L80.4132 31.2953C80.1317 31.2799 79.9042 31.055 79.8952 30.7683C79.8862 30.4817 80.0996 30.2427 80.3797 30.2106L80.3643 29.6939C80.2358 29.6875 80.1111 29.6374 80.0186 29.55C79.9929 29.5255 79.9685 29.4986 79.9466 29.4677C79.9261 29.4394 79.9081 29.4086 79.8939 29.3752C79.8798 29.3418 79.8669 29.3083 79.8592 29.2724C79.8502 29.2377 79.8464 29.2017 79.8451 29.167C79.8412 29.023 79.8965 28.8791 79.9955 28.775C80.025 28.7428 80.0597 28.7159 80.0957 28.6914C79.651 28.5706 79.295 28.2365 79.1498 27.8008C77.6589 27.8381 76.1681 27.8573 74.6785 27.8869L69.8525 27.9409C66.6356 27.9756 63.4187 27.9807 60.2018 27.9859C60.1723 27.9859 60.144 27.9859 60.1144 27.9859L40.4943 28.5822C40.5264 29.6309 39.7013 30.5074 38.6526 30.5396L38.6821 31.5112C39.6641 31.4816 40.4853 32.2541 40.5149 33.236C40.5444 34.2179 39.772 35.0391 38.7901 35.0687L38.821 36.0776C39.8029 36.048 40.6241 36.8204 40.6537 37.8023C40.6832 38.7842 39.9108 39.6055 38.9289 39.6351L38.9598 40.644C39.9417 40.6144 40.7629 41.3868 40.7925 42.3687C40.822 43.3506 40.0496 44.1719 39.0677 44.2014L39.0986 45.2103C40.0805 45.1808 40.9017 45.9532 40.9313 46.9351C40.9608 47.917 40.1884 48.7383 39.2065 48.7678L39.2374 49.7767C40.2193 49.7472 41.0405 50.5196 41.0701 51.5015C41.0996 52.4834 40.3272 53.3046 39.3453 53.3342L39.3749 54.3058C40.1434 54.2827 40.8182 54.7197 41.1369 55.3674C42.6676 55.3289 44.197 55.3096 45.7277 55.2787L50.5537 55.2248C53.7706 55.1901 56.9875 55.1849 60.2044 55.1798C63.4213 55.1836 66.6382 55.1888 69.8551 55.2248L71.2534 55.2402L79.9183 54.9767C79.8991 54.3547 80.2975 53.8226 80.8578 53.6349C80.8501 53.6311 80.8424 53.6272 80.8347 53.6234C80.8026 53.6054 80.7743 53.5835 80.7499 53.5591Z" fill="#02205F"/>
<path d="M80.462 54.0501C80.4311 54.0308 80.4041 54.0076 80.3797 53.9819C80.2782 53.8804 80.2178 53.7403 80.2178 53.5951C80.2178 53.5604 80.2216 53.5231 80.2293 53.4884C80.2371 53.455 80.2473 53.419 80.2615 53.3869C80.2743 53.3548 80.2923 53.3226 80.3116 53.2918C80.3322 53.2622 80.3553 53.2339 80.3797 53.2095C80.471 53.1183 80.5943 53.063 80.7216 53.0527V52.5386C80.4401 52.5155 80.2203 52.2816 80.2203 51.9963C80.2203 51.7097 80.4414 51.4771 80.7216 51.4539V50.9373C80.4401 50.9141 80.2203 50.6815 80.2203 50.3949C80.2203 50.1096 80.4414 49.8757 80.7216 49.8525V49.3372C80.4401 49.314 80.2203 49.0814 80.2203 48.7948C80.2203 48.5082 80.4414 48.2756 80.7216 48.2524V47.7358C80.4401 47.7127 80.2203 47.48 80.2203 47.1934C80.2203 46.9068 80.4414 46.6742 80.7216 46.6511V46.1357C80.4401 46.1126 80.2203 45.8786 80.2203 45.5933C80.2203 45.3067 80.4414 45.0741 80.7216 45.051V44.5343C80.4401 44.5112 80.2203 44.2786 80.2203 43.9932C80.2203 43.7066 80.4414 43.474 80.7216 43.4509V42.9342C80.4401 42.9111 80.2203 42.6785 80.2203 42.3919C80.2203 42.1065 80.4414 41.8726 80.7216 41.8495V41.3341C80.4401 41.311 80.2203 41.0771 80.2203 40.7918C80.2203 40.5052 80.4414 40.2725 80.7216 40.2494V39.725C80.4401 39.7019 80.2203 39.4693 80.2203 39.1827C80.2203 38.8973 80.4414 38.6634 80.7216 38.6403V38.1249C80.4401 38.1018 80.2203 37.8679 80.2203 37.5826C80.2203 37.296 80.4414 37.0633 80.7216 37.0402V36.5236C80.4401 36.5004 80.2203 36.2678 80.2203 35.9812C80.2203 35.6946 80.4414 35.462 80.7216 35.4388V34.9235C80.4401 34.9003 80.2203 34.6664 80.2203 34.3811C80.2203 34.0945 80.4414 33.8619 80.7216 33.8387V33.3234C80.4401 33.3002 80.2203 33.0663 80.2203 32.781C80.2203 32.4944 80.4414 32.2605 80.7216 32.2374V31.722C80.4401 31.6988 80.2203 31.4662 80.2203 31.1796C80.2203 30.893 80.4414 30.6604 80.7216 30.6373V30.1206C80.5931 30.1103 80.471 30.0563 80.3797 29.9664C80.354 29.9407 80.3309 29.9124 80.3103 29.8828C80.291 29.8533 80.2743 29.8224 80.2602 29.789C80.2473 29.7543 80.2358 29.7209 80.2281 29.6862C80.2203 29.6515 80.2165 29.6155 80.2165 29.5808C80.2165 29.4356 80.2756 29.2955 80.3784 29.1927C80.4093 29.1618 80.444 29.1348 80.4812 29.113C79.9158 28.9408 79.5045 28.4215 79.5045 27.8008H40.9017C40.9017 28.8508 40.0509 29.7016 39.0009 29.7016V30.6732C39.984 30.6732 40.7809 31.4701 40.7809 32.4533C40.7809 33.4365 39.984 34.2333 39.0009 34.2333V35.2435C39.984 35.2435 40.7809 36.0403 40.7809 37.0235C40.7809 38.0067 39.984 38.8035 39.0009 38.8035V39.8137C39.984 39.8137 40.7809 40.6105 40.7809 41.5937C40.7809 42.5769 39.984 43.3738 39.0009 43.3738V44.3839C39.984 44.3839 40.7809 45.1808 40.7809 46.164C40.7809 47.1472 39.984 47.944 39.0009 47.944V48.9542C39.984 48.9542 40.7809 49.751 40.7809 50.7342C40.7809 51.7174 39.984 52.5142 39.0009 52.5142V53.4859C40.0509 53.4859 40.9017 54.3367 40.9017 55.3867H79.5058C79.5058 54.7646 79.9196 54.2441 80.4851 54.0732C80.4774 54.0578 80.4697 54.0539 80.462 54.0501Z" fill="#00A6BA"/>
<path d="M45.562 40.9043H46.4719C46.9654 40.9043 47.2109 40.6575 47.2109 40.1653V38.5729H48.7917C49.293 38.5729 49.5423 38.3262 49.5423 37.8339V37.2761C49.5423 36.7762 49.2917 36.5256 48.7917 36.5256H47.2109V35.2622H49.3161C49.8096 35.2622 50.0551 35.0154 50.0551 34.5232V33.9538C50.0551 33.4603 49.8083 33.2148 49.3161 33.2148H45.562C45.0607 33.2148 44.8114 33.4616 44.8114 33.9538V40.1653C44.8101 40.6588 45.0607 40.9043 45.562 40.9043Z" fill="#02205F"/>
<path d="M76.0589 35.4222C75.8584 34.9479 75.5731 34.5469 75.2055 34.2192C74.8379 33.8915 74.3907 33.6422 73.8624 33.4699C73.3355 33.299 72.7456 33.2129 72.0927 33.2129H69.8513C69.35 33.2129 69.1007 33.4442 69.1007 33.9082V40.2083C69.1007 40.6723 69.3513 40.9036 69.8513 40.9036H72.0927C72.7456 40.9036 73.3342 40.815 73.8624 40.6363C74.3894 40.4577 74.8366 40.2032 75.2055 39.8716C75.5731 39.54 75.8584 39.1352 76.0589 38.6571C76.2594 38.179 76.3609 37.6405 76.3609 37.0416C76.3596 36.4375 76.2594 35.8964 76.0589 35.4222ZM73.3908 38.4926C73.0643 38.8177 72.6055 38.9797 72.0143 38.9797H71.5028V35.1394H72.0143C72.5836 35.1394 73.036 35.2962 73.3741 35.6098C73.7108 35.9234 73.8804 36.4015 73.8804 37.0428C73.8804 37.6842 73.7172 38.1674 73.3908 38.4926Z" fill="#02205F"/>
<path d="M52.195 44.9271C52.195 44.4387 52.1192 43.9824 51.9688 43.5609C51.8172 43.1393 51.6025 42.7769 51.3224 42.4749C51.0422 42.1728 50.7067 41.9351 50.316 41.7616C49.9253 41.5881 49.4897 41.502 49.0103 41.502H45.6918C45.1058 41.502 44.8127 41.7911 44.8127 42.3682V50.2183C44.8127 50.7954 45.1058 51.0845 45.6918 51.0845H46.7586C47.3356 51.0845 47.6248 50.7954 47.6248 50.2183V48.392H49.0115C49.4909 48.392 49.9266 48.3059 50.3173 48.1324C50.708 47.9589 51.0435 47.7173 51.3237 47.4062C51.6038 47.0952 51.8185 46.7289 51.9701 46.3061C52.1192 45.8845 52.195 45.4244 52.195 44.9271ZM49.1298 45.6802C48.9871 45.8897 48.7481 45.9938 48.4101 45.9938H47.6235V43.9002H48.4628C48.7738 43.9002 48.9974 43.9978 49.1362 44.1932C49.2737 44.3886 49.3431 44.6327 49.3431 44.9258C49.3431 45.2201 49.2712 45.4707 49.1298 45.6802Z" fill="#02205F"/>
<path d="M58.0594 42.2088C57.9 41.7384 57.571 41.502 57.0736 41.502H55.6213C55.124 41.502 54.7949 41.7371 54.6356 42.2088L52.0369 50.0859C51.9302 50.3879 51.943 50.6309 52.0767 50.8121C52.2104 50.9946 52.4314 51.0858 52.7437 51.0858H53.8233C54.3297 51.0858 54.6497 50.8416 54.7834 50.3532L54.9839 49.4202H57.6893L57.8897 50.3532C58.0491 50.8416 58.3781 51.0858 58.8755 51.0858H59.9551C60.2661 51.0858 60.4885 50.9946 60.6221 50.8121C60.7558 50.6296 60.7686 50.3879 60.662 50.0859L58.0594 42.2088ZM55.6201 47.1942L55.9401 45.8614C55.9838 45.702 56.0262 45.517 56.0673 45.3088C56.1071 45.1006 56.1496 44.9065 56.1945 44.7291C56.2395 44.5158 56.2832 44.3024 56.3282 44.0891H56.3552C56.3989 44.3024 56.4439 44.5158 56.4889 44.7291C56.5338 44.9065 56.5775 45.1006 56.6225 45.3088C56.6675 45.5183 56.7112 45.702 56.7562 45.8614L57.0492 47.1942H55.6201Z" fill="#02205F"/>
<path d="M67.1228 46.02C66.8207 45.7976 66.4943 45.6177 66.1434 45.4802C65.7926 45.3427 65.4661 45.218 65.1641 45.1075C64.8621 44.997 64.6114 44.8826 64.411 44.7682C64.2105 44.6525 64.1115 44.5021 64.1115 44.3145C64.1115 44.1898 64.1655 44.0857 64.2709 44.0009C64.3775 43.9161 64.5639 43.8737 64.8312 43.8737C65.1153 43.8737 65.362 43.9187 65.5715 44.0073C65.7797 44.096 66.0046 44.1937 66.245 44.3004C66.3516 44.3531 66.4609 44.398 66.5714 44.434C66.6819 44.47 66.7873 44.4803 66.885 44.4674C66.9827 44.4546 67.0778 44.4122 67.1716 44.3402C67.2654 44.2695 67.3515 44.1539 67.4312 43.9932L67.8181 43.2336C67.9337 43.0023 67.9736 42.7877 67.9376 42.5872C67.9016 42.3867 67.7679 42.2029 67.5379 42.0345C67.4132 41.9548 67.2551 41.8726 67.0649 41.7878C66.8734 41.7029 66.6627 41.6284 66.4313 41.5616C66.2 41.4947 65.9519 41.442 65.6846 41.4022C65.4186 41.3624 65.1474 41.3418 64.8711 41.3418C64.3647 41.3418 63.893 41.4151 63.4586 41.5616C63.0229 41.7081 62.6451 41.915 62.325 42.181C62.005 42.4471 61.7557 42.7697 61.5783 43.1475C61.401 43.5254 61.3123 43.9456 61.3123 44.407C61.3123 44.9224 61.4125 45.3517 61.6117 45.6935C61.8122 46.0354 62.0629 46.322 62.3649 46.5534C62.6669 46.7847 62.9908 46.9736 63.3378 47.1201C63.6848 47.2667 64.0087 47.3977 64.3107 47.5134C64.6127 47.6291 64.8634 47.7448 65.0638 47.8604C65.2643 47.9761 65.3633 48.1187 65.3633 48.2871C65.3633 48.4028 65.3145 48.503 65.2168 48.5866C65.1191 48.6714 64.9328 48.7138 64.6564 48.7138C64.4701 48.7138 64.2966 48.692 64.1372 48.647C63.9778 48.6033 63.83 48.5493 63.6977 48.4876C63.564 48.4259 63.447 48.3629 63.3442 48.3013C63.2414 48.2396 63.1514 48.1946 63.0705 48.1676C62.8121 48.0249 62.5885 47.9671 62.397 47.9941C62.2055 48.0211 62.0307 48.1496 61.8701 48.3809L61.3637 49.1135C61.1594 49.4155 61.0951 49.6597 61.1709 49.8461C61.2467 50.0324 61.3688 50.1879 61.5372 50.3126C61.6709 50.4193 61.8457 50.5285 62.0641 50.6391C62.2813 50.7509 62.5281 50.8498 62.8044 50.9385C63.0795 51.0272 63.3751 51.1005 63.6912 51.1583C64.0061 51.2161 64.3287 51.2444 64.6577 51.2444C65.2258 51.2444 65.7283 51.1596 66.164 50.9912C66.5997 50.8228 66.966 50.5954 67.2641 50.3113C67.5623 50.0273 67.7885 49.6983 67.944 49.3256C68.0995 48.9529 68.1779 48.557 68.1779 48.1393C68.1779 47.6239 68.0777 47.1972 67.8785 46.8592C67.6767 46.5225 67.4248 46.2423 67.1228 46.02Z" fill="#02205F"/>
<path d="M74.8277 46.02C74.5256 45.7976 74.1992 45.6177 73.8483 45.4802C73.4975 45.3427 73.171 45.218 72.869 45.1075C72.567 44.997 72.3163 44.8826 72.1159 44.7682C71.9154 44.6525 71.8164 44.5021 71.8164 44.3145C71.8164 44.1898 71.8691 44.0857 71.9758 44.0009C72.0824 43.9161 72.2688 43.8737 72.5361 43.8737C72.8201 43.8737 73.0669 43.9187 73.2764 44.0073C73.4846 44.096 73.7095 44.1937 73.9499 44.3004C74.0565 44.3531 74.1658 44.398 74.2763 44.434C74.3868 44.47 74.4922 44.4803 74.5899 44.4674C74.6876 44.4546 74.7827 44.4122 74.8765 44.3402C74.9703 44.2695 75.0564 44.1539 75.1361 43.9932L75.523 43.2336C75.6386 43.0023 75.6785 42.7877 75.6425 42.5872C75.6065 42.3867 75.4741 42.2029 75.2428 42.0345C75.1181 41.9548 74.96 41.8726 74.7698 41.7878C74.5783 41.7029 74.3676 41.6284 74.1362 41.5616C73.9049 41.4947 73.6568 41.442 73.3895 41.4022C73.1235 41.3624 72.8523 41.3418 72.576 41.3418C72.0696 41.3418 71.5979 41.4151 71.1635 41.5616C70.7278 41.7081 70.35 41.915 70.0299 42.181C69.7099 42.4471 69.4619 42.7697 69.2832 43.1475C69.1059 43.5254 69.0159 43.9456 69.0159 44.407C69.0159 44.9224 69.1162 45.3517 69.3154 45.6935C69.5159 46.0354 69.7665 46.322 70.0685 46.5534C70.3705 46.7847 70.6944 46.9736 71.0414 47.1201C71.3884 47.2667 71.7123 47.3977 72.0143 47.5134C72.3163 47.6291 72.567 47.7448 72.7675 47.8604C72.968 47.9761 73.0669 48.1187 73.0669 48.2871C73.0669 48.4028 73.0181 48.503 72.9204 48.5866C72.8227 48.6714 72.6364 48.7138 72.36 48.7138C72.1737 48.7138 72.0002 48.692 71.8408 48.647C71.6814 48.6033 71.5336 48.5493 71.4013 48.4876C71.2676 48.4259 71.1507 48.3629 71.0478 48.3013C70.945 48.2396 70.8551 48.1946 70.7741 48.1676C70.5158 48.0249 70.2921 47.9671 70.1006 47.9941C69.9091 48.0211 69.7343 48.1496 69.5737 48.3809L69.0673 49.1135C68.863 49.4155 68.7987 49.6597 68.8745 49.8461C68.9504 50.0324 69.0725 50.1879 69.2408 50.3126C69.3745 50.4193 69.5493 50.5285 69.7678 50.6391C69.985 50.7509 70.2317 50.8498 70.508 50.9385C70.7831 51.0272 71.0787 51.1005 71.3948 51.1583C71.7097 51.2161 72.0323 51.2444 72.3613 51.2444C72.9294 51.2444 73.4319 51.1596 73.8676 50.9912C74.3033 50.8228 74.6696 50.5954 74.9677 50.3113C75.2659 50.0273 75.4921 49.6983 75.6476 49.3256C75.8031 48.9529 75.8815 48.557 75.8815 48.1393C75.8815 47.6239 75.7813 47.1972 75.5821 46.8592C75.3803 46.5225 75.1297 46.2423 74.8277 46.02Z" fill="#02205F"/>
<path d="M67.3875 33.5496C67.5456 33.2064 67.7937 33.0882 68.354 32.9532C67.5238 32.754 67.3772 32.5921 67.1973 31.6719C67.0367 32.4918 66.9017 32.709 66.2848 32.889C65.5728 32.6551 64.7117 32.6731 64.1526 32.718C64.1526 32.718 63.1643 32.7733 62.2814 32.8864V32.8813L58.4437 33.1974L55.7782 33.4172V33.4223C54.8875 33.4558 53.9043 33.5624 53.9043 33.5624C53.2579 33.6151 52.2207 33.7719 51.5344 34.2577C50.564 34.944 50.0101 36.1174 50.1194 37.4566C50.1194 37.4566 50.1232 38.5953 50.7748 39.6402C51.9405 41.5076 54.0611 41.392 54.0611 41.392C56.9529 41.1542 59.1043 38.6172 58.8653 35.7255C58.8627 35.6933 58.8575 35.6625 58.855 35.6303L59.6081 35.5687C59.6094 35.6008 59.6107 35.6329 59.6133 35.6638C59.851 38.5555 62.388 40.707 65.2798 40.4679C65.2798 40.4679 67.3901 40.234 68.2345 38.2021C68.7062 37.0659 68.5237 35.9414 68.5237 35.9414C68.4414 34.962 68.0237 34.1305 67.3875 33.5496ZM59.6801 34.6909L58.6352 34.777C58.5247 34.5225 58.3743 34.2899 58.1802 34.0919L58.5131 34.065L60.0168 33.9416C59.8574 34.1678 59.7469 34.421 59.6801 34.6909Z" fill="#02205F"/>
<path d="M44.9386 33.5828C44.9386 33.0892 45.1892 32.8438 45.6892 32.8438H49.4433C49.9368 32.8438 50.1823 33.0905 50.1823 33.5828V34.1521C50.1823 34.6456 49.9355 34.8911 49.4433 34.8911H47.3394V36.1545H48.9202C49.4214 36.1545 49.6708 36.4051 49.6708 36.905V37.4628C49.6708 37.9563 49.4202 38.2018 48.9202 38.2018H47.3394V39.7942C47.3394 40.2877 47.0926 40.5332 46.6004 40.5332H45.6905C45.1892 40.5332 44.9399 40.2864 44.9399 39.7942V33.5828H44.9386Z" fill="white"/>
<path d="M69.2291 33.5391C69.2291 33.0751 69.4797 32.8438 69.9797 32.8438H72.2211C72.874 32.8438 73.4626 32.9299 73.9909 33.1008C74.5178 33.2717 74.9651 33.5211 75.3339 33.8501C75.7015 34.1778 75.9868 34.5788 76.1873 35.053C76.3878 35.5273 76.4893 36.0671 76.4893 36.6737C76.4893 37.2726 76.3891 37.8111 76.1873 38.2892C75.9868 38.7673 75.7015 39.1722 75.3339 39.5037C74.9663 39.8353 74.5178 40.0911 73.9909 40.2685C73.4639 40.4471 72.874 40.5358 72.2211 40.5358H69.9797C69.4785 40.5358 69.2291 40.3044 69.2291 39.8405V33.5391ZM72.1427 38.608C72.7339 38.608 73.1927 38.446 73.5192 38.1209C73.8456 37.797 74.0088 37.3137 74.0088 36.6711C74.0088 36.0298 73.8405 35.5517 73.5025 35.2381C73.1645 34.9245 72.7121 34.7677 72.1427 34.7677H71.6312V38.608H72.1427Z" fill="white"/>
<path d="M44.9385 41.9971C44.9385 41.42 45.2316 41.1309 45.8176 41.1309H49.1361C49.6154 41.1309 50.0511 41.217 50.4418 41.3905C50.8325 41.564 51.168 41.8017 51.4482 42.1038C51.7283 42.4058 51.943 42.7682 52.0946 43.1898C52.245 43.6113 52.3208 44.0676 52.3208 44.556C52.3208 45.0533 52.245 45.5135 52.0946 45.935C51.943 46.3566 51.7283 46.7241 51.4482 47.0351C51.168 47.3462 50.8325 47.5878 50.4418 47.7613C50.0511 47.9348 49.6154 48.0209 49.1361 48.0209H47.7493V49.8472C47.7493 50.4243 47.4601 50.7134 46.8831 50.7134H45.8163C45.2303 50.7134 44.9373 50.4243 44.9373 49.8472V41.9971H44.9385ZM48.5384 45.6214C48.8764 45.6214 49.1155 45.5173 49.2582 45.3078C49.4008 45.0996 49.4715 44.8477 49.4715 44.5547C49.4715 44.2616 49.4021 44.0175 49.2646 43.8221C49.1271 43.6268 48.9022 43.5291 48.5911 43.5291H47.7519V45.6214H48.5384Z" fill="white"/>
<path d="M54.7627 41.8377C54.9221 41.3673 55.2511 41.1309 55.7485 41.1309H57.2008C57.6982 41.1309 58.0272 41.3661 58.1865 41.8377L60.7852 49.7148C60.8919 50.0169 60.8791 50.2598 60.7454 50.441C60.6117 50.6235 60.3894 50.7147 60.0784 50.7147H58.9988C58.5014 50.7147 58.1724 50.4705 58.013 49.9822L57.8125 49.0491H55.1072L54.9067 49.9822C54.773 50.4705 54.453 50.7147 53.9466 50.7147H52.867C52.556 50.7147 52.3337 50.6235 52.2 50.441C52.0663 50.2585 52.0535 50.0169 52.1602 49.7148L54.7627 41.8377ZM57.1751 46.8231L56.882 45.4903C56.8371 45.331 56.7934 45.1459 56.7484 44.9377C56.7034 44.7295 56.6597 44.5354 56.6147 44.358C56.5697 44.1447 56.526 43.9313 56.4811 43.718H56.4541C56.4091 43.9313 56.3654 44.1447 56.3204 44.358C56.2754 44.5354 56.2343 44.7295 56.1932 44.9377C56.1533 45.1472 56.1109 45.331 56.0659 45.4903L55.7459 46.8231H57.1751Z" fill="white"/>
<path d="M61.667 49.9415C61.4986 49.8169 61.3752 49.6613 61.3007 49.475C61.2249 49.2886 61.2891 49.0444 61.4935 48.7424L61.9998 48.0098C62.1592 47.7785 62.3353 47.65 62.5268 47.623C62.7183 47.596 62.9419 47.6538 63.2002 47.7965C63.2799 47.8235 63.3712 47.8672 63.474 47.9302C63.5755 47.9918 63.6938 48.0548 63.8274 48.1165C63.9611 48.1782 64.1076 48.2322 64.267 48.2759C64.4263 48.3209 64.5998 48.3427 64.7862 48.3427C65.0612 48.3427 65.2476 48.3003 65.3465 48.2155C65.4442 48.1306 65.4931 48.0317 65.4931 47.916C65.4931 47.7477 65.3928 47.605 65.1936 47.4893C64.9931 47.3737 64.7425 47.258 64.4405 47.1423C64.1384 47.0266 63.8146 46.8956 63.4676 46.749C63.1205 46.6025 62.7967 46.4136 62.4946 46.1823C62.1926 45.9509 61.942 45.6643 61.7415 45.3224C61.541 44.9806 61.4421 44.5513 61.4421 44.0359C61.4421 43.5746 61.5307 43.1543 61.7081 42.7764C61.8855 42.3986 62.1348 42.0773 62.4548 41.8099C62.7748 41.5439 63.1527 41.337 63.5884 41.1905C64.0241 41.044 64.4944 40.9707 65.0008 40.9707C65.2759 40.9707 65.547 40.99 65.8144 41.0311C66.0804 41.071 66.3297 41.1249 66.5611 41.1905C66.7924 41.2573 67.0032 41.3331 67.1947 41.4167C67.3862 41.5015 67.543 41.5838 67.6676 41.6634C67.899 41.8318 68.0314 42.0169 68.0674 42.2161C68.1021 42.4166 68.0622 42.6312 67.9478 42.8625L67.561 43.6221C67.4813 43.7815 67.3939 43.8971 67.3014 43.9691C67.2075 44.0398 67.1124 44.0822 67.0148 44.0964C66.9171 44.1092 66.813 44.0989 66.7012 44.0629C66.5894 44.0282 66.4814 43.9833 66.3747 43.9293C66.1344 43.8226 65.9108 43.7249 65.7013 43.6362C65.4918 43.5476 65.2463 43.5026 64.961 43.5026C64.6949 43.5026 64.5073 43.545 64.4006 43.6298C64.294 43.7146 64.2413 43.8187 64.2413 43.9434C64.2413 44.1298 64.3415 44.2814 64.5407 44.3971C64.7412 44.5128 64.9918 44.6259 65.2939 44.7364C65.5959 44.8482 65.9223 44.9716 66.2732 45.1091C66.6241 45.2466 66.9505 45.4266 67.2525 45.6489C67.5546 45.8712 67.8052 46.1514 68.0057 46.4881C68.2062 46.8262 68.3051 47.2528 68.3051 47.7682C68.3051 48.1859 68.2267 48.5818 68.0712 48.9545C67.9157 49.3272 67.6895 49.6562 67.3913 49.9402C67.0932 50.2243 66.7269 50.4518 66.2912 50.6201C65.8555 50.7885 65.353 50.8733 64.7849 50.8733C64.4559 50.8733 64.1333 50.8437 63.8184 50.7872C63.5035 50.7294 63.2079 50.6561 62.9316 50.5674C62.6566 50.4787 62.4098 50.3785 62.1913 50.268C61.9754 50.1562 61.8006 50.0482 61.667 49.9415Z" fill="white"/>
<path d="M69.3706 49.9415C69.2022 49.8169 69.0801 49.6613 69.0043 49.475C68.9285 49.2886 68.9927 49.0444 69.1971 48.7424L69.7034 48.0098C69.8628 47.7785 70.0389 47.65 70.2304 47.623C70.4219 47.596 70.6455 47.6538 70.9038 47.7965C70.9835 47.8235 71.0748 47.8672 71.1776 47.9302C71.2791 47.9918 71.3974 48.0548 71.531 48.1165C71.6647 48.1782 71.8112 48.2322 71.9706 48.2759C72.1299 48.3209 72.3034 48.3427 72.4898 48.3427C72.7648 48.3427 72.9512 48.3003 73.0502 48.2155C73.1478 48.1306 73.1967 48.0317 73.1967 47.916C73.1967 47.7477 73.0964 47.605 72.8972 47.4893C72.6967 47.3737 72.4461 47.258 72.1441 47.1423C71.8421 47.0266 71.5182 46.8956 71.1712 46.749C70.8242 46.6025 70.5003 46.4136 70.1983 46.1823C69.8962 45.9509 69.6456 45.6643 69.4451 45.3224C69.2446 44.9806 69.1457 44.5513 69.1457 44.0359C69.1457 43.5746 69.2343 43.1543 69.4117 42.7764C69.5891 42.3986 69.8384 42.0773 70.1584 41.8099C70.4784 41.5439 70.8563 41.337 71.292 41.1905C71.7277 41.044 72.1981 40.9707 72.7044 40.9707C72.9795 40.9707 73.2507 40.99 73.518 41.0311C73.784 41.071 74.0333 41.1249 74.2647 41.1905C74.496 41.2573 74.7068 41.3331 74.8983 41.4167C75.0898 41.5015 75.2466 41.5838 75.3713 41.6634C75.6026 41.8318 75.735 42.0169 75.771 42.2161C75.8057 42.4166 75.7658 42.6312 75.6514 42.8625L75.2646 43.6221C75.1849 43.7815 75.0975 43.8971 75.005 43.9691C74.9111 44.0398 74.816 44.0822 74.7184 44.0964C74.6207 44.1092 74.5166 44.0989 74.4048 44.0629C74.293 44.0282 74.185 43.9833 74.0783 43.9293C73.838 43.8226 73.6144 43.7249 73.4049 43.6362C73.1954 43.5476 72.9499 43.5026 72.6646 43.5026C72.3986 43.5026 72.2109 43.545 72.1042 43.6298C71.9976 43.7146 71.9449 43.8187 71.9449 43.9434C71.9449 44.1298 72.0451 44.2814 72.2443 44.3971C72.4448 44.5128 72.6954 44.6259 72.9975 44.7364C73.2995 44.8482 73.6259 44.9716 73.9768 45.1091C74.3277 45.2466 74.6541 45.4266 74.9561 45.6489C75.2582 45.8712 75.5088 46.1514 75.7093 46.4881C75.9098 46.8262 76.0087 47.2528 76.0087 47.7682C76.0087 48.1859 75.9303 48.5818 75.7748 48.9545C75.6193 49.3272 75.3931 49.6562 75.0949 49.9402C74.7968 50.2243 74.4305 50.4518 73.9948 50.6201C73.5591 50.7885 73.0566 50.8733 72.4885 50.8733C72.1595 50.8733 71.8369 50.8437 71.522 50.7872C71.2072 50.7294 70.9116 50.6561 70.6352 50.5674C70.3602 50.4787 70.1134 50.3785 69.8949 50.268C69.679 50.1562 69.5042 50.0482 69.3706 49.9415Z" fill="white"/>
<path d="M68.6495 35.5704C68.539 34.2325 67.8 33.1645 66.7307 32.6465C65.975 32.2803 64.925 32.2957 64.2785 32.3484C64.2785 32.3484 63.2902 32.4036 62.4072 32.5167V32.5116L58.5696 32.8278L55.904 33.0475V33.0527C55.0134 33.0861 54.0302 33.1928 54.0302 33.1928C53.3837 33.2455 52.3465 33.4023 51.6602 33.8881C50.6899 34.5744 50.136 35.7478 50.2452 37.087C50.2452 37.087 50.2491 38.2257 50.9007 39.2706C52.0664 41.138 54.187 41.0223 54.187 41.0223C57.0787 40.7845 59.2302 38.2475 58.9911 35.3558C58.9885 35.3237 58.9834 35.2928 58.9808 35.2607L58.7713 35.2774L59.734 35.1977C59.7352 35.2298 59.7365 35.262 59.7391 35.2928C59.9769 38.1845 62.5139 40.336 65.4056 40.097C65.4056 40.097 67.516 39.863 68.3603 37.8311C68.832 36.6937 68.6495 35.5704 68.6495 35.5704ZM59.8085 34.3199L58.6994 34.4112L58.7623 34.406C58.6518 34.1515 58.5014 33.9189 58.3074 33.721L58.6402 33.694L60.1439 33.5706C59.9859 33.7968 59.8753 34.05 59.8085 34.3199Z" fill="#EC0F78"/>
<g opacity="0.1">
<mask id="mask0_185_272" style="mask-type:luminance" maskUnits="userSpaceOnUse" x="50" y="32" width="10" height="10">
<path d="M58.5696 32.8262L55.904 33.0459V33.0511C55.0134 33.0845 54.0302 33.1912 54.0302 33.1912C53.3837 33.2439 52.3465 33.4007 51.6602 33.8865C50.6899 34.5728 50.136 35.7462 50.2452 37.0854C50.2452 37.0854 50.2491 38.2241 50.9007 39.269C52.0664 41.1364 54.187 41.0207 54.187 41.0207C57.0787 40.783 59.2302 38.2459 58.9911 35.3542C58.9885 35.3221 58.9834 35.2912 58.9808 35.2591L58.7713 35.2758M58.6994 34.4096L58.7623 34.4044C58.6518 34.1499 58.5014 33.9173 58.3074 33.7194L58.6402 33.6924" fill="white"/>
</mask>
<g mask="url(#mask0_185_272)">
<path d="M55.4978 67.2691L54.381 37.0254L53.2628 67.2691H55.4978Z" fill="black"/>
<path d="M64.3196 65.6112L54.381 37.0254L62.1823 66.2667L64.3196 65.6112Z" fill="black"/>
<path d="M72.2661 61.4394L54.381 37.0254L70.4154 62.6925L72.2661 61.4394Z" fill="black"/>
<path d="M78.6395 55.1213L54.381 37.0254L77.2386 56.8614L78.6395 55.1213Z" fill="black"/>
<path d="M82.8794 47.2107L54.381 37.0254L82.0504 49.2851L82.8794 47.2107Z" fill="black"/>
<path d="M84.6131 38.4044L54.381 37.0254L84.4294 40.6317L84.6131 38.4044Z" fill="black"/>
<path d="M83.6891 29.4785L54.381 37.0266L84.1659 31.6608L83.6891 29.4785Z" fill="black"/>
<path d="M80.1856 21.2129L54.381 37.0249L81.2819 23.16L80.1856 21.2129Z" fill="black"/>
<path d="M74.4137 14.3398L54.381 37.0252L76.033 15.8808L74.4137 14.3398Z" fill="black"/>
<path d="M66.8797 9.46289L54.381 37.0257L68.8795 10.4602L66.8797 9.46289Z" fill="black"/>
<path d="M58.2456 7.00977L54.381 37.026L60.4511 7.37734L58.2456 7.00977Z" fill="black"/>
<path d="M49.2736 7.19599L54.381 37.0259L51.488 6.90039L49.2736 7.19599Z" fill="black"/>
<path d="M40.7487 10.006L54.381 37.0264L42.7806 9.07422L40.7487 10.006Z" fill="black"/>
<path d="M33.4242 15.1921L54.3809 37.0266L35.0924 13.7051L33.4242 15.1921Z" fill="black"/>
<path d="M27.9415 22.2978L54.381 37.0251L29.1008 20.3867L27.9415 22.2978Z" fill="black"/>
<path d="M24.785 30.7001L54.381 37.0259L25.3325 28.5332L24.785 30.7001Z" fill="black"/>
<path d="M24.2311 39.6575L54.381 37.0254L24.1193 37.4251L24.2311 39.6575Z" fill="black"/>
<path d="M26.3286 48.3841L54.381 37.0254L25.5677 46.2828L26.3286 48.3841Z" fill="black"/>
<path d="M30.8937 56.1122L54.381 37.0254L29.5493 54.327L30.8937 56.1122Z" fill="black"/>
<path d="M37.5241 62.1604L54.381 37.0254L35.7158 60.8482L37.5241 62.1604Z" fill="black"/>
<path d="M45.6376 65.9993L54.381 37.0254L43.5234 65.2745L45.6376 65.9993Z" fill="black"/>
</g>
<mask id="mask1_185_272" style="mask-type:luminance" maskUnits="userSpaceOnUse" x="59" y="32" width="10" height="9">
<path d="M59.9344 35.2919L59.7262 35.3151C59.7288 35.3472 59.7301 35.3793 59.7339 35.4102C60.0501 38.2942 62.6437 40.3763 65.5277 40.0614C65.5277 40.0614 67.6316 39.7709 68.4207 37.7171C68.8616 36.5682 68.6495 35.4487 68.6495 35.4487C68.503 34.1134 67.7357 33.0659 66.6536 32.5776C65.8876 32.2318 64.8388 32.2755 64.1949 32.3449C64.1949 32.3449 63.2092 32.4272 62.3288 32.5634V32.5583L59.6697 32.8487M59.7609 33.7124L60.0925 33.6764C59.9396 33.9078 59.8355 34.1648 59.7764 34.436L59.8393 34.4296" fill="white"/>
</mask>
<g mask="url(#mask1_185_272)">
<path d="M66.3168 47.3049L64.592 36.2109L67.1303 47.1469L66.3168 47.3049Z" fill="black"/>
<path d="M62.988 47.3229L64.592 36.2109L63.8119 47.4103L62.988 47.3229Z" fill="black"/>
<path d="M59.7994 46.3629L64.592 36.2109L60.5616 46.6893L59.7994 46.3629Z" fill="black"/>
<path d="M57.0323 44.5109L64.592 36.2109L57.666 45.0468L57.0323 44.5109Z" fill="black"/>
<path d="M54.931 41.9289L64.592 36.2109L55.3796 42.6267L54.931 41.9289Z" fill="black"/>
<path d="M53.6792 38.8443L64.592 36.2109L53.9028 39.6425L53.6792 38.8443Z" fill="black"/>
<path d="M53.3862 35.5273L64.592 36.2111L53.3669 36.3563L53.3862 35.5273Z" fill="black"/>
<path d="M54.0802 32.2695L64.592 36.21L53.818 33.0561L54.0802 32.2695Z" fill="black"/>
<path d="M55.6971 29.3594L64.5921 36.2096L55.2164 30.0341L55.6971 29.3594Z" fill="black"/>
<path d="M58.0979 27.0527L64.5921 36.2099L57.4398 27.5565L58.0979 27.0527Z" fill="black"/>
<path d="M61.0693 25.5508L64.5921 36.2104L60.2917 25.84L61.0693 25.5508Z" fill="black"/>
<path d="M64.3504 24.9863L64.592 36.2101L63.5227 25.0352L64.3504 24.9863Z" fill="black"/>
<path d="M67.6534 25.4095L64.592 36.2105L66.8476 25.2129L67.6534 25.4095Z" fill="black"/>
<path d="M70.6865 26.7815L64.592 36.2099L69.9732 26.3574L70.6865 26.7815Z" fill="black"/>
<path d="M73.1837 28.9835L64.592 36.2103L72.6272 28.3691L73.1837 28.9835Z" fill="black"/>
<path d="M74.9252 31.8209L64.592 36.2099L74.573 31.0703L74.9252 31.8209Z" fill="black"/>
<path d="M75.758 35.0439L64.592 36.2096L75.6423 34.2227L75.758 35.0439Z" fill="black"/>
<path d="M75.6089 38.3714L64.592 36.2109L75.7387 37.5527L75.6089 38.3714Z" fill="black"/>
<path d="M74.4921 41.5073L64.592 36.2109L74.8558 40.7619L74.4921 41.5073Z" fill="black"/>
<path d="M72.5026 44.178L64.592 36.2109L73.0693 43.5727L72.5026 44.178Z" fill="black"/>
<path d="M69.819 46.147L64.592 36.2109L70.5375 45.7344L69.819 46.147Z" fill="black"/>
</g>
</g>
<path d="M66.6407 33.6367C66.561 34.0454 66.4954 34.1174 66.1266 34.2048C66.4954 34.2935 66.5597 34.3654 66.6407 34.7729C66.7204 34.3642 66.7859 34.2922 67.1548 34.2048C66.7859 34.1161 66.7204 34.0441 66.6407 33.6367Z" fill="white"/>
<path d="M67.3244 33.8635C67.5044 32.9433 67.6509 32.7826 68.4811 32.5821C67.6509 32.3829 67.5044 32.221 67.3244 31.3008C67.1445 32.221 66.998 32.3816 66.1677 32.5821C66.998 32.7826 67.1445 32.9446 67.3244 33.8635Z" fill="white"/>
<path d="M65.5855 33.6999C65.6767 33.2372 65.75 33.1563 66.1677 33.056C65.75 32.9558 65.6767 32.8748 65.5855 32.4121C65.4942 32.8748 65.421 32.9558 65.0033 33.056C65.421 33.155 65.4942 33.2372 65.5855 33.6999Z" fill="white"/>
</g>
</g>
<g clip-path="url(#clip2_185_272)">
<g clip-path="url(#clip3_185_272)">
<path d="M55 76.5605H45C43.8954 76.5605 43 77.456 43 78.5605V88.5605C43 89.6651 43.8954 90.5605 45 90.5605H55C56.1046 90.5605 57 89.6651 57 88.5605V78.5605C57 77.456 56.1046 76.5605 55 76.5605Z" fill="#FD2F6F" stroke="#FD2F6F" stroke-width="1.5"/>
<path d="M45.615 83.3369L48.6389 86.8027L54.3391 80.2656" stroke="white" stroke-width="2" stroke-linecap="round" stroke-linejoin="round"/>
</g>
</g>
<path d="M80.0795 79.5605H79.0227C78.9602 79.2566 78.8509 78.9895 78.6946 78.7594C78.5412 78.5293 78.3537 78.3361 78.1321 78.1799C77.9134 78.0208 77.6705 77.9015 77.4034 77.8219C77.1364 77.7424 76.858 77.7026 76.5682 77.7026C76.0398 77.7026 75.5611 77.8361 75.1321 78.1032C74.706 78.3702 74.3665 78.7637 74.1136 79.2836C73.8636 79.8034 73.7386 80.4412 73.7386 81.1969C73.7386 81.9526 73.8636 82.5904 74.1136 83.1103C74.3665 83.6301 74.706 84.0236 75.1321 84.2907C75.5611 84.5577 76.0398 84.6912 76.5682 84.6912C76.858 84.6912 77.1364 84.6515 77.4034 84.5719C77.6705 84.4924 77.9134 84.3745 78.1321 84.2182C78.3537 84.0591 78.5412 83.8645 78.6946 83.6344C78.8509 83.4015 78.9602 83.1344 79.0227 82.8333H80.0795C80 83.2793 79.8551 83.6784 79.6449 84.0307C79.4347 84.383 79.1733 84.6827 78.8608 84.9299C78.5483 85.1742 78.1974 85.3603 77.8082 85.4881C77.4219 85.6159 77.0085 85.6799 76.5682 85.6799C75.8239 85.6799 75.1619 85.498 74.5824 85.1344C74.0028 84.7708 73.5469 84.2537 73.2145 83.5833C72.8821 82.9128 72.7159 82.1174 72.7159 81.1969C72.7159 80.2765 72.8821 79.481 73.2145 78.8105C73.5469 78.1401 74.0028 77.623 74.5824 77.2594C75.1619 76.8958 75.8239 76.714 76.5682 76.714C77.0085 76.714 77.4219 76.7779 77.8082 76.9057C78.1974 77.0336 78.5483 77.2211 78.8608 77.4682C79.1733 77.7125 79.4347 78.0108 79.6449 78.3631C79.8551 78.7125 80 79.1117 80.0795 79.5605ZM82.6566 81.623V85.5605H81.6509V76.8333H82.6566V80.0378H82.7418C82.8952 79.6998 83.1254 79.4313 83.4322 79.2324C83.7418 79.0307 84.1538 78.9299 84.668 78.9299C85.114 78.9299 85.5046 79.0194 85.8398 79.1983C86.1751 79.3745 86.435 79.6458 86.6197 80.0123C86.8072 80.3759 86.9009 80.839 86.9009 81.4015V85.5605H85.8952V81.4696C85.8952 80.9498 85.7603 80.5478 85.4904 80.2637C85.2234 79.9767 84.8526 79.8333 84.3782 79.8333C84.0487 79.8333 83.7532 79.9029 83.4918 80.0421C83.2333 80.1813 83.0288 80.3844 82.8782 80.6515C82.7305 80.9185 82.6566 81.2424 82.6566 81.623ZM91.4851 85.6969C90.8544 85.6969 90.3104 85.5577 89.853 85.2793C89.3984 84.998 89.0476 84.606 88.8004 84.1032C88.5561 83.5975 88.4339 83.0094 88.4339 82.339C88.4339 81.6685 88.5561 81.0776 88.8004 80.5662C89.0476 80.052 89.3913 79.6515 89.8317 79.3645C90.2749 79.0748 90.7919 78.9299 91.3828 78.9299C91.7237 78.9299 92.0604 78.9867 92.3928 79.1003C92.7251 79.214 93.0277 79.3986 93.3004 79.6543C93.5732 79.9071 93.7905 80.2424 93.9524 80.66C94.1143 81.0776 94.1953 81.5918 94.1953 82.2026V82.6287H89.1499V81.7594H93.1726C93.1726 81.3901 93.0987 81.0605 92.951 80.7708C92.8061 80.481 92.5987 80.2523 92.3288 80.0847C92.0618 79.9171 91.7464 79.8333 91.3828 79.8333C90.9822 79.8333 90.6357 79.9327 90.343 80.1316C90.0533 80.3276 89.8303 80.5833 89.674 80.8986C89.5178 81.214 89.4396 81.552 89.4396 81.9128V82.4924C89.4396 82.9867 89.5249 83.4057 89.6953 83.7495C89.8686 84.0904 90.1087 84.3503 90.4155 84.5293C90.7223 84.7054 91.0788 84.7935 91.4851 84.7935C91.7493 84.7935 91.9879 84.7566 92.201 84.6827C92.4169 84.606 92.603 84.4924 92.7592 84.3418C92.9155 84.1884 93.0362 83.998 93.1214 83.7708L94.093 84.0435C93.9908 84.373 93.8189 84.6628 93.5774 84.9128C93.3359 85.16 93.0376 85.3532 92.6825 85.4924C92.3274 85.6287 91.9283 85.6969 91.4851 85.6969ZM98.3842 85.6969C97.7706 85.6969 97.2422 85.552 96.799 85.2623C96.3558 84.9725 96.0149 84.5733 95.7763 84.0648C95.5376 83.5563 95.4183 82.9753 95.4183 82.3219C95.4183 81.6571 95.5405 81.0705 95.7848 80.562C96.032 80.0506 96.3757 79.6515 96.8161 79.3645C97.2592 79.0748 97.7763 78.9299 98.3672 78.9299C98.8274 78.9299 99.2422 79.0151 99.6115 79.1855C99.9808 79.356 100.283 79.5946 100.519 79.9015C100.755 80.2083 100.901 80.5662 100.958 80.9753H99.9524C99.8757 80.677 99.7053 80.4128 99.4411 80.1827C99.1797 79.9498 98.8274 79.8333 98.3842 79.8333C97.9922 79.8333 97.6484 79.9355 97.353 80.1401C97.0604 80.3418 96.8317 80.6273 96.6669 80.9966C96.505 81.3631 96.424 81.7935 96.424 82.2878C96.424 82.7935 96.5036 83.2338 96.6626 83.6088C96.8246 83.9838 97.0518 84.275 97.3445 84.4824C97.6399 84.6898 97.9865 84.7935 98.3842 84.7935C98.6456 84.7935 98.8828 84.748 99.0959 84.6571C99.3089 84.5662 99.4893 84.4355 99.6371 84.2651C99.7848 84.0946 99.8899 83.8901 99.9524 83.6515H100.958C100.901 84.0378 100.761 84.3858 100.536 84.6955C100.315 85.0023 100.021 85.2466 99.6541 85.4284C99.2905 85.6074 98.8672 85.6969 98.3842 85.6969ZM103.366 83.1742L103.349 81.9299H103.553L106.417 79.0151H107.661L104.61 82.1003H104.525L103.366 83.1742ZM102.428 85.5605V76.8333H103.434V85.5605H102.428ZM106.587 85.5605L104.031 82.3219L104.746 81.623L107.866 85.5605H106.587ZM115.177 79.0151V79.8674H111.785V79.0151H115.177ZM112.774 77.4469H113.779V83.6855C113.779 83.9696 113.821 84.1827 113.903 84.3248C113.988 84.464 114.096 84.5577 114.227 84.606C114.36 84.6515 114.501 84.6742 114.649 84.6742C114.76 84.6742 114.85 84.6685 114.922 84.6571C114.993 84.6429 115.049 84.6316 115.092 84.623L115.297 85.5265C115.228 85.552 115.133 85.5776 115.011 85.6032C114.889 85.6316 114.734 85.6458 114.547 85.6458C114.262 85.6458 113.984 85.5847 113.711 85.4625C113.441 85.3404 113.217 85.1543 113.038 84.9043C112.862 84.6543 112.774 84.339 112.774 83.9583V77.4469ZM117.836 81.623V85.5605H116.831V76.8333H117.836V80.0378H117.922C118.075 79.6998 118.305 79.4313 118.612 79.2324C118.922 79.0307 119.333 78.9299 119.848 78.9299C120.294 78.9299 120.684 79.0194 121.02 79.1983C121.355 79.3745 121.615 79.6458 121.799 80.0123C121.987 80.3759 122.081 80.839 122.081 81.4015V85.5605H121.075V81.4696C121.075 80.9498 120.94 80.5478 120.67 80.2637C120.403 79.9767 120.032 79.8333 119.558 79.8333C119.228 79.8333 118.933 79.9029 118.672 80.0421C118.413 80.1813 118.208 80.3844 118.058 80.6515C117.91 80.9185 117.836 81.2424 117.836 81.623ZM123.92 85.5605V79.0151H124.926V85.5605H123.92ZM124.432 77.9242C124.236 77.9242 124.067 77.8574 123.925 77.7239C123.786 77.5904 123.716 77.4299 123.716 77.2424C123.716 77.0549 123.786 76.8944 123.925 76.7608C124.067 76.6273 124.236 76.5605 124.432 76.5605C124.628 76.5605 124.795 76.6273 124.935 76.7608C125.077 76.8944 125.148 77.0549 125.148 77.2424C125.148 77.4299 125.077 77.5904 124.935 77.7239C124.795 77.8574 124.628 77.9242 124.432 77.9242ZM131.404 80.481L130.501 80.7367C130.444 80.5861 130.36 80.4398 130.25 80.2978C130.142 80.1529 129.994 80.0336 129.806 79.9398C129.619 79.8461 129.379 79.7992 129.086 79.7992C128.686 79.7992 128.352 79.8915 128.085 80.0762C127.821 80.258 127.689 80.4895 127.689 80.7708C127.689 81.0208 127.779 81.2182 127.961 81.3631C128.143 81.508 128.427 81.6287 128.814 81.7253L129.785 81.964C130.37 82.106 130.806 82.3233 131.093 82.6159C131.38 82.9057 131.524 83.2793 131.524 83.7367C131.524 84.1117 131.416 84.4469 131.2 84.7424C130.987 85.0378 130.689 85.2708 130.305 85.4412C129.922 85.6117 129.475 85.6969 128.967 85.6969C128.299 85.6969 127.747 85.552 127.309 85.2623C126.872 84.9725 126.595 84.5492 126.478 83.9924L127.433 83.7537C127.524 84.106 127.696 84.3702 127.949 84.5463C128.204 84.7225 128.538 84.8105 128.95 84.8105C129.419 84.8105 129.791 84.7111 130.066 84.5123C130.345 84.3105 130.484 84.0691 130.484 83.7878C130.484 83.5605 130.404 83.3702 130.245 83.2168C130.086 83.0605 129.842 82.9441 129.512 82.8674L128.422 82.6117C127.822 82.4696 127.382 82.2495 127.1 81.9512C126.822 81.65 126.683 81.2736 126.683 80.8219C126.683 80.4526 126.787 80.1259 126.994 79.8418C127.204 79.5577 127.49 79.3347 127.85 79.1728C128.214 79.0108 128.626 78.9299 129.086 78.9299C129.734 78.9299 130.243 79.0719 130.612 79.356C130.984 79.6401 131.248 80.0151 131.404 80.481ZM136.549 85.5605V76.8333H137.555V80.0549H137.64C137.714 79.9412 137.816 79.7963 137.947 79.6202C138.08 79.4412 138.271 79.2821 138.518 79.1429C138.768 79.0009 139.106 78.9299 139.532 78.9299C140.083 78.9299 140.569 79.0676 140.989 79.3432C141.41 79.6188 141.738 80.0094 141.974 80.5151C142.21 81.0208 142.327 81.6174 142.327 82.3049C142.327 82.998 142.21 83.5989 141.974 84.1074C141.738 84.6131 141.411 85.0051 140.994 85.2836C140.576 85.5591 140.094 85.6969 139.549 85.6969C139.129 85.6969 138.792 85.6273 138.539 85.4881C138.286 85.3461 138.092 85.1855 137.955 85.0066C137.819 84.8248 137.714 84.6742 137.64 84.5549H137.521V85.5605H136.549ZM137.538 82.2878C137.538 82.7821 137.61 83.2182 137.755 83.5961C137.9 83.9711 138.112 84.2651 138.39 84.4782C138.668 84.6884 139.009 84.7935 139.413 84.7935C139.833 84.7935 140.184 84.6827 140.465 84.4611C140.749 84.2367 140.962 83.9355 141.104 83.5577C141.249 83.177 141.322 82.7537 141.322 82.2878C141.322 81.8276 141.251 81.4128 141.109 81.0435C140.969 80.6713 140.758 80.3773 140.474 80.1614C140.192 79.9426 139.839 79.8333 139.413 79.8333C139.004 79.8333 138.66 79.937 138.381 80.1444C138.103 80.3489 137.893 80.6358 137.751 81.0051C137.609 81.3716 137.538 81.7992 137.538 82.2878ZM146.525 85.6969C145.934 85.6969 145.415 85.5563 144.969 85.275C144.526 84.9938 144.18 84.6003 143.93 84.0946C143.683 83.589 143.559 82.998 143.559 82.3219C143.559 81.6401 143.683 81.0449 143.93 80.5364C144.18 80.0279 144.526 79.633 144.969 79.3517C145.415 79.0705 145.934 78.9299 146.525 78.9299C147.116 78.9299 147.633 79.0705 148.076 79.3517C148.522 79.633 148.869 80.0279 149.116 80.5364C149.366 81.0449 149.491 81.6401 149.491 82.3219C149.491 82.998 149.366 83.589 149.116 84.0946C148.869 84.6003 148.522 84.9938 148.076 85.275C147.633 85.5563 147.116 85.6969 146.525 85.6969ZM146.525 84.7935C146.974 84.7935 147.343 84.6784 147.633 84.4483C147.923 84.2182 148.137 83.9157 148.276 83.5407C148.415 83.1657 148.485 82.7594 148.485 82.3219C148.485 81.8844 148.415 81.4767 148.276 81.0989C148.137 80.7211 147.923 80.4157 147.633 80.1827C147.343 79.9498 146.974 79.8333 146.525 79.8333C146.076 79.8333 145.707 79.9498 145.417 80.1827C145.127 80.4157 144.913 80.7211 144.773 81.0989C144.634 81.4767 144.565 81.8844 144.565 82.3219C144.565 82.7594 144.634 83.1657 144.773 83.5407C144.913 83.9157 145.127 84.2182 145.417 84.4483C145.707 84.6784 146.076 84.7935 146.525 84.7935ZM151.506 79.0151L153.075 81.6912L154.643 79.0151H155.802L153.688 82.2878L155.802 85.5605H154.643L153.075 83.0208L151.506 85.5605H150.347L152.427 82.2878L150.347 79.0151H151.506ZM163.458 79.0151V79.8674H160.066V79.0151H163.458ZM161.055 77.4469H162.061V83.6855C162.061 83.9696 162.102 84.1827 162.184 84.3248C162.27 84.464 162.377 84.5577 162.508 84.606C162.642 84.6515 162.782 84.6742 162.93 84.6742C163.041 84.6742 163.132 84.6685 163.203 84.6571C163.274 84.6429 163.331 84.6316 163.373 84.623L163.578 85.5265C163.51 85.552 163.414 85.5776 163.292 85.6032C163.17 85.6316 163.015 85.6458 162.828 85.6458C162.544 85.6458 162.265 85.5847 161.993 85.4625C161.723 85.3404 161.498 85.1543 161.319 84.9043C161.143 84.6543 161.055 84.339 161.055 83.9583V77.4469ZM167.56 85.6969C166.969 85.6969 166.451 85.5563 166.005 85.275C165.561 84.9938 165.215 84.6003 164.965 84.0946C164.718 83.589 164.594 82.998 164.594 82.3219C164.594 81.6401 164.718 81.0449 164.965 80.5364C165.215 80.0279 165.561 79.633 166.005 79.3517C166.451 79.0705 166.969 78.9299 167.56 78.9299C168.151 78.9299 168.668 79.0705 169.111 79.3517C169.557 79.633 169.904 80.0279 170.151 80.5364C170.401 81.0449 170.526 81.6401 170.526 82.3219C170.526 82.998 170.401 83.589 170.151 84.0946C169.904 84.6003 169.557 84.9938 169.111 85.275C168.668 85.5563 168.151 85.6969 167.56 85.6969ZM167.56 84.7935C168.009 84.7935 168.378 84.6784 168.668 84.4483C168.958 84.2182 169.172 83.9157 169.311 83.5407C169.451 83.1657 169.52 82.7594 169.52 82.3219C169.52 81.8844 169.451 81.4767 169.311 81.0989C169.172 80.7211 168.958 80.4157 168.668 80.1827C168.378 79.9498 168.009 79.8333 167.56 79.8333C167.111 79.8333 166.742 79.9498 166.452 80.1827C166.162 80.4157 165.948 80.7211 165.809 81.0989C165.669 81.4767 165.6 81.8844 165.6 82.3219C165.6 82.7594 165.669 83.1657 165.809 83.5407C165.948 83.9157 166.162 84.2182 166.452 84.4483C166.742 84.6784 167.111 84.7935 167.56 84.7935ZM177.362 85.714C176.947 85.714 176.571 85.6358 176.233 85.4796C175.895 85.3205 175.626 85.0918 175.428 84.7935C175.229 84.4924 175.129 84.1287 175.129 83.7026C175.129 83.3276 175.203 83.0236 175.351 82.7907C175.499 82.5549 175.696 82.3702 175.943 82.2367C176.19 82.1032 176.463 82.0037 176.761 81.9384C177.063 81.8702 177.365 81.8162 177.669 81.7765C178.067 81.7253 178.389 81.687 178.636 81.6614C178.886 81.633 179.068 81.5861 179.182 81.5208C179.298 81.4554 179.357 81.3418 179.357 81.1799V81.1458C179.357 80.7253 179.241 80.3986 179.011 80.1657C178.784 79.9327 178.439 79.8162 177.976 79.8162C177.496 79.8162 177.119 79.9213 176.847 80.1316C176.574 80.3418 176.382 80.5662 176.271 80.8049L175.317 80.464C175.487 80.0662 175.714 79.7566 175.999 79.535C176.286 79.3105 176.598 79.1543 176.936 79.0662C177.277 78.9753 177.612 78.9299 177.942 78.9299C178.152 78.9299 178.393 78.9554 178.666 79.0066C178.942 79.0549 179.207 79.1557 179.463 79.3091C179.722 79.4625 179.936 79.6941 180.107 80.0037C180.277 80.3134 180.362 80.7282 180.362 81.248V85.5605H179.357V84.6742H179.305C179.237 84.8162 179.124 84.9682 178.964 85.1301C178.805 85.2921 178.594 85.4299 178.33 85.5435C178.065 85.6571 177.743 85.714 177.362 85.714ZM177.516 84.8105C177.913 84.8105 178.249 84.7324 178.521 84.5762C178.797 84.4199 179.004 84.2182 179.143 83.9711C179.286 83.7239 179.357 83.464 179.357 83.1912V82.2708C179.314 82.3219 179.22 82.3688 179.075 82.4114C178.933 82.4512 178.768 82.4867 178.581 82.5179C178.396 82.5463 178.216 82.5719 178.04 82.5946C177.866 82.6145 177.726 82.6316 177.618 82.6458C177.357 82.6799 177.112 82.7353 176.885 82.812C176.661 82.8858 176.479 82.998 176.339 83.1486C176.203 83.2963 176.135 83.498 176.135 83.7537C176.135 84.1032 176.264 84.3674 176.523 84.5463C176.784 84.7225 177.115 84.8105 177.516 84.8105ZM182.198 88.0151V79.0151H183.169V80.0549H183.289C183.363 79.9412 183.465 79.7963 183.596 79.6202C183.729 79.4412 183.919 79.2821 184.167 79.1429C184.417 79.0009 184.755 78.9299 185.181 78.9299C185.732 78.9299 186.218 79.0676 186.638 79.3432C187.059 79.6188 187.387 80.0094 187.623 80.5151C187.858 81.0208 187.976 81.6174 187.976 82.3049C187.976 82.998 187.858 83.5989 187.623 84.1074C187.387 84.6131 187.06 85.0051 186.642 85.2836C186.225 85.5591 185.743 85.6969 185.198 85.6969C184.777 85.6969 184.441 85.6273 184.188 85.4881C183.935 85.3461 183.74 85.1855 183.604 85.0066C183.468 84.8248 183.363 84.6742 183.289 84.5549H183.203V88.0151H182.198ZM183.186 82.2878C183.186 82.7821 183.259 83.2182 183.404 83.5961C183.549 83.9711 183.76 84.2651 184.039 84.4782C184.317 84.6884 184.658 84.7935 185.061 84.7935C185.482 84.7935 185.833 84.6827 186.114 84.4611C186.398 84.2367 186.611 83.9355 186.753 83.5577C186.898 83.177 186.971 82.7537 186.971 82.2878C186.971 81.8276 186.9 81.4128 186.757 81.0435C186.618 80.6713 186.407 80.3773 186.123 80.1614C185.841 79.9426 185.488 79.8333 185.061 79.8333C184.652 79.8333 184.309 79.937 184.03 80.1444C183.752 80.3489 183.542 80.6358 183.4 81.0051C183.257 81.3716 183.186 81.7992 183.186 82.2878ZM189.51 88.0151V79.0151H190.482V80.0549H190.601C190.675 79.9412 190.777 79.7963 190.908 79.6202C191.042 79.4412 191.232 79.2821 191.479 79.1429C191.729 79.0009 192.067 78.9299 192.493 78.9299C193.044 78.9299 193.53 79.0676 193.951 79.3432C194.371 79.6188 194.699 80.0094 194.935 80.5151C195.171 81.0208 195.289 81.6174 195.289 82.3049C195.289 82.998 195.171 83.5989 194.935 84.1074C194.699 84.6131 194.373 85.0051 193.955 85.2836C193.537 85.5591 193.056 85.6969 192.51 85.6969C192.09 85.6969 191.753 85.6273 191.5 85.4881C191.248 85.3461 191.053 85.1855 190.917 85.0066C190.78 84.8248 190.675 84.6742 190.601 84.5549H190.516V88.0151H189.51ZM190.499 82.2878C190.499 82.7821 190.571 83.2182 190.716 83.5961C190.861 83.9711 191.073 84.2651 191.351 84.4782C191.63 84.6884 191.971 84.7935 192.374 84.7935C192.794 84.7935 193.145 84.6827 193.426 84.4611C193.711 84.2367 193.924 83.9355 194.066 83.5577C194.211 83.177 194.283 82.7537 194.283 82.2878C194.283 81.8276 194.212 81.4128 194.07 81.0435C193.931 80.6713 193.719 80.3773 193.435 80.1614C193.154 79.9426 192.8 79.8333 192.374 79.8333C191.965 79.8333 191.621 79.937 191.343 80.1444C191.064 80.3489 190.854 80.6358 190.712 81.0051C190.57 81.3716 190.499 81.7992 190.499 82.2878ZM197.828 76.8333V85.5605H196.823V76.8333H197.828ZM200.318 88.0151C200.148 88.0151 199.996 88.0009 199.862 87.9725C199.729 87.9469 199.636 87.9213 199.585 87.8958L199.841 87.0094C200.085 87.0719 200.301 87.0946 200.489 87.0776C200.676 87.0605 200.842 86.9767 200.987 86.8262C201.135 86.6784 201.27 86.4384 201.392 86.106L201.58 85.5946L199.159 79.0151H200.25L202.057 84.231H202.125L203.932 79.0151H205.023L202.244 86.5151C202.119 86.8532 201.964 87.133 201.78 87.3546C201.595 87.579 201.381 87.7452 201.136 87.8532C200.895 87.9611 200.622 88.0151 200.318 88.0151ZM212.64 79.0151V79.8674H209.112V79.0151H212.64ZM210.168 85.5605V78.1117C210.168 77.7367 210.256 77.4242 210.433 77.1742C210.609 76.9242 210.837 76.7367 211.119 76.6117C211.4 76.4867 211.697 76.4242 212.009 76.4242C212.256 76.4242 212.458 76.4441 212.614 76.4838C212.771 76.5236 212.887 76.5605 212.964 76.5946L212.674 77.464C212.623 77.4469 212.552 77.4256 212.461 77.4C212.373 77.3745 212.256 77.3617 212.112 77.3617C211.779 77.3617 211.539 77.4455 211.391 77.6131C211.246 77.7807 211.174 78.0265 211.174 78.3503V85.5605H210.168ZM216.439 85.6969C215.848 85.6969 215.33 85.5563 214.884 85.275C214.44 84.9938 214.094 84.6003 213.844 84.0946C213.597 83.589 213.473 82.998 213.473 82.3219C213.473 81.6401 213.597 81.0449 213.844 80.5364C214.094 80.0279 214.44 79.633 214.884 79.3517C215.33 79.0705 215.848 78.9299 216.439 78.9299C217.03 78.9299 217.547 79.0705 217.99 79.3517C218.436 79.633 218.783 80.0279 219.03 80.5364C219.28 81.0449 219.405 81.6401 219.405 82.3219C219.405 82.998 219.28 83.589 219.03 84.0946C218.783 84.6003 218.436 84.9938 217.99 85.275C217.547 85.5563 217.03 85.6969 216.439 85.6969ZM216.439 84.7935C216.888 84.7935 217.257 84.6784 217.547 84.4483C217.837 84.2182 218.051 83.9157 218.19 83.5407C218.33 83.1657 218.399 82.7594 218.399 82.3219C218.399 81.8844 218.33 81.4767 218.19 81.0989C218.051 80.7211 217.837 80.4157 217.547 80.1827C217.257 79.9498 216.888 79.8333 216.439 79.8333C215.99 79.8333 215.621 79.9498 215.331 80.1827C215.041 80.4157 214.827 80.7211 214.688 81.0989C214.548 81.4767 214.479 81.8844 214.479 82.3219C214.479 82.7594 214.548 83.1657 214.688 83.5407C214.827 83.9157 215.041 84.2182 215.331 84.4483C215.621 84.6784 215.99 84.7935 216.439 84.7935ZM223.599 85.6969C223.008 85.6969 222.49 85.5563 222.044 85.275C221.6 84.9938 221.254 84.6003 221.004 84.0946C220.757 83.589 220.633 82.998 220.633 82.3219C220.633 81.6401 220.757 81.0449 221.004 80.5364C221.254 80.0279 221.6 79.633 222.044 79.3517C222.49 79.0705 223.008 78.9299 223.599 78.9299C224.19 78.9299 224.707 79.0705 225.15 79.3517C225.596 79.633 225.943 80.0279 226.19 80.5364C226.44 81.0449 226.565 81.6401 226.565 82.3219C226.565 82.998 226.44 83.589 226.19 84.0946C225.943 84.6003 225.596 84.9938 225.15 85.275C224.707 85.5563 224.19 85.6969 223.599 85.6969ZM223.599 84.7935C224.048 84.7935 224.417 84.6784 224.707 84.4483C224.997 84.2182 225.211 83.9157 225.35 83.5407C225.49 83.1657 225.559 82.7594 225.559 82.3219C225.559 81.8844 225.49 81.4767 225.35 81.0989C225.211 80.7211 224.997 80.4157 224.707 80.1827C224.417 79.9498 224.048 79.8333 223.599 79.8333C223.15 79.8333 222.781 79.9498 222.491 80.1827C222.201 80.4157 221.987 80.7211 221.848 81.0989C221.708 81.4767 221.639 81.8844 221.639 82.3219C221.639 82.7594 221.708 83.1657 221.848 83.5407C221.987 83.9157 222.201 84.2182 222.491 84.4483C222.781 84.6784 223.15 84.7935 223.599 84.7935ZM230.572 85.6969C230.026 85.6969 229.545 85.5591 229.127 85.2836C228.71 85.0051 228.383 84.6131 228.147 84.1074C227.911 83.5989 227.793 82.998 227.793 82.3049C227.793 81.6174 227.911 81.0208 228.147 80.5151C228.383 80.0094 228.711 79.6188 229.131 79.3432C229.552 79.0676 230.038 78.9299 230.589 78.9299C231.015 78.9299 231.352 79.0009 231.599 79.1429C231.849 79.2821 232.039 79.4412 232.17 79.6202C232.303 79.7963 232.407 79.9412 232.481 80.0549H232.566V76.8333H233.572V85.5605H232.6V84.5549H232.481C232.407 84.6742 232.302 84.8248 232.165 85.0066C232.029 85.1855 231.835 85.3461 231.582 85.4881C231.329 85.6273 230.992 85.6969 230.572 85.6969ZM230.708 84.7935C231.112 84.7935 231.452 84.6884 231.731 84.4782C232.009 84.2651 232.221 83.9711 232.366 83.5961C232.511 83.2182 232.583 82.7821 232.583 82.2878C232.583 81.7992 232.512 81.3716 232.37 81.0051C232.228 80.6358 232.018 80.3489 231.739 80.1444C231.461 79.937 231.117 79.8333 230.708 79.8333C230.282 79.8333 229.927 79.9426 229.643 80.1614C229.362 80.3773 229.15 80.6713 229.008 81.0435C228.869 81.4128 228.799 81.8276 228.799 82.2878C228.799 82.7537 228.87 83.177 229.012 83.5577C229.157 83.9355 229.37 84.2367 229.651 84.4611C229.935 84.6827 230.288 84.7935 230.708 84.7935ZM238.928 88.0151V79.0151H239.9V80.0549H240.019C240.093 79.9412 240.195 79.7963 240.326 79.6202C240.46 79.4412 240.65 79.2821 240.897 79.1429C241.147 79.0009 241.485 78.9299 241.911 78.9299C242.462 78.9299 242.948 79.0676 243.369 79.3432C243.789 79.6188 244.117 80.0094 244.353 80.5151C244.589 81.0208 244.707 81.6174 244.707 82.3049C244.707 82.998 244.589 83.5989 244.353 84.1074C244.117 84.6131 243.79 85.0051 243.373 85.2836C242.955 85.5591 242.474 85.6969 241.928 85.6969C241.508 85.6969 241.171 85.6273 240.918 85.4881C240.665 85.3461 240.471 85.1855 240.335 85.0066C240.198 84.8248 240.093 84.6742 240.019 84.5549H239.934V88.0151H238.928ZM239.917 82.2878C239.917 82.7821 239.989 83.2182 240.134 83.5961C240.279 83.9711 240.491 84.2651 240.769 84.4782C241.048 84.6884 241.388 84.7935 241.792 84.7935C242.212 84.7935 242.563 84.6827 242.844 84.4611C243.129 84.2367 243.342 83.9355 243.484 83.5577C243.629 83.177 243.701 82.7537 243.701 82.2878C243.701 81.8276 243.63 81.4128 243.488 81.0435C243.349 80.6713 243.137 80.3773 242.853 80.1614C242.572 79.9426 242.218 79.8333 241.792 79.8333C241.383 79.8333 241.039 79.937 240.761 80.1444C240.482 80.3489 240.272 80.6358 240.13 81.0051C239.988 81.3716 239.917 81.7992 239.917 82.2878ZM248.167 85.714C247.752 85.714 247.376 85.6358 247.038 85.4796C246.7 85.3205 246.431 85.0918 246.232 84.7935C246.033 84.4924 245.934 84.1287 245.934 83.7026C245.934 83.3276 246.008 83.0236 246.156 82.7907C246.303 82.5549 246.501 82.3702 246.748 82.2367C246.995 82.1032 247.268 82.0037 247.566 81.9384C247.867 81.8702 248.17 81.8162 248.474 81.7765C248.871 81.7253 249.194 81.687 249.441 81.6614C249.691 81.633 249.873 81.5861 249.987 81.5208C250.103 81.4554 250.161 81.3418 250.161 81.1799V81.1458C250.161 80.7253 250.046 80.3986 249.816 80.1657C249.589 79.9327 249.244 79.8162 248.781 79.8162C248.3 79.8162 247.924 79.9213 247.651 80.1316C247.379 80.3418 247.187 80.5662 247.076 80.8049L246.121 80.464C246.292 80.0662 246.519 79.7566 246.803 79.535C247.09 79.3105 247.403 79.1543 247.741 79.0662C248.082 78.9753 248.417 78.9299 248.746 78.9299C248.957 78.9299 249.198 78.9554 249.471 79.0066C249.746 79.0549 250.012 79.1557 250.268 79.3091C250.526 79.4625 250.741 79.6941 250.911 80.0037C251.082 80.3134 251.167 80.7282 251.167 81.248V85.5605H250.161V84.6742H250.11C250.042 84.8162 249.928 84.9682 249.769 85.1301C249.61 85.2921 249.398 85.4299 249.134 85.5435C248.87 85.6571 248.548 85.714 248.167 85.714ZM248.32 84.8105C248.718 84.8105 249.053 84.7324 249.326 84.5762C249.602 84.4199 249.809 84.2182 249.948 83.9711C250.09 83.7239 250.161 83.464 250.161 83.1912V82.2708C250.119 82.3219 250.025 82.3688 249.88 82.4114C249.738 82.4512 249.573 82.4867 249.386 82.5179C249.201 82.5463 249.021 82.5719 248.844 82.5946C248.671 82.6145 248.531 82.6316 248.423 82.6458C248.161 82.6799 247.917 82.7353 247.69 82.812C247.465 82.8858 247.283 82.998 247.144 83.1486C247.008 83.2963 246.94 83.498 246.94 83.7537C246.94 84.1032 247.069 84.3674 247.327 84.5463C247.589 84.7225 247.92 84.8105 248.32 84.8105ZM257.639 80.481L256.735 80.7367C256.679 80.5861 256.595 80.4398 256.484 80.2978C256.376 80.1529 256.228 80.0336 256.041 79.9398C255.853 79.8461 255.613 79.7992 255.321 79.7992C254.92 79.7992 254.586 79.8915 254.319 80.0762C254.055 80.258 253.923 80.4895 253.923 80.7708C253.923 81.0208 254.014 81.2182 254.196 81.3631C254.377 81.508 254.662 81.6287 255.048 81.7253L256.02 81.964C256.605 82.106 257.041 82.3233 257.328 82.6159C257.615 82.9057 257.758 83.2793 257.758 83.7367C257.758 84.1117 257.65 84.4469 257.434 84.7424C257.221 85.0378 256.923 85.2708 256.539 85.4412C256.156 85.6117 255.71 85.6969 255.201 85.6969C254.534 85.6969 253.981 85.552 253.544 85.2623C253.106 84.9725 252.829 84.5492 252.713 83.9924L253.667 83.7537C253.758 84.106 253.93 84.3702 254.183 84.5463C254.439 84.7225 254.772 84.8105 255.184 84.8105C255.653 84.8105 256.025 84.7111 256.301 84.5123C256.579 84.3105 256.718 84.0691 256.718 83.7878C256.718 83.5605 256.639 83.3702 256.48 83.2168C256.321 83.0605 256.076 82.9441 255.747 82.8674L254.656 82.6117C254.056 82.4696 253.616 82.2495 253.335 81.9512C253.056 81.65 252.917 81.2736 252.917 80.8219C252.917 80.4526 253.021 80.1259 253.228 79.8418C253.439 79.5577 253.724 79.3347 254.085 79.1728C254.449 79.0108 254.86 78.9299 255.321 78.9299C255.968 78.9299 256.477 79.0719 256.846 79.356C257.218 79.6401 257.483 80.0151 257.639 80.481ZM263.908 80.481L263.005 80.7367C262.948 80.5861 262.864 80.4398 262.754 80.2978C262.646 80.1529 262.498 80.0336 262.31 79.9398C262.123 79.8461 261.883 79.7992 261.59 79.7992C261.19 79.7992 260.856 79.8915 260.589 80.0762C260.325 80.258 260.192 80.4895 260.192 80.7708C260.192 81.0208 260.283 81.2182 260.465 81.3631C260.647 81.508 260.931 81.6287 261.317 81.7253L262.289 81.964C262.874 82.106 263.31 82.3233 263.597 82.6159C263.884 82.9057 264.028 83.2793 264.028 83.7367C264.028 84.1117 263.92 84.4469 263.704 84.7424C263.491 85.0378 263.192 85.2708 262.809 85.4412C262.425 85.6117 261.979 85.6969 261.471 85.6969C260.803 85.6969 260.251 85.552 259.813 85.2623C259.376 84.9725 259.099 84.5492 258.982 83.9924L259.937 83.7537C260.028 84.106 260.2 84.3702 260.452 84.5463C260.708 84.7225 261.042 84.8105 261.454 84.8105C261.923 84.8105 262.295 84.7111 262.57 84.5123C262.849 84.3105 262.988 84.0691 262.988 83.7878C262.988 83.5605 262.908 83.3702 262.749 83.2168C262.59 83.0605 262.346 82.9441 262.016 82.8674L260.925 82.6117C260.326 82.4696 259.886 82.2495 259.604 81.9512C259.326 81.65 259.187 81.2736 259.187 80.8219C259.187 80.4526 259.29 80.1259 259.498 79.8418C259.708 79.5577 259.994 79.3347 260.354 79.1728C260.718 79.0108 261.13 78.9299 261.59 78.9299C262.238 78.9299 262.746 79.0719 263.116 79.356C263.488 79.6401 263.752 80.0151 263.908 80.481ZM268.286 85.6969C267.655 85.6969 267.111 85.5577 266.654 85.2793C266.199 84.998 265.848 84.606 265.601 84.1032C265.357 83.5975 265.235 83.0094 265.235 82.339C265.235 81.6685 265.357 81.0776 265.601 80.5662C265.848 80.052 266.192 79.6515 266.632 79.3645C267.076 79.0748 267.593 78.9299 268.184 78.9299C268.525 78.9299 268.861 78.9867 269.194 79.1003C269.526 79.214 269.828 79.3986 270.101 79.6543C270.374 79.9071 270.591 80.2424 270.753 80.66C270.915 81.0776 270.996 81.5918 270.996 82.2026V82.6287H265.951V81.7594H269.973C269.973 81.3901 269.9 81.0605 269.752 80.7708C269.607 80.481 269.4 80.2523 269.13 80.0847C268.863 79.9171 268.547 79.8333 268.184 79.8333C267.783 79.8333 267.436 79.9327 267.144 80.1316C266.854 80.3276 266.631 80.5833 266.475 80.8986C266.319 81.214 266.24 81.552 266.24 81.9128V82.4924C266.24 82.9867 266.326 83.4057 266.496 83.7495C266.669 84.0904 266.909 84.3503 267.216 84.5293C267.523 84.7054 267.88 84.7935 268.286 84.7935C268.55 84.7935 268.789 84.7566 269.002 84.6827C269.218 84.606 269.404 84.4924 269.56 84.3418C269.716 84.1884 269.837 83.998 269.922 83.7708L270.894 84.0435C270.792 84.373 270.62 84.6628 270.378 84.9128C270.137 85.16 269.838 85.3532 269.483 85.4924C269.128 85.6287 268.729 85.6969 268.286 85.6969ZM277.162 80.481L276.259 80.7367C276.202 80.5861 276.118 80.4398 276.007 80.2978C275.9 80.1529 275.752 80.0336 275.564 79.9398C275.377 79.8461 275.137 79.7992 274.844 79.7992C274.444 79.7992 274.11 79.8915 273.843 80.0762C273.578 80.258 273.446 80.4895 273.446 80.7708C273.446 81.0208 273.537 81.2182 273.719 81.3631C273.901 81.508 274.185 81.6287 274.571 81.7253L275.543 81.964C276.128 82.106 276.564 82.3233 276.851 82.6159C277.138 82.9057 277.282 83.2793 277.282 83.7367C277.282 84.1117 277.174 84.4469 276.958 84.7424C276.745 85.0378 276.446 85.2708 276.063 85.4412C275.679 85.6117 275.233 85.6969 274.725 85.6969C274.057 85.6969 273.505 85.552 273.067 85.2623C272.63 84.9725 272.353 84.5492 272.236 83.9924L273.191 83.7537C273.282 84.106 273.453 84.3702 273.706 84.5463C273.962 84.7225 274.296 84.8105 274.708 84.8105C275.176 84.8105 275.549 84.7111 275.824 84.5123C276.103 84.3105 276.242 84.0691 276.242 83.7878C276.242 83.5605 276.162 83.3702 276.003 83.2168C275.844 83.0605 275.6 82.9441 275.27 82.8674L274.179 82.6117C273.58 82.4696 273.14 82.2495 272.858 81.9512C272.58 81.65 272.441 81.2736 272.441 80.8219C272.441 80.4526 272.544 80.1259 272.752 79.8418C272.962 79.5577 273.248 79.3347 273.608 79.1728C273.972 79.0108 274.384 78.9299 274.844 78.9299C275.492 78.9299 276 79.0719 276.37 79.356C276.742 79.6401 277.006 80.0151 277.162 80.481ZM284.83 85.6969C284.239 85.6969 283.72 85.5563 283.274 85.275C282.831 84.9938 282.484 84.6003 282.234 84.0946C281.987 83.589 281.864 82.998 281.864 82.3219C281.864 81.6401 281.987 81.0449 282.234 80.5364C282.484 80.0279 282.831 79.633 283.274 79.3517C283.72 79.0705 284.239 78.9299 284.83 78.9299C285.42 78.9299 285.938 79.0705 286.381 79.3517C286.827 79.633 287.173 80.0279 287.42 80.5364C287.67 81.0449 287.795 81.6401 287.795 82.3219C287.795 82.998 287.67 83.589 287.42 84.0946C287.173 84.6003 286.827 84.9938 286.381 85.275C285.938 85.5563 285.42 85.6969 284.83 85.6969ZM284.83 84.7935C285.278 84.7935 285.648 84.6784 285.938 84.4483C286.227 84.2182 286.442 83.9157 286.581 83.5407C286.72 83.1657 286.79 82.7594 286.79 82.3219C286.79 81.8844 286.72 81.4767 286.581 81.0989C286.442 80.7211 286.227 80.4157 285.938 80.1827C285.648 79.9498 285.278 79.8333 284.83 79.8333C284.381 79.8333 284.011 79.9498 283.722 80.1827C283.432 80.4157 283.217 80.7211 283.078 81.0989C282.939 81.4767 282.869 81.8844 282.869 82.3219C282.869 82.7594 282.939 83.1657 283.078 83.5407C283.217 83.9157 283.432 84.2182 283.722 84.4483C284.011 84.6784 284.381 84.7935 284.83 84.7935ZM290.336 81.623V85.5605H289.331V79.0151H290.302V80.0378H290.387C290.541 79.7054 290.774 79.4384 291.086 79.2367C291.399 79.0321 291.802 78.9299 292.297 78.9299C292.74 78.9299 293.127 79.0208 293.46 79.2026C293.792 79.3816 294.051 79.6543 294.235 80.0208C294.42 80.3844 294.512 80.8446 294.512 81.4015V85.5605H293.507V81.4696C293.507 80.9554 293.373 80.5549 293.106 80.2679C292.839 79.9782 292.473 79.8333 292.007 79.8333C291.686 79.8333 291.399 79.9029 291.146 80.0421C290.896 80.1813 290.699 80.3844 290.554 80.6515C290.409 80.9185 290.336 81.2424 290.336 81.623ZM73.5682 108.015C73.3977 108.015 73.2457 108.001 73.1122 107.972C72.9787 107.947 72.8864 107.921 72.8352 107.896L73.0909 107.009C73.3352 107.072 73.5511 107.095 73.7386 107.078C73.9261 107.061 74.0923 106.977 74.2372 106.826C74.3849 106.678 74.5199 106.438 74.642 106.106L74.8295 105.595L72.4091 99.0151H73.5L75.3068 104.231H75.375L77.1818 99.0151H78.2727L75.4943 106.515C75.3693 106.853 75.2145 107.133 75.0298 107.355C74.8452 107.579 74.6307 107.745 74.3864 107.853C74.1449 107.961 73.8722 108.015 73.5682 108.015ZM82.0249 105.697C81.4339 105.697 80.9155 105.556 80.4695 105.275C80.0263 104.994 79.6797 104.6 79.4297 104.095C79.1825 103.589 79.0589 102.998 79.0589 102.322C79.0589 101.64 79.1825 101.045 79.4297 100.536C79.6797 100.028 80.0263 99.633 80.4695 99.3517C80.9155 99.0705 81.4339 98.9299 82.0249 98.9299C82.6158 98.9299 83.1328 99.0705 83.576 99.3517C84.022 99.633 84.3686 100.028 84.6158 100.536C84.8658 101.045 84.9908 101.64 84.9908 102.322C84.9908 102.998 84.8658 103.589 84.6158 104.095C84.3686 104.6 84.022 104.994 83.576 105.275C83.1328 105.556 82.6158 105.697 82.0249 105.697ZM82.0249 104.794C82.4737 104.794 82.843 104.678 83.1328 104.448C83.4226 104.218 83.6371 103.916 83.7763 103.541C83.9155 103.166 83.9851 102.759 83.9851 102.322C83.9851 101.884 83.9155 101.477 83.7763 101.099C83.6371 100.721 83.4226 100.416 83.1328 100.183C82.843 99.9498 82.4737 99.8333 82.0249 99.8333C81.576 99.8333 81.2067 99.9498 80.9169 100.183C80.6271 100.416 80.4126 100.721 80.2734 101.099C80.1342 101.477 80.0646 101.884 80.0646 102.322C80.0646 102.759 80.1342 103.166 80.2734 103.541C80.4126 103.916 80.6271 104.218 80.9169 104.448C81.2067 104.678 81.576 104.794 82.0249 104.794ZM90.6509 102.884V99.0151H91.6566V105.561H90.6509V104.453H90.5827C90.4293 104.785 90.1907 105.068 89.8668 105.301C89.543 105.531 89.1339 105.646 88.6396 105.646C88.2305 105.646 87.8668 105.556 87.5487 105.377C87.2305 105.195 86.9805 104.923 86.7987 104.559C86.6168 104.193 86.5259 103.731 86.5259 103.174V99.0151H87.5316V103.106C87.5316 103.583 87.6651 103.964 87.9322 104.248C88.2021 104.532 88.5458 104.674 88.9634 104.674C89.2134 104.674 89.4677 104.61 89.7262 104.482C89.9876 104.355 90.2063 104.159 90.3825 103.894C90.5614 103.63 90.6509 103.294 90.6509 102.884ZM93.4986 105.561V99.0151H94.4702V100.004H94.5384C94.6577 99.6799 94.8736 99.4171 95.1861 99.2154C95.4986 99.0137 95.8509 98.9128 96.2429 98.9128C96.3168 98.9128 96.4091 98.9142 96.5199 98.9171C96.6307 98.9199 96.7145 98.9242 96.7713 98.9299V99.9526C96.7372 99.9441 96.6591 99.9313 96.5369 99.9142C96.4176 99.8944 96.2912 99.8844 96.1577 99.8844C95.8395 99.8844 95.5554 99.9512 95.3054 100.085C95.0582 100.215 94.8622 100.397 94.7173 100.63C94.5753 100.86 94.5043 101.123 94.5043 101.419V105.561H93.4986ZM104.185 99.0151V99.8674H100.793V99.0151H104.185ZM101.782 97.4469H102.787V103.686C102.787 103.97 102.828 104.183 102.911 104.325C102.996 104.464 103.104 104.558 103.235 104.606C103.368 104.651 103.509 104.674 103.657 104.674C103.767 104.674 103.858 104.669 103.929 104.657C104 104.643 104.057 104.632 104.1 104.623L104.304 105.526C104.236 105.552 104.141 105.578 104.019 105.603C103.897 105.632 103.742 105.646 103.554 105.646C103.27 105.646 102.992 105.585 102.719 105.463C102.449 105.34 102.225 105.154 102.046 104.904C101.87 104.654 101.782 104.339 101.782 103.958V97.4469ZM108.287 105.697C107.696 105.697 107.177 105.556 106.731 105.275C106.288 104.994 105.941 104.6 105.691 104.095C105.444 103.589 105.321 102.998 105.321 102.322C105.321 101.64 105.444 101.045 105.691 100.536C105.941 100.028 106.288 99.633 106.731 99.3517C107.177 99.0705 107.696 98.9299 108.287 98.9299C108.877 98.9299 109.395 99.0705 109.838 99.3517C110.284 99.633 110.63 100.028 110.877 100.536C111.127 101.045 111.252 101.64 111.252 102.322C111.252 102.998 111.127 103.589 110.877 104.095C110.63 104.6 110.284 104.994 109.838 105.275C109.395 105.556 108.877 105.697 108.287 105.697ZM108.287 104.794C108.735 104.794 109.105 104.678 109.395 104.448C109.684 104.218 109.899 103.916 110.038 103.541C110.177 103.166 110.247 102.759 110.247 102.322C110.247 101.884 110.177 101.477 110.038 101.099C109.899 100.721 109.684 100.416 109.395 100.183C109.105 99.9498 108.735 99.8333 108.287 99.8333C107.838 99.8333 107.468 99.9498 107.179 100.183C106.889 100.416 106.674 100.721 106.535 101.099C106.396 101.477 106.326 101.884 106.326 102.322C106.326 102.759 106.396 103.166 106.535 103.541C106.674 103.916 106.889 104.218 107.179 104.448C107.468 104.678 107.838 104.794 108.287 104.794ZM115.634 99.0151V99.8674H112.242V99.0151H115.634ZM113.231 97.4469H114.237V103.686C114.237 103.97 114.278 104.183 114.36 104.325C114.445 104.464 114.553 104.558 114.684 104.606C114.817 104.651 114.958 104.674 115.106 104.674C115.217 104.674 115.308 104.669 115.379 104.657C115.45 104.643 115.506 104.632 115.549 104.623L115.754 105.526C115.685 105.552 115.59 105.578 115.468 105.603C115.346 105.632 115.191 105.646 115.004 105.646C114.719 105.646 114.441 105.585 114.168 105.463C113.898 105.34 113.674 105.154 113.495 104.904C113.319 104.654 113.231 104.339 113.231 103.958V97.4469ZM119.073 105.714C118.658 105.714 118.282 105.636 117.944 105.48C117.606 105.32 117.337 105.092 117.138 104.794C116.94 104.492 116.84 104.129 116.84 103.703C116.84 103.328 116.914 103.024 117.062 102.791C117.21 102.555 117.407 102.37 117.654 102.237C117.901 102.103 118.174 102.004 118.472 101.938C118.773 101.87 119.076 101.816 119.38 101.776C119.778 101.725 120.1 101.687 120.347 101.661C120.597 101.633 120.779 101.586 120.893 101.521C121.009 101.455 121.067 101.342 121.067 101.18V101.146C121.067 100.725 120.952 100.399 120.722 100.166C120.495 99.9327 120.15 99.8162 119.687 99.8162C119.207 99.8162 118.83 99.9213 118.558 100.132C118.285 100.342 118.093 100.566 117.982 100.805L117.028 100.464C117.198 100.066 117.425 99.7566 117.71 99.535C117.996 99.3105 118.309 99.1543 118.647 99.0662C118.988 98.9753 119.323 98.9299 119.653 98.9299C119.863 98.9299 120.104 98.9554 120.377 99.0066C120.653 99.0549 120.918 99.1557 121.174 99.3091C121.433 99.4625 121.647 99.6941 121.817 100.004C121.988 100.313 122.073 100.728 122.073 101.248V105.561H121.067V104.674H121.016C120.948 104.816 120.835 104.968 120.675 105.13C120.516 105.292 120.305 105.43 120.04 105.544C119.776 105.657 119.454 105.714 119.073 105.714ZM119.227 104.811C119.624 104.811 119.96 104.732 120.232 104.576C120.508 104.42 120.715 104.218 120.854 103.971C120.996 103.724 121.067 103.464 121.067 103.191V102.271C121.025 102.322 120.931 102.369 120.786 102.411C120.644 102.451 120.479 102.487 120.292 102.518C120.107 102.546 119.927 102.572 119.751 102.595C119.577 102.615 119.437 102.632 119.329 102.646C119.067 102.68 118.823 102.735 118.596 102.812C118.371 102.886 118.19 102.998 118.05 103.149C117.914 103.296 117.846 103.498 117.846 103.754C117.846 104.103 117.975 104.367 118.234 104.546C118.495 104.722 118.826 104.811 119.227 104.811ZM124.914 96.8333V105.561H123.909V96.8333H124.914ZM130.131 108.015V99.0151H131.103V100.055H131.222C131.296 99.9412 131.398 99.7963 131.529 99.6202C131.663 99.4412 131.853 99.2821 132.1 99.1429C132.35 99.0009 132.688 98.9299 133.114 98.9299C133.665 98.9299 134.151 99.0676 134.572 99.3432C134.992 99.6188 135.32 100.009 135.556 100.515C135.792 101.021 135.91 101.617 135.91 102.305C135.91 102.998 135.792 103.599 135.556 104.107C135.32 104.613 134.994 105.005 134.576 105.284C134.158 105.559 133.677 105.697 133.131 105.697C132.711 105.697 132.374 105.627 132.121 105.488C131.869 105.346 131.674 105.186 131.538 105.007C131.401 104.825 131.296 104.674 131.222 104.555H131.137V108.015H130.131ZM131.12 102.288C131.12 102.782 131.192 103.218 131.337 103.596C131.482 103.971 131.694 104.265 131.972 104.478C132.251 104.688 132.592 104.794 132.995 104.794C133.415 104.794 133.766 104.683 134.048 104.461C134.332 104.237 134.545 103.936 134.687 103.558C134.832 103.177 134.904 102.754 134.904 102.288C134.904 101.828 134.833 101.413 134.691 101.044C134.552 100.671 134.34 100.377 134.056 100.161C133.775 99.9426 133.421 99.8333 132.995 99.8333C132.586 99.8333 132.242 99.937 131.964 100.144C131.685 100.349 131.475 100.636 131.333 101.005C131.191 101.372 131.12 101.799 131.12 102.288ZM139.37 105.714C138.955 105.714 138.579 105.636 138.241 105.48C137.903 105.32 137.634 105.092 137.435 104.794C137.237 104.492 137.137 104.129 137.137 103.703C137.137 103.328 137.211 103.024 137.359 102.791C137.506 102.555 137.704 102.37 137.951 102.237C138.198 102.103 138.471 102.004 138.769 101.938C139.07 101.87 139.373 101.816 139.677 101.776C140.075 101.725 140.397 101.687 140.644 101.661C140.894 101.633 141.076 101.586 141.19 101.521C141.306 101.455 141.364 101.342 141.364 101.18V101.146C141.364 100.725 141.249 100.399 141.019 100.166C140.792 99.9327 140.447 99.8162 139.984 99.8162C139.504 99.8162 139.127 99.9213 138.854 100.132C138.582 100.342 138.39 100.566 138.279 100.805L137.325 100.464C137.495 100.066 137.722 99.7566 138.006 99.535C138.293 99.3105 138.606 99.1543 138.944 99.0662C139.285 98.9753 139.62 98.9299 139.95 98.9299C140.16 98.9299 140.401 98.9554 140.674 99.0066C140.95 99.0549 141.215 99.1557 141.471 99.3091C141.729 99.4625 141.944 99.6941 142.114 100.004C142.285 100.313 142.37 100.728 142.37 101.248V105.561H141.364V104.674H141.313C141.245 104.816 141.131 104.968 140.972 105.13C140.813 105.292 140.602 105.43 140.337 105.544C140.073 105.657 139.751 105.714 139.37 105.714ZM139.523 104.811C139.921 104.811 140.256 104.732 140.529 104.576C140.805 104.42 141.012 104.218 141.151 103.971C141.293 103.724 141.364 103.464 141.364 103.191V102.271C141.322 102.322 141.228 102.369 141.083 102.411C140.941 102.451 140.776 102.487 140.589 102.518C140.404 102.546 140.224 102.572 140.048 102.595C139.874 102.615 139.734 102.632 139.626 102.646C139.364 102.68 139.12 102.735 138.893 102.812C138.668 102.886 138.487 102.998 138.347 103.149C138.211 103.296 138.143 103.498 138.143 103.754C138.143 104.103 138.272 104.367 138.531 104.546C138.792 104.722 139.123 104.811 139.523 104.811ZM144.619 108.015C144.449 108.015 144.297 108.001 144.163 107.972C144.029 107.947 143.937 107.921 143.886 107.896L144.142 107.009C144.386 107.072 144.602 107.095 144.789 107.078C144.977 107.061 145.143 106.977 145.288 106.826C145.436 106.678 145.571 106.438 145.693 106.106L145.88 105.595L143.46 99.0151H144.551L146.358 104.231H146.426L148.233 99.0151H149.324L146.545 106.515C146.42 106.853 146.265 107.133 146.081 107.355C145.896 107.579 145.681 107.745 145.437 107.853C145.196 107.961 144.923 108.015 144.619 108.015ZM152.378 105.714C151.963 105.714 151.587 105.636 151.249 105.48C150.911 105.32 150.642 105.092 150.443 104.794C150.244 104.492 150.145 104.129 150.145 103.703C150.145 103.328 150.219 103.024 150.366 102.791C150.514 102.555 150.712 102.37 150.959 102.237C151.206 102.103 151.479 102.004 151.777 101.938C152.078 101.87 152.381 101.816 152.685 101.776C153.082 101.725 153.405 101.687 153.652 101.661C153.902 101.633 154.084 101.586 154.197 101.521C154.314 101.455 154.372 101.342 154.372 101.18V101.146C154.372 100.725 154.257 100.399 154.027 100.166C153.8 99.9327 153.455 99.8162 152.991 99.8162C152.511 99.8162 152.135 99.9213 151.862 100.132C151.589 100.342 151.398 100.566 151.287 100.805L150.332 100.464C150.503 100.066 150.73 99.7566 151.014 99.535C151.301 99.3105 151.614 99.1543 151.952 99.0662C152.293 98.9753 152.628 98.9299 152.957 98.9299C153.168 98.9299 153.409 98.9554 153.682 99.0066C153.957 99.0549 154.223 99.1557 154.479 99.3091C154.737 99.4625 154.952 99.6941 155.122 100.004C155.293 100.313 155.378 100.728 155.378 101.248V105.561H154.372V104.674H154.321C154.253 104.816 154.139 104.968 153.98 105.13C153.821 105.292 153.609 105.43 153.345 105.544C153.081 105.657 152.759 105.714 152.378 105.714ZM152.531 104.811C152.929 104.811 153.264 104.732 153.537 104.576C153.813 104.42 154.02 104.218 154.159 103.971C154.301 103.724 154.372 103.464 154.372 103.191V102.271C154.33 102.322 154.236 102.369 154.091 102.411C153.949 102.451 153.784 102.487 153.597 102.518C153.412 102.546 153.232 102.572 153.055 102.595C152.882 102.615 152.741 102.632 152.634 102.646C152.372 102.68 152.128 102.735 151.901 102.812C151.676 102.886 151.494 102.998 151.355 103.149C151.219 103.296 151.151 103.498 151.151 103.754C151.151 104.103 151.28 104.367 151.538 104.546C151.8 104.722 152.131 104.811 152.531 104.811ZM157.35 105.561V96.8333H158.355V100.055H158.441C158.515 99.9412 158.617 99.7963 158.748 99.6202C158.881 99.4412 159.071 99.2821 159.319 99.1429C159.569 99.0009 159.907 98.9299 160.333 98.9299C160.884 98.9299 161.37 99.0676 161.79 99.3432C162.211 99.6188 162.539 100.009 162.775 100.515C163.01 101.021 163.128 101.617 163.128 102.305C163.128 102.998 163.01 103.599 162.775 104.107C162.539 104.613 162.212 105.005 161.794 105.284C161.377 105.559 160.895 105.697 160.35 105.697C159.929 105.697 159.593 105.627 159.34 105.488C159.087 105.346 158.892 105.186 158.756 105.007C158.62 104.825 158.515 104.674 158.441 104.555H158.321V105.561H157.35ZM158.338 102.288C158.338 102.782 158.411 103.218 158.556 103.596C158.701 103.971 158.912 104.265 159.191 104.478C159.469 104.688 159.81 104.794 160.213 104.794C160.634 104.794 160.985 104.683 161.266 104.461C161.55 104.237 161.763 103.936 161.905 103.558C162.05 103.177 162.123 102.754 162.123 102.288C162.123 101.828 162.051 101.413 161.909 101.044C161.77 100.671 161.559 100.377 161.275 100.161C160.993 99.9426 160.64 99.8333 160.213 99.8333C159.804 99.8333 159.461 99.937 159.182 100.144C158.904 100.349 158.694 100.636 158.551 101.005C158.409 101.372 158.338 101.799 158.338 102.288ZM165.672 96.8333V105.561H164.667V96.8333H165.672ZM170.259 105.697C169.628 105.697 169.084 105.558 168.626 105.279C168.172 104.998 167.821 104.606 167.574 104.103C167.33 103.597 167.207 103.009 167.207 102.339C167.207 101.669 167.33 101.078 167.574 100.566C167.821 100.052 168.165 99.6515 168.605 99.3645C169.048 99.0748 169.565 98.9299 170.156 98.9299C170.497 98.9299 170.834 98.9867 171.166 99.1003C171.499 99.214 171.801 99.3986 172.074 99.6543C172.347 99.9071 172.564 100.242 172.726 100.66C172.888 101.078 172.969 101.592 172.969 102.203V102.629H167.923V101.759H171.946C171.946 101.39 171.872 101.061 171.724 100.771C171.58 100.481 171.372 100.252 171.102 100.085C170.835 99.9171 170.52 99.8333 170.156 99.8333C169.756 99.8333 169.409 99.9327 169.116 100.132C168.827 100.328 168.604 100.583 168.447 100.899C168.291 101.214 168.213 101.552 168.213 101.913V102.492C168.213 102.987 168.298 103.406 168.469 103.749C168.642 104.09 168.882 104.35 169.189 104.529C169.496 104.705 169.852 104.794 170.259 104.794C170.523 104.794 170.761 104.757 170.974 104.683C171.19 104.606 171.376 104.492 171.533 104.342C171.689 104.188 171.81 103.998 171.895 103.771L172.866 104.044C172.764 104.373 172.592 104.663 172.351 104.913C172.109 105.16 171.811 105.353 171.456 105.492C171.101 105.629 170.702 105.697 170.259 105.697ZM179.8 105.714C179.385 105.714 179.009 105.636 178.67 105.48C178.332 105.32 178.064 105.092 177.865 104.794C177.666 104.492 177.567 104.129 177.567 103.703C177.567 103.328 177.641 103.024 177.788 102.791C177.936 102.555 178.134 102.37 178.381 102.237C178.628 102.103 178.901 102.004 179.199 101.938C179.5 101.87 179.803 101.816 180.107 101.776C180.504 101.725 180.827 101.687 181.074 101.661C181.324 101.633 181.506 101.586 181.619 101.521C181.736 101.455 181.794 101.342 181.794 101.18V101.146C181.794 100.725 181.679 100.399 181.449 100.166C181.222 99.9327 180.876 99.8162 180.413 99.8162C179.933 99.8162 179.557 99.9213 179.284 100.132C179.011 100.342 178.82 100.566 178.709 100.805L177.754 100.464C177.925 100.066 178.152 99.7566 178.436 99.535C178.723 99.3105 179.036 99.1543 179.374 99.0662C179.714 98.9753 180.05 98.9299 180.379 98.9299C180.589 98.9299 180.831 98.9554 181.104 99.0066C181.379 99.0549 181.645 99.1557 181.901 99.3091C182.159 99.4625 182.374 99.6941 182.544 100.004C182.714 100.313 182.8 100.728 182.8 101.248V105.561H181.794V104.674H181.743C181.675 104.816 181.561 104.968 181.402 105.13C181.243 105.292 181.031 105.43 180.767 105.544C180.503 105.657 180.18 105.714 179.8 105.714ZM179.953 104.811C180.351 104.811 180.686 104.732 180.959 104.576C181.234 104.42 181.442 104.218 181.581 103.971C181.723 103.724 181.794 103.464 181.794 103.191V102.271C181.751 102.322 181.658 102.369 181.513 102.411C181.371 102.451 181.206 102.487 181.018 102.518C180.834 102.546 180.653 102.572 180.477 102.595C180.304 102.615 180.163 102.632 180.055 102.646C179.794 102.68 179.55 102.735 179.322 102.812C179.098 102.886 178.916 102.998 178.777 103.149C178.641 103.296 178.572 103.498 178.572 103.754C178.572 104.103 178.702 104.367 178.96 104.546C179.222 104.722 179.553 104.811 179.953 104.811ZM184.635 105.561V99.0151H185.607V100.038H185.692C185.828 99.6884 186.049 99.4171 186.353 99.2239C186.657 99.0279 187.022 98.9299 187.448 98.9299C187.88 98.9299 188.239 99.0279 188.526 99.2239C188.816 99.4171 189.042 99.6884 189.203 100.038H189.272C189.439 99.6998 189.691 99.4313 190.026 99.2324C190.361 99.0307 190.763 98.9299 191.232 98.9299C191.817 98.9299 192.296 99.1131 192.668 99.4796C193.04 99.8432 193.226 100.41 193.226 101.18V105.561H192.221V101.18C192.221 100.697 192.088 100.352 191.824 100.144C191.56 99.937 191.249 99.8333 190.891 99.8333C190.431 99.8333 190.074 99.9725 189.821 100.251C189.569 100.526 189.442 100.876 189.442 101.299V105.561H188.419V101.078C188.419 100.705 188.299 100.406 188.057 100.178C187.816 99.9483 187.505 99.8333 187.124 99.8333C186.863 99.8333 186.618 99.9029 186.391 100.042C186.167 100.181 185.985 100.374 185.846 100.622C185.709 100.866 185.641 101.149 185.641 101.47V105.561H184.635ZM197.724 105.697C197.133 105.697 196.615 105.556 196.169 105.275C195.725 104.994 195.379 104.6 195.129 104.095C194.882 103.589 194.758 102.998 194.758 102.322C194.758 101.64 194.882 101.045 195.129 100.536C195.379 100.028 195.725 99.633 196.169 99.3517C196.615 99.0705 197.133 98.9299 197.724 98.9299C198.315 98.9299 198.832 99.0705 199.275 99.3517C199.721 99.633 200.068 100.028 200.315 100.536C200.565 101.045 200.69 101.64 200.69 102.322C200.69 102.998 200.565 103.589 200.315 104.095C200.068 104.6 199.721 104.994 199.275 105.275C198.832 105.556 198.315 105.697 197.724 105.697ZM197.724 104.794C198.173 104.794 198.542 104.678 198.832 104.448C199.122 104.218 199.336 103.916 199.475 103.541C199.615 103.166 199.684 102.759 199.684 102.322C199.684 101.884 199.615 101.477 199.475 101.099C199.336 100.721 199.122 100.416 198.832 100.183C198.542 99.9498 198.173 99.8333 197.724 99.8333C197.275 99.8333 196.906 99.9498 196.616 100.183C196.326 100.416 196.112 100.721 195.973 101.099C195.833 101.477 195.764 101.884 195.764 102.322C195.764 102.759 195.833 103.166 195.973 103.541C196.112 103.916 196.326 104.218 196.616 104.448C196.906 104.678 197.275 104.794 197.724 104.794ZM206.35 102.884V99.0151H207.356V105.561H206.35V104.453H206.282C206.129 104.785 205.89 105.068 205.566 105.301C205.242 105.531 204.833 105.646 204.339 105.646C203.93 105.646 203.566 105.556 203.248 105.377C202.93 105.195 202.68 104.923 202.498 104.559C202.316 104.193 202.225 103.731 202.225 103.174V99.0151H203.231V103.106C203.231 103.583 203.364 103.964 203.631 104.248C203.901 104.532 204.245 104.674 204.663 104.674C204.913 104.674 205.167 104.61 205.425 104.482C205.687 104.355 205.906 104.159 206.082 103.894C206.261 103.63 206.35 103.294 206.35 102.884ZM210.203 101.623V105.561H209.198V99.0151H210.169V100.038H210.255C210.408 99.7054 210.641 99.4384 210.953 99.2367C211.266 99.0321 211.669 98.9299 212.164 98.9299C212.607 98.9299 212.995 99.0208 213.327 99.2026C213.659 99.3816 213.918 99.6543 214.103 100.021C214.287 100.384 214.38 100.845 214.38 101.401V105.561H213.374V101.47C213.374 100.955 213.24 100.555 212.973 100.268C212.706 99.9782 212.34 99.8333 211.874 99.8333C211.553 99.8333 211.266 99.9029 211.013 100.042C210.763 100.181 210.566 100.384 210.421 100.651C210.276 100.919 210.203 101.242 210.203 101.623ZM219.064 99.0151V99.8674H215.672V99.0151H219.064ZM216.661 97.4469H217.666V103.686C217.666 103.97 217.707 104.183 217.79 104.325C217.875 104.464 217.983 104.558 218.114 104.606C218.247 104.651 218.388 104.674 218.536 104.674C218.646 104.674 218.737 104.669 218.808 104.657C218.879 104.643 218.936 104.632 218.979 104.623L219.183 105.526C219.115 105.552 219.02 105.578 218.898 105.603C218.776 105.632 218.621 105.646 218.433 105.646C218.149 105.646 217.871 105.585 217.598 105.463C217.328 105.34 217.104 105.154 216.925 104.904C216.749 104.654 216.661 104.339 216.661 103.958V97.4469Z" fill="#333333"/>
<path d="M380.247 41V32.2727H383.196C383.88 32.2727 384.44 32.3963 384.875 32.6435C385.312 32.8878 385.636 33.2188 385.846 33.6364C386.056 34.054 386.162 34.5199 386.162 35.0341C386.162 35.5483 386.056 36.0156 385.846 36.4361C385.639 36.8565 385.318 37.1918 384.883 37.4418C384.448 37.6889 383.892 37.8125 383.213 37.8125H381.099V36.875H383.179C383.647 36.875 384.024 36.794 384.308 36.6321C384.592 36.4702 384.798 36.2514 384.926 35.9759C385.056 35.6974 385.122 35.3835 385.122 35.0341C385.122 34.6847 385.056 34.3722 384.926 34.0966C384.798 33.821 384.591 33.6051 384.304 33.4489C384.017 33.2898 383.636 33.2102 383.162 33.2102H381.304V41H380.247ZM389.654 41.1534C389.239 41.1534 388.863 41.0753 388.524 40.919C388.186 40.7599 387.918 40.5312 387.719 40.233C387.52 39.9318 387.421 39.5682 387.421 39.142C387.421 38.767 387.495 38.4631 387.642 38.2301C387.79 37.9943 387.988 37.8097 388.235 37.6761C388.482 37.5426 388.755 37.4432 389.053 37.3778C389.354 37.3097 389.657 37.2557 389.961 37.2159C390.358 37.1648 390.681 37.1264 390.928 37.1009C391.178 37.0724 391.36 37.0256 391.473 36.9602C391.59 36.8949 391.648 36.7812 391.648 36.6193V36.5852C391.648 36.1648 391.533 35.8381 391.303 35.6051C391.076 35.3722 390.73 35.2557 390.267 35.2557C389.787 35.2557 389.411 35.3608 389.138 35.571C388.865 35.7812 388.674 36.0057 388.563 36.2443L387.608 35.9034C387.779 35.5057 388.006 35.196 388.29 34.9744C388.577 34.75 388.89 34.5937 389.228 34.5057C389.568 34.4148 389.904 34.3693 390.233 34.3693C390.443 34.3693 390.685 34.3949 390.958 34.446C391.233 34.4943 391.499 34.5952 391.755 34.7486C392.013 34.902 392.228 35.1335 392.398 35.4432C392.568 35.7528 392.654 36.1676 392.654 36.6875V41H391.648V40.1136H391.597C391.529 40.2557 391.415 40.4077 391.256 40.5696C391.097 40.7315 390.885 40.8693 390.621 40.983C390.357 41.0966 390.034 41.1534 389.654 41.1534ZM389.807 40.25C390.205 40.25 390.54 40.1719 390.813 40.0156C391.088 39.8594 391.296 39.6577 391.435 39.4105C391.577 39.1634 391.648 38.9034 391.648 38.6307V37.7102C391.605 37.7614 391.512 37.8082 391.367 37.8509C391.225 37.8906 391.06 37.9261 390.872 37.9574C390.688 37.9858 390.507 38.0114 390.331 38.0341C390.158 38.054 390.017 38.071 389.909 38.0852C389.648 38.1193 389.404 38.1747 389.176 38.2514C388.952 38.3253 388.77 38.4375 388.631 38.5881C388.495 38.7358 388.426 38.9375 388.426 39.1932C388.426 39.5426 388.556 39.8068 388.814 39.9858C389.076 40.1619 389.407 40.25 389.807 40.25ZM399.126 35.9205L398.222 36.1761C398.165 36.0256 398.082 35.8793 397.971 35.7372C397.863 35.5923 397.715 35.473 397.528 35.3793C397.34 35.2855 397.1 35.2386 396.807 35.2386C396.407 35.2386 396.073 35.331 395.806 35.5156C395.542 35.6974 395.41 35.929 395.41 36.2102C395.41 36.4602 395.501 36.6577 395.682 36.8026C395.864 36.9474 396.148 37.0682 396.535 37.1648L397.506 37.4034C398.092 37.5455 398.528 37.7628 398.815 38.0554C399.102 38.3452 399.245 38.7187 399.245 39.1761C399.245 39.5511 399.137 39.8864 398.921 40.1818C398.708 40.4773 398.41 40.7102 398.026 40.8807C397.643 41.0511 397.197 41.1364 396.688 41.1364C396.021 41.1364 395.468 40.9915 395.03 40.7017C394.593 40.4119 394.316 39.9886 394.2 39.4318L395.154 39.1932C395.245 39.5455 395.417 39.8097 395.67 39.9858C395.925 40.1619 396.259 40.25 396.671 40.25C397.14 40.25 397.512 40.1506 397.788 39.9517C398.066 39.75 398.205 39.5085 398.205 39.2273C398.205 39 398.126 38.8097 397.967 38.6562C397.807 38.5 397.563 38.3835 397.234 38.3068L396.143 38.0511C395.543 37.9091 395.103 37.6889 394.822 37.3906C394.543 37.0895 394.404 36.7131 394.404 36.2614C394.404 35.892 394.508 35.5653 394.715 35.2812C394.925 34.9972 395.211 34.7741 395.572 34.6122C395.935 34.4503 396.347 34.3693 396.807 34.3693C397.455 34.3693 397.964 34.5114 398.333 34.7955C398.705 35.0795 398.969 35.4545 399.126 35.9205ZM405.395 35.9205L404.492 36.1761C404.435 36.0256 404.351 35.8793 404.24 35.7372C404.132 35.5923 403.985 35.473 403.797 35.3793C403.61 35.2855 403.37 35.2386 403.077 35.2386C402.676 35.2386 402.343 35.331 402.076 35.5156C401.811 35.6974 401.679 35.929 401.679 36.2102C401.679 36.4602 401.77 36.6577 401.952 36.8026C402.134 36.9474 402.418 37.0682 402.804 37.1648L403.776 37.4034C404.361 37.5455 404.797 37.7628 405.084 38.0554C405.371 38.3452 405.515 38.7187 405.515 39.1761C405.515 39.5511 405.407 39.8864 405.191 40.1818C404.978 40.4773 404.679 40.7102 404.296 40.8807C403.912 41.0511 403.466 41.1364 402.958 41.1364C402.29 41.1364 401.738 40.9915 401.3 40.7017C400.863 40.4119 400.586 39.9886 400.469 39.4318L401.424 39.1932C401.515 39.5455 401.686 39.8097 401.939 39.9858C402.195 40.1619 402.529 40.25 402.941 40.25C403.409 40.25 403.782 40.1506 404.057 39.9517C404.336 39.75 404.475 39.5085 404.475 39.2273C404.475 39 404.395 38.8097 404.236 38.6562C404.077 38.5 403.833 38.3835 403.503 38.3068L402.412 38.0511C401.813 37.9091 401.372 37.6889 401.091 37.3906C400.813 37.0895 400.674 36.7131 400.674 36.2614C400.674 35.892 400.777 35.5653 400.985 35.2812C401.195 34.9972 401.48 34.7741 401.841 34.6122C402.205 34.4503 402.617 34.3693 403.077 34.3693C403.725 34.3693 404.233 34.5114 404.603 34.7955C404.975 35.0795 405.239 35.4545 405.395 35.9205ZM409.773 41.1364C409.142 41.1364 408.598 40.9972 408.141 40.7188C407.686 40.4375 407.335 40.0455 407.088 39.5426C406.844 39.0369 406.722 38.4489 406.722 37.7784C406.722 37.108 406.844 36.517 407.088 36.0057C407.335 35.4915 407.679 35.0909 408.119 34.804C408.562 34.5142 409.08 34.3693 409.67 34.3693C410.011 34.3693 410.348 34.4261 410.68 34.5398C411.013 34.6534 411.315 34.8381 411.588 35.0938C411.861 35.3466 412.078 35.6818 412.24 36.0994C412.402 36.517 412.483 37.0312 412.483 37.642V38.0682H407.437V37.1989H411.46C411.46 36.8295 411.386 36.5 411.239 36.2102C411.094 35.9205 410.886 35.6918 410.616 35.5241C410.349 35.3565 410.034 35.2727 409.67 35.2727C409.27 35.2727 408.923 35.3722 408.631 35.571C408.341 35.767 408.118 36.0227 407.962 36.3381C407.805 36.6534 407.727 36.9915 407.727 37.3523V37.9318C407.727 38.4261 407.812 38.8452 407.983 39.1889C408.156 39.5298 408.396 39.7898 408.703 39.9688C409.01 40.1449 409.366 40.233 409.773 40.233C410.037 40.233 410.276 40.196 410.489 40.1222C410.705 40.0455 410.891 39.9318 411.047 39.7812C411.203 39.6278 411.324 39.4375 411.409 39.2102L412.381 39.483C412.278 39.8125 412.106 40.1023 411.865 40.3523C411.624 40.5994 411.325 40.7926 410.97 40.9318C410.615 41.0682 410.216 41.1364 409.773 41.1364ZM418.649 35.9205L417.746 36.1761C417.689 36.0256 417.605 35.8793 417.494 35.7372C417.386 35.5923 417.239 35.473 417.051 35.3793C416.864 35.2855 416.624 35.2386 416.331 35.2386C415.93 35.2386 415.597 35.331 415.33 35.5156C415.065 35.6974 414.933 35.929 414.933 36.2102C414.933 36.4602 415.024 36.6577 415.206 36.8026C415.388 36.9474 415.672 37.0682 416.058 37.1648L417.03 37.4034C417.615 37.5455 418.051 37.7628 418.338 38.0554C418.625 38.3452 418.768 38.7187 418.768 39.1761C418.768 39.5511 418.66 39.8864 418.445 40.1818C418.231 40.4773 417.933 40.7102 417.55 40.8807C417.166 41.0511 416.72 41.1364 416.212 41.1364C415.544 41.1364 414.991 40.9915 414.554 40.7017C414.116 40.4119 413.839 39.9886 413.723 39.4318L414.678 39.1932C414.768 39.5455 414.94 39.8097 415.193 39.9858C415.449 40.1619 415.783 40.25 416.195 40.25C416.663 40.25 417.035 40.1506 417.311 39.9517C417.589 39.75 417.729 39.5085 417.729 39.2273C417.729 39 417.649 38.8097 417.49 38.6562C417.331 38.5 417.087 38.3835 416.757 38.3068L415.666 38.0511C415.067 37.9091 414.626 37.6889 414.345 37.3906C414.067 37.0895 413.928 36.7131 413.928 36.2614C413.928 35.892 414.031 35.5653 414.239 35.2812C414.449 34.9972 414.734 34.7741 415.095 34.6122C415.459 34.4503 415.871 34.3693 416.331 34.3693C416.979 34.3693 417.487 34.5114 417.856 34.7955C418.229 35.0795 418.493 35.4545 418.649 35.9205ZM424.663 32.2727V41H423.657V32.2727H424.663ZM429.249 41.1364C428.619 41.1364 428.075 40.9972 427.617 40.7188C427.163 40.4375 426.812 40.0455 426.565 39.5426C426.32 39.0369 426.198 38.4489 426.198 37.7784C426.198 37.108 426.32 36.517 426.565 36.0057C426.812 35.4915 427.155 35.0909 427.596 34.804C428.039 34.5142 428.556 34.3693 429.147 34.3693C429.488 34.3693 429.825 34.4261 430.157 34.5398C430.489 34.6534 430.792 34.8381 431.065 35.0938C431.337 35.3466 431.555 35.6818 431.717 36.0994C431.879 36.517 431.959 37.0312 431.959 37.642V38.0682H426.914V37.1989H430.937C430.937 36.8295 430.863 36.5 430.715 36.2102C430.57 35.9205 430.363 35.6918 430.093 35.5241C429.826 35.3565 429.511 35.2727 429.147 35.2727C428.746 35.2727 428.4 35.3722 428.107 35.571C427.817 35.767 427.594 36.0227 427.438 36.3381C427.282 36.6534 427.204 36.9915 427.204 37.3523V37.9318C427.204 38.4261 427.289 38.8452 427.459 39.1889C427.633 39.5298 427.873 39.7898 428.18 39.9688C428.486 40.1449 428.843 40.233 429.249 40.233C429.513 40.233 429.752 40.196 429.965 40.1222C430.181 40.0455 430.367 39.9318 430.523 39.7812C430.68 39.6278 430.8 39.4375 430.886 39.2102L431.857 39.483C431.755 39.8125 431.583 40.1023 431.342 40.3523C431.1 40.5994 430.802 40.7926 430.447 40.9318C430.092 41.0682 429.692 41.1364 429.249 41.1364ZM436.404 34.4545V35.3068H432.876V34.4545H436.404ZM433.932 41V33.5511C433.932 33.1761 434.021 32.8636 434.197 32.6136C434.373 32.3636 434.602 32.1761 434.883 32.0511C435.164 31.9261 435.461 31.8636 435.773 31.8636C436.021 31.8636 436.222 31.8835 436.379 31.9233C436.535 31.9631 436.651 32 436.728 32.0341L436.438 32.9034C436.387 32.8864 436.316 32.8651 436.225 32.8395C436.137 32.8139 436.021 32.8011 435.876 32.8011C435.543 32.8011 435.303 32.8849 435.155 33.0526C435.011 33.2202 434.938 33.4659 434.938 33.7898V41H433.932ZM440.66 34.4545V35.3068H437.268V34.4545H440.66ZM438.257 32.8864H439.262V39.125C439.262 39.4091 439.304 39.6222 439.386 39.7642C439.471 39.9034 439.579 39.9972 439.71 40.0455C439.843 40.0909 439.984 40.1136 440.132 40.1136C440.242 40.1136 440.333 40.108 440.404 40.0966C440.475 40.0824 440.532 40.071 440.575 40.0625L440.779 40.9659C440.711 40.9915 440.616 41.017 440.494 41.0426C440.372 41.071 440.217 41.0852 440.029 41.0852C439.745 41.0852 439.467 41.0241 439.194 40.902C438.924 40.7798 438.7 40.5938 438.521 40.3438C438.345 40.0938 438.257 39.7784 438.257 39.3977V32.8864ZM442.906 41.0682C442.696 41.0682 442.515 40.9929 442.365 40.8423C442.214 40.6918 442.139 40.5114 442.139 40.3011C442.139 40.0909 442.214 39.9105 442.365 39.7599C442.515 39.6094 442.696 39.5341 442.906 39.5341C443.116 39.5341 443.296 39.6094 443.447 39.7599C443.598 39.9105 443.673 40.0909 443.673 40.3011C443.673 40.4403 443.637 40.5682 443.566 40.6847C443.498 40.8011 443.406 40.8949 443.289 40.9659C443.176 41.0341 443.048 41.0682 442.906 41.0682ZM442.906 36.2102C442.696 36.2102 442.515 36.1349 442.365 35.9844C442.214 35.8338 442.139 35.6534 442.139 35.4432C442.139 35.233 442.214 35.0526 442.365 34.902C442.515 34.7514 442.696 34.6761 442.906 34.6761C443.116 34.6761 443.296 34.7514 443.447 34.902C443.598 35.0526 443.673 35.233 443.673 35.4432C443.673 35.5824 443.637 35.7102 443.566 35.8267C443.498 35.9432 443.406 36.0369 443.289 36.108C443.176 36.1761 443.048 36.2102 442.906 36.2102ZM451.563 41.1193C451.063 41.1193 450.613 41.0199 450.212 40.821C449.811 40.6222 449.49 40.3494 449.249 40.0028C449.007 39.6562 448.875 39.2614 448.853 38.8182H449.875C449.915 39.2131 450.094 39.5398 450.412 39.7983C450.733 40.054 451.117 40.1818 451.563 40.1818C451.921 40.1818 452.239 40.098 452.517 39.9304C452.799 39.7628 453.019 39.5327 453.178 39.2401C453.34 38.9446 453.421 38.6108 453.421 38.2386C453.421 37.858 453.337 37.5185 453.169 37.2202C453.005 36.919 452.777 36.6818 452.488 36.5085C452.198 36.3352 451.867 36.2472 451.495 36.2443C451.228 36.2415 450.953 36.2827 450.672 36.3679C450.391 36.4503 450.159 36.5568 449.978 36.6875L448.989 36.5682L449.517 32.2727H454.051V33.2102H450.404L450.097 35.7841H450.148C450.327 35.642 450.551 35.5241 450.821 35.4304C451.091 35.3366 451.372 35.2898 451.665 35.2898C452.199 35.2898 452.675 35.4176 453.093 35.6733C453.513 35.9261 453.843 36.2727 454.081 36.7131C454.323 37.1534 454.443 37.6562 454.443 38.2216C454.443 38.7784 454.318 39.2756 454.068 39.7131C453.821 40.1477 453.48 40.4915 453.046 40.7443C452.611 40.9943 452.117 41.1193 451.563 41.1193Z" fill="#FF3278"/>
<g opacity="0.87">
<rect x="365" y="78" width="93" height="32" rx="4" fill="#FFD351"/>
<path d="M411.171 88.8917V99.8008H408.864V91.081H408.8L406.302 92.647V90.6016L409.003 88.8917H411.171Z" fill="black"/>
<g clip-path="url(#clip4_185_272)">
<g clip-path="url(#clip5_185_272)">
<path d="M437.63 89.8418V98.2592" stroke="#FF3278" stroke-width="2.2" stroke-linecap="round" stroke-linejoin="round"/>
<path d="M441.839 94.0508H433.421" stroke="#FF3278" stroke-width="2.2" stroke-linecap="round" stroke-linejoin="round"/>
</g>
</g>
</g>
<g clip-path="url(#clip6_185_272)">
<g clip-path="url(#clip7_185_272)">
<path d="M389.589 94.25H381.171" stroke="#FF3278" stroke-width="2.2" stroke-linecap="round" stroke-linejoin="round"/>
</g>
</g>
<defs>
<filter id="filter0_dd_185_272" x="0" y="0" width="498" height="153" filterUnits="userSpaceOnUse" color-interpolation-filters="sRGB">
<feFlood flood-opacity="0" result="BackgroundImageFix"/>
<feColorMatrix in="SourceAlpha" type="matrix" values="0 0 0 0 0 0 0 0 0 0 0 0 0 0 0 0 0 0 127 0" result="hardAlpha"/>
<feOffset dy="8"/>
<feGaussianBlur stdDeviation="8"/>
<feColorMatrix type="matrix" values="0 0 0 0 0 0 0 0 0 0 0 0 0 0 0 0 0 0 0.08 0"/>
<feBlend mode="normal" in2="BackgroundImageFix" result="effect1_dropShadow_185_272"/>
<feColorMatrix in="SourceAlpha" type="matrix" values="0 0 0 0 0 0 0 0 0 0 0 0 0 0 0 0 0 0 127 0" result="hardAlpha"/>
<feOffset/>
<feGaussianBlur stdDeviation="2"/>
<feColorMatrix type="matrix" values="0 0 0 0 0 0 0 0 0 0 0 0 0 0 0 0 0 0 0.04 0"/>
<feBlend mode="normal" in2="effect1_dropShadow_185_272" result="effect2_dropShadow_185_272"/>
<feBlend mode="normal" in="SourceGraphic" in2="effect2_dropShadow_185_272" result="shape"/>
</filter>
<clipPath id="clip0_185_272">
<rect width="45" height="29.56" fill="white" transform="translate(38 27)"/>
</clipPath>
<clipPath id="clip1_185_272">
<rect width="44.9826" height="29.56" fill="white" transform="translate(38.0087 27)"/>
</clipPath>
<clipPath id="clip2_185_272">
<rect width="24" height="24" fill="white" transform="translate(38 71.5605)"/>
</clipPath>
<clipPath id="clip3_185_272">
<rect width="24" height="24" fill="white" transform="translate(38 71.5605)"/>
</clipPath>
<clipPath id="clip4_185_272">
<rect width="11" height="11" fill="white" transform="translate(432.13 88.5508)"/>
</clipPath>
<clipPath id="clip5_185_272">
<rect width="11" height="11" fill="white" transform="translate(432.13 88.5508)"/>
</clipPath>
<clipPath id="clip6_185_272">
<rect width="11" height="21" fill="white" transform="translate(379.88 83.75)"/>
</clipPath>
<clipPath id="clip7_185_272">
<rect width="11" height="2.2" fill="white" transform="translate(379.88 93.1504)"/>
</clipPath>
</defs>
</svg>
