<?xml version="1.0" encoding="utf-8"?>
<!-- Generator: Adobe Illustrator 27.5.0, SVG Export Plug-In . SVG Version: 6.00 Build 0)  -->
<svg version="1.1" id="Layer_1" xmlns="http://www.w3.org/2000/svg" xmlns:xlink="http://www.w3.org/1999/xlink" x="0px" y="0px"
	 viewBox="50 0 350 230" style="enable-background:new 0 0 440 230;" xml:space="preserve">
<style type="text/css">
	.st0{fill:#02205F;}
	.st1{fill:#00A6BA;}
	.st2{fill:#FFFFFF;}
	.st3{fill:#EC0F78;}
	.st4{opacity:0.1;}
	.st5{clip-path:url(#SVGID_00000103978842818585229550000014470632606568444058_);}
	.st6{clip-path:url(#SVGID_00000116926722891286841930000001705772604433226407_);}
</style>
<g>
	<path class="st0" d="M222.69,222.27c-25.03-0.04-50.06-0.08-75.09-0.35l-37.55-0.42c-11.89-0.23-23.78-0.38-35.68-0.69
		c0.88,1.82,1.41,3.84,1.48,5.99l149.52-4.54C224.48,222.26,223.58,222.27,222.69,222.27z"/>
	<g>
		<path class="st0" d="M335.33,5.45c11.58,0.23,23.17,0.38,34.75,0.66c-0.29-0.92-0.47-1.9-0.5-2.91l-63.42,1.92L335.33,5.45z"/>
		<path class="st0" d="M382.56,206.65c-0.82-0.76-1.31-1.84-1.35-2.97c-0.01-0.27,0.01-0.56,0.06-0.84c0.05-0.27,0.12-0.54,0.22-0.8
			c0.1-0.26,0.22-0.51,0.37-0.75c0.15-0.23,0.33-0.46,0.51-0.66c0.69-0.73,1.64-1.19,2.63-1.3l-0.12-4
			c-2.19-0.12-3.96-1.88-4.03-4.1c-0.07-2.23,1.59-4.09,3.77-4.34l-0.12-4.02c-2.19-0.12-3.96-1.87-4.03-4.1
			c-0.07-2.22,1.59-4.09,3.77-4.34l-0.12-4.01c-2.19-0.12-3.96-1.88-4.03-4.1c-0.07-2.23,1.59-4.09,3.77-4.34l-0.12-4.02
			c-2.19-0.12-3.96-1.87-4.03-4.1c-0.07-2.22,1.59-4.09,3.77-4.34l-0.12-4.01c-2.19-0.12-3.96-1.88-4.03-4.1
			c-0.07-2.23,1.59-4.09,3.77-4.34l-0.12-4.02c-2.19-0.12-3.96-1.87-4.03-4.09c-0.07-2.23,1.59-4.09,3.77-4.34l-0.12-4.02
			c-2.19-0.12-3.96-1.88-4.03-4.1c-0.07-2.22,1.59-4.09,3.77-4.34l-0.12-4.01c-2.19-0.12-3.96-1.88-4.03-4.1
			c-0.07-2.23,1.59-4.09,3.77-4.34l-0.12-4.02c-2.19-0.12-3.96-1.87-4.03-4.1c-0.07-2.22,1.59-4.09,3.77-4.34l-0.12-4.01
			c-2.19-0.12-3.96-1.88-4.03-4.1c-0.07-2.23,1.59-4.09,3.77-4.34l-0.12-4.02c-2.19-0.12-3.96-1.87-4.03-4.1
			c-0.07-2.22,1.59-4.09,3.77-4.34l-0.12-4.01c-2.19-0.12-3.96-1.88-4.03-4.1c-0.07-2.23,1.59-4.09,3.77-4.34l-0.12-4.01
			c-2.19-0.12-3.96-1.88-4.03-4.1c-0.07-2.23,1.59-4.1,3.77-4.35l-0.12-4.01c-2.19-0.12-3.96-1.87-4.03-4.1
			c-0.07-2.23,1.59-4.09,3.77-4.34l-0.12-4.02c-1-0.05-1.97-0.44-2.69-1.12c-0.2-0.19-0.39-0.4-0.56-0.64
			c-0.16-0.22-0.3-0.46-0.41-0.72c-0.11-0.26-0.21-0.52-0.27-0.8c-0.07-0.27-0.1-0.55-0.11-0.82c-0.03-1.12,0.4-2.24,1.17-3.05
			c0.23-0.25,0.5-0.46,0.78-0.65c-3.46-0.94-6.23-3.54-7.36-6.93c-11.6,0.29-23.2,0.44-34.79,0.67l-37.55,0.42
			c-25.03,0.27-50.06,0.31-75.09,0.35c-0.23,0-0.45,0-0.68,0L69.34,12.31c0.25,8.16-6.17,14.98-14.33,15.23l0.23,7.56
			c7.64-0.23,14.03,5.78,14.26,13.42c0.23,7.64-5.78,14.03-13.42,14.26l0.24,7.85c7.64-0.23,14.03,5.78,14.26,13.42
			c0.23,7.64-5.78,14.03-13.42,14.26l0.24,7.85c7.64-0.23,14.03,5.78,14.26,13.42c0.23,7.64-5.78,14.03-13.42,14.26l0.24,7.85
			c7.64-0.23,14.03,5.78,14.26,13.42c0.23,7.64-5.78,14.03-13.42,14.26l0.24,7.85c7.64-0.23,14.03,5.78,14.26,13.42
			c0.23,7.64-5.78,14.03-13.42,14.26l0.23,7.56c5.98-0.18,11.23,3.22,13.71,8.26c11.91-0.3,23.81-0.45,35.72-0.69l37.55-0.42
			c25.03-0.27,50.06-0.31,75.09-0.35c25.03,0.03,50.06,0.07,75.09,0.35l10.88,0.12l67.42-2.05c-0.15-4.84,2.95-8.98,7.31-10.44
			c-0.06-0.03-0.12-0.06-0.18-0.09C382.97,207.01,382.75,206.84,382.56,206.65z"/>
	</g>
	<path class="st1" d="M380.32,210.46c-0.24-0.15-0.45-0.33-0.64-0.53c-0.79-0.79-1.26-1.88-1.26-3.01c0-0.27,0.03-0.56,0.09-0.83
		c0.06-0.26,0.14-0.54,0.25-0.79c0.1-0.25,0.24-0.5,0.39-0.74c0.16-0.23,0.34-0.45,0.53-0.64c0.71-0.71,1.67-1.14,2.66-1.22v-4
		c-2.19-0.18-3.9-2-3.9-4.22c0-2.23,1.72-4.04,3.9-4.22v-4.02c-2.19-0.18-3.9-1.99-3.9-4.22c0-2.22,1.72-4.04,3.9-4.22v-4.01
		c-2.19-0.18-3.9-1.99-3.9-4.22c0-2.23,1.72-4.04,3.9-4.22v-4.02c-2.19-0.18-3.9-1.99-3.9-4.22c0-2.23,1.72-4.04,3.9-4.22v-4.01
		c-2.19-0.18-3.9-2-3.9-4.22c0-2.23,1.72-4.04,3.9-4.22v-4.02c-2.19-0.18-3.9-1.99-3.9-4.21c0-2.23,1.72-4.04,3.9-4.22v-4.02
		c-2.19-0.18-3.9-1.99-3.9-4.22c0-2.22,1.72-4.04,3.9-4.22v-4.01c-2.19-0.18-3.9-2-3.9-4.22c0-2.23,1.72-4.04,3.9-4.22V99
		c-2.19-0.18-3.9-1.99-3.9-4.22c0-2.22,1.72-4.04,3.9-4.22v-4.01c-2.19-0.18-3.9-2-3.9-4.22c0-2.23,1.72-4.04,3.9-4.22v-4.02
		c-2.19-0.18-3.9-1.99-3.9-4.22c0-2.23,1.72-4.04,3.9-4.22v-4.01c-2.19-0.18-3.9-2-3.9-4.22c0-2.23,1.72-4.04,3.9-4.22v-4.01
		c-2.19-0.18-3.9-2-3.9-4.22c0-2.23,1.72-4.05,3.9-4.23v-4.01c-2.19-0.18-3.9-1.99-3.9-4.22c0-2.23,1.72-4.04,3.9-4.22v-4.02
		c-1-0.08-1.95-0.5-2.66-1.2c-0.2-0.2-0.38-0.42-0.54-0.65c-0.15-0.23-0.28-0.47-0.39-0.73c-0.1-0.27-0.19-0.53-0.25-0.8
		c-0.06-0.27-0.09-0.55-0.09-0.82c0-1.13,0.46-2.22,1.26-3.02c0.24-0.24,0.51-0.45,0.8-0.62c-4.4-1.34-7.6-5.38-7.6-10.21H72.51
		c0,8.17-6.62,14.79-14.79,14.79v7.56c7.65,0,13.85,6.2,13.85,13.85c0,7.65-6.2,13.85-13.85,13.85v7.86
		c7.65,0,13.85,6.2,13.85,13.85c0,7.65-6.2,13.85-13.85,13.85v7.86c7.65,0,13.85,6.2,13.85,13.85c0,7.65-6.2,13.85-13.85,13.85v7.86
		c7.65,0,13.85,6.2,13.85,13.85c0,7.65-6.2,13.85-13.85,13.85v7.86c7.65,0,13.85,6.2,13.85,13.85c0,7.65-6.2,13.85-13.85,13.85v7.56
		c8.17,0,14.79,6.62,14.79,14.79h300.37c0-4.84,3.22-8.89,7.62-10.22C380.44,210.52,380.38,210.49,380.32,210.46z"/>
	<g>
		<path class="st0" d="M108.77,108.18h7.08c3.84,0,5.75-1.92,5.75-5.75V90.04h12.3c3.9,0,5.84-1.92,5.84-5.75v-4.34
			c0-3.89-1.95-5.84-5.84-5.84h-12.3v-9.83h16.38c3.84,0,5.75-1.92,5.75-5.75V54.1c0-3.84-1.92-5.75-5.75-5.75h-29.21
			c-3.9,0-5.84,1.92-5.84,5.75v48.33C102.92,106.27,104.87,108.18,108.77,108.18z"/>
		<path class="st0" d="M346.06,65.53c-1.56-3.69-3.78-6.81-6.64-9.36c-2.86-2.55-6.34-4.49-10.45-5.83c-4.1-1.33-8.69-2-13.77-2
			h-17.44c-3.9,0-5.84,1.8-5.84,5.41v49.02c0,3.61,1.95,5.41,5.84,5.41h17.44c5.08,0,9.66-0.69,13.77-2.08
			c4.1-1.39,7.58-3.37,10.45-5.95c2.86-2.58,5.08-5.73,6.64-9.45c1.56-3.72,2.35-7.91,2.35-12.57
			C348.4,73.43,347.62,69.22,346.06,65.53z M325.3,89.42c-2.54,2.53-6.11,3.79-10.71,3.79h-3.98V63.33h3.98
			c4.43,0,7.95,1.22,10.58,3.66c2.62,2.44,3.94,6.16,3.94,11.15C329.11,83.13,327.84,86.89,325.3,89.42z"/>
		<path class="st0" d="M160.38,139.49c0-3.8-0.59-7.35-1.76-10.63c-1.18-3.28-2.85-6.1-5.03-8.45c-2.18-2.35-4.79-4.2-7.83-5.55
			c-3.04-1.35-6.43-2.02-10.16-2.02h-25.82c-4.56,0-6.84,2.25-6.84,6.74v61.08c0,4.49,2.28,6.74,6.84,6.74h8.3
			c4.49,0,6.74-2.25,6.74-6.74v-14.21h10.79c3.73,0,7.12-0.67,10.16-2.02c3.04-1.35,5.65-3.23,7.83-5.65
			c2.18-2.42,3.85-5.27,5.03-8.56C159.79,146.94,160.38,143.36,160.38,139.49z M136.53,145.35c-1.11,1.63-2.97,2.44-5.6,2.44h-6.12
			V131.5h6.53c2.42,0,4.16,0.76,5.24,2.28c1.07,1.52,1.61,3.42,1.61,5.7C138.19,141.77,137.63,143.72,136.53,145.35z"/>
		<path class="st0" d="M206.01,118.33c-1.24-3.66-3.8-5.5-7.67-5.5h-11.3c-3.87,0-6.43,1.83-7.67,5.5l-20.22,61.29
			c-0.83,2.35-0.73,4.24,0.31,5.65c1.04,1.42,2.76,2.13,5.19,2.13h8.4c3.94,0,6.43-1.9,7.47-5.7l1.56-7.26h21.05l1.56,7.26
			c1.24,3.8,3.8,5.7,7.67,5.7h8.4c2.42,0,4.15-0.71,5.19-2.13c1.04-1.42,1.14-3.3,0.31-5.65L206.01,118.33z M187.03,157.12
			l2.49-10.37c0.34-1.24,0.67-2.68,0.99-4.3c0.31-1.62,0.64-3.13,0.99-4.51c0.35-1.66,0.69-3.32,1.04-4.98h0.21
			c0.34,1.66,0.69,3.32,1.04,4.98c0.35,1.38,0.69,2.89,1.04,4.51c0.35,1.63,0.69,3.06,1.04,4.3l2.28,10.37H187.03z"/>
		<path class="st0" d="M276.53,147.99c-2.35-1.73-4.89-3.13-7.62-4.2c-2.73-1.07-5.27-2.04-7.62-2.9c-2.35-0.86-4.3-1.75-5.86-2.64
			c-1.56-0.9-2.33-2.07-2.33-3.53c0-0.97,0.42-1.78,1.24-2.44c0.83-0.66,2.28-0.99,4.36-0.99c2.21,0,4.13,0.35,5.76,1.04
			c1.62,0.69,3.37,1.45,5.24,2.28c0.83,0.41,1.68,0.76,2.54,1.04c0.86,0.28,1.68,0.36,2.44,0.26c0.76-0.1,1.5-0.43,2.23-0.99
			c0.73-0.55,1.4-1.45,2.02-2.7l3.01-5.91c0.9-1.8,1.21-3.47,0.93-5.03c-0.28-1.56-1.32-2.99-3.11-4.3
			c-0.97-0.62-2.2-1.26-3.68-1.92c-1.49-0.66-3.13-1.24-4.93-1.76c-1.8-0.52-3.73-0.93-5.81-1.24c-2.07-0.31-4.18-0.47-6.33-0.47
			c-3.94,0-7.61,0.57-10.99,1.71c-3.39,1.14-6.33,2.75-8.82,4.82c-2.49,2.07-4.43,4.58-5.81,7.52c-1.38,2.94-2.07,6.21-2.07,9.8
			c0,4.01,0.78,7.35,2.33,10.01c1.56,2.66,3.51,4.89,5.86,6.69c2.35,1.8,4.87,3.27,7.57,4.41c2.7,1.14,5.22,2.16,7.57,3.06
			c2.35,0.9,4.3,1.8,5.86,2.7c1.56,0.9,2.33,2.01,2.33,3.32c0,0.9-0.38,1.68-1.14,2.33c-0.76,0.66-2.21,0.99-4.36,0.99
			c-1.45,0-2.8-0.17-4.04-0.52c-1.24-0.34-2.39-0.76-3.42-1.24c-1.04-0.48-1.95-0.97-2.75-1.45c-0.8-0.48-1.5-0.83-2.13-1.04
			c-2.01-1.11-3.75-1.56-5.24-1.35c-1.49,0.21-2.85,1.21-4.1,3.01l-3.94,5.7c-1.59,2.35-2.09,4.25-1.5,5.7
			c0.59,1.45,1.54,2.66,2.85,3.63c1.04,0.83,2.4,1.68,4.1,2.54c1.69,0.87,3.61,1.64,5.76,2.33c2.14,0.69,4.44,1.26,6.9,1.71
			c2.45,0.45,4.96,0.67,7.52,0.67c4.42,0,8.33-0.66,11.72-1.97c3.39-1.31,6.24-3.08,8.56-5.29c2.32-2.21,4.08-4.77,5.29-7.67
			c1.21-2.9,1.82-5.98,1.82-9.23c0-4.01-0.78-7.33-2.33-9.96C280.84,151.9,278.88,149.72,276.53,147.99z"/>
		<path class="st0" d="M336.48,147.99c-2.35-1.73-4.89-3.13-7.62-4.2c-2.73-1.07-5.27-2.04-7.62-2.9c-2.35-0.86-4.3-1.75-5.86-2.64
			c-1.56-0.9-2.33-2.07-2.33-3.53c0-0.97,0.41-1.78,1.24-2.44c0.83-0.66,2.28-0.99,4.36-0.99c2.21,0,4.13,0.35,5.76,1.04
			c1.62,0.69,3.37,1.45,5.24,2.28c0.83,0.41,1.68,0.76,2.54,1.04c0.86,0.28,1.68,0.36,2.44,0.26c0.76-0.1,1.5-0.43,2.23-0.99
			c0.73-0.55,1.4-1.45,2.02-2.7l3.01-5.91c0.9-1.8,1.21-3.47,0.93-5.03c-0.28-1.56-1.31-2.99-3.11-4.3
			c-0.97-0.62-2.2-1.26-3.68-1.92c-1.49-0.66-3.13-1.24-4.93-1.76c-1.8-0.52-3.73-0.93-5.81-1.24c-2.07-0.31-4.18-0.47-6.33-0.47
			c-3.94,0-7.61,0.57-10.99,1.71c-3.39,1.14-6.33,2.75-8.82,4.82c-2.49,2.07-4.42,4.58-5.81,7.52c-1.38,2.94-2.08,6.21-2.08,9.8
			c0,4.01,0.78,7.35,2.33,10.01c1.56,2.66,3.51,4.89,5.86,6.69c2.35,1.8,4.87,3.27,7.57,4.41c2.7,1.14,5.22,2.16,7.57,3.06
			c2.35,0.9,4.3,1.8,5.86,2.7c1.56,0.9,2.33,2.01,2.33,3.32c0,0.9-0.38,1.68-1.14,2.33c-0.76,0.66-2.21,0.99-4.36,0.99
			c-1.45,0-2.8-0.17-4.04-0.52c-1.24-0.34-2.39-0.76-3.42-1.24c-1.04-0.48-1.95-0.97-2.75-1.45c-0.8-0.48-1.5-0.83-2.13-1.04
			c-2.01-1.11-3.75-1.56-5.24-1.35c-1.49,0.21-2.85,1.21-4.1,3.01l-3.94,5.7c-1.59,2.35-2.09,4.25-1.5,5.7
			c0.59,1.45,1.54,2.66,2.85,3.63c1.04,0.83,2.4,1.68,4.1,2.54c1.69,0.87,3.61,1.64,5.76,2.33c2.14,0.69,4.44,1.26,6.9,1.71
			c2.45,0.45,4.96,0.67,7.52,0.67c4.42,0,8.33-0.66,11.72-1.97c3.39-1.31,6.24-3.08,8.56-5.29c2.32-2.21,4.08-4.77,5.29-7.67
			c1.21-2.9,1.82-5.98,1.82-9.23c0-4.01-0.78-7.33-2.33-9.96C340.78,151.9,338.83,149.72,336.48,147.99z"/>
		<path class="st0" d="M278.59,50.96c1.23-2.67,3.16-3.59,7.52-4.64c-6.46-1.55-7.6-2.81-9-9.97c-1.25,6.38-2.3,8.07-7.1,9.47
			c-5.54-1.82-12.24-1.68-16.59-1.33c0,0-7.69,0.43-14.56,1.31l0-0.04l-29.86,2.46l-20.74,1.71l0,0.04
			c-6.93,0.26-14.58,1.09-14.58,1.09c-5.03,0.41-13.1,1.63-18.44,5.41c-7.55,5.34-11.86,14.47-11.01,24.89c0,0,0.03,8.86,5.1,16.99
			c9.07,14.53,25.57,13.63,25.57,13.63c22.5-1.85,39.24-21.59,37.38-44.09c-0.02-0.25-0.06-0.49-0.08-0.74l5.86-0.48
			c0.01,0.25,0.02,0.5,0.04,0.74c1.85,22.5,21.59,39.24,44.09,37.38c0,0,16.42-1.82,22.99-17.63c3.67-8.84,2.25-17.59,2.25-17.59
			C286.79,61.95,283.54,55.48,278.59,50.96z M218.62,59.84l-8.13,0.67c-0.86-1.98-2.03-3.79-3.54-5.33l2.59-0.21l0,0l11.7-0.96
			C220,55.77,219.14,57.74,218.62,59.84z"/>
	</g>
	<g>
		<path class="st2" d="M103.92,51.2c0-3.84,1.95-5.75,5.84-5.75h29.21c3.84,0,5.75,1.92,5.75,5.75v4.43c0,3.84-1.92,5.75-5.75,5.75
			H122.6v9.83h12.3c3.9,0,5.84,1.95,5.84,5.84v4.34c0,3.84-1.95,5.75-5.84,5.75h-12.3v12.39c0,3.84-1.92,5.75-5.75,5.75h-7.08
			c-3.9,0-5.84-1.92-5.84-5.75V51.2z"/>
		<path class="st2" d="M292.92,50.86c0-3.61,1.95-5.41,5.84-5.41h17.44c5.08,0,9.66,0.67,13.77,2c4.1,1.33,7.58,3.27,10.45,5.83
			c2.86,2.55,5.08,5.67,6.64,9.36c1.56,3.69,2.35,7.89,2.35,12.61c0,4.66-0.78,8.85-2.35,12.57c-1.56,3.72-3.78,6.87-6.64,9.45
			c-2.86,2.58-6.35,4.57-10.45,5.95c-4.1,1.39-8.69,2.08-13.77,2.08h-17.44c-3.9,0-5.84-1.8-5.84-5.41V50.86z M315.59,90.3
			c4.6,0,8.17-1.26,10.71-3.79c2.54-2.52,3.81-6.28,3.81-11.28c0-4.99-1.31-8.71-3.94-11.15c-2.63-2.44-6.15-3.66-10.58-3.66h-3.98
			V90.3H315.59z"/>
		<g>
			<path class="st2" d="M103.92,116.68c0-4.49,2.28-6.74,6.84-6.74h25.82c3.73,0,7.12,0.67,10.16,2.02c3.04,1.35,5.65,3.2,7.83,5.55
				c2.18,2.35,3.85,5.17,5.03,8.45c1.17,3.28,1.76,6.83,1.76,10.63c0,3.87-0.59,7.45-1.76,10.73c-1.18,3.28-2.85,6.14-5.03,8.56
				c-2.18,2.42-4.79,4.3-7.83,5.65c-3.04,1.35-6.43,2.02-10.16,2.02h-10.79v14.21c0,4.49-2.25,6.74-6.74,6.74h-8.3
				c-4.56,0-6.84-2.25-6.84-6.74V116.68z M131.93,144.88c2.63,0,4.49-0.81,5.6-2.44c1.11-1.62,1.66-3.58,1.66-5.86
				c0-2.28-0.54-4.18-1.61-5.7c-1.07-1.52-2.82-2.28-5.24-2.28h-6.53v16.28H131.93z"/>
			<path class="st2" d="M180.36,115.43c1.24-3.66,3.8-5.5,7.67-5.5h11.3c3.87,0,6.43,1.83,7.67,5.5l20.22,61.29
				c0.83,2.35,0.73,4.24-0.31,5.65c-1.04,1.42-2.77,2.13-5.19,2.13h-8.4c-3.87,0-6.43-1.9-7.67-5.7l-1.56-7.26h-21.05l-1.56,7.26
				c-1.04,3.8-3.53,5.7-7.47,5.7h-8.4c-2.42,0-4.15-0.71-5.19-2.13c-1.04-1.42-1.14-3.3-0.31-5.65L180.36,115.43z M199.13,154.22
				l-2.28-10.37c-0.35-1.24-0.69-2.68-1.04-4.3c-0.35-1.62-0.69-3.13-1.04-4.51c-0.35-1.66-0.69-3.32-1.04-4.98h-0.21
				c-0.35,1.66-0.69,3.32-1.04,4.98c-0.35,1.38-0.67,2.89-0.99,4.51c-0.31,1.63-0.64,3.06-0.99,4.3l-2.49,10.37H199.13z"/>
			<path class="st2" d="M234.08,178.49c-1.31-0.97-2.27-2.18-2.85-3.63c-0.59-1.45-0.09-3.35,1.5-5.7l3.94-5.7
				c1.24-1.8,2.61-2.8,4.1-3.01c1.49-0.21,3.23,0.24,5.24,1.35c0.62,0.21,1.33,0.55,2.13,1.04c0.79,0.48,1.71,0.97,2.75,1.45
				c1.04,0.48,2.18,0.9,3.42,1.24c1.24,0.35,2.59,0.52,4.04,0.52c2.14,0,3.59-0.33,4.36-0.99c0.76-0.66,1.14-1.43,1.14-2.33
				c0-1.31-0.78-2.42-2.33-3.32c-1.56-0.9-3.51-1.8-5.86-2.7c-2.35-0.9-4.87-1.92-7.57-3.06c-2.7-1.14-5.22-2.61-7.57-4.41
				c-2.35-1.8-4.3-4.03-5.86-6.69c-1.56-2.66-2.33-6-2.33-10.01c0-3.59,0.69-6.86,2.07-9.8c1.38-2.94,3.32-5.44,5.81-7.52
				c2.49-2.07,5.43-3.68,8.82-4.82c3.39-1.14,7.05-1.71,10.99-1.71c2.14,0,4.25,0.15,6.33,0.47c2.07,0.31,4.01,0.73,5.81,1.24
				c1.8,0.52,3.44,1.11,4.93,1.76c1.49,0.66,2.71,1.3,3.68,1.92c1.8,1.31,2.83,2.75,3.11,4.3c0.27,1.56-0.04,3.23-0.93,5.03
				l-3.01,5.91c-0.62,1.24-1.3,2.14-2.02,2.7c-0.73,0.55-1.47,0.88-2.23,0.99c-0.76,0.1-1.57,0.02-2.44-0.26
				c-0.87-0.27-1.71-0.62-2.54-1.04c-1.87-0.83-3.61-1.59-5.24-2.28c-1.63-0.69-3.54-1.04-5.76-1.04c-2.07,0-3.53,0.33-4.36,0.99
				c-0.83,0.66-1.24,1.47-1.24,2.44c0,1.45,0.78,2.63,2.33,3.53c1.56,0.9,3.51,1.78,5.86,2.64c2.35,0.87,4.89,1.83,7.62,2.9
				c2.73,1.07,5.27,2.47,7.62,4.2c2.35,1.73,4.3,3.91,5.86,6.53c1.56,2.63,2.33,5.95,2.33,9.96c0,3.25-0.61,6.33-1.82,9.23
				c-1.21,2.9-2.97,5.46-5.29,7.67c-2.32,2.21-5.17,3.98-8.56,5.29c-3.39,1.31-7.3,1.97-11.72,1.97c-2.56,0-5.07-0.23-7.52-0.67
				c-2.45-0.45-4.75-1.02-6.9-1.71c-2.14-0.69-4.06-1.47-5.76-2.33C236.48,180.16,235.12,179.32,234.08,178.49z"/>
			<path class="st2" d="M294.02,178.49c-1.31-0.97-2.26-2.18-2.85-3.63c-0.59-1.45-0.09-3.35,1.5-5.7l3.94-5.7
				c1.24-1.8,2.61-2.8,4.1-3.01c1.49-0.21,3.23,0.24,5.24,1.35c0.62,0.21,1.33,0.55,2.13,1.04c0.79,0.48,1.71,0.97,2.75,1.45
				c1.04,0.48,2.18,0.9,3.42,1.24c1.24,0.35,2.59,0.52,4.04,0.52c2.14,0,3.59-0.33,4.36-0.99c0.76-0.66,1.14-1.43,1.14-2.33
				c0-1.31-0.78-2.42-2.33-3.32c-1.56-0.9-3.51-1.8-5.86-2.7c-2.35-0.9-4.87-1.92-7.57-3.06c-2.7-1.14-5.22-2.61-7.57-4.41
				c-2.35-1.8-4.3-4.03-5.86-6.69c-1.56-2.66-2.33-6-2.33-10.01c0-3.59,0.69-6.86,2.07-9.8c1.38-2.94,3.32-5.44,5.81-7.52
				c2.49-2.07,5.43-3.68,8.82-4.82c3.39-1.14,7.05-1.71,10.99-1.71c2.14,0,4.25,0.15,6.33,0.47c2.07,0.31,4.01,0.73,5.81,1.24
				c1.8,0.52,3.44,1.11,4.93,1.76c1.49,0.66,2.71,1.3,3.68,1.92c1.8,1.31,2.83,2.75,3.11,4.3c0.27,1.56-0.04,3.23-0.93,5.03
				l-3.01,5.91c-0.62,1.24-1.3,2.14-2.02,2.7c-0.73,0.55-1.47,0.88-2.23,0.99c-0.76,0.1-1.57,0.02-2.44-0.26
				c-0.87-0.27-1.71-0.62-2.54-1.04c-1.87-0.83-3.61-1.59-5.24-2.28c-1.63-0.69-3.54-1.04-5.76-1.04c-2.07,0-3.53,0.33-4.36,0.99
				c-0.83,0.66-1.24,1.47-1.24,2.44c0,1.45,0.78,2.63,2.33,3.53c1.56,0.9,3.51,1.78,5.86,2.64c2.35,0.87,4.89,1.83,7.62,2.9
				c2.73,1.07,5.27,2.47,7.62,4.2c2.35,1.73,4.3,3.91,5.86,6.53c1.56,2.63,2.33,5.95,2.33,9.96c0,3.25-0.61,6.33-1.82,9.23
				c-1.21,2.9-2.97,5.46-5.29,7.67c-2.32,2.21-5.17,3.98-8.56,5.29c-3.39,1.31-7.3,1.97-11.72,1.97c-2.56,0-5.07-0.23-7.52-0.67
				c-2.45-0.45-4.75-1.02-6.9-1.71c-2.14-0.69-4.06-1.47-5.76-2.33C296.42,180.16,295.06,179.32,294.02,178.49z"/>
		</g>
		<g>
			<path class="st3" d="M288.41,66.67c-0.86-10.41-6.61-18.72-14.93-22.75c-5.88-2.85-14.05-2.73-19.08-2.32
				c0,0-7.69,0.43-14.56,1.31l0-0.04l-29.86,2.46l-20.74,1.71l0,0.04c-6.93,0.26-14.58,1.09-14.58,1.09
				c-5.03,0.41-13.1,1.63-18.44,5.41c-7.55,5.34-11.86,14.47-11.01,24.89c0,0,0.03,8.86,5.1,16.99
				c9.07,14.53,25.57,13.63,25.57,13.63c22.5-1.85,39.24-21.59,37.38-44.09c-0.02-0.25-0.06-0.49-0.08-0.74l-1.63,0.13l7.49-0.62
				c0.01,0.25,0.02,0.5,0.04,0.74c1.85,22.5,21.59,39.24,44.09,37.38c0,0,16.42-1.82,22.99-17.63
				C289.83,75.41,288.41,66.67,288.41,66.67z M219.62,56.94l-8.63,0.71l0,0l0.49-0.04c-0.86-1.98-2.03-3.79-3.54-5.33l2.59-0.21l0,0
				l11.7-0.96C221,52.87,220.14,54.84,219.62,56.94z"/>
			<g class="st4">
				<g>
					<defs>
						<path id="SVGID_1_" d="M209.98,45.33l-20.74,1.71l0,0.04c-6.93,0.26-14.58,1.09-14.58,1.09c-5.03,0.41-13.1,1.63-18.44,5.41
							c-7.55,5.34-11.86,14.47-11.01,24.89c0,0,0.03,8.86,5.1,16.99c9.07,14.53,25.57,13.63,25.57,13.63
							c22.5-1.85,39.24-21.59,37.38-44.09c-0.02-0.25-0.06-0.49-0.08-0.74l-1.63,0.13 M210.99,57.65L210.99,57.65l0.49-0.04
							c-0.86-1.98-2.03-3.79-3.54-5.33l2.59-0.21l0,0"/>
					</defs>
					<clipPath id="SVGID_00000039118949304366621890000001842230845566159038_">
						<use xlink:href="#SVGID_1_"  style="overflow:visible;"/>
					</clipPath>
					<g style="clip-path:url(#SVGID_00000039118949304366621890000001842230845566159038_);">
						<polygon points="186.08,313.32 177.39,78 168.69,313.32 						"/>
						<polygon points="254.72,300.42 177.39,78 238.09,305.52 						"/>
						<polygon points="316.55,267.96 177.39,78 302.15,277.71 						"/>
						<polygon points="366.14,218.8 177.39,78 355.24,232.34 						"/>
						<polygon points="399.13,157.25 177.39,78 392.68,173.39 						"/>
						<polygon points="412.62,88.73 177.39,78 411.19,106.06 						"/>
						<polygon points="405.43,19.27 177.39,78 409.14,36.25 						"/>
						<polygon points="378.17,-45.03 177.39,78 386.7,-29.88 						"/>
						<polygon points="333.26,-98.51 177.39,78 345.86,-86.52 						"/>
						<polygon points="274.64,-136.46 177.39,78 290.2,-128.7 						"/>
						<polygon points="207.46,-155.55 177.39,78 224.62,-152.69 						"/>
						<polygon points="137.65,-154.1 177.39,78 154.88,-156.4 						"/>
						<polygon points="71.32,-132.24 177.39,78 87.13,-139.49 						"/>
						<polygon points="14.33,-91.89 177.39,78 27.31,-103.46 						"/>
						<polygon points="-28.33,-36.59 177.39,78 -19.31,-51.46 						"/>
						<polygon points="-52.89,28.78 177.39,78 -48.63,11.92 						"/>
						<polygon points="-57.2,98.48 177.39,78 -58.07,81.11 						"/>
						<polygon points="-40.88,166.38 177.39,78 -46.8,150.03 						"/>
						<polygon points="-5.36,226.51 177.39,78 -15.82,212.62 						"/>
						<polygon points="46.23,273.57 177.39,78 32.16,263.36 						"/>
						<polygon points="109.36,303.44 177.39,78 92.91,297.8 						"/>
					</g>
				</g>
				<g>
					<defs>
						<path id="SVGID_00000163751037258960293400000003685743124060333503_" d="M220.6,64.51l-1.62,0.18
							c0.02,0.25,0.03,0.5,0.06,0.74c2.46,22.44,22.64,38.64,45.08,36.19c0,0,16.37-2.26,22.51-18.24
							c3.43-8.94,1.78-17.65,1.78-17.65c-1.14-10.39-7.11-18.54-15.53-22.34c-5.96-2.69-14.12-2.35-19.13-1.81
							c0,0-7.67,0.64-14.52,1.7l0-0.04l-20.69,2.26 M219.25,52.22L219.25,52.22l2.58-0.28c-1.19,1.8-2,3.8-2.46,5.91l0.49-0.05l0,0"
							/>
					</defs>
					<clipPath id="SVGID_00000075871680603603813300000015453050055151504776_">
						<use xlink:href="#SVGID_00000163751037258960293400000003685743124060333503_"  style="overflow:visible;"/>
					</clipPath>
					<g style="clip-path:url(#SVGID_00000075871680603603813300000015453050055151504776_);">
						<polygon points="270.26,157.98 256.84,71.66 276.59,156.75 						"/>
						<polygon points="244.36,158.12 256.84,71.66 250.77,158.8 						"/>
						<polygon points="219.55,150.65 256.84,71.66 225.48,153.19 						"/>
						<polygon points="198.02,136.24 256.84,71.66 202.95,140.41 						"/>
						<polygon points="181.67,116.15 256.84,71.66 185.16,121.58 						"/>
						<polygon points="171.93,92.15 256.84,71.66 173.67,98.36 						"/>
						<polygon points="169.65,66.34 256.84,71.66 169.5,72.79 						"/>
						<polygon points="175.05,41 256.84,71.66 173.01,47.12 						"/>
						<polygon points="187.63,18.36 256.84,71.66 183.89,23.61 						"/>
						<polygon points="206.31,0.41 256.84,71.66 201.19,4.33 						"/>
						<polygon points="229.43,-11.28 256.84,71.66 223.38,-9.03 						"/>
						<polygon points="254.96,-15.67 256.84,71.66 248.52,-15.29 						"/>
						<polygon points="280.66,-12.38 256.84,71.66 274.39,-13.91 						"/>
						<polygon points="304.26,-1.7 256.84,71.66 298.71,-5 						"/>
						<polygon points="323.69,15.43 256.84,71.66 319.36,10.65 						"/>
						<polygon points="337.24,37.51 256.84,71.66 334.5,31.67 						"/>
						<polygon points="343.72,62.59 256.84,71.66 342.82,56.2 						"/>
						<polygon points="342.56,88.47 256.84,71.66 343.57,82.1 						"/>
						<polygon points="333.87,112.87 256.84,71.66 336.7,107.07 						"/>
						<polygon points="318.39,133.65 256.84,71.66 322.8,128.94 						"/>
						<polygon points="297.51,148.97 256.84,71.66 303.1,145.76 						"/>
					</g>
				</g>
			</g>
		</g>
		<g>
			<path class="st2" d="M272.78,51.62c-0.62,3.18-1.13,3.74-4,4.42c2.87,0.69,3.37,1.25,4,4.42c0.62-3.18,1.13-3.74,4-4.42
				C273.91,55.35,273.4,54.79,272.78,51.62z"/>
			<path class="st2" d="M278.1,53.39c1.4-7.16,2.54-8.41,9-9.97c-6.46-1.55-7.6-2.81-9-9.97c-1.4,7.16-2.54,8.41-9,9.97
				C275.56,44.98,276.7,46.24,278.1,53.39z"/>
			<path class="st2" d="M264.57,52.11c0.71-3.6,1.28-4.23,4.53-5.01c-3.25-0.78-3.82-1.41-4.53-5.01c-0.71,3.6-1.28,4.23-4.53,5.01
				C263.29,47.87,263.86,48.51,264.57,52.11z"/>
		</g>
	</g>
</g>
</svg>
