<svg xmlns="http://www.w3.org/2000/svg" xmlns:xlink="http://www.w3.org/1999/xlink" width="88" height="88" viewBox="0 0 88 88">
  <defs>
    <linearGradient id="linear-gradient" x1="0.084" y1="0.081" x2="0.935" y2="0.939" gradientUnits="objectBoundingBox">
      <stop offset="0" stop-color="#9a91da"/>
      <stop offset="1" stop-color="#5d53af"/>
    </linearGradient>
  </defs>
  <g id="Group_65508" data-name="Group 65508" transform="translate(-110 -999)">
    <rect id="Rectangle_11039" data-name="Rectangle 11039" width="88" height="88" rx="12" transform="translate(110 999)" fill="#e6e2ff"/>
    <g id="Group_65504" data-name="Group 65504">
      <path id="Path_72845" data-name="Path 72845" d="M99.795,418.425a.951.951,0,0,0,.237,1.373l7.578,5.541a.951.951,0,0,0,1.373-.237l2.936-4.073-9.188-6.63Z" transform="translate(33.402 638.375)" stroke="rgba(0,0,0,0)" stroke-width="1" fill="url(#linear-gradient)"/>
      <path id="Path_72846" data-name="Path 72846" d="M192.674,294.4a2.243,2.243,0,0,0-2.321-.568l-6.867,2.273v.521a4.243,4.243,0,0,1-3.315,4.026l-.473.094a46.224,46.224,0,0,1-7.625,1.089l-2.084.095a1.162,1.162,0,1,1-.142-2.32l2.084-.095a46.775,46.775,0,0,0,7.246-.995l.426-.095a1.975,1.975,0,0,0,1.516-1.847,2.186,2.186,0,0,0-.521-1.421,1.945,1.945,0,0,0-1.373-.616l-11.035-.189a5.74,5.74,0,0,0-3.41,1.089l-9.093,6.773,9.614,7.009,9.283.758a6.454,6.454,0,0,0,4.5-1.373l13.356-10.845a2.286,2.286,0,0,0,.852-1.658,2.18,2.18,0,0,0-.615-1.7Z" transform="translate(-17.942 748.856)" stroke="rgba(0,0,0,0)" stroke-width="1" fill="url(#linear-gradient)"/>
      <g id="noun-savings-2212347" transform="translate(-91.51 848.32)">
        <path id="Path_74029" data-name="Path 74029" d="M244.76,182.686a8,8,0,1,0,8-8.006A8.012,8.012,0,0,0,244.76,182.686Z" fill="url(#linear-gradient)"/>
        <path id="Path_74030" data-name="Path 74030" d="M326.232,231.075h.061a1.067,1.067,0,1,1-1.071,1.067.426.426,0,1,0-.852,0,1.917,1.917,0,0,0,1.436,1.848v.293a.426.426,0,0,0,.852,0v-.26a1.917,1.917,0,0,0-.365-3.8h-.061a1.067,1.067,0,1,1,1.071-1.067.426.426,0,1,0,.852,0,1.92,1.92,0,0,0-1.5-1.867v-.275a.426.426,0,1,0-.852,0v.275a1.916,1.916,0,0,0,.426,3.785Z" transform="translate(-73.503 -47.963)" fill="#fff"/>
      </g>
    </g>
  </g>
</svg>
