<svg xmlns="http://www.w3.org/2000/svg" xmlns:xlink="http://www.w3.org/1999/xlink" width="88" height="88" viewBox="0 0 88 88">
  <defs>
    <linearGradient id="linear-gradient" x1="0.084" y1="0.081" x2="0.935" y2="0.939" gradientUnits="objectBoundingBox">
      <stop offset="0" stop-color="#9a91da"/>
      <stop offset="1" stop-color="#5d53af"/>
    </linearGradient>
  </defs>
  <g id="Group_65511" data-name="Group 65511" transform="translate(-1009 -999)">
    <rect id="Rectangle_11039" data-name="Rectangle 11039" width="88" height="88" rx="12" transform="translate(1009 999)" fill="#e6e2ff"/>
    <g id="Group_65507" data-name="Group 65507">
      <path id="Path_74039" data-name="Path 74039" d="M200.5,105.258c-1.129-1.129-2.258-2.2-3.327-3.327-.356-.356-.475-.356-.891-.059a3.279,3.279,0,0,1-4.634-.3,3.788,3.788,0,0,1,.059-5.228c-.059-.059-.059-.119-.119-.119-1.129-1.129-2.2-2.258-3.327-3.327-1.723-1.664-3.268-1.723-4.931,0-3.684,3.684-7.367,7.308-11.051,10.991-3.268,3.268-6.536,6.476-9.744,9.744a2.894,2.894,0,0,0,0,4.456l3.208,3.208c.356.356.594.535,1.069.178a3.045,3.045,0,0,1,2.5-.535,3.568,3.568,0,0,1,2.317,5.466c-.178.3-.356.416,0,.773,1.307,1.248,2.5,2.555,3.8,3.743a2.78,2.78,0,0,0,3.862-.059q10.694-10.605,21.27-21.27a2.933,2.933,0,0,0-.059-4.337Zm-31.014,4.278a.575.575,0,0,1-.832,0l-.416-.416a.588.588,0,1,1,.832-.832l.416.416a.574.574,0,0,1,0,.832Zm2.258,2.2a.575.575,0,0,1-.832,0l-.891-.891a.588.588,0,1,1,.832-.832l.891.891a.573.573,0,0,1,0,.832Zm2.2,2.257a.642.642,0,0,1-.416.178.54.54,0,0,1-.416-.178l-.891-.891a.588.588,0,0,1,.832-.832l.891.891a.574.574,0,0,1,0,.832Zm2.258,2.258a.642.642,0,0,1-.416.178.54.54,0,0,1-.416-.178l-.891-.891a.588.588,0,1,1,.832-.832l.891.891A.574.574,0,0,1,176.2,116.25Zm2.2,2.2a.575.575,0,0,1-.832,0l-.891-.891a.588.588,0,1,1,.832-.832l.891.891A.574.574,0,0,1,178.4,118.448Zm2.258,2.258a.575.575,0,0,1-.832,0l-.891-.891a.588.588,0,1,1,.832-.832l.891.891A.574.574,0,0,1,180.658,120.706Zm2.2,2.2a.575.575,0,0,1-.832,0l-.891-.891a.588.588,0,0,1,.832-.832l.891.891a.573.573,0,0,1,0,.832Zm1.782,1.782a.575.575,0,0,1-.832,0l-.416-.416a.588.588,0,1,1,.832-.832l.416.416A.574.574,0,0,1,184.639,124.686Z" transform="translate(871.51 931.347)" fill="url(#linear-gradient)"/>
    </g>
  </g>
</svg>
