<svg xmlns="http://www.w3.org/2000/svg" xmlns:xlink="http://www.w3.org/1999/xlink" width="88" height="88" viewBox="0 0 88 88">
  <defs>
    <linearGradient id="linear-gradient" x1="0.084" y1="0.081" x2="0.935" y2="0.939" gradientUnits="objectBoundingBox">
      <stop offset="0" stop-color="#ffa756"/>
      <stop offset="1" stop-color="#ff8835"/>
    </linearGradient>
  </defs>
  <g id="Group_65510" data-name="Group 65510" transform="translate(-728 -999)">
    <rect id="Rectangle_11039" data-name="Rectangle 11039" width="88" height="88" rx="12" transform="translate(728 999)" fill="#fff0e0"/>
    <g id="Group_65506" data-name="Group 65506">
      <path id="Path_68965" data-name="Path 68965" d="M419.936,187.757a.255.255,0,0,0,0-.495c-3.039-.765-3.909-1.635-4.673-4.673h0a.255.255,0,0,0-.495,0c-.765,3.039-1.635,3.908-4.673,4.673h0a.255.255,0,0,0,0,.495c3.039.765,3.908,1.635,4.673,4.673h0a.255.255,0,0,0,.495,0C416.027,189.39,416.9,188.521,419.936,187.757Z" transform="translate(376.808 875.369)" fill="url(#linear-gradient)"/>
      <path id="Path_68968" data-name="Path 68968" d="M419.332,187.434a.24.24,0,0,0,0-.465c-2.856-.719-3.673-1.536-4.392-4.392h0a.24.24,0,0,0-.465,0c-.719,2.856-1.536,3.673-4.392,4.392h0a.24.24,0,0,0,0,.465c2.856.719,3.673,1.536,4.392,4.392h0a.24.24,0,0,0,.465,0C415.659,188.97,416.476,188.153,419.332,187.434Z" transform="translate(337.164 835.614)" fill="url(#linear-gradient)"/>
      <g id="noun-discounts-5471206" transform="translate(626.902 995.38)">
        <path id="Path_74035" data-name="Path 74035" d="M149.027,52.5a4.991,4.991,0,0,0,1.964,2.128,8.161,8.161,0,0,1,1.726,1.573,8.266,8.266,0,0,1,.98,2.151,4.983,4.983,0,0,0,1.4,2.5,4.907,4.907,0,0,0,2.792.557,8.35,8.35,0,0,1,2.367.273,7.989,7.989,0,0,1,2,1.138,3.521,3.521,0,0,0,5.332,0,7.987,7.987,0,0,1,2-1.135,8.364,8.364,0,0,1,2.367-.274,4.962,4.962,0,0,0,2.791-.557,4.987,4.987,0,0,0,1.4-2.5h0a8.25,8.25,0,0,1,.98-2.151,8.149,8.149,0,0,1,1.726-1.574A4.982,4.982,0,0,0,180.82,52.5a4.923,4.923,0,0,0-.332-2.785h0a8.476,8.476,0,0,1-.478-2.378,8.476,8.476,0,0,1,.478-2.378,4.923,4.923,0,0,0,.332-2.785,4.992,4.992,0,0,0-1.964-2.128h0a8.138,8.138,0,0,1-1.726-1.574,8.251,8.251,0,0,1-.98-2.151,4.983,4.983,0,0,0-1.4-2.5,4.907,4.907,0,0,0-2.792-.557,8.351,8.351,0,0,1-2.367-.273,7.96,7.96,0,0,1-2-1.138,3.515,3.515,0,0,0-5.333-.007,7.956,7.956,0,0,1-2,1.138,8.365,8.365,0,0,1-2.367.274,4.962,4.962,0,0,0-2.791.557,5.05,5.05,0,0,0-1.4,2.5h0a8.25,8.25,0,0,1-.98,2.151,8.148,8.148,0,0,1-1.726,1.574,4.982,4.982,0,0,0-1.964,2.128,4.922,4.922,0,0,0,.332,2.785h0a8.476,8.476,0,0,1,.478,2.378,8.476,8.476,0,0,1-.478,2.378,4.944,4.944,0,0,0-.331,2.79Z" transform="translate(-19.825 0)" stroke="rgba(0,0,0,0)" stroke-width="1" fill="url(#linear-gradient)"/>
      </g>
      <g id="noun-one-2675102" transform="translate(606.822 966.991)">
        <path id="Path_74038" data-name="Path 74038" d="M166.9,81.346H163.66a1.057,1.057,0,0,1-1.064-1,1.036,1.036,0,0,1,1.038-1.074.569.569,0,0,0,.571-.571V72.583l-.41.145a1.038,1.038,0,0,1-1.334-.674,1.052,1.052,0,0,1,.674-1.292l1.764-.612a1.035,1.035,0,0,1,1.136.311,1.068,1.068,0,0,1,.244.69v7.529a.6.6,0,0,0,.6.6,1.057,1.057,0,0,1,1.064,1,1.038,1.038,0,0,1-1.038,1.069Z" fill="#f8f8f8"/>
      </g>
    </g>
  </g>
</svg>
