<svg xmlns="http://www.w3.org/2000/svg" width="16" height="16" viewBox="0 0 16 16">
    <path fill="#000" fill-rule="nonzero" d="M16 10.402c0 1.178-.962 2.139-2.117 2.139a.595.595 0 0 1-.602-.601c0-.336.265-.6.602-.6.529 0 .938-.433.938-.938V2.138a.939.939 0 0 0-.938-.937H5.606a.939.939 0 0 0-.938.937c0 .336-.265.6-.602.6a.595.595 0 0 1-.601-.6C3.465.961 4.427 0 5.606 0h8.253C15.038 0 16 .961 16 2.138v8.264zM10.394 3.46c1.179 0 2.141.961 2.165 2.139v8.264A2.144 2.144 0 0 1 10.418 16H2.141A2.144 2.144 0 0 1 0 13.862V5.598C0 4.42.962 3.459 2.141 3.459h8.253zm.938 10.403h.024V5.598a.939.939 0 0 0-.938-.937H2.141a.939.939 0 0 0-.938.937v8.264c0 .528.433.937.938.937h8.253c.53 0 .938-.433.938-.937zM3.43 12.18h5.723a.591.591 0 0 1 0 1.182H3.43a.591.591 0 1 1 0-1.182z"/>
</svg>
