<svg xmlns="http://www.w3.org/2000/svg" width="13" height="16" viewBox="0 0 13 16">
    <path fill="#000" fill-rule="nonzero" stroke="#000" stroke-width=".3" d="M1.509 1.003c-.6 0-1.098.498-1.098 1.098a.47.47 0 1 0 .94 0c0-.095.063-.157.158-.157h5.018a.47.47 0 1 0 0-.94H1.51zm-.633.706a.47.47 0 0 0-.466.48v12.115c0 .6.499 1.098 1.099 1.098h5.018a.47.47 0 1 0 0-.94H1.51c-.095 0-.157-.063-.157-.158V2.19a.47.47 0 0 0-.476-.48zm7.166 2.426a.47.47 0 0 0-.28.809L10.41 7.59H3.704a.47.47 0 1 0 0 .941h6.705l-2.647 2.647a.471.471 0 1 0 .667.666l3.45-3.45a.47.47 0 0 0 0-.667l-3.45-3.45a.47.47 0 0 0-.338-.142.47.47 0 0 0-.05 0z"/>
</svg>
