<svg xmlns="http://www.w3.org/2000/svg" width="16" height="17" viewBox="0 0 16 17">
    <path fill="#000" fill-rule="nonzero" d="M.223 12.371A1.999 1.999 0 0 1 .76 9.888l.728-.609a5.979 5.979 0 0 1 0-1.558L.76 7.11a2.022 2.022 0 0 1-.532-2.478c.131-.254.277-.5.437-.737a2.149 2.149 0 0 1 2.484-.8l.915.318a6.389 6.389 0 0 1 1.388-.779l.153-.939C5.78.744 6.613.04 7.607 0h.758c.999.037 1.836.746 2.01 1.704l.176.931c.497.203.966.468 1.395.786l.914-.319a2.15 2.15 0 0 1 2.477.794c.16.236.307.481.441.733.426.848.206 1.87-.536 2.48l-.728.608a5.979 5.979 0 0 1 0 1.559l.728.609c.753.603.974 1.633.532 2.479a7.23 7.23 0 0 1-.437.74 2.149 2.149 0 0 1-2.484.8l-.915-.318a6.54 6.54 0 0 1-1.387.779l-.183.939c-.176.952-1.009 1.657-2.003 1.696h-.729c-.999-.037-1.836-.746-2.01-1.704l-.175-.931a6.539 6.539 0 0 1-1.396-.786l-.914.319a2.15 2.15 0 0 1-2.477-.794 7.997 7.997 0 0 1-.44-.733zm7.778-1.038c-1.61 0-2.915-1.268-2.915-2.833 0-1.565 1.305-2.833 2.915-2.833s2.914 1.268 2.914 2.833c0 1.565-1.305 2.833-2.914 2.833zm0-4.25c-.805 0-1.458.635-1.458 1.417s.653 1.417 1.458 1.417c.804 0 1.457-.635 1.457-1.417S8.805 7.083 8 7.083zm-6.299 3.871v.025a.619.619 0 0 0-.178.755c.11.211.231.417.364.616a.659.659 0 0 0 .765.226l1.297-.45a.74.74 0 0 1 .721.131 5.137 5.137 0 0 0 1.654.929c.248.084.43.29.477.541l.248 1.322c.059.301.325.523.64.534.207.011.414.011.62 0a.672.672 0 0 0 .634-.53l.248-1.322a.714.714 0 0 1 .477-.542 5.137 5.137 0 0 0 1.654-.928c.2-.17.48-.22.728-.13l1.297.449a.659.659 0 0 0 .765-.227c.133-.199.255-.404.364-.616a.619.619 0 0 0-.178-.758l-1.045-.885a.698.698 0 0 1-.248-.673 4.627 4.627 0 0 0 0-1.863.698.698 0 0 1 .248-.673l1.045-.864a.62.62 0 0 0 .186-.755 6.568 6.568 0 0 0-.365-.616.663.663 0 0 0-.764-.226l-1.297.45a.745.745 0 0 1-.729-.132 5.137 5.137 0 0 0-1.654-.928.714.714 0 0 1-.477-.541l-.248-1.325a.672.672 0 0 0-.64-.531 6.02 6.02 0 0 0-.62 0 .672.672 0 0 0-.634.53L6.81 3.27a.714.714 0 0 1-.477.542 5.137 5.137 0 0 0-1.654.928c-.2.17-.479.22-.728.13L2.653 4.42a.663.663 0 0 0-.765.227 6.568 6.568 0 0 0-.364.616.619.619 0 0 0 .178.758l1.05.86c.2.166.293.423.243.673a4.627 4.627 0 0 0 0 1.863.697.697 0 0 1-.244.673l-1.049.864z"/>
</svg>
