<svg xmlns="http://www.w3.org/2000/svg" width="13" height="18" viewBox="0 0 13 18">
    <path fill="#000" fill-rule="nonzero" d="M6.953 11.57c1.251-.612 1.844-1.608 1.844-3.062V3.59c0-1.614-.693-2.311-2.297-2.311s-2.297.697-2.297 2.311v4.918c0 .716.859.932 3.12.364a.64.64 0 0 1 .308 1.24c-2.951.743-4.699.303-4.699-1.604V3.59C2.932 1.27 4.194 0 6.5 0s3.568 1.27 3.568 3.59v4.918c0 1.988-.905 3.431-2.642 4.251a.978.978 0 0 1-.926.667.98.98 0 0 1-.977-.983.98.98 0 0 1 1.43-.872zm-2.408-.75c.351 0 .635.286.635.639 0 .353-.284.64-.635.64-2.184 0-3.274.274-3.274.344v4.918c0 .353-.285.639-.636.639A.637.637 0 0 1 0 17.36v-4.917C0 11.2 1.517 10.82 4.545 10.82zm5.865 1.278a.637.637 0 0 1-.636-.639c0-.353.285-.64.636-.64 1.609 0 2.59.494 2.59 1.624v4.918c0 .353-.284.639-.635.639a.637.637 0 0 1-.636-.64v-4.917c0-.183-.322-.345-1.32-.345z"/>
</svg>
