<?xml version="1.0" encoding="utf-8"?>
<!-- Generator: Adobe Illustrator 27.0.0, SVG Export Plug-In . SVG Version: 6.00 Build 0)  -->
<svg version="1.1" id="Layer_1" xmlns="http://www.w3.org/2000/svg" xmlns:xlink="http://www.w3.org/1999/xlink" x="0px" y="0px"
	 viewBox="0 0 440 230" style="enable-background:new 0 0 440 230;" xml:space="preserve">
<style type="text/css">
	.st0{fill:none;stroke:#000000;stroke-miterlimit:10;}
	.st1{fill:none;stroke:#FFFFFF;stroke-miterlimit:10;}
	.st2{fill:#FFFFFF;}
	.st3{opacity:0.1;}
	.st4{clip-path:url(#SVGID_00000023261371653665511150000005033733090436675746_);}
	.st5{clip-path:url(#SVGID_00000061441191481516942740000016325556171006368157_);}
	.st6{stroke:#F9F9F9;stroke-miterlimit:10;}
	.st7{clip-path:url(#SVGID_00000123399160203488358820000002782639999454078337_);}
	.st8{clip-path:url(#SVGID_00000100357836049772478060000006727531293373940896_);}
</style>
<g>
	<path class="st0" d="M222.7,222.3c-25,0-50.1-0.1-75.1-0.4l-37.6-0.4c-11.9-0.2-23.8-0.4-35.7-0.7c0.9,1.8,1.4,3.8,1.5,6l149.5-4.5
		C224.5,222.3,223.6,222.3,222.7,222.3z"/>
	<g>
		<path class="st0" d="M335.3,5.4c11.6,0.2,23.2,0.4,34.8,0.7c-0.3-0.9-0.5-1.9-0.5-2.9l-63.4,1.9L335.3,5.4z"/>
		<path class="st0" d="M382.6,206.6c-0.8-0.8-1.3-1.8-1.4-3c0-0.3,0-0.6,0.1-0.8c0-0.3,0.1-0.5,0.2-0.8c0.1-0.3,0.2-0.5,0.4-0.8
			c0.1-0.2,0.3-0.5,0.5-0.7c0.7-0.7,1.6-1.2,2.6-1.3l-0.1-4c-2.2-0.1-4-1.9-4-4.1c-0.1-2.2,1.6-4.1,3.8-4.3l-0.1-4
			c-2.2-0.1-4-1.9-4-4.1c-0.1-2.2,1.6-4.1,3.8-4.3l-0.1-4c-2.2-0.1-4-1.9-4-4.1c-0.1-2.2,1.6-4.1,3.8-4.3l-0.1-4
			c-2.2-0.1-4-1.9-4-4.1c-0.1-2.2,1.6-4.1,3.8-4.3l-0.1-4c-2.2-0.1-4-1.9-4-4.1c-0.1-2.2,1.6-4.1,3.8-4.3l-0.1-4
			c-2.2-0.1-4-1.9-4-4.1c-0.1-2.2,1.6-4.1,3.8-4.3l-0.1-4c-2.2-0.1-4-1.9-4-4.1s1.6-4.1,3.8-4.3l-0.1-4c-2.2-0.1-4-1.9-4-4.1
			c-0.1-2.2,1.6-4.1,3.8-4.3l-0.1-4c-2.2-0.1-4-1.9-4-4.1c-0.1-2.2,1.6-4.1,3.8-4.3l-0.1-4c-2.2-0.1-4-1.9-4-4.1
			c-0.1-2.2,1.6-4.1,3.8-4.3l-0.1-4c-2.2-0.1-4-1.9-4-4.1c-0.1-2.2,1.6-4.1,3.8-4.3l-0.1-4c-2.2-0.1-4-1.9-4-4.1
			c-0.1-2.2,1.6-4.1,3.8-4.3l-0.1-4c-2.2-0.1-4-1.9-4-4.1c-0.1-2.2,1.6-4.1,3.8-4.3l-0.1-4c-2.2-0.1-4-1.9-4-4.1s1.6-4.1,3.8-4.3
			l-0.1-4c-1,0-2-0.4-2.7-1.1c-0.2-0.2-0.4-0.4-0.6-0.6c-0.2-0.2-0.3-0.5-0.4-0.7c-0.1-0.3-0.2-0.5-0.3-0.8
			c-0.1-0.3-0.1-0.5-0.1-0.8c0-1.1,0.4-2.2,1.2-3.1c0.2-0.2,0.5-0.5,0.8-0.6c-3.5-0.9-6.2-3.5-7.4-6.9c-11.6,0.3-23.2,0.4-34.8,0.7
			l-37.5,0.4c-25,0.3-50.1,0.3-75.1,0.3c-0.2,0-0.4,0-0.7,0L69.3,12.3c0.2,8.2-6.2,15-14.3,15.2l0.2,7.6c7.6-0.2,14,5.8,14.3,13.4
			c0.2,7.6-5.8,14-13.4,14.3l0.2,7.8c7.6-0.2,14,5.8,14.3,13.4c0.2,7.6-5.8,14-13.4,14.3l0.2,7.8c7.6-0.2,14,5.8,14.3,13.4
			c0.2,7.6-5.8,14-13.4,14.3l0.2,7.9c7.6-0.2,14,5.8,14.3,13.4c0.2,7.6-5.8,14-13.4,14.3l0.2,7.9c7.6-0.2,14,5.8,14.3,13.4
			c0.2,7.6-5.8,14-13.4,14.3l0.2,7.6c6-0.2,11.2,3.2,13.7,8.3c11.9-0.3,23.8-0.4,35.7-0.7l37.5-0.4c25-0.3,50.1-0.3,75.1-0.4
			c25,0,50.1,0.1,75.1,0.4l10.9,0.1l67.4-2.1c-0.1-4.8,3-9,7.3-10.4c-0.1,0-0.1-0.1-0.2-0.1C383,207,382.8,206.8,382.6,206.6z"/>
	</g>
	<path d="M380.3,210.5c-0.2-0.1-0.5-0.3-0.6-0.5c-0.8-0.8-1.3-1.9-1.3-3c0-0.3,0-0.6,0.1-0.8c0.1-0.3,0.1-0.5,0.2-0.8
		c0.1-0.2,0.2-0.5,0.4-0.7c0.2-0.2,0.3-0.4,0.5-0.6c0.7-0.7,1.7-1.1,2.7-1.2v-4c-2.2-0.2-3.9-2-3.9-4.2c0-2.2,1.7-4,3.9-4.2v-4
		c-2.2-0.2-3.9-2-3.9-4.2c0-2.2,1.7-4,3.9-4.2v-4c-2.2-0.2-3.9-2-3.9-4.2s1.7-4,3.9-4.2v-4c-2.2-0.2-3.9-2-3.9-4.2s1.7-4,3.9-4.2v-4
		c-2.2-0.2-3.9-2-3.9-4.2c0-2.2,1.7-4,3.9-4.2v-4c-2.2-0.2-3.9-2-3.9-4.2c0-2.2,1.7-4,3.9-4.2v-4c-2.2-0.2-3.9-2-3.9-4.2
		c0-2.2,1.7-4,3.9-4.2v-4c-2.2-0.2-3.9-2-3.9-4.2c0-2.2,1.7-4,3.9-4.2V99c-2.2-0.2-3.9-2-3.9-4.2c0-2.2,1.7-4,3.9-4.2v-4
		c-2.2-0.2-3.9-2-3.9-4.2c0-2.2,1.7-4,3.9-4.2v-4c-2.2-0.2-3.9-2-3.9-4.2s1.7-4,3.9-4.2v-4c-2.2-0.2-3.9-2-3.9-4.2
		c0-2.2,1.7-4,3.9-4.2v-4c-2.2-0.2-3.9-2-3.9-4.2c0-2.2,1.7-4,3.9-4.2v-4c-2.2-0.2-3.9-2-3.9-4.2s1.7-4,3.9-4.2v-4
		c-1-0.1-2-0.5-2.7-1.2c-0.2-0.2-0.4-0.4-0.5-0.6c-0.1-0.2-0.3-0.5-0.4-0.7c-0.1-0.3-0.2-0.5-0.2-0.8c-0.1-0.3-0.1-0.5-0.1-0.8
		c0-1.1,0.5-2.2,1.3-3c0.2-0.2,0.5-0.5,0.8-0.6c-4.4-1.3-7.6-5.4-7.6-10.2H72.5c0,8.2-6.6,14.8-14.8,14.8v7.6
		c7.7,0,13.8,6.2,13.8,13.9s-6.2,13.9-13.8,13.9v7.9c7.7,0,13.8,6.2,13.8,13.8s-6.2,13.8-13.8,13.8v7.9c7.7,0,13.8,6.2,13.8,13.8
		s-6.2,13.8-13.8,13.8v7.9c7.7,0,13.8,6.2,13.8,13.9c0,7.6-6.2,13.9-13.8,13.9v7.9c7.7,0,13.8,6.2,13.8,13.9
		c0,7.6-6.2,13.9-13.8,13.9v7.6c8.2,0,14.8,6.6,14.8,14.8h300.4c0-4.8,3.2-8.9,7.6-10.2C380.4,210.5,380.4,210.5,380.3,210.5z"/>
	<g>
		<path class="st1" d="M108.8,108.2h7.1c3.8,0,5.8-1.9,5.8-5.8V90h12.3c3.9,0,5.8-1.9,5.8-5.8v-4.3c0-3.9-1.9-5.8-5.8-5.8h-12.3
			v-9.8H138c3.8,0,5.8-1.9,5.8-5.8v-4.4c0-3.8-1.9-5.8-5.8-5.8h-29.2c-3.9,0-5.8,1.9-5.8,5.8v48.3
			C102.9,106.3,104.9,108.2,108.8,108.2z"/>
		<path class="st1" d="M346.1,65.5c-1.6-3.7-3.8-6.8-6.6-9.4c-2.9-2.5-6.3-4.5-10.5-5.8c-4.1-1.3-8.7-2-13.8-2h-17.4
			c-3.9,0-5.8,1.8-5.8,5.4v49c0,3.6,2,5.4,5.8,5.4h17.4c5.1,0,9.7-0.7,13.8-2.1c4.1-1.4,7.6-3.4,10.5-5.9c2.9-2.6,5.1-5.7,6.6-9.4
			c1.6-3.7,2.4-7.9,2.4-12.6C348.4,73.4,347.6,69.2,346.1,65.5z M325.3,89.4c-2.5,2.5-6.1,3.8-10.7,3.8h-4V63.3h4
			c4.4,0,8,1.2,10.6,3.7c2.6,2.4,3.9,6.2,3.9,11.2C329.1,83.1,327.8,86.9,325.3,89.4z"/>
		<path class="st1" d="M160.4,139.5c0-3.8-0.6-7.4-1.8-10.6c-1.2-3.3-2.9-6.1-5-8.4s-4.8-4.2-7.8-5.6c-3-1.3-6.4-2-10.2-2h-25.8
			c-4.6,0-6.8,2.2-6.8,6.7v61.1c0,4.5,2.3,6.7,6.8,6.7h8.3c4.5,0,6.7-2.2,6.7-6.7v-14.2h10.8c3.7,0,7.1-0.7,10.2-2
			c3-1.4,5.6-3.2,7.8-5.6c2.2-2.4,3.9-5.3,5-8.6C159.8,146.9,160.4,143.4,160.4,139.5z M136.5,145.4c-1.1,1.6-3,2.4-5.6,2.4h-6.1
			v-16.3h6.5c2.4,0,4.2,0.8,5.2,2.3c1.1,1.5,1.6,3.4,1.6,5.7C138.2,141.8,137.6,143.7,136.5,145.4z"/>
		<path class="st1" d="M206,118.3c-1.2-3.7-3.8-5.5-7.7-5.5H187c-3.9,0-6.4,1.8-7.7,5.5l-20.2,61.3c-0.8,2.4-0.7,4.2,0.3,5.6
			c1,1.4,2.8,2.1,5.2,2.1h8.4c3.9,0,6.4-1.9,7.5-5.7l1.6-7.3h21.1l1.6,7.3c1.2,3.8,3.8,5.7,7.7,5.7h8.4c2.4,0,4.1-0.7,5.2-2.1
			c1-1.4,1.1-3.3,0.3-5.6L206,118.3z M187,157.1l2.5-10.4c0.3-1.2,0.7-2.7,1-4.3c0.3-1.6,0.6-3.1,1-4.5c0.4-1.7,0.7-3.3,1-5h0.2
			c0.3,1.7,0.7,3.3,1,5c0.4,1.4,0.7,2.9,1,4.5c0.4,1.6,0.7,3.1,1,4.3l2.3,10.4H187z"/>
		<path class="st1" d="M276.5,148c-2.4-1.7-4.9-3.1-7.6-4.2c-2.7-1.1-5.3-2-7.6-2.9s-4.3-1.8-5.9-2.6c-1.6-0.9-2.3-2.1-2.3-3.5
			c0-1,0.4-1.8,1.2-2.4c0.8-0.7,2.3-1,4.4-1c2.2,0,4.1,0.4,5.8,1c1.6,0.7,3.4,1.4,5.2,2.3c0.8,0.4,1.7,0.8,2.5,1
			c0.9,0.3,1.7,0.4,2.4,0.3s1.5-0.4,2.2-1c0.7-0.6,1.4-1.4,2-2.7l3-5.9c0.9-1.8,1.2-3.5,0.9-5s-1.3-3-3.1-4.3
			c-1-0.6-2.2-1.3-3.7-1.9c-1.5-0.7-3.1-1.2-4.9-1.8c-1.8-0.5-3.7-0.9-5.8-1.2c-2.1-0.3-4.2-0.5-6.3-0.5c-3.9,0-7.6,0.6-11,1.7
			c-3.4,1.1-6.3,2.8-8.8,4.8c-2.5,2.1-4.4,4.6-5.8,7.5s-2.1,6.2-2.1,9.8c0,4,0.8,7.4,2.3,10c1.6,2.7,3.5,4.9,5.9,6.7
			s4.9,3.3,7.6,4.4c2.7,1.1,5.2,2.2,7.6,3.1s4.3,1.8,5.9,2.7s2.3,2,2.3,3.3c0,0.9-0.4,1.7-1.1,2.3c-0.8,0.7-2.2,1-4.4,1
			c-1.4,0-2.8-0.2-4-0.5c-1.2-0.3-2.4-0.8-3.4-1.2c-1-0.5-1.9-1-2.8-1.4s-1.5-0.8-2.1-1c-2-1.1-3.8-1.6-5.2-1.4
			c-1.5,0.2-2.9,1.2-4.1,3l-3.9,5.7c-1.6,2.4-2.1,4.2-1.5,5.7s1.5,2.7,2.9,3.6c1,0.8,2.4,1.7,4.1,2.5c1.7,0.9,3.6,1.6,5.8,2.3
			c2.1,0.7,4.4,1.3,6.9,1.7c2.4,0.4,5,0.7,7.5,0.7c4.4,0,8.3-0.7,11.7-2s6.2-3.1,8.6-5.3c2.3-2.2,4.1-4.8,5.3-7.7
			c1.2-2.9,1.8-6,1.8-9.2c0-4-0.8-7.3-2.3-10C280.8,151.9,278.9,149.7,276.5,148z"/>
		<path class="st1" d="M336.5,148c-2.4-1.7-4.9-3.1-7.6-4.2c-2.7-1.1-5.3-2-7.6-2.9s-4.3-1.8-5.9-2.6c-1.6-0.9-2.3-2.1-2.3-3.5
			c0-1,0.4-1.8,1.2-2.4s2.3-1,4.4-1c2.2,0,4.1,0.4,5.8,1c1.6,0.7,3.4,1.4,5.2,2.3c0.8,0.4,1.7,0.8,2.5,1c0.9,0.3,1.7,0.4,2.4,0.3
			s1.5-0.4,2.2-1c0.7-0.6,1.4-1.4,2-2.7l3-5.9c0.9-1.8,1.2-3.5,0.9-5s-1.3-3-3.1-4.3c-1-0.6-2.2-1.3-3.7-1.9
			c-1.5-0.7-3.1-1.2-4.9-1.8c-1.8-0.5-3.7-0.9-5.8-1.2c-2.1-0.3-4.2-0.5-6.3-0.5c-3.9,0-7.6,0.6-11,1.7c-3.4,1.1-6.3,2.8-8.8,4.8
			c-2.5,2.1-4.4,4.6-5.8,7.5c-1.4,2.9-2.1,6.2-2.1,9.8c0,4,0.8,7.4,2.3,10c1.6,2.7,3.5,4.9,5.9,6.7c2.4,1.8,4.9,3.3,7.6,4.4
			s5.2,2.2,7.6,3.1s4.3,1.8,5.9,2.7s2.3,2,2.3,3.3c0,0.9-0.4,1.7-1.1,2.3c-0.8,0.7-2.2,1-4.4,1c-1.5,0-2.8-0.2-4-0.5
			c-1.2-0.3-2.4-0.8-3.4-1.2c-1-0.5-2-1-2.8-1.4s-1.5-0.8-2.1-1c-2-1.1-3.8-1.6-5.2-1.4c-1.5,0.2-2.9,1.2-4.1,3l-3.9,5.7
			c-1.6,2.4-2.1,4.2-1.5,5.7s1.5,2.7,2.9,3.6c1,0.8,2.4,1.7,4.1,2.5c1.7,0.9,3.6,1.6,5.8,2.3c2.1,0.7,4.4,1.3,6.9,1.7
			c2.5,0.4,5,0.7,7.5,0.7c4.4,0,8.3-0.7,11.7-2s6.2-3.1,8.6-5.3c2.3-2.2,4.1-4.8,5.3-7.7c1.2-2.9,1.8-6,1.8-9.2c0-4-0.8-7.3-2.3-10
			C340.8,151.9,338.8,149.7,336.5,148z"/>
		<path class="st1" d="M270,45.8c-5.5-1.8-12.2-1.7-16.6-1.3c0,0-7.7,0.4-14.6,1.3v0L209,48.2l-20.7,1.7v0
			c-6.9,0.3-14.6,1.1-14.6,1.1c-5,0.4-13.1,1.6-18.4,5.4c-7.6,5.3-11.9,14.5-11,24.9c0,0,0,8.9,5.1,17c9.1,14.5,25.6,13.6,25.6,13.6
			c22.5-1.8,39.2-21.6,37.4-44.1c0-0.2-0.1-0.5-0.1-0.7l5.9-0.5c0,0.2,0,0.5,0,0.7c1.9,22.5,21.6,39.2,44.1,37.4
			c0,0,16.4-1.8,23-17.6c3.7-8.8,2.2-17.6,2.2-17.6c-0.6-7.6-3.9-14.1-8.8-18.6 M218.6,59.8l-8.1,0.7c-0.9-2-2-3.8-3.5-5.3l2.6-0.2
			l0,0l11.7-1C220,55.8,219.1,57.7,218.6,59.8z"/>
	</g>
	<g>
		<path class="st2" d="M103.9,51.2c0-3.8,1.9-5.8,5.8-5.8H139c3.8,0,5.8,1.9,5.8,5.8v4.4c0,3.8-1.9,5.8-5.8,5.8h-16.4v9.8h12.3
			c3.9,0,5.8,1.9,5.8,5.8v4.3c0,3.8-1.9,5.8-5.8,5.8h-12.3v12.4c0,3.8-1.9,5.8-5.8,5.8h-7.1c-3.9,0-5.8-1.9-5.8-5.8L103.9,51.2
			L103.9,51.2z"/>
		<path class="st2" d="M292.9,50.9c0-3.6,2-5.4,5.8-5.4h17.4c5.1,0,9.7,0.7,13.8,2c4.1,1.3,7.6,3.3,10.5,5.8
			c2.9,2.5,5.1,5.7,6.6,9.4c1.6,3.7,2.4,7.9,2.4,12.6c0,4.7-0.8,8.8-2.4,12.6c-1.6,3.7-3.8,6.9-6.6,9.4c-2.9,2.6-6.4,4.6-10.5,5.9
			c-4.1,1.4-8.7,2.1-13.8,2.1h-17.4c-3.9,0-5.8-1.8-5.8-5.4V50.9z M315.6,90.3c4.6,0,8.2-1.3,10.7-3.8c2.5-2.5,3.8-6.3,3.8-11.3
			c0-5-1.3-8.7-3.9-11.2c-2.6-2.4-6.1-3.7-10.6-3.7h-4v29.9H315.6z"/>
		<g>
			<path class="st2" d="M103.9,116.7c0-4.5,2.3-6.7,6.8-6.7h25.8c3.7,0,7.1,0.7,10.2,2c3,1.3,5.6,3.2,7.8,5.6c2.2,2.3,3.9,5.2,5,8.4
				c1.2,3.3,1.8,6.8,1.8,10.6c0,3.9-0.6,7.4-1.8,10.7c-1.2,3.3-2.9,6.1-5,8.6s-4.8,4.3-7.8,5.6c-3,1.4-6.4,2-10.2,2h-10.8v14.2
				c0,4.5-2.2,6.7-6.7,6.7h-8.3c-4.6,0-6.8-2.2-6.8-6.7L103.9,116.7L103.9,116.7z M131.9,144.9c2.6,0,4.5-0.8,5.6-2.4
				c1.1-1.6,1.7-3.6,1.7-5.9s-0.5-4.2-1.6-5.7s-2.8-2.3-5.2-2.3h-6.5v16.3H131.9z"/>
			<path class="st2" d="M180.4,115.4c1.2-3.7,3.8-5.5,7.7-5.5h11.3c3.9,0,6.4,1.8,7.7,5.5l20.2,61.3c0.8,2.4,0.7,4.2-0.3,5.6
				c-1,1.4-2.8,2.1-5.2,2.1h-8.4c-3.9,0-6.4-1.9-7.7-5.7l-1.6-7.3H183l-1.6,7.3c-1,3.8-3.5,5.7-7.5,5.7h-8.4c-2.4,0-4.1-0.7-5.2-2.1
				c-1-1.4-1.1-3.3-0.3-5.6L180.4,115.4z M199.1,154.2l-2.3-10.4c-0.4-1.2-0.7-2.7-1-4.3c-0.4-1.6-0.7-3.1-1-4.5
				c-0.4-1.7-0.7-3.3-1-5h-0.2c-0.4,1.7-0.7,3.3-1,5c-0.4,1.4-0.7,2.9-1,4.5c-0.3,1.6-0.6,3.1-1,4.3l-2.5,10.4H199.1z"/>
			<path class="st2" d="M234.1,178.5c-1.3-1-2.3-2.2-2.9-3.6c-0.6-1.4-0.1-3.4,1.5-5.7l3.9-5.7c1.2-1.8,2.6-2.8,4.1-3
				c1.5-0.2,3.2,0.2,5.2,1.4c0.6,0.2,1.3,0.6,2.1,1c0.8,0.5,1.7,1,2.8,1.4s2.2,0.9,3.4,1.2c1.2,0.4,2.6,0.5,4,0.5
				c2.1,0,3.6-0.3,4.4-1c0.8-0.7,1.1-1.4,1.1-2.3c0-1.3-0.8-2.4-2.3-3.3c-1.6-0.9-3.5-1.8-5.9-2.7c-2.4-0.9-4.9-1.9-7.6-3.1
				c-2.7-1.1-5.2-2.6-7.6-4.4s-4.3-4-5.9-6.7s-2.3-6-2.3-10c0-3.6,0.7-6.9,2.1-9.8s3.3-5.4,5.8-7.5c2.5-2.1,5.4-3.7,8.8-4.8
				s7-1.7,11-1.7c2.1,0,4.2,0.2,6.3,0.5c2.1,0.3,4,0.7,5.8,1.2c1.8,0.5,3.4,1.1,4.9,1.8c1.5,0.7,2.7,1.3,3.7,1.9
				c1.8,1.3,2.8,2.8,3.1,4.3c0.3,1.6,0,3.2-0.9,5l-3,5.9c-0.6,1.2-1.3,2.1-2,2.7c-0.7,0.6-1.5,0.9-2.2,1c-0.8,0.1-1.6,0-2.4-0.3
				c-0.9-0.3-1.7-0.6-2.5-1c-1.9-0.8-3.6-1.6-5.2-2.3s-3.5-1-5.8-1c-2.1,0-3.5,0.3-4.4,1s-1.2,1.5-1.2,2.4c0,1.4,0.8,2.6,2.3,3.5
				c1.6,0.9,3.5,1.8,5.9,2.6c2.4,0.9,4.9,1.8,7.6,2.9c2.7,1.1,5.3,2.5,7.6,4.2s4.3,3.9,5.9,6.5c1.6,2.6,2.3,5.9,2.3,10
				c0,3.2-0.6,6.3-1.8,9.2c-1.2,2.9-3,5.5-5.3,7.7c-2.3,2.2-5.2,4-8.6,5.3c-3.4,1.3-7.3,2-11.7,2c-2.6,0-5.1-0.2-7.5-0.7
				c-2.4-0.4-4.8-1-6.9-1.7c-2.1-0.7-4.1-1.5-5.8-2.3C236.5,180.2,235.1,179.3,234.1,178.5z"/>
			<path class="st2" d="M294,178.5c-1.3-1-2.3-2.2-2.9-3.6c-0.6-1.4-0.1-3.4,1.5-5.7l3.9-5.7c1.2-1.8,2.6-2.8,4.1-3
				c1.5-0.2,3.2,0.2,5.2,1.4c0.6,0.2,1.3,0.6,2.1,1c0.8,0.5,1.7,1,2.8,1.4s2.2,0.9,3.4,1.2c1.2,0.4,2.6,0.5,4,0.5
				c2.1,0,3.6-0.3,4.4-1c0.8-0.7,1.1-1.4,1.1-2.3c0-1.3-0.8-2.4-2.3-3.3c-1.6-0.9-3.5-1.8-5.9-2.7c-2.4-0.9-4.9-1.9-7.6-3.1
				s-5.2-2.6-7.6-4.4s-4.3-4-5.9-6.7s-2.3-6-2.3-10c0-3.6,0.7-6.9,2.1-9.8s3.3-5.4,5.8-7.5c2.5-2.1,5.4-3.7,8.8-4.8s7-1.7,11-1.7
				c2.1,0,4.2,0.2,6.3,0.5c2.1,0.3,4,0.7,5.8,1.2c1.8,0.5,3.4,1.1,4.9,1.8c1.5,0.7,2.7,1.3,3.7,1.9c1.8,1.3,2.8,2.8,3.1,4.3
				c0.3,1.6,0,3.2-0.9,5l-3,5.9c-0.6,1.2-1.3,2.1-2,2.7c-0.7,0.6-1.5,0.9-2.2,1c-0.8,0.1-1.6,0-2.4-0.3c-0.9-0.3-1.7-0.6-2.5-1
				c-1.9-0.8-3.6-1.6-5.2-2.3s-3.5-1-5.8-1c-2.1,0-3.5,0.3-4.4,1s-1.2,1.5-1.2,2.4c0,1.4,0.8,2.6,2.3,3.5c1.6,0.9,3.5,1.8,5.9,2.6
				c2.4,0.9,4.9,1.8,7.6,2.9c2.7,1.1,5.3,2.5,7.6,4.2s4.3,3.9,5.9,6.5c1.6,2.6,2.3,5.9,2.3,10c0,3.2-0.6,6.3-1.8,9.2
				c-1.2,2.9-3,5.5-5.3,7.7c-2.3,2.2-5.2,4-8.6,5.3c-3.4,1.3-7.3,2-11.7,2c-2.6,0-5.1-0.2-7.5-0.7c-2.5-0.4-4.8-1-6.9-1.7
				c-2.1-0.7-4.1-1.5-5.8-2.3C296.4,180.2,295.1,179.3,294,178.5z"/>
		</g>
		<g>
			<path class="st2" d="M288.4,66.7c-0.9-10.4-6.6-18.7-14.9-22.8c-5.9-2.8-14-2.7-19.1-2.3c0,0-7.7,0.4-14.6,1.3v0L210,45.3
				L189.2,47v0c-6.9,0.3-14.6,1.1-14.6,1.1c-5,0.4-13.1,1.6-18.4,5.4c-7.6,5.3-11.9,14.5-11,24.9c0,0,0,8.9,5.1,17
				c9.1,14.5,25.6,13.6,25.6,13.6c22.5-1.8,39.2-21.6,37.4-44.1c0-0.2-0.1-0.5-0.1-0.7l-1.6,0.1l7.5-0.6c0,0.3,0,0.5,0,0.7
				c1.9,22.5,21.6,39.2,44.1,37.4c0,0,16.4-1.8,23-17.6C289.8,75.4,288.4,66.7,288.4,66.7z M219.6,56.9l-8.6,0.7l0,0l0.5,0
				c-0.9-2-2-3.8-3.5-5.3l2.6-0.2l0,0l11.7-1C221,52.9,220.1,54.8,219.6,56.9z"/>
			<g class="st3">
				<g>
					<g>
						<defs>
							<path id="SVGID_1_" d="M210,45.3L189.2,47v0c-6.9,0.3-14.6,1.1-14.6,1.1c-5,0.4-13.1,1.6-18.4,5.4
								c-7.6,5.3-11.9,14.5-11,24.9c0,0,0,8.9,5.1,17c9.1,14.5,25.6,13.6,25.6,13.6c22.5-1.8,39.2-21.6,37.4-44.1
								c0-0.2-0.1-0.5-0.1-0.7l-1.6,0.1 M211,57.7L211,57.7l0.5,0c-0.9-2-2-3.8-3.5-5.3l2.6-0.2l0,0"/>
						</defs>
						<use xlink:href="#SVGID_1_"  style="overflow:visible;fill:#FFFFFF;"/>
						<clipPath id="SVGID_00000095330521603193143480000005686739235499067034_">
							<use xlink:href="#SVGID_1_"  style="overflow:visible;"/>
						</clipPath>
						<g style="clip-path:url(#SVGID_00000095330521603193143480000005686739235499067034_);">
							<polygon class="st2" points="186.1,313.3 177.4,78 168.7,313.3 							"/>
							<polygon class="st2" points="254.7,300.4 177.4,78 238.1,305.5 							"/>
							<polygon class="st2" points="316.5,268 177.4,78 302.1,277.7 							"/>
							<polygon class="st2" points="366.1,218.8 177.4,78 355.2,232.3 							"/>
							<polygon class="st2" points="399.1,157.2 177.4,78 392.7,173.4 							"/>
							<polygon class="st2" points="412.6,88.7 177.4,78 411.2,106.1 							"/>
							<polygon class="st2" points="405.4,19.3 177.4,78 409.1,36.2 							"/>
							<polygon class="st2" points="378.2,-45 177.4,78 386.7,-29.9 							"/>
							<polygon class="st2" points="333.3,-98.5 177.4,78 345.9,-86.5 							"/>
							<polygon class="st2" points="274.6,-136.5 177.4,78 290.2,-128.7 							"/>
							<polygon class="st2" points="207.5,-155.6 177.4,78 224.6,-152.7 							"/>
							<polygon class="st2" points="137.6,-154.1 177.4,78 154.9,-156.4 							"/>
							<polygon class="st2" points="71.3,-132.2 177.4,78 87.1,-139.5 							"/>
							<polygon class="st2" points="14.3,-91.9 177.4,78 27.3,-103.5 							"/>
							<polygon class="st2" points="-28.3,-36.6 177.4,78 -19.3,-51.5 							"/>
							<polygon class="st2" points="-52.9,28.8 177.4,78 -48.6,11.9 							"/>
							<polygon class="st2" points="-57.2,98.5 177.4,78 -58.1,81.1 							"/>
							<polygon class="st2" points="-40.9,166.4 177.4,78 -46.8,150 							"/>
							<polygon class="st2" points="-5.4,226.5 177.4,78 -15.8,212.6 							"/>
							<polygon class="st2" points="46.2,273.6 177.4,78 32.2,263.4 							"/>
							<polygon class="st2" points="109.4,303.4 177.4,78 92.9,297.8 							"/>
						</g>
					</g>
				</g>
				<g>
					<g>
						<defs>
							<path id="SVGID_00000005247308157460324070000006337193497909973635_" d="M220.6,64.5l-1.6,0.2c0,0.2,0,0.5,0.1,0.7
								c2.5,22.4,22.6,38.6,45.1,36.2c0,0,16.4-2.3,22.5-18.2c3.4-8.9,1.8-17.7,1.8-17.7c-1.1-10.4-7.1-18.5-15.5-22.3
								c-6-2.7-14.1-2.3-19.1-1.8c0,0-7.7,0.6-14.5,1.7v0l-20.7,2.3 M219.2,52.2L219.2,52.2l2.6-0.3c-1.2,1.8-2,3.8-2.5,5.9l0.5,0
								l0,0"/>
						</defs>
						<use xlink:href="#SVGID_00000005247308157460324070000006337193497909973635_"  style="overflow:visible;fill:#FFFFFF;"/>
						<clipPath id="SVGID_00000009577837099371604590000006301556790166876033_">
							<use xlink:href="#SVGID_00000005247308157460324070000006337193497909973635_"  style="overflow:visible;"/>
						</clipPath>
						<g style="clip-path:url(#SVGID_00000009577837099371604590000006301556790166876033_);">
							<polygon class="st2" points="270.3,158 256.8,71.7 276.6,156.8 							"/>
							<polygon class="st2" points="244.4,158.1 256.8,71.7 250.8,158.8 							"/>
							<polygon class="st2" points="219.6,150.6 256.8,71.7 225.5,153.2 							"/>
							<polygon class="st2" points="198,136.2 256.8,71.7 202.9,140.4 							"/>
							<polygon class="st2" points="181.7,116.2 256.8,71.7 185.2,121.6 							"/>
							<polygon class="st2" points="171.9,92.2 256.8,71.7 173.7,98.4 							"/>
							<polygon class="st2" points="169.6,66.3 256.8,71.7 169.5,72.8 							"/>
							<polygon class="st2" points="175.1,41 256.8,71.7 173,47.1 							"/>
							<polygon class="st2" points="187.6,18.4 256.8,71.7 183.9,23.6 							"/>
							<polygon class="st2" points="206.3,0.4 256.8,71.7 201.2,4.3 							"/>
							<polygon class="st2" points="229.4,-11.3 256.8,71.7 223.4,-9 							"/>
							<polygon class="st2" points="255,-15.7 256.8,71.7 248.5,-15.3 							"/>
							<polygon class="st2" points="280.7,-12.4 256.8,71.7 274.4,-13.9 							"/>
							<polygon class="st2" points="304.3,-1.7 256.8,71.7 298.7,-5 							"/>
							<polygon class="st2" points="323.7,15.4 256.8,71.7 319.4,10.6 							"/>
							<polygon class="st2" points="337.2,37.5 256.8,71.7 334.5,31.7 							"/>
							<polygon class="st2" points="343.7,62.6 256.8,71.7 342.8,56.2 							"/>
							<polygon class="st2" points="342.6,88.5 256.8,71.7 343.6,82.1 							"/>
							<polygon class="st2" points="333.9,112.9 256.8,71.7 336.7,107.1 							"/>
							<polygon class="st2" points="318.4,133.6 256.8,71.7 322.8,128.9 							"/>
							<polygon class="st2" points="297.5,149 256.8,71.7 303.1,145.8 							"/>
						</g>
					</g>
				</g>
			</g>
		</g>
		<g>
			<path d="M272.8,51.6c-0.6,3.2-1.1,3.7-4,4.4c2.9,0.7,3.4,1.2,4,4.4c0.6-3.2,1.1-3.7,4-4.4C273.9,55.3,273.4,54.8,272.8,51.6z"/>
			<path class="st2" d="M278.1,53.4c1.4-7.2,2.5-8.4,9-10c-6.5-1.5-7.6-2.8-9-10c-1.4,7.2-2.5,8.4-9,10
				C275.6,45,276.7,46.2,278.1,53.4z"/>
			<path d="M264.6,52.1c0.7-3.6,1.3-4.2,4.5-5c-3.2-0.8-3.8-1.4-4.5-5c-0.7,3.6-1.3,4.2-4.5,5C263.3,47.9,263.9,48.5,264.6,52.1z"/>
		</g>
	</g>
	<path class="st6" d="M278.1,53.4c1.4-7.2,2.5-8.4,9-10c-6.5-1.5-7.6-2.8-9-10c-1.4,7.2-2.5,8.4-9,10
		C275.6,45,276.7,46.2,278.1,53.4z"/>
	<g class="st3">
		<g>
			<g>
				<defs>
					<path id="SVGID_00000038375522767028393710000010782607286424151474_" d="M210,45.3L189.2,47v0c-6.9,0.3-14.6,1.1-14.6,1.1
						c-5,0.4-13.1,1.6-18.4,5.4c-7.6,5.3-11.9,14.5-11,24.9c0,0,0,8.9,5.1,17c9.1,14.5,25.6,13.6,25.6,13.6
						c22.5-1.8,39.2-21.6,37.4-44.1c0-0.2-0.1-0.5-0.1-0.7l-1.6,0.1 M211,57.7L211,57.7l0.5,0c-0.9-2-2-3.8-3.5-5.3l2.6-0.2l0,0"/>
				</defs>
				<use xlink:href="#SVGID_00000038375522767028393710000010782607286424151474_"  style="overflow:visible;fill:#FFFFFF;"/>
				<clipPath id="SVGID_00000149366970116305447570000004080062588004915122_">
					<use xlink:href="#SVGID_00000038375522767028393710000010782607286424151474_"  style="overflow:visible;"/>
				</clipPath>
				<g style="clip-path:url(#SVGID_00000149366970116305447570000004080062588004915122_);">
					<polygon class="st2" points="186.1,313.3 177.4,78 168.7,313.3 					"/>
					<polygon class="st2" points="254.7,300.4 177.4,78 238.1,305.5 					"/>
					<polygon class="st2" points="316.5,268 177.4,78 302.1,277.7 					"/>
					<polygon class="st2" points="366.1,218.8 177.4,78 355.2,232.3 					"/>
					<polygon class="st2" points="399.1,157.2 177.4,78 392.7,173.4 					"/>
					<polygon class="st2" points="412.6,88.7 177.4,78 411.2,106.1 					"/>
					<polygon class="st2" points="405.4,19.3 177.4,78 409.1,36.2 					"/>
					<polygon class="st2" points="378.2,-45 177.4,78 386.7,-29.9 					"/>
					<polygon class="st2" points="333.3,-98.5 177.4,78 345.9,-86.5 					"/>
					<polygon class="st2" points="274.6,-136.5 177.4,78 290.2,-128.7 					"/>
					<polygon class="st2" points="207.5,-155.6 177.4,78 224.6,-152.7 					"/>
					<polygon class="st2" points="137.6,-154.1 177.4,78 154.9,-156.4 					"/>
					<polygon class="st2" points="71.3,-132.2 177.4,78 87.1,-139.5 					"/>
					<polygon class="st2" points="14.3,-91.9 177.4,78 27.3,-103.5 					"/>
					<polygon class="st2" points="-28.3,-36.6 177.4,78 -19.3,-51.5 					"/>
					<polygon class="st2" points="-52.9,28.8 177.4,78 -48.6,11.9 					"/>
					<polygon class="st2" points="-57.2,98.5 177.4,78 -58.1,81.1 					"/>
					<polygon class="st2" points="-40.9,166.4 177.4,78 -46.8,150 					"/>
					<polygon class="st2" points="-5.4,226.5 177.4,78 -15.8,212.6 					"/>
					<polygon class="st2" points="46.2,273.6 177.4,78 32.2,263.4 					"/>
					<polygon class="st2" points="109.4,303.4 177.4,78 92.9,297.8 					"/>
				</g>
			</g>
		</g>
		<g>
			<g>
				<defs>
					<path id="SVGID_00000130618024611803953390000003373398102181097882_" d="M220.6,64.5l-1.6,0.2c0,0.2,0,0.5,0.1,0.7
						c2.5,22.4,22.6,38.6,45.1,36.2c0,0,16.4-2.3,22.5-18.2c3.4-8.9,1.8-17.7,1.8-17.7c-1.1-10.4-7.1-18.5-15.5-22.3
						c-6-2.7-14.1-2.3-19.1-1.8c0,0-7.7,0.6-14.5,1.7v0l-20.7,2.3 M219.2,52.2L219.2,52.2l2.6-0.3c-1.2,1.8-2,3.8-2.5,5.9l0.5,0l0,0
						"/>
				</defs>
				<use xlink:href="#SVGID_00000130618024611803953390000003373398102181097882_"  style="overflow:visible;fill:#FFFFFF;"/>
				<clipPath id="SVGID_00000132802401049361997190000015306455216087592112_">
					<use xlink:href="#SVGID_00000130618024611803953390000003373398102181097882_"  style="overflow:visible;"/>
				</clipPath>
				<g style="clip-path:url(#SVGID_00000132802401049361997190000015306455216087592112_);">
					<polygon class="st2" points="270.3,158 256.8,71.7 276.6,156.8 					"/>
					<polygon class="st2" points="244.4,158.1 256.8,71.7 250.8,158.8 					"/>
					<polygon class="st2" points="219.6,150.6 256.8,71.7 225.5,153.2 					"/>
					<polygon class="st2" points="198,136.2 256.8,71.7 202.9,140.4 					"/>
					<polygon class="st2" points="181.7,116.2 256.8,71.7 185.2,121.6 					"/>
					<polygon class="st2" points="171.9,92.2 256.8,71.7 173.7,98.4 					"/>
					<polygon class="st2" points="169.6,66.3 256.8,71.7 169.5,72.8 					"/>
					<polygon class="st2" points="175.1,41 256.8,71.7 173,47.1 					"/>
					<polygon class="st2" points="187.6,18.4 256.8,71.7 183.9,23.6 					"/>
					<polygon class="st2" points="206.3,0.4 256.8,71.7 201.2,4.3 					"/>
					<polygon class="st2" points="229.4,-11.3 256.8,71.7 223.4,-9 					"/>
					<polygon class="st2" points="255,-15.7 256.8,71.7 248.5,-15.3 					"/>
					<polygon class="st2" points="280.7,-12.4 256.8,71.7 274.4,-13.9 					"/>
					<polygon class="st2" points="304.3,-1.7 256.8,71.7 298.7,-5 					"/>
					<polygon class="st2" points="323.7,15.4 256.8,71.7 319.4,10.6 					"/>
					<polygon class="st2" points="337.2,37.5 256.8,71.7 334.5,31.7 					"/>
					<polygon class="st2" points="343.7,62.6 256.8,71.7 342.8,56.2 					"/>
					<polygon class="st2" points="342.6,88.5 256.8,71.7 343.6,82.1 					"/>
					<polygon class="st2" points="333.9,112.9 256.8,71.7 336.7,107.1 					"/>
					<polygon class="st2" points="318.4,133.6 256.8,71.7 322.8,128.9 					"/>
					<polygon class="st2" points="297.5,149 256.8,71.7 303.1,145.8 					"/>
				</g>
			</g>
		</g>
	</g>
</g>
</svg>
