<svg xmlns="http://www.w3.org/2000/svg" width="30" height="30" viewBox="0 0 30 30">
  <g id="Group_40234" data-name="Group 40234" transform="translate(-4882 6119)">
    <rect id="Rectangle_10880" data-name="Rectangle 10880" width="30" height="30" transform="translate(4882 -6119)" fill="none"/>
    <g id="noun-chinese-takeout-983651" transform="translate(4757.671 -6178.729)">
      <path id="Path_68802" data-name="Path 68802" d="M245.545,358.18l-1.861,5.4a2.57,2.57,0,0,1-2.429,1.726H224.664a2.579,2.579,0,0,1-2.436-1.726l-1.854-5.4h8.834a1.287,1.287,0,0,0,1.285,1.271h4.574a1.287,1.287,0,0,0,1.285-1.271Z" transform="translate(-93.611 -280.739)" fill="#ec1579"/>
      <path id="Path_68803" data-name="Path 68803" d="M247.041,228.016H222.49l1.592-4.634a2.574,2.574,0,0,1,2.429-1.734h16.5a2.583,2.583,0,0,1,2.436,1.734Z" transform="translate(-95.533 -156.762)" fill="#ec1579"/>
      <path id="Path_68804" data-name="Path 68804" d="M228.528,308.725a1.557,1.557,0,0,1-1.511,1.6H201.079a1.6,1.6,0,0,1,0-3.2h25.937a1.558,1.558,0,0,1,1.511,1.6Z" transform="translate(-74.719 -234.379)" fill="#ec1579"/>
    </g>
  </g>
</svg>
